<svg width="26" height="22" viewBox="0 0 26 22" fill="none" xmlns="http://www.w3.org/2000/svg">
<path d="M12.8355 0C10.8122 0 9.17188 1.64028 9.17188 3.66367C9.17188 5.68704 10.8122 7.32732 12.8355 7.32732C14.8589 7.32732 16.4992 5.68704 16.4992 3.66367C16.4992 1.64028 14.8589 0 12.8355 0Z" fill="#41715D"/>
<path d="M21.0872 1.83008C19.5682 1.83008 18.3367 3.06151 18.3367 4.58057C18.3367 6.09962 19.5682 7.33106 21.0872 7.33106C22.6062 7.33106 23.8376 6.09962 23.8376 4.58057C23.8376 3.06151 22.6062 1.83008 21.0872 1.83008Z" fill="#41715D"/>
<path d="M4.58423 1.83008C3.06517 1.83008 1.83374 3.06151 1.83374 4.58057C1.83374 6.09962 3.06517 7.33106 4.58423 7.33106C6.10329 7.33106 7.33472 6.09962 7.33472 4.58057C7.33472 3.06151 6.10329 1.83008 4.58423 1.83008Z" fill="#41715D"/>
<path d="M7.33475 10.9856C7.34113 9.97838 8.15962 9.16382 9.16838 9.16382H16.503C17.5157 9.16382 18.3367 9.98478 18.3367 10.9975V16.499C18.3367 16.6888 18.3271 16.8766 18.3082 17.0614C18.2685 17.454 18.1872 17.8343 18.0693 18.1981C17.3535 20.4047 15.2809 22 12.8357 22C10.3672 22 8.2785 20.3741 7.58202 18.1348C7.4213 17.6181 7.33472 17.0687 7.33472 16.499V10.9975C7.33472 10.9935 7.33474 10.9896 7.33475 10.9856Z" fill="#41715D"/>
<path d="M5.50098 10.9975C5.50098 10.3295 5.67956 9.70324 5.99159 9.16382H1.83366C0.820966 9.16382 0 9.98478 0 10.9975V15.5822C0 18.1139 2.0524 20.1663 4.58415 20.1663C5.19131 20.1663 5.77091 20.0483 6.30124 19.8339C5.7896 18.8335 5.50098 17.6999 5.50098 16.499V10.9975Z" fill="#41715D"/>
<path d="M20.1703 10.9975V16.499C20.1703 17.6999 19.8817 18.8335 19.3701 19.8339C19.9004 20.0483 20.48 20.1663 21.0872 20.1663C23.6189 20.1663 25.6713 18.1139 25.6713 15.5822V10.9975C25.6713 9.98478 24.8504 9.16382 23.8376 9.16382H19.6796C19.9917 9.70324 20.1703 10.3295 20.1703 10.9975Z" fill="#41715D"/>
</svg>
