<svg width="26" height="22" viewBox="0 0 26 22" fill="none" xmlns="http://www.w3.org/2000/svg">
<path d="M12.8355 0C10.8122 0 9.17188 1.64028 9.17188 3.66367C9.17188 5.68704 10.8122 7.32732 12.8355 7.32732C14.8589 7.32732 16.4992 5.68704 16.4992 3.66367C16.4992 1.64028 14.8589 0 12.8355 0Z" fill="#41715D"/>
<path d="M21.0871 1.83008C19.5681 1.83008 18.3366 3.06151 18.3366 4.58057C18.3366 6.09962 19.5681 7.33106 21.0871 7.33106C22.6061 7.33106 23.8376 6.09962 23.8376 4.58057C23.8376 3.06151 22.6061 1.83008 21.0871 1.83008Z" fill="#41715D"/>
<path d="M4.58415 1.83008C3.06509 1.83008 1.83366 3.06151 1.83366 4.58057C1.83366 6.09962 3.06509 7.33106 4.58415 7.33106C6.10321 7.33106 7.33464 6.09962 7.33464 4.58057C7.33464 3.06151 6.10321 1.83008 4.58415 1.83008Z" fill="#41715D"/>
<path d="M7.33468 10.9856C7.34106 9.97838 8.15955 9.16382 9.1683 9.16382H16.5029C17.5157 9.16382 18.3366 9.98478 18.3366 10.9975V16.499C18.3366 16.6888 18.3271 16.8766 18.3082 17.0614C18.2684 17.454 18.1872 17.8343 18.0692 18.1981C17.3534 20.4047 15.2808 22 12.8356 22C10.3671 22 8.27842 20.3741 7.58195 18.1348C7.42123 17.6181 7.33464 17.0687 7.33464 16.499V10.9975C7.33464 10.9935 7.33466 10.9896 7.33468 10.9856Z" fill="#41715D"/>
<path d="M5.50098 10.9975C5.50098 10.3295 5.67956 9.70324 5.99159 9.16382H1.83366C0.820966 9.16382 0 9.98478 0 10.9975V15.5822C0 18.1139 2.0524 20.1663 4.58415 20.1663C5.19131 20.1663 5.77091 20.0483 6.30124 19.8339C5.7896 18.8335 5.50098 17.6999 5.50098 16.499V10.9975Z" fill="#41715D"/>
<path d="M20.1703 10.9975V16.499C20.1703 17.6999 19.8816 18.8335 19.37 19.8339C19.9003 20.0483 20.48 20.1663 21.0871 20.1663C23.6188 20.1663 25.6712 18.1139 25.6712 15.5822V10.9975C25.6712 9.98478 24.8503 9.16382 23.8376 9.16382H19.6796C19.9917 9.70324 20.1703 10.3295 20.1703 10.9975Z" fill="#41715D"/>
</svg>
