<svg width="17" height="17" viewBox="0 0 17 17" fill="none" xmlns="http://www.w3.org/2000/svg">
<path d="M2.42954 1H14.5706C15.3625 1 16 1.44135 16 1.98958L15.7423 7.72704H1.15709L1.0002 1.98958C0.986814 1.44142 1.63765 1 2.42954 1Z" stroke="white" stroke-opacity="0.5" stroke-width="0.648043" stroke-linecap="round" stroke-linejoin="round"/>
<path d="M15.7423 7.72705V9.50836C15.838 10.2333 14.5574 10.2246 13.7268 10.2276C10.6747 10.2385 10.0413 11.2149 10.1328 12.2627C10.2192 13.2518 10.242 13.3772 10.2616 13.9354C10.3088 15.2767 9.37544 16 8.4496 16C7.52377 16 6.59043 15.2767 6.63766 13.9354C6.65732 13.3772 6.68016 13.2517 6.76649 12.2627C6.85799 11.2149 6.22454 10.2385 3.17248 10.2276C2.34193 10.2246 1.06126 10.2333 1.15698 9.50836V7.72705" stroke="white" stroke-opacity="0.5" stroke-width="0.648043" stroke-linecap="round" stroke-linejoin="round"/>
</svg>
