<svg width="17" height="17" viewBox="0 0 17 17" fill="none" xmlns="http://www.w3.org/2000/svg">
<path d="M8.34903 0C3.73799 0 0 3.73799 0 8.34903C0 12.9601 3.73799 16.6981 8.34903 16.6981C12.9601 16.6981 16.6981 12.9601 16.6981 8.34903C16.6981 3.73799 12.9601 0 8.34903 0ZM9.39134 4.87031C9.39134 5.44595 8.92468 5.9126 8.34904 5.9126C7.77341 5.9126 7.30676 5.44595 7.30676 4.87031C7.30676 4.29467 7.77341 3.82803 8.34904 3.82803C8.92468 3.82803 9.39134 4.29467 9.39134 4.87031ZM8.34903 6.95752C8.73328 6.95752 9.04478 7.26903 9.04478 7.65328V11.8278C9.04478 12.212 8.73328 12.5235 8.34903 12.5235C7.96478 12.5235 7.65328 12.212 7.65328 11.8278V7.65328C7.65328 7.26903 7.96478 6.95752 8.34903 6.95752Z" fill="url(#paint0_linear_67_2035)"/>
<defs>
<linearGradient id="paint0_linear_67_2035" x1="8.34903" y1="0" x2="8.34903" y2="16.6981" gradientUnits="userSpaceOnUse">
<stop stop-color="#FF4B4B"/>
<stop offset="1" stop-color="#FFD3D3"/>
</linearGradient>
</defs>
</svg>
