<svg width="32" height="32" viewBox="0 0 32 32" fill="none" xmlns="http://www.w3.org/2000/svg">
<g filter="url(#filter0_d_78_1905)">
<g clip-path="url(#clip0_78_1905)">
<rect x="4" width="24" height="24" rx="12" fill="#FF78B9"/>
<path d="M23.4831 28.2086C24.2987 26.4986 22.1116 23.7539 18.598 22.078C15.0844 20.402 11.5749 20.4297 10.7592 22.1397C9.94362 23.8496 12.1307 26.5945 15.6444 28.2704C19.1579 29.9462 22.6675 29.9186 23.4831 28.2086Z" fill="black"/>
<path d="M23.9386 18.7398C22.8976 18.0913 22.8464 18.1084 22.2661 17.0673C21.6858 16.0262 20.952 15.5142 20.0986 15.3948L21.1568 23.0577C23.3754 23.7062 24.7408 22.5798 25.048 21.4705C25.3552 20.3612 24.9968 19.3884 23.9386 18.7398Z" fill="#3442D9"/>
<path d="M22.8976 19.7468C22.6074 18.501 21.8394 17.0503 20.9349 15.958C20.6108 15.5634 20.3809 15.1001 20.2626 14.6032C20.1444 14.1064 20.1408 13.5892 20.2522 13.0908L20.6277 11.3842C20.8917 10.1996 20.7509 8.96085 20.2282 7.86568C19.7053 6.7705 18.8304 5.88216 17.7434 5.34258C17.1196 5.03546 16.4407 4.85562 15.7466 4.81351C14.4405 4.71784 13.1486 5.13486 12.1449 5.97604C11.1412 6.81724 10.5048 8.01641 10.3706 9.31911C10.3423 9.53978 10.3309 9.7623 10.3365 9.98471V10.7186L10.3706 13.7906C10.4077 15.1707 10.1151 16.5397 9.5173 17.7842C9.26915 18.2779 9.08022 18.7993 8.9541 19.3372L17.2997 28.2119C21.2762 27.5463 23.768 23.7063 22.8976 19.7468Z" fill="#3442D9"/>
<path d="M17.3167 28.2119C21.2761 27.5463 23.7679 23.7063 22.8975 19.7468C22.6244 18.5692 21.9247 17.2039 21.0884 16.1458" stroke="black" stroke-miterlimit="10" stroke-linecap="round"/>
<path d="M20.2351 20.0029C21.0201 18.7059 21.3273 18.8765 22.7268 19.252C23.8532 19.5421 25.1503 21.8461 23.4265 23.0067C21.7028 24.1672 18.1871 23.4675 20.2351 20.0029Z" fill="#3442D9"/>
<path d="M16.3445 16.1776C16.5018 16.0573 16.5271 15.8264 16.4011 15.6615C16.2752 15.4969 16.0456 15.4608 15.8884 15.581C15.7313 15.7013 15.7058 15.9322 15.8318 16.0969C15.9577 16.2618 16.1873 16.2978 16.3445 16.1776Z" fill="black"/>
<path d="M18.494 16.3111C18.6512 16.1909 18.6767 15.9599 18.5507 15.7952C18.4248 15.6305 18.1952 15.5943 18.0379 15.7146C17.8807 15.8348 17.8552 16.0658 17.9812 16.2305C18.1071 16.3952 18.3367 16.4314 18.494 16.3111Z" fill="black"/>
<path d="M18.2725 16.0435C20.0986 17.5453 19.3477 18.6205 20.8154 20.8392" stroke="white" stroke-miterlimit="10" stroke-linecap="round"/>
<path d="M16.2074 19.4056C17.3338 18.6205 17.6751 18.3986 18.1018 18.4157L19.2111 18.5181L18.921 23.0237L16.105 22.9384L16.2074 19.4056Z" fill="#FFC619"/>
<path d="M21.6688 18.262C21.6901 18.2024 21.6971 18.1386 21.6896 18.0758C21.6821 18.013 21.6601 17.9528 21.6254 17.8999C21.5906 17.847 21.5442 17.8027 21.4896 17.7708C21.4348 17.7389 21.3735 17.7201 21.3104 17.7159L19.433 17.4428C19.2968 17.4283 19.1596 17.4611 19.0448 17.5357C18.9297 17.6102 18.8439 17.722 18.8016 17.8524L17.7434 21.7777C17.7223 21.8375 17.7151 21.9011 17.7226 21.9639C17.7301 22.0267 17.7521 22.087 17.7868 22.1399C17.8216 22.1928 17.868 22.237 17.9228 22.2689C17.9774 22.3008 18.0387 22.3196 18.1018 22.3239L19.9792 22.5969C20.1155 22.6115 20.2526 22.5787 20.3676 22.5041C20.4825 22.4295 20.5683 22.3177 20.6106 22.1873L21.6688 18.262Z" fill="black"/>
<path d="M21.5835 17.8696L21.7883 18.1086L21.2251 18.1598L21.5835 17.8696Z" fill="black"/>
<path d="M22.505 20.4635C22.266 20.071 22.0442 19.576 21.3956 19.4736L21.3103 20.2928L22.505 20.4635Z" fill="#FFC619"/>
<path d="M21.8564 18.484C21.8743 18.4244 21.8789 18.3616 21.8699 18.3C21.8608 18.2384 21.8385 18.1795 21.8043 18.1274C21.7702 18.0754 21.7251 18.0315 21.6722 17.9988C21.6193 17.966 21.5598 17.9452 21.498 17.9378L19.6036 17.6648C19.4679 17.6533 19.3321 17.6875 19.2179 17.7615C19.1035 17.8358 19.017 17.9457 18.9721 18.0744L17.914 21.9997C17.8961 22.0593 17.8915 22.1221 17.9005 22.1837C17.9095 22.2453 17.9319 22.3042 17.966 22.3562C18.0002 22.4083 18.0452 22.4523 18.0981 22.4849C18.1512 22.5177 18.2106 22.5385 18.2724 22.5458L20.1668 22.8018C20.2996 22.8237 20.4358 22.7955 20.5491 22.7231C20.6624 22.6506 20.7452 22.539 20.7812 22.4093L21.8564 18.484Z" fill="white"/>
<path d="M21.276 20.037L22.044 20.1565C22.1997 20.1737 22.3422 20.2514 22.4412 20.3726C22.5402 20.4939 22.5875 20.6492 22.5731 20.805C22.5692 20.8861 22.5484 20.9655 22.512 21.038C22.4755 21.1104 22.4243 21.1745 22.3617 21.2259C22.2989 21.2774 22.2261 21.3152 22.1478 21.3367C22.0696 21.3583 21.9877 21.3633 21.9075 21.3512L21.3443 21.2658C21.1694 21.2408 21.0076 21.1585 20.884 21.032C20.7606 20.9054 20.6825 20.7417 20.6616 20.5661C20.6574 20.4879 20.6712 20.4098 20.7019 20.3378C20.7326 20.2657 20.7796 20.2017 20.8388 20.1505C20.8982 20.0995 20.9685 20.0626 21.0443 20.043C21.1201 20.0234 21.1994 20.0213 21.276 20.037Z" fill="#FFC619"/>
<path d="M21.0201 21.1803L21.5492 21.2657C21.6378 21.2769 21.7228 21.3071 21.7984 21.3544C21.874 21.4017 21.9383 21.465 21.987 21.5396C22.0358 21.6143 22.0677 21.6988 22.0805 21.7871C22.0933 21.8753 22.0866 21.9652 22.0612 22.0507C22.0249 22.1883 21.9378 22.3071 21.8175 22.383C21.6972 22.459 21.5526 22.4866 21.4127 22.4603L21.0884 22.4091C20.9114 22.3847 20.7472 22.3032 20.6209 22.1769C20.4947 22.0506 20.4131 21.8864 20.3887 21.7094C20.3837 21.6294 20.3977 21.5495 20.4293 21.4758C20.461 21.4022 20.5095 21.337 20.5709 21.2855C20.6324 21.2341 20.7049 21.1977 20.7831 21.1795C20.8611 21.1612 20.9423 21.1616 21.0201 21.1803Z" fill="#FFC619"/>
<path d="M19.3647 23.1261L17.5215 22.8701L17.6068 22.1191L19.45 22.3922L19.3647 23.1261Z" fill="#FFC619"/>
<path d="M19.8085 20.1393L18.648 19.9687C18.5927 19.9612 18.5408 19.9378 18.4983 19.9016C18.456 19.8652 18.4249 19.8175 18.409 19.7639L18.3066 19.4567L18.2213 18.8252L17.5898 21.0439L19.4672 21.3169C19.6419 21.3403 19.8194 21.3041 19.9712 21.2144C20.1229 21.1246 20.24 20.9865 20.3034 20.822C20.3238 20.744 20.3265 20.6624 20.3116 20.5832C20.2966 20.504 20.2644 20.4291 20.2171 20.3639C20.1698 20.2986 20.1085 20.2446 20.0381 20.2059C19.9674 20.167 19.8891 20.1443 19.8085 20.1393Z" fill="#FFC619"/>
<path d="M19.433 21.2999L17.5898 21.0439L17.6752 22.2727L19.0917 22.4775C19.2646 22.5033 19.4409 22.4678 19.5904 22.3775C19.7399 22.2873 19.8532 22.1475 19.9109 21.9826C19.9343 21.9058 19.9399 21.8247 19.9275 21.7454C19.9148 21.666 19.8843 21.5908 19.8384 21.5249C19.7923 21.4592 19.7319 21.4047 19.6616 21.3657C19.5914 21.3267 19.5133 21.3042 19.433 21.2999Z" fill="#FFC619"/>
<path d="M32.5061 28.8263C32.5573 26.9831 31.0384 26.6929 29.9973 26.0444C28.9562 25.3959 27.7274 24.0305 26.4474 23.1089C25.1674 22.1873 24.0581 22.2044 21.8906 22.87L24.3653 27.6828C25.7648 28.3996 26.072 29.1847 26.8229 30.2428C27.5738 31.3009 28.5808 31.7105 29.5877 31.5228C30.1168 32.3932 30.2192 32.598 30.9872 32.3249C31.7552 32.0519 33.0181 31.4716 33.3594 30.4647C33.7008 29.4577 33.2058 29.2871 32.5061 28.8263Z" fill="#66BCFF"/>
<path d="M24.2628 24.8496C24.0335 25.5823 23.8848 26.3377 23.8191 27.1024" stroke="black" stroke-width="2" stroke-miterlimit="10" stroke-linecap="round"/>
<path d="M25.2697 33.7243C23.7166 35.1238 22.4025 34.7313 21.7881 34.663C21.1737 34.5947 21.242 34.151 21.1908 33.7755C21.1396 33.4001 21.1054 32.8369 21.1054 32.8369C19.5524 32.7345 19.3646 31.6763 19.3305 30.7377C19.2964 29.799 19.0574 29.6625 18.938 28.9969C17.0654 28.6605 15.2956 27.8976 13.7654 26.7669C12.2352 25.6364 10.9861 24.1685 10.1145 22.4774L11.7358 21.2998L15.354 23.655C17.7945 22.7505 19.1428 22.2897 20.4569 22.2043C21.771 22.119 23.0681 22.6139 23.4948 24.4401C23.9214 26.2662 23.9726 26.8294 24.3652 27.6998C24.4676 27.9217 24.6382 28.2289 24.8089 28.5531C25.2868 29.5259 25.7817 30.8913 24.8089 32.3761C24.9275 32.8367 25.0816 33.2876 25.2697 33.7243Z" fill="#8CD9FF"/>
<path d="M12.7599 25.9249C12.7087 24.7132 13.1695 23.8599 14.0058 23.7233L11.8895 22.2556L10.3535 22.9212C10.746 24.0135 11.753 25.2081 12.7599 25.9249Z" fill="black"/>
<path d="M16.2415 19.1665C15.7466 18.7398 15.3711 18.774 14.7738 19.03C14.1423 18.4497 13.3231 18.3644 12.4698 18.6545C11.6164 18.9446 10.3023 19.3372 9.53429 19.542C9.49145 19.558 9.44486 19.5613 9.40014 19.5515C9.35543 19.5416 9.31447 19.5193 9.28204 19.487C9.24978 19.4546 9.22743 19.4136 9.2177 19.3689C9.2078 19.3242 9.21121 19.2776 9.22709 19.2348L9.79029 17.1868C7.96415 18.5521 7.36682 21.4705 7.94709 23.0577C8.52735 24.6449 11.0532 24.6278 11.8554 24.1841C12.6575 23.7404 12.9306 23.6038 13.8522 23.7745C14.7738 23.9452 15.4906 24.0646 16.7023 23.143L17.4191 22.9041C17.6922 21.351 17.4532 20.2246 16.2415 19.1665Z" fill="#3442D9"/>
<path d="M16.2416 19.1665C15.7467 18.7398 15.3712 18.774 14.7739 19.03C14.1424 18.4497 13.3232 18.3644 12.4699 18.6545C11.6166 18.9446 10.3024 19.3372 9.53442 19.542" stroke="black" stroke-miterlimit="10" stroke-linecap="round"/>
<path d="M14.7737 19.03C15.2835 19.4248 15.7079 19.9187 16.0218 20.4817C16.3356 21.0449 16.5322 21.6658 16.5998 22.3068" stroke="black" stroke-miterlimit="10" stroke-linecap="round"/>
<path d="M19.945 18.5182C19.9527 18.4946 19.9552 18.4697 19.9523 18.445C19.9494 18.4204 19.9412 18.3967 19.9281 18.3757C19.9151 18.3545 19.8977 18.3364 19.877 18.3228C19.8564 18.3091 19.833 18.3001 19.8084 18.2963H19.6378C19.5903 18.2859 19.5407 18.2944 19.4994 18.3199C19.4579 18.3453 19.428 18.3858 19.4159 18.4329L19.2623 18.9961C19.2545 19.021 19.2524 19.0473 19.2563 19.073C19.2603 19.0988 19.27 19.1232 19.2847 19.1447C19.2995 19.166 19.3191 19.1838 19.3418 19.1966C19.3645 19.2092 19.39 19.2166 19.4159 19.2179H19.5866C19.6315 19.2237 19.6769 19.213 19.7146 19.1879C19.7521 19.1628 19.7794 19.1251 19.7914 19.0814L19.945 18.5182Z" fill="#29CC7A"/>
<path d="M17.2143 15.2413C17.3462 14.9742 17.5409 14.7432 17.7816 14.5678C18.0224 14.3925 18.3021 14.2781 18.5967 14.2344C18.6308 14.2344 18.6479 14.2003 18.6308 14.1832C18.409 13.364 18.5114 12.9032 18.8015 12.3059C18.8044 12.3015 18.8063 12.2966 18.807 12.2915C18.8076 12.2863 18.8071 12.281 18.8056 12.2761C18.8039 12.2712 18.8011 12.2667 18.7974 12.2629C18.7938 12.2592 18.7894 12.2564 18.7844 12.2547C17.8287 11.8451 17.4703 11.1624 17.3679 10.6504C17.3508 10.6163 17.2996 10.5992 17.2826 10.6334C16.8559 11.4867 16.2756 11.5208 15.7807 11.4526C15.7466 11.4526 15.7295 11.4867 15.7466 11.5038C16.2415 12.4595 15.8831 13.1422 15.3882 13.62C15.3856 13.6267 15.3842 13.6339 15.3846 13.6411C15.3849 13.6483 15.3868 13.6553 15.39 13.6618C15.3933 13.6682 15.3977 13.6739 15.4033 13.6785C15.4088 13.683 15.4153 13.6864 15.4223 13.6883C16.378 13.859 16.89 14.4904 17.129 15.2243C17.146 15.2584 17.1972 15.2755 17.2143 15.2413Z" fill="#FFC619"/>
<path d="M19.433 21.2999L18.4602 21.1633" stroke="black" stroke-miterlimit="10" stroke-linecap="round"/>
<path d="M21.208 21.2488L21.7541 21.3341" stroke="black" stroke-miterlimit="10" stroke-linecap="round"/>
<path d="M17.3337 10.6162C17.7604 9.66045 17.7263 8.99485 17.6068 8.61938" stroke="black" stroke-miterlimit="10" stroke-linecap="round"/>
<path d="M18.699 12.2887C18.9652 12.3295 19.2373 12.3126 19.4963 12.2389C19.7556 12.1653 19.9959 12.0368 20.2008 11.8621" stroke="black" stroke-miterlimit="10" stroke-linecap="round"/>
<path d="M17.2143 15.2412C17.2156 15.3682 17.1984 15.4948 17.1631 15.6167" stroke="black" stroke-miterlimit="10" stroke-linecap="round"/>
<path d="M15.4735 13.637C14.842 14.0807 13.8863 14.0124 13.2207 13.8076" stroke="black" stroke-miterlimit="10" stroke-linecap="round"/>
<path d="M15.7807 11.4524C15.5418 10.9575 15.0981 10.3943 14.6885 10.2065" stroke="black" stroke-miterlimit="10" stroke-linecap="round"/>
<path d="M18.6309 14.1831C18.851 14.3006 19.0865 14.3868 19.3306 14.4391" stroke="black" stroke-miterlimit="10" stroke-linecap="round"/>
<path d="M16.8046 12.3572C17.0948 13.4836 17.4702 13.4153 17.6409 13.074C17.8116 12.7326 17.931 12.306 18.2041 12.3401C18.4772 12.3742 18.4089 12.8521 18.0846 13.5348C17.7604 14.2174 17.2313 14.371 16.7364 13.7737C16.2414 13.1764 16.2244 12.5961 16.2073 12.1865C16.1902 11.7769 16.6169 11.6745 16.8046 12.3572Z" fill="#C40655"/>
<path d="M16.1219 15.907C16.3267 18.2622 15.1321 19.3886 14.7566 21.7267" stroke="white" stroke-miterlimit="10" stroke-linecap="round"/>
<path d="M18.8015 29.0139C18.4943 28.007 18.3578 26.1638 19.1941 24.5425" stroke="black" stroke-width="2" stroke-miterlimit="10" stroke-linecap="round"/>
<path d="M10.1999 19.3542L8.93701 19.7638" stroke="black" stroke-miterlimit="10" stroke-linecap="round"/>
<path d="M22.7439 19.2007L23.5972 19.4396" stroke="black" stroke-miterlimit="10" stroke-linecap="round"/>
</g>
</g>
<defs>
<filter id="filter0_d_78_1905" x="0" y="0" width="32" height="32" filterUnits="userSpaceOnUse" color-interpolation-filters="sRGB">
<feFlood flood-opacity="0" result="BackgroundImageFix"/>
<feColorMatrix in="SourceAlpha" type="matrix" values="0 0 0 0 0 0 0 0 0 0 0 0 0 0 0 0 0 0 127 0" result="hardAlpha"/>
<feOffset dy="4"/>
<feGaussianBlur stdDeviation="2"/>
<feComposite in2="hardAlpha" operator="out"/>
<feColorMatrix type="matrix" values="0 0 0 0 0 0 0 0 0 0 0 0 0 0 0 0 0 0 0.25 0"/>
<feBlend mode="normal" in2="BackgroundImageFix" result="effect1_dropShadow_78_1905"/>
<feBlend mode="normal" in="SourceGraphic" in2="effect1_dropShadow_78_1905" result="shape"/>
</filter>
<clipPath id="clip0_78_1905">
<rect x="4" width="24" height="24" rx="12" fill="white"/>
</clipPath>
</defs>
</svg>
