<svg width="32" height="32" viewBox="0 0 32 32" fill="none" xmlns="http://www.w3.org/2000/svg">
<g filter="url(#filter0_d_70_2757)">
<g clip-path="url(#clip0_70_2757)">
<rect x="4" width="24" height="24" rx="12" fill="#FF78B9"/>
<path d="M23.483 28.2086C24.2986 26.4986 22.1115 23.7539 18.5978 22.078C15.0843 20.402 11.5747 20.4297 10.7591 22.1397C9.9435 23.8496 12.1306 26.5945 15.6443 28.2704C19.1578 29.9462 22.6674 29.9186 23.483 28.2086Z" fill="black"/>
<path d="M23.9385 18.7398C22.8974 18.0913 22.8462 18.1084 22.266 17.0673C21.6857 16.0262 20.9518 15.5142 20.0985 15.3948L21.1566 23.0577C23.3753 23.7062 24.7406 22.5798 25.0478 21.4705C25.355 20.3612 24.9966 19.3884 23.9385 18.7398Z" fill="#3442D9"/>
<path d="M22.8974 19.7468C22.6073 18.501 21.8393 17.0503 20.9348 15.958C20.6107 15.5634 20.3808 15.1001 20.2625 14.6032C20.1443 14.1064 20.1407 13.5892 20.2521 13.0908L20.6276 11.3842C20.8916 10.1996 20.7508 8.96085 20.2281 7.86568C19.7051 6.7705 18.8303 5.88216 17.7433 5.34258C17.1195 5.03546 16.4406 4.85562 15.7465 4.81351C14.4404 4.71784 13.1485 5.13486 12.1448 5.97604C11.1411 6.81724 10.5047 8.01641 10.3705 9.31911C10.3422 9.53978 10.3307 9.7623 10.3364 9.98471V10.7186L10.3705 13.7906C10.4075 15.1707 10.115 16.5397 9.51718 17.7842C9.26903 18.2779 9.0801 18.7993 8.95398 19.3372L17.2996 28.2119C21.2761 27.5463 23.7678 23.7063 22.8974 19.7468Z" fill="#3442D9"/>
<path d="M17.3167 28.2119C21.2761 27.5463 23.7679 23.7063 22.8975 19.7468C22.6244 18.5692 21.9247 17.2039 21.0884 16.1458" stroke="black" stroke-miterlimit="10" stroke-linecap="round"/>
<path d="M20.235 20.0029C21.0201 18.7059 21.3273 18.8765 22.7267 19.252C23.8531 19.5421 25.1502 21.8461 23.4265 23.0067C21.7027 24.1672 18.187 23.4675 20.235 20.0029Z" fill="#3442D9"/>
<path d="M16.3443 16.1776C16.5017 16.0573 16.527 15.8264 16.401 15.6615C16.275 15.4969 16.0455 15.4608 15.8883 15.581C15.7311 15.7013 15.7057 15.9322 15.8317 16.0969C15.9576 16.2618 16.1872 16.2978 16.3443 16.1776Z" fill="black"/>
<path d="M18.494 16.3111C18.6512 16.1909 18.6767 15.9599 18.5507 15.7952C18.4248 15.6305 18.1952 15.5943 18.0379 15.7146C17.8807 15.8348 17.8552 16.0658 17.9812 16.2305C18.1071 16.3952 18.3367 16.4314 18.494 16.3111Z" fill="black"/>
<path d="M18.2723 16.0435C20.0985 17.5453 19.3475 18.6205 20.8153 20.8392" stroke="white" stroke-miterlimit="10" stroke-linecap="round"/>
<path d="M16.2073 19.4056C17.3337 18.6205 17.6751 18.3986 18.1017 18.4157L19.2111 18.5181L18.9209 23.0237L16.1049 22.9384L16.2073 19.4056Z" fill="#FFC619"/>
<path d="M21.6686 18.262C21.69 18.2024 21.697 18.1386 21.6895 18.0758C21.682 18.013 21.6599 17.9528 21.6253 17.8999C21.5905 17.847 21.5441 17.8027 21.4895 17.7708C21.4347 17.7389 21.3734 17.7201 21.3102 17.7159L19.4329 17.4428C19.2967 17.4283 19.1595 17.4611 19.0446 17.5357C18.9296 17.6102 18.8438 17.722 18.8015 17.8524L17.7433 21.7777C17.7222 21.8375 17.715 21.9011 17.7225 21.9639C17.73 22.0267 17.752 22.087 17.7867 22.1399C17.8215 22.1928 17.8679 22.237 17.9227 22.2689C17.9773 22.3008 18.0386 22.3196 18.1017 22.3239L19.9791 22.5969C20.1154 22.6115 20.2525 22.5787 20.3675 22.5041C20.4823 22.4295 20.5682 22.3177 20.6105 22.1873L21.6686 18.262Z" fill="black"/>
<path d="M21.5833 17.8696L21.7881 18.1086L21.2249 18.1598L21.5833 17.8696Z" fill="black"/>
<path d="M22.5049 20.4635C22.266 20.071 22.0441 19.576 21.3956 19.4736L21.3102 20.2928L22.5049 20.4635Z" fill="#FFC619"/>
<path d="M21.8564 18.484C21.8743 18.4244 21.8789 18.3616 21.8699 18.3C21.8608 18.2384 21.8385 18.1795 21.8043 18.1274C21.7702 18.0754 21.7251 18.0315 21.6722 17.9988C21.6193 17.966 21.5598 17.9452 21.498 17.9378L19.6036 17.6648C19.4679 17.6533 19.3321 17.6875 19.2179 17.7615C19.1035 17.8358 19.017 17.9457 18.9721 18.0744L17.914 21.9997C17.8961 22.0593 17.8915 22.1221 17.9005 22.1837C17.9095 22.2453 17.9319 22.3042 17.966 22.3562C18.0002 22.4083 18.0452 22.4523 18.0981 22.4849C18.1512 22.5177 18.2106 22.5385 18.2724 22.5458L20.1668 22.8018C20.2996 22.8237 20.4358 22.7955 20.5491 22.7231C20.6624 22.6506 20.7452 22.539 20.7812 22.4093L21.8564 18.484Z" fill="white"/>
<path d="M21.2761 20.037L22.0441 20.1565C22.1998 20.1737 22.3423 20.2514 22.4412 20.3726C22.5402 20.4939 22.5875 20.6492 22.5732 20.805C22.5692 20.8861 22.5484 20.9655 22.5121 21.038C22.4756 21.1104 22.4244 21.1745 22.3617 21.2259C22.2989 21.2774 22.2262 21.3152 22.1479 21.3367C22.0697 21.3583 21.9878 21.3633 21.9076 21.3512L21.3444 21.2658C21.1694 21.2408 21.0076 21.1585 20.8841 21.032C20.7607 20.9054 20.6825 20.7417 20.6617 20.5661C20.6574 20.4879 20.6713 20.4098 20.702 20.3378C20.7327 20.2657 20.7796 20.2017 20.8389 20.1505C20.8982 20.0995 20.9686 20.0626 21.0443 20.043C21.1201 20.0234 21.1995 20.0213 21.2761 20.037Z" fill="#FFC619"/>
<path d="M21.0201 21.1803L21.5492 21.2657C21.6378 21.2769 21.7228 21.3071 21.7984 21.3544C21.874 21.4017 21.9383 21.465 21.987 21.5396C22.0358 21.6143 22.0677 21.6988 22.0805 21.7871C22.0933 21.8753 22.0866 21.9652 22.0612 22.0507C22.0249 22.1883 21.9378 22.3071 21.8175 22.383C21.6972 22.459 21.5526 22.4866 21.4127 22.4603L21.0884 22.4091C20.9114 22.3847 20.7472 22.3032 20.6209 22.1769C20.4947 22.0506 20.4131 21.8864 20.3887 21.7094C20.3837 21.6294 20.3977 21.5495 20.4293 21.4758C20.461 21.4022 20.5095 21.337 20.5709 21.2855C20.6324 21.2341 20.7049 21.1977 20.7831 21.1795C20.8611 21.1612 20.9423 21.1616 21.0201 21.1803Z" fill="#FFC619"/>
<path d="M19.3646 23.1261L17.5214 22.8701L17.6068 22.1191L19.45 22.3922L19.3646 23.1261Z" fill="#FFC619"/>
<path d="M19.8083 20.1393L18.6478 19.9687C18.5925 19.9612 18.5406 19.9378 18.4981 19.9016C18.4558 19.8652 18.4247 19.8175 18.4089 19.7639L18.3065 19.4567L18.2211 18.8252L17.5897 21.0439L19.467 21.3169C19.6418 21.3403 19.8193 21.3041 19.971 21.2144C20.1227 21.1246 20.2398 20.9865 20.3033 20.822C20.3236 20.744 20.3263 20.6624 20.3115 20.5832C20.2964 20.504 20.2642 20.4291 20.2169 20.3639C20.1696 20.2986 20.1084 20.2446 20.0379 20.2059C19.9672 20.167 19.8889 20.1443 19.8083 20.1393Z" fill="#FFC619"/>
<path d="M19.4329 21.2999L17.5897 21.0439L17.675 22.2727L19.0915 22.4775C19.2644 22.5033 19.4407 22.4678 19.5902 22.3775C19.7397 22.2873 19.853 22.1475 19.9107 21.9826C19.9341 21.9058 19.9397 21.8247 19.9273 21.7454C19.9147 21.666 19.8841 21.5908 19.8382 21.5249C19.7921 21.4592 19.7317 21.4047 19.6614 21.3657C19.5912 21.3267 19.5131 21.3042 19.4329 21.2999Z" fill="#FFC619"/>
<path d="M32.506 28.8263C32.5572 26.9831 31.0382 26.6929 29.9972 26.0444C28.9561 25.3959 27.7273 24.0305 26.4473 23.1089C25.1673 22.1873 24.058 22.2044 21.8905 22.87L24.3652 27.6828C25.7646 28.3996 26.0718 29.1847 26.8228 30.2428C27.5737 31.3009 28.5806 31.7105 29.5876 31.5228C30.1166 32.3932 30.219 32.598 30.987 32.3249C31.755 32.0519 33.018 31.4716 33.3593 30.4647C33.7006 29.4577 33.2057 29.2871 32.506 28.8263Z" fill="#66BCFF"/>
<path d="M24.2628 24.8496C24.0334 25.5823 23.8847 26.3377 23.819 27.1024" stroke="black" stroke-width="2" stroke-miterlimit="10" stroke-linecap="round"/>
<path d="M25.2697 33.7243C23.7166 35.1238 22.4025 34.7313 21.7881 34.663C21.1737 34.5947 21.242 34.151 21.1908 33.7755C21.1396 33.4001 21.1054 32.8369 21.1054 32.8369C19.5524 32.7345 19.3646 31.6763 19.3305 30.7377C19.2964 29.799 19.0574 29.6625 18.938 28.9969C17.0654 28.6605 15.2956 27.8976 13.7654 26.7669C12.2352 25.6364 10.9861 24.1685 10.1145 22.4774L11.7358 21.2998L15.354 23.655C17.7945 22.7505 19.1428 22.2897 20.4569 22.2043C21.771 22.119 23.0681 22.6139 23.4948 24.4401C23.9214 26.2662 23.9726 26.8294 24.3652 27.6998C24.4676 27.9217 24.6382 28.2289 24.8089 28.5531C25.2868 29.5259 25.7817 30.8913 24.8089 32.3761C24.9275 32.8367 25.0816 33.2876 25.2697 33.7243Z" fill="#8CD9FF"/>
<path d="M12.7598 25.9249C12.7086 24.7132 13.1694 23.8599 14.0057 23.7233L11.8894 22.2556L10.3534 22.9212C10.7459 24.0135 11.7529 25.2081 12.7598 25.9249Z" fill="black"/>
<path d="M16.2414 19.1665C15.7465 18.7398 15.371 18.774 14.7737 19.03C14.1422 18.4497 13.323 18.3644 12.4697 18.6545C11.6164 18.9446 10.3022 19.3372 9.53422 19.542C9.49139 19.558 9.4448 19.5613 9.40008 19.5515C9.35537 19.5416 9.31441 19.5193 9.28198 19.487C9.24972 19.4546 9.22737 19.4136 9.21764 19.3689C9.20774 19.3242 9.21115 19.2776 9.22702 19.2348L9.79022 17.1868C7.96409 18.5521 7.36676 21.4705 7.94702 23.0577C8.52729 24.6449 11.0532 24.6278 11.8553 24.1841C12.6574 23.7404 12.9305 23.6038 13.8521 23.7745C14.7737 23.9452 15.4905 24.0646 16.7022 23.143L17.419 22.9041C17.6921 21.351 17.4532 20.2246 16.2414 19.1665Z" fill="#3442D9"/>
<path d="M16.2414 19.1665C15.7465 18.7398 15.371 18.774 14.7737 19.03C14.1422 18.4497 13.323 18.3644 12.4697 18.6545C11.6164 18.9446 10.3022 19.3372 9.53424 19.542" stroke="black" stroke-miterlimit="10" stroke-linecap="round"/>
<path d="M14.7737 19.03C15.2835 19.4248 15.7079 19.9187 16.0218 20.4817C16.3356 21.0449 16.5322 21.6658 16.5998 22.3068" stroke="black" stroke-miterlimit="10" stroke-linecap="round"/>
<path d="M19.9449 18.5182C19.9526 18.4946 19.9552 18.4697 19.9522 18.445C19.9493 18.4204 19.9412 18.3967 19.928 18.3757C19.915 18.3545 19.8976 18.3364 19.877 18.3228C19.8563 18.3091 19.833 18.3001 19.8084 18.2963H19.6377C19.5903 18.2859 19.5406 18.2944 19.4993 18.3199C19.4578 18.3453 19.428 18.3858 19.4158 18.4329L19.2622 18.9961C19.2544 19.021 19.2524 19.0473 19.2563 19.073C19.2602 19.0988 19.2699 19.1232 19.2846 19.1447C19.2995 19.166 19.3191 19.1838 19.3418 19.1966C19.3645 19.2092 19.3899 19.2166 19.4158 19.2179H19.5865C19.6314 19.2237 19.6768 19.213 19.7145 19.1879C19.7521 19.1628 19.7794 19.1251 19.7913 19.0814L19.9449 18.5182Z" fill="#29CC7A"/>
<path d="M17.2142 15.2413C17.3462 14.9742 17.5409 14.7432 17.7815 14.5678C18.0223 14.3925 18.3021 14.2781 18.5966 14.2344C18.6308 14.2344 18.6478 14.2003 18.6308 14.1832C18.4089 13.364 18.5113 12.9032 18.8014 12.3059C18.8043 12.3015 18.8062 12.2966 18.8069 12.2915C18.8076 12.2863 18.8071 12.281 18.8055 12.2761C18.8038 12.2712 18.8011 12.2667 18.7973 12.2629C18.7937 12.2592 18.7893 12.2564 18.7844 12.2547C17.8286 11.8451 17.4702 11.1624 17.3678 10.6504C17.3508 10.6163 17.2996 10.5992 17.2825 10.6334C16.8558 11.4867 16.2756 11.5208 15.7806 11.4526C15.7465 11.4526 15.7294 11.4867 15.7465 11.5038C16.2414 12.4595 15.883 13.1422 15.3881 13.62C15.3855 13.6267 15.3842 13.6339 15.3845 13.6411C15.3849 13.6483 15.3867 13.6553 15.39 13.6618C15.3932 13.6682 15.3977 13.6739 15.4033 13.6785C15.4087 13.683 15.4152 13.6864 15.4222 13.6883C16.378 13.859 16.89 14.4904 17.1289 15.2243C17.146 15.2584 17.1972 15.2755 17.2142 15.2413Z" fill="#FFC619"/>
<path d="M19.4329 21.2999L18.4601 21.1633" stroke="black" stroke-miterlimit="10" stroke-linecap="round"/>
<path d="M21.2078 21.2488L21.754 21.3341" stroke="black" stroke-miterlimit="10" stroke-linecap="round"/>
<path d="M17.3337 10.6162C17.7603 9.66045 17.7262 8.99485 17.6067 8.61938" stroke="black" stroke-miterlimit="10" stroke-linecap="round"/>
<path d="M18.699 12.2887C18.9652 12.3295 19.2373 12.3126 19.4963 12.2389C19.7556 12.1653 19.9959 12.0368 20.2008 11.8621" stroke="black" stroke-miterlimit="10" stroke-linecap="round"/>
<path d="M17.2142 15.2412C17.2156 15.3682 17.1984 15.4948 17.163 15.6167" stroke="black" stroke-miterlimit="10" stroke-linecap="round"/>
<path d="M15.4734 13.637C14.842 14.0807 13.8862 14.0124 13.2206 13.8076" stroke="black" stroke-miterlimit="10" stroke-linecap="round"/>
<path d="M15.7806 11.4524C15.5417 10.9575 15.098 10.3943 14.6884 10.2065" stroke="black" stroke-miterlimit="10" stroke-linecap="round"/>
<path d="M18.6307 14.1831C18.8509 14.3006 19.0864 14.3868 19.3305 14.4391" stroke="black" stroke-miterlimit="10" stroke-linecap="round"/>
<path d="M16.8046 12.3572C17.0948 13.4836 17.4702 13.4153 17.6409 13.074C17.8116 12.7326 17.931 12.306 18.2041 12.3401C18.4772 12.3742 18.4089 12.8521 18.0846 13.5348C17.7604 14.2174 17.2313 14.371 16.7364 13.7737C16.2414 13.1764 16.2244 12.5961 16.2073 12.1865C16.1902 11.7769 16.6169 11.6745 16.8046 12.3572Z" fill="#C40655"/>
<path d="M16.122 15.907C16.3268 18.2622 15.1321 19.3886 14.7567 21.7267" stroke="white" stroke-miterlimit="10" stroke-linecap="round"/>
<path d="M18.8014 29.0139C18.4942 28.007 18.3577 26.1638 19.1939 24.5425" stroke="black" stroke-width="2" stroke-miterlimit="10" stroke-linecap="round"/>
<path d="M10.1999 19.3542L8.93695 19.7638" stroke="black" stroke-miterlimit="10" stroke-linecap="round"/>
<path d="M22.7438 19.2007L23.5972 19.4396" stroke="black" stroke-miterlimit="10" stroke-linecap="round"/>
</g>
</g>
<defs>
<filter id="filter0_d_70_2757" x="0" y="0" width="32" height="32" filterUnits="userSpaceOnUse" color-interpolation-filters="sRGB">
<feFlood flood-opacity="0" result="BackgroundImageFix"/>
<feColorMatrix in="SourceAlpha" type="matrix" values="0 0 0 0 0 0 0 0 0 0 0 0 0 0 0 0 0 0 127 0" result="hardAlpha"/>
<feOffset dy="4"/>
<feGaussianBlur stdDeviation="2"/>
<feComposite in2="hardAlpha" operator="out"/>
<feColorMatrix type="matrix" values="0 0 0 0 0 0 0 0 0 0 0 0 0 0 0 0 0 0 0.25 0"/>
<feBlend mode="normal" in2="BackgroundImageFix" result="effect1_dropShadow_70_2757"/>
<feBlend mode="normal" in="SourceGraphic" in2="effect1_dropShadow_70_2757" result="shape"/>
</filter>
<clipPath id="clip0_70_2757">
<rect x="4" width="24" height="24" rx="12" fill="white"/>
</clipPath>
</defs>
</svg>
