<svg width="16" height="17" viewBox="0 0 16 17" fill="none" xmlns="http://www.w3.org/2000/svg">
<g clip-path="url(#clip0_84_5226)">
<path d="M8 16.4999C8.53043 16.4999 9.03914 16.2892 9.41421 15.9141C9.78929 15.539 10 15.0303 10 14.4999H6C6 15.0303 6.21071 15.539 6.58579 15.9141C6.96086 16.2892 7.46957 16.4999 8 16.4999ZM8 2.4179L7.203 2.5789C6.29896 2.7631 5.48633 3.254 4.90265 3.96852C4.31897 4.68304 4.0001 5.57728 4 6.4999C4 7.1279 3.866 8.6969 3.541 10.2419C3.381 11.0089 3.165 11.8079 2.878 12.4999H13.122C12.835 11.8079 12.62 11.0099 12.459 10.2419C12.134 8.6969 12 7.1279 12 6.4999C11.9997 5.57746 11.6807 4.68345 11.097 3.96913C10.5134 3.25482 9.70087 2.76406 8.797 2.5799L8 2.4179ZM14.22 12.4999C14.443 12.9469 14.701 13.3009 15 13.4999H1C1.299 13.3009 1.557 12.9469 1.78 12.4999C2.68 10.6999 3 7.3799 3 6.4999C3 4.0799 4.72 2.0599 7.005 1.5989C6.99104 1.45985 7.00638 1.31942 7.05003 1.18667C7.09368 1.05392 7.16467 0.931788 7.25842 0.828156C7.35217 0.724525 7.4666 0.641693 7.59433 0.585003C7.72206 0.528313 7.86026 0.499023 8 0.499023C8.13974 0.499023 8.27794 0.528313 8.40567 0.585003C8.5334 0.641693 8.64783 0.724525 8.74158 0.828156C8.83533 0.931788 8.90632 1.05392 8.94997 1.18667C8.99362 1.31942 9.00896 1.45985 8.995 1.5989C10.1253 1.8288 11.1414 2.44226 11.8712 3.3354C12.6011 4.22854 12.9999 5.34647 13 6.4999C13 7.3799 13.32 10.6999 14.22 12.4999Z" fill="#F1F1F1"/>
</g>
<defs>
<clipPath id="clip0_84_5226">
<rect width="16" height="16" fill="white" transform="translate(0 0.5)"/>
</clipPath>
</defs>
</svg>
