<svg width="16" height="17" viewBox="0 0 16 17" fill="none" xmlns="http://www.w3.org/2000/svg">
<g clip-path="url(#clip0_11_1740)">
<path d="M8 16.5C8.53043 16.5 9.03914 16.2893 9.41421 15.9142C9.78929 15.5392 10 15.0305 10 14.5H6C6 15.0305 6.21071 15.5392 6.58579 15.9142C6.96086 16.2893 7.46957 16.5 8 16.5ZM8 2.41802L7.203 2.57902C6.29896 2.76322 5.48633 3.25412 4.90265 3.96864C4.31897 4.68316 4.0001 5.57741 4 6.50002C4 7.12802 3.866 8.69702 3.541 10.242C3.381 11.009 3.165 11.808 2.878 12.5H13.122C12.835 11.808 12.62 11.01 12.459 10.242C12.134 8.69702 12 7.12802 12 6.50002C11.9997 5.57758 11.6807 4.68357 11.097 3.96926C10.5134 3.25494 9.70087 2.76419 8.797 2.58002L8 2.41802ZM14.22 12.5C14.443 12.947 14.701 13.301 15 13.5H1C1.299 13.301 1.557 12.947 1.78 12.5C2.68 10.7 3 7.38002 3 6.50002C3 4.08002 4.72 2.06002 7.005 1.59902C6.99104 1.45997 7.00638 1.31955 7.05003 1.18679C7.09368 1.05404 7.16467 0.93191 7.25842 0.828279C7.35217 0.724647 7.4666 0.641815 7.59433 0.585125C7.72206 0.528435 7.86026 0.499146 8 0.499146C8.13974 0.499146 8.27794 0.528435 8.40567 0.585125C8.5334 0.641815 8.64783 0.724647 8.74158 0.828279C8.83533 0.93191 8.90632 1.05404 8.94997 1.18679C8.99362 1.31955 9.00896 1.45997 8.995 1.59902C10.1253 1.82892 11.1414 2.44238 11.8712 3.33552C12.6011 4.22866 12.9999 5.34659 13 6.50002C13 7.38002 13.32 10.7 14.22 12.5Z" fill="#F1F1F1"/>
</g>
<defs>
<clipPath id="clip0_11_1740">
<rect width="16" height="16" fill="white" transform="translate(0 0.5)"/>
</clipPath>
</defs>
</svg>
