<svg width="24" height="24" viewBox="0 0 24 24" fill="none" xmlns="http://www.w3.org/2000/svg">
<g clip-path="url(#clip0_70_3047)">
<rect width="24" height="24" rx="12" fill="#29CC7A"/>
<path d="M18.1282 21.2361C20.1805 22.107 21.2589 23.1168 22.2676 25.1024C23.2764 27.088 24.598 29.8047 21.9548 30.8846C19.311 31.964 18.8241 28.1673 17.9546 26.7393C16.737 24.7194 16.4241 23.0471 18.1282 21.2361Z" fill="#F79C13"/>
<path d="M22.7545 30.4314C24.4243 28.9686 24.494 27.5057 24.7024 26.9835C24.9113 26.4607 25.92 24.3015 26.0941 23.5698C26.2677 22.8382 26.6502 22.3855 25.4679 21.236C24.2851 20.0866 23.624 20.3303 22.9634 21.5146L21.5374 24.2667C21.5374 24.2667 19.6587 26.217 19.4154 28.2026C19.1717 30.1877 20.9111 32.034 22.7545 30.4314Z" fill="#F79C13"/>
<path d="M17.4329 13.7125C17.7806 12.6332 18.2676 11.623 18.3372 12.3542C18.3804 13.2491 18.5201 14.1368 18.7545 15.0013C19.1022 16.0115 18.9286 16.3249 18.0935 15.5241C17.2588 14.7228 17.224 14.479 17.4329 13.7125Z" fill="#C44FA3"/>
<path d="M5.01508 36.8752C4.00634 36.5966 3.62334 35.9351 3.97152 34.8553C4.14904 34.3291 4.30008 33.7941 4.42366 33.2527C3.72779 32.6608 3.51888 31.8594 4.14512 30.0136C4.77135 28.1672 3.86706 27.0531 3.76261 24.301C3.65815 21.5494 3.17119 18.6237 7.62349 18.8326C12.0758 19.0415 16.5982 20.1562 18.5112 21.4797C20.4243 22.8033 20.0069 26.9486 20.0069 27.8539C20.0069 28.7596 20.7719 31.9291 20.7023 34.228C20.6332 36.527 12.424 38.7563 5.01508 36.8752Z" fill="#F79C13"/>
<path d="M9.67143 6.40907L9.2389 6.54049C9.12856 6.57432 9.06628 6.69104 9.09963 6.80138L9.10993 6.83473C9.14328 6.94507 9.25999 7.00734 9.37033 6.974L9.80286 6.84209C9.9132 6.80874 9.97547 6.69203 9.94164 6.58169L9.93183 6.54834C9.89799 6.43801 9.78177 6.37524 9.67143 6.40907Z" fill="#4070EF"/>
<path d="M14.5803 23.0826L16.2152 22.6991C17.4329 21.3059 18.7893 19.2163 16.4938 19.2512L12.1454 20.2609L14.5803 23.0826Z" fill="#F79C13"/>
<path d="M15.102 21.8979C15.5905 21.2191 15.9014 20.4291 16.0068 19.5994L11.7629 19.7735L15.102 21.8979Z" fill="#C44FA3"/>
<path d="M13.7108 20.2606C18.1979 20.0865 18.5804 17.509 18.5108 15.8373C18.4412 14.1655 17.6413 13.3642 16.9455 12.5982C16.2849 10.3689 15.4846 7.0945 10.4061 8.27881C6.23231 9.28902 6.05822 11.5532 5.95377 14.6181C5.84931 17.0564 6.82324 20.5745 13.7108 20.2606Z" fill="#D65A9F"/>
<path d="M15.9715 10.0204C15.1368 8.59236 13.6411 7.51251 10.406 8.279C9.90875 8.39424 9.42081 8.54529 8.94512 8.73164C8.8647 8.81598 8.81958 8.92828 8.81958 9.04548C8.81958 9.16219 8.8647 9.2745 8.94512 9.35885C10.128 10.4735 12.5628 10.8913 13.7804 10.9958C14.9976 11.1002 15.7631 11.2047 15.9715 10.0204Z" fill="#C44FA3"/>
<path d="M16.9458 12.5979C16.7673 11.9231 16.5466 11.2601 16.2848 10.6128C16.5976 11.8319 13.5714 11.7971 11.9021 11.3092C10.2323 10.8217 9.15395 11.1002 9.22358 12.389C9.3756 13.6552 9.69142 14.8964 10.1627 16.0812C10.6496 17.1959 12.0061 19.9126 15.3805 19.5993C15.8949 19.5635 16.3966 19.4247 16.8566 19.1913C17.3166 18.9578 17.7256 18.6347 18.0585 18.2409C18.4185 17.4935 18.5744 16.6643 18.5107 15.8375C18.4067 14.1657 17.8153 13.434 16.9458 12.5979Z" fill="#E66EA6"/>
<path d="M12.4367 12.5161C12.6633 12.4754 12.7844 12.0894 12.707 11.6539C12.6295 11.2185 12.3828 10.8983 12.1558 10.9385C11.9292 10.9792 11.8076 11.3651 11.8851 11.8006C11.963 12.236 12.2097 12.5568 12.4367 12.5161Z" fill="#3C2439"/>
<path d="M15.6394 12.6429C15.8478 12.6057 15.9591 12.2531 15.888 11.8554C15.8174 11.4577 15.5913 11.1654 15.3834 11.2027C15.1755 11.2394 15.0641 11.592 15.1348 11.9897C15.2054 12.3874 15.4314 12.6797 15.6394 12.6429Z" fill="#3C2439"/>
<path d="M11.7281 13.8516L16.737 14.4091C16.6326 15.3149 16.737 15.1403 16.8763 15.8372C17.0151 16.5335 15.7631 17.0215 14.1978 16.4639C12.6324 15.9068 12.1107 14.7573 11.7281 13.8516Z" fill="#4D1616"/>
<path d="M14.6847 15.036H15.9715L16.1804 14.8967L16.3545 15.2802C16.3545 15.2802 15.311 15.3499 14.8936 15.315C14.4758 15.2802 14.6847 15.036 14.6847 15.036Z" fill="#A1C4FF"/>
<path d="M14.1978 16.464C14.7319 16.6617 15.2983 16.7563 15.8676 16.7431C15.5199 15.9069 14.6151 15.2101 13.4676 14.8967H12.2848C12.7095 15.6362 13.3901 16.1938 14.1978 16.464Z" fill="#C12254"/>
<path d="M16.737 14.4092L16.5978 15.1056C16.5894 15.1639 16.56 15.2174 16.5154 15.2561C16.4703 15.2944 16.4134 15.3155 16.3545 15.3145L16.1804 14.9315L15.9715 15.0708H14.6847C14.0585 15.0011 12.2847 14.9663 12.2847 14.9663C12.0587 14.6289 11.8718 14.2665 11.7281 13.8865L16.737 14.4092Z" fill="white"/>
<path d="M12.2847 14.9755H12.7369L12.4583 13.931L11.7281 13.8613C11.8694 14.2532 12.0562 14.6273 12.2847 14.9755Z" fill="#E6EAF0"/>
<path d="M7.62341 16.4993C6.54699 16.716 5.45145 16.821 4.35395 16.8126C4.24949 16.7778 4.14504 16.7082 4.14504 16.6037C4.17986 15.9417 4.0754 14.9663 3.27557 14.5137C3.22261 14.4671 3.18681 14.4038 3.17406 14.3342C3.16131 14.2645 3.17259 14.1929 3.20593 14.1307C3.58844 13.6079 3.65808 13.1553 3.44917 12.0058C3.41435 11.9013 3.5188 11.7969 3.65808 11.7969C4.9944 11.97 6.31111 12.273 7.58859 12.7026C7.61017 12.7188 7.62782 12.7399 7.64008 12.7639C7.65185 12.788 7.65823 12.8149 7.65823 12.8419C7.48267 13.9767 7.59055 15.1374 7.9711 16.2202C8.04074 16.3595 8.00592 16.3948 7.62341 16.4993Z" fill="#D65A9F"/>
<path d="M6.75415 10.4733C9.91916 8.59217 11.6238 8.48771 14.6848 8.62698C13.8153 7.05968 12.7021 5.97984 9.81519 6.71151C6.92775 7.44269 6.75415 10.4733 6.75415 10.4733Z" fill="#4070EF"/>
<path d="M9.81496 6.71163H9.64087C10.3068 7.20056 10.7658 7.92094 10.9277 8.73206H10.9625C12.1934 8.53933 13.4429 8.49225 14.6846 8.59229C13.8151 7.05981 12.7019 5.97997 9.81496 6.71163Z" fill="white"/>
<path d="M15.6935 9.60238C15.4292 9.21006 15.0854 8.87806 14.6847 8.62747C13.4431 8.52694 12.194 8.57402 10.9631 8.76674L13.2587 8.10471C16.459 7.40835 17.1196 8.00026 17.0156 8.48771C16.9111 8.97565 16.5286 9.21938 15.6935 9.60238Z" fill="#0F809C"/>
<path d="M15.6933 7.79138C14.4414 7.72175 13.8499 8.13955 12.9108 8.69664C11.9712 9.25422 11.241 9.6024 8.94501 9.35868C11.6584 8.27883 14.4757 7.68693 15.6933 7.79138Z" fill="#13B7BF"/>
<path d="M5.11909 19.2162C3.20606 20.226 2.57982 21.7589 2.19732 22.7687C1.81481 23.7789 0.910029 24.4061 0.0405594 25.6252C-0.82891 26.8443 -0.516039 27.9237 -0.272313 28.3768C-0.029077 28.8294 -0.13304 30.0834 0.979666 30.4316C2.09286 30.7802 3.79748 30.8847 4.70176 30.9195C5.45893 30.9465 6.21365 31.0161 6.96248 31.1284C7.65835 31.1981 8.07568 30.7106 8.28459 29.9441C8.493 29.1776 8.97997 27.1925 7.72799 27.1925H5.88459C5.634 27.0106 5.35055 26.8801 5.04945 26.809C5.29024 26.7124 5.49914 26.5506 5.65313 26.3412C5.80662 26.1323 5.89881 25.8841 5.91892 25.6252C6.46816 25.2334 6.92031 24.7209 7.24103 24.1271C7.44945 23.6744 8.07568 22.5946 7.79762 21.3058C7.51908 20.0171 6.37156 18.5542 5.11909 19.2162Z" fill="#F79C13"/>
<path d="M6.33687 18.8676C6.12797 18.1713 6.54529 17.6137 7.58885 17.3003C8.63241 16.987 9.91921 17.6137 12.2849 19.6689C14.65 21.7237 15.1022 21.8978 15.1022 21.8978L14.5804 23.0821L6.33687 18.8676Z" fill="#F79C13"/>
<path d="M4.5624 19.5643C5.95365 19.4599 6.99721 20.9227 6.89276 22.7337C6.78879 24.5453 6.44061 25.1372 5.91883 25.5903C6.23563 25.5408 6.53722 25.4211 6.80204 25.2406C7.06685 25.0597 7.28802 24.8223 7.44936 24.5452C8.03244 23.5591 8.20702 22.3841 7.93632 21.2709C7.65827 19.808 6.92758 19.0769 5.64078 18.9371C5.46375 18.9082 5.2823 18.9327 5.119 19.0072C4.66686 19.2161 4.52759 19.3554 4.5624 19.5643Z" fill="#3C2439"/>
<path d="M25.9869 22.7804C26.1418 22.6362 25.8432 22.0625 25.3199 21.499C24.7972 20.9351 24.2474 20.5947 24.0925 20.7389C23.938 20.8831 24.2366 21.4568 24.7594 22.0203C25.2827 22.5842 25.8319 22.9241 25.9869 22.7804Z" fill="#D65A9F"/>
<path d="M24.042 20.8881C24.0768 20.331 24.1116 20.0171 24.1116 20.0171C23.7404 19.6253 23.4138 19.1928 23.1372 18.7284C23.0136 18.4876 22.8744 18.2547 22.7199 18.032C22.6767 17.9624 22.6571 17.8815 22.663 17.8001C22.6694 17.7182 22.7018 17.6412 22.7547 17.5789C22.8489 17.5078 22.9622 17.4666 23.0798 17.4602C23.1975 17.4543 23.3147 17.4833 23.4158 17.5441C23.7105 17.7554 23.9792 18.0011 24.2156 18.2757L24.529 18.5891C25.6073 19.1467 25.6765 19.6341 25.7113 20.2962C25.7461 20.9577 25.6765 21.9331 25.6765 21.9331L24.042 20.8881Z" fill="#D65A9F"/>
<path d="M24.1458 19.1814C24.0414 18.4497 23.7633 17.8578 23.6241 16.952C23.4848 16.0463 23.4848 16.1159 23.45 15.8722C23.4456 15.831 23.449 15.7893 23.4603 15.7496C23.4716 15.7094 23.4907 15.6721 23.5167 15.6398C23.5427 15.6074 23.5745 15.5804 23.6108 15.5608C23.6471 15.5407 23.6873 15.5284 23.7285 15.524C23.8423 15.5113 23.9575 15.5392 24.0527 15.603C24.1483 15.6667 24.2184 15.7619 24.2503 15.8722L24.7025 17.6141L26.0589 18.6586C26.5458 19.0421 26.7896 19.7037 26.6155 20.8183C26.4649 21.4931 26.2673 22.1566 26.0241 22.8039L24.0414 20.8879L24.1458 19.1814Z" fill="#D65A9F"/>
<path d="M11.7281 12.1799L16.1108 12.3889L16.5281 13.225L11.7281 12.7027V12.1799Z" fill="#E66EA6"/>
<path d="M14.6499 17.3351C15.208 17.4097 15.7753 17.3743 16.3197 17.2307C16.6326 17.1262 16.4585 17.5092 16.1108 17.6833C15.9274 17.8034 15.7165 17.876 15.4978 17.8942C15.2791 17.9123 15.0594 17.876 14.8588 17.7882C14.4758 17.544 14.3718 17.3003 14.6499 17.3351Z" fill="#C44FA3"/>
<path d="M11.8326 14.1306L16.7022 14.5136L16.737 14.4091L11.7281 13.8516L11.8326 14.1306Z" fill="#5E1B1B"/>
<path d="M11.276 14.4094C12.0758 14.2353 11.9365 13.6777 11.8674 13.3992C11.7977 13.1206 11.7629 13.2947 11.6585 13.5732C11.555 13.8145 11.4138 14.0376 11.2411 14.2353C11.1367 14.3397 11.1367 14.4442 11.276 14.4094Z" fill="#C44FA3"/>
<path d="M7.62351 16.4991C6.54759 16.7163 5.45156 16.8213 4.35405 16.8129H4.04118C4.00636 16.7433 4.00636 16.7085 4.14514 16.6737C4.84101 16.5339 5.84975 16.2553 6.75404 16.0116C6.84722 15.9778 6.92715 15.9145 6.9806 15.8311C7.03455 15.7473 7.05907 15.6487 7.05122 15.5497C7.04338 15.4506 7.00316 15.3569 6.93696 15.2834C6.87076 15.2093 6.782 15.1593 6.68441 15.1407L3.27567 14.5488C2.9628 14.5139 2.9628 14.2702 3.20604 14.2006L6.40635 13.8867C6.48923 13.896 6.5726 13.872 6.63782 13.8196C6.70304 13.7676 6.74472 13.6916 6.75404 13.6082C6.76336 13.5253 6.73933 13.442 6.68686 13.3762C6.63488 13.311 6.55886 13.2693 6.47599 13.26L4.28441 12.598C3.693 12.4587 3.5194 12.3194 3.44976 12.1105C3.41495 12.0061 3.5194 11.9016 3.65818 11.9016C4.99499 12.0747 6.31122 12.3778 7.5887 12.8074C7.61076 12.8236 7.62793 12.8446 7.64019 12.8687C7.65195 12.8927 7.65833 12.9197 7.65833 12.9466C7.48326 14.0814 7.59066 15.2422 7.97169 16.325C8.04133 16.3598 8.00651 16.3946 7.62351 16.4991Z" fill="#C44FA3"/>
<path d="M26.4419 19.4947C26.5459 20.1215 26.2678 20.1563 26.0589 19.7733C25.8505 19.3903 25.5372 19.0421 24.6677 18.8327C24.4848 18.5787 24.2749 18.3453 24.0415 18.1364C23.935 17.7254 23.8654 17.3056 23.833 16.8824C23.7982 16.6735 23.5893 15.8026 23.9027 15.7329C23.9463 15.7148 23.9939 15.7084 24.041 15.7143C24.088 15.7202 24.1332 15.7378 24.1714 15.7658C24.2097 15.7932 24.2401 15.8305 24.2602 15.8737C24.2803 15.9168 24.2886 15.9644 24.2852 16.0115C24.32 16.2204 24.7721 17.823 24.7721 17.823C24.8379 17.2904 24.9546 16.7657 25.1198 16.2552C25.2243 16.0811 25.6764 16.1159 25.6416 16.569C25.6068 17.0217 25.468 18.1015 25.468 18.1015L26.2678 17.4395C26.3723 17.3699 26.6155 17.1958 26.6852 17.335C26.7548 17.4743 26.7548 17.6136 26.6504 17.718C26.5459 17.823 25.955 18.4497 25.955 18.4497C26.1747 18.768 26.339 19.1215 26.4419 19.4947Z" fill="#E66EA6"/>
<path d="M17.4671 20.8878C19.2065 22.7337 19.9367 25.625 20.0064 27.8539C20.3546 26.9834 20.6326 23.7787 18.928 21.6195C18.5803 21.1664 17.5367 20.7485 17.5367 20.7485L17.4671 20.8878Z" fill="#3C2439"/>
<path d="M6.33667 18.8675C7.62347 18.8326 8.4233 18.9371 9.01471 19.5991C9.60613 20.2607 10.5801 21.6191 13.2934 22.4552C13.9888 22.6641 13.7456 22.7337 12.7368 22.5945C11.5751 22.4596 10.4579 22.0668 9.46686 21.445C8.76069 20.8658 8.11925 20.2121 7.55383 19.4946C7.31402 19.2063 6.98252 19.0097 6.61472 18.9371L6.33667 18.8675Z" fill="#F08024"/>
<path d="M17.4672 20.8879C16.9455 21.7589 16.3197 22.4901 16.563 22.4901C16.8067 22.4901 17.6413 21.6544 17.8502 21.3406L17.4672 20.8879Z" fill="#F08024"/>
<path d="M16.8068 25.1024C16.5635 24.0922 15.5548 22.8736 15.5548 22.8736C15.5548 22.8736 17.2241 23.6396 17.2937 22.6642C17.3634 21.6893 16.2154 22.1071 15.4852 22.7338C13.5373 21.55 12.737 21.7589 13.1543 23.0825C13.5716 24.4061 15.3807 22.9084 15.3807 22.9084C14.8648 23.9019 14.5127 24.972 14.3372 26.0778" stroke="#E6EAF0" stroke-linecap="round" stroke-linejoin="round"/>
</g>
<defs>
<clipPath id="clip0_70_3047">
<rect width="24" height="24" rx="12" fill="white"/>
</clipPath>
</defs>
</svg>
