<svg width="24" height="24" viewBox="0 0 24 24" fill="none" xmlns="http://www.w3.org/2000/svg">
<g clip-path="url(#clip0_78_2195)">
<rect width="24" height="24" rx="12" fill="#29CC7A"/>
<path d="M18.1282 21.2361C20.1805 22.107 21.2588 23.1168 22.2676 25.1024C23.2763 27.088 24.5979 29.8047 21.9547 30.8846C19.311 31.964 18.824 28.1673 17.9546 26.7393C16.7369 24.7194 16.424 23.0471 18.1282 21.2361Z" fill="#F79C13"/>
<path d="M22.7544 30.4314C24.4241 28.9686 24.4938 27.5057 24.7022 26.9835C24.9111 26.4607 25.9199 24.3015 26.0939 23.5698C26.2675 22.8382 26.65 22.3855 25.4677 21.236C24.2849 20.0866 23.6238 20.3303 22.9633 21.5146L21.5372 24.2667C21.5372 24.2667 19.6585 26.217 19.4153 28.2026C19.1715 30.1877 20.911 32.034 22.7544 30.4314Z" fill="#F79C13"/>
<path d="M17.4327 13.7125C17.7804 12.6332 18.2673 11.623 18.337 12.3542C18.3801 13.2491 18.5199 14.1368 18.7543 15.0013C19.102 16.0115 18.9284 16.3249 18.0932 15.5241C17.2586 14.7228 17.2238 14.479 17.4327 13.7125Z" fill="#C44FA3"/>
<path d="M5.01508 36.8752C4.00634 36.5966 3.62334 35.9351 3.97152 34.8553C4.14904 34.3291 4.30008 33.7941 4.42366 33.2527C3.72779 32.6608 3.51888 31.8594 4.14512 30.0136C4.77135 28.1672 3.86706 27.0531 3.76261 24.301C3.65815 21.5494 3.17119 18.6237 7.62349 18.8326C12.0758 19.0415 16.5982 20.1562 18.5112 21.4797C20.4243 22.8033 20.0069 26.9486 20.0069 27.8539C20.0069 28.7596 20.7719 31.9291 20.7023 34.228C20.6332 36.527 12.424 38.7563 5.01508 36.8752Z" fill="#F79C13"/>
<path d="M9.67137 6.40907L9.23884 6.54049C9.1285 6.57432 9.06622 6.69104 9.09957 6.80138L9.10987 6.83473C9.14321 6.94507 9.25993 7.00734 9.37027 6.974L9.8028 6.84209C9.91314 6.80874 9.97541 6.69203 9.94158 6.58169L9.93177 6.54834C9.89793 6.43801 9.78171 6.37524 9.67137 6.40907Z" fill="#4070EF"/>
<path d="M14.5801 23.0826L16.215 22.6991C17.4327 21.3059 18.7891 19.2163 16.4936 19.2512L12.1453 20.2609L14.5801 23.0826Z" fill="#F79C13"/>
<path d="M15.1018 21.8979C15.5902 21.2191 15.9011 20.4291 16.0066 19.5994L11.7627 19.7735L15.1018 21.8979Z" fill="#C44FA3"/>
<path d="M13.7107 20.2606C18.1978 20.0865 18.5803 17.509 18.5107 15.8373C18.4411 14.1655 17.6412 13.3642 16.9453 12.5982C16.2848 10.3689 15.4845 7.0945 10.4059 8.27881C6.23219 9.28902 6.0581 11.5532 5.95365 14.6181C5.84919 17.0564 6.82312 20.5745 13.7107 20.2606Z" fill="#D65A9F"/>
<path d="M15.9715 10.0204C15.1368 8.59236 13.6411 7.51251 10.406 8.279C9.90875 8.39424 9.42081 8.54529 8.94512 8.73164C8.8647 8.81598 8.81958 8.92828 8.81958 9.04548C8.81958 9.16219 8.8647 9.2745 8.94512 9.35885C10.128 10.4735 12.5628 10.8913 13.7804 10.9958C14.9976 11.1002 15.7631 11.2047 15.9715 10.0204Z" fill="#C44FA3"/>
<path d="M16.9456 12.5979C16.7671 11.9231 16.5465 11.2601 16.2846 10.6128C16.5975 11.8319 13.5712 11.7971 11.9019 11.3092C10.2321 10.8217 9.15376 11.1002 9.2234 12.389C9.37542 13.6552 9.69124 14.8964 10.1625 16.0812C10.6495 17.1959 12.0059 19.9126 15.3803 19.5993C15.8947 19.5635 16.3964 19.4247 16.8564 19.1913C17.3164 18.9578 17.7254 18.6347 18.0583 18.2409C18.4183 17.4935 18.5742 16.6643 18.5105 15.8375C18.4065 14.1657 17.8151 13.434 16.9456 12.5979Z" fill="#E66EA6"/>
<path d="M12.4366 12.5161C12.6632 12.4754 12.7843 12.0894 12.7068 11.6539C12.6294 11.2185 12.3827 10.8983 12.1556 10.9385C11.9291 10.9792 11.8075 11.3651 11.8849 11.8006C11.9629 12.236 12.2096 12.5568 12.4366 12.5161Z" fill="#3C2439"/>
<path d="M15.6394 12.6429C15.8478 12.6057 15.9591 12.2531 15.888 11.8554C15.8174 11.4577 15.5913 11.1654 15.3834 11.2027C15.1755 11.2394 15.0641 11.592 15.1348 11.9897C15.2054 12.3874 15.4314 12.6797 15.6394 12.6429Z" fill="#3C2439"/>
<path d="M11.728 13.8516L16.7369 14.4091C16.6325 15.3149 16.7369 15.1403 16.8762 15.8372C17.015 16.5335 15.763 17.0215 14.1977 16.4639C12.6323 15.9068 12.1105 14.7573 11.728 13.8516Z" fill="#4D1616"/>
<path d="M14.6845 15.036H15.9713L16.1803 14.8967L16.3543 15.2802C16.3543 15.2802 15.3108 15.3499 14.8935 15.315C14.4756 15.2802 14.6845 15.036 14.6845 15.036Z" fill="#A1C4FF"/>
<path d="M14.1977 16.464C14.7317 16.6617 15.2981 16.7563 15.8675 16.7431C15.5198 15.9069 14.615 15.2101 13.4675 14.8967H12.2847C12.7093 15.6362 13.39 16.1938 14.1977 16.464Z" fill="#C12254"/>
<path d="M16.7369 14.4092L16.5976 15.1056C16.5893 15.1639 16.5599 15.2174 16.5153 15.2561C16.4701 15.2944 16.4133 15.3155 16.3544 15.3145L16.1803 14.9315L15.9714 15.0708H14.6846C14.0584 15.0011 12.2846 14.9663 12.2846 14.9663C12.0586 14.6289 11.8717 14.2665 11.728 13.8865L16.7369 14.4092Z" fill="white"/>
<path d="M12.2846 14.9755H12.7368L12.4582 13.931L11.728 13.8613C11.8693 14.2532 12.0561 14.6273 12.2846 14.9755Z" fill="#E6EAF0"/>
<path d="M7.62341 16.4993C6.54699 16.716 5.45145 16.821 4.35395 16.8126C4.24949 16.7778 4.14504 16.7082 4.14504 16.6037C4.17986 15.9417 4.0754 14.9663 3.27557 14.5137C3.22261 14.4671 3.18681 14.4038 3.17406 14.3342C3.16131 14.2645 3.17259 14.1929 3.20593 14.1307C3.58844 13.6079 3.65808 13.1553 3.44917 12.0058C3.41435 11.9013 3.5188 11.7969 3.65808 11.7969C4.9944 11.97 6.31111 12.273 7.58859 12.7026C7.61017 12.7188 7.62782 12.7399 7.64008 12.7639C7.65185 12.788 7.65823 12.8149 7.65823 12.8419C7.48267 13.9767 7.59055 15.1374 7.9711 16.2202C8.04074 16.3595 8.00592 16.3948 7.62341 16.4993Z" fill="#D65A9F"/>
<path d="M6.75415 10.4733C9.91916 8.59217 11.6238 8.48771 14.6848 8.62698C13.8153 7.05968 12.7021 5.97984 9.81519 6.71151C6.92775 7.44269 6.75415 10.4733 6.75415 10.4733Z" fill="#4070EF"/>
<path d="M9.81471 6.71163H9.64062C10.3066 7.20056 10.7656 7.92094 10.9274 8.73206H10.9622C12.1931 8.53933 13.4427 8.49225 14.6843 8.59229C13.8149 7.05981 12.7017 5.97997 9.81471 6.71163Z" fill="white"/>
<path d="M15.6932 9.60238C15.4289 9.21006 15.0851 8.87806 14.6845 8.62747C13.4428 8.52694 12.1938 8.57402 10.9629 8.76674L13.2584 8.10471C16.4587 7.40835 17.1193 8.00026 17.0153 8.48771C16.9109 8.97565 16.5284 9.21938 15.6932 9.60238Z" fill="#0F809C"/>
<path d="M15.6931 7.79138C14.4412 7.72175 13.8497 8.13955 12.9106 8.69664C11.971 9.25422 11.2409 9.6024 8.94482 9.35868C11.6582 8.27883 14.4755 7.68693 15.6931 7.79138Z" fill="#13B7BF"/>
<path d="M5.11897 19.2162C3.20594 20.226 2.5797 21.7589 2.19719 22.7687C1.81469 23.7789 0.909907 24.4061 0.0404373 25.6252C-0.829033 26.8443 -0.516161 27.9237 -0.272435 28.3768C-0.0291991 28.8294 -0.133162 30.0834 0.979543 30.4316C2.09274 30.7802 3.79735 30.8847 4.70164 30.9195C5.45881 30.9465 6.21353 31.0161 6.96236 31.1284C7.65823 31.1981 8.07556 30.7106 8.28446 29.9441C8.49288 29.1776 8.97984 27.1925 7.72787 27.1925H5.88447C5.63388 27.0106 5.35043 26.8801 5.04933 26.809C5.29011 26.7124 5.49902 26.5506 5.653 26.3412C5.8065 26.1323 5.89869 25.8841 5.9188 25.6252C6.46804 25.2334 6.92019 24.7209 7.24091 24.1271C7.44932 23.6744 8.07555 22.5946 7.7975 21.3058C7.51896 20.0171 6.37143 18.5542 5.11897 19.2162Z" fill="#F79C13"/>
<path d="M6.33669 18.8676C6.12778 18.1713 6.54511 17.6137 7.58867 17.3003C8.63223 16.987 9.91902 17.6137 12.2847 19.6689C14.6499 21.7237 15.102 21.8978 15.102 21.8978L14.5802 23.0821L6.33669 18.8676Z" fill="#F79C13"/>
<path d="M4.56222 19.5643C5.95347 19.4599 6.99703 20.9227 6.89258 22.7337C6.78861 24.5453 6.44043 25.1372 5.91865 25.5903C6.23545 25.5408 6.53704 25.4211 6.80185 25.2406C7.06667 25.0597 7.28783 24.8223 7.44917 24.5452C8.03225 23.5591 8.20684 22.3841 7.93614 21.2709C7.65808 19.808 6.9274 19.0769 5.6406 18.9371C5.46357 18.9082 5.28212 18.9327 5.11882 19.0072C4.66668 19.2161 4.5274 19.3554 4.56222 19.5643Z" fill="#3C2439"/>
<path d="M25.9869 22.7804C26.1418 22.6362 25.8432 22.0625 25.3199 21.499C24.7972 20.9351 24.2474 20.5947 24.0925 20.7389C23.938 20.8831 24.2366 21.4568 24.7594 22.0203C25.2827 22.5842 25.8319 22.9241 25.9869 22.7804Z" fill="#D65A9F"/>
<path d="M24.0419 20.8881C24.0767 20.331 24.1115 20.0171 24.1115 20.0171C23.7403 19.6253 23.4137 19.1928 23.1371 18.7284C23.0135 18.4876 22.8743 18.2547 22.7198 18.032C22.6766 17.9624 22.657 17.8815 22.6629 17.8001C22.6693 17.7182 22.7016 17.6412 22.7546 17.5789C22.8488 17.5078 22.962 17.4666 23.0797 17.4602C23.1974 17.4543 23.3146 17.4833 23.4156 17.5441C23.7104 17.7554 23.9791 18.0011 24.2155 18.2757L24.5288 18.5891C25.6072 19.1467 25.6764 19.6341 25.7112 20.2962C25.746 20.9577 25.6764 21.9331 25.6764 21.9331L24.0419 20.8881Z" fill="#D65A9F"/>
<path d="M24.1457 19.1814C24.0413 18.4497 23.7632 17.8578 23.6239 16.952C23.4847 16.0463 23.4847 16.1159 23.4499 15.8722C23.4454 15.831 23.4489 15.7893 23.4602 15.7496C23.4714 15.7094 23.4906 15.6721 23.5166 15.6398C23.5425 15.6074 23.5744 15.5804 23.6107 15.5608C23.647 15.5407 23.6872 15.5284 23.7284 15.524C23.8422 15.5113 23.9574 15.5392 24.0525 15.603C24.1482 15.6667 24.2183 15.7619 24.2502 15.8722L24.7023 17.6141L26.0588 18.6586C26.5457 19.0421 26.7894 19.7037 26.6154 20.8183C26.4648 21.4931 26.2672 22.1566 26.0239 22.8039L24.0413 20.8879L24.1457 19.1814Z" fill="#D65A9F"/>
<path d="M11.728 12.1799L16.1107 12.3889L16.528 13.225L11.728 12.7027V12.1799Z" fill="#E66EA6"/>
<path d="M14.6498 17.3351C15.2079 17.4097 15.7753 17.3743 16.3196 17.2307C16.6325 17.1262 16.4584 17.5092 16.1107 17.6833C15.9273 17.8034 15.7164 17.876 15.4977 17.8942C15.279 17.9123 15.0593 17.876 14.8587 17.7882C14.4757 17.544 14.3718 17.3003 14.6498 17.3351Z" fill="#C44FA3"/>
<path d="M11.8325 14.1306L16.7021 14.5136L16.7369 14.4091L11.728 13.8516L11.8325 14.1306Z" fill="#5E1B1B"/>
<path d="M11.2758 14.4094C12.0756 14.2353 11.9363 13.6777 11.8672 13.3992C11.7976 13.1206 11.7627 13.2947 11.6583 13.5732C11.5548 13.8145 11.4136 14.0376 11.241 14.2353C11.1365 14.3397 11.1365 14.4442 11.2758 14.4094Z" fill="#C44FA3"/>
<path d="M7.62327 16.4991C6.54734 16.7163 5.45131 16.8213 4.35381 16.8129H4.04094C4.00612 16.7433 4.00612 16.7085 4.1449 16.6737C4.84077 16.5339 5.84951 16.2553 6.7538 16.0116C6.84697 15.9778 6.92691 15.9145 6.98036 15.8311C7.0343 15.7473 7.05883 15.6487 7.05098 15.5497C7.04313 15.4506 7.00292 15.3569 6.93672 15.2834C6.87051 15.2093 6.78175 15.1593 6.68416 15.1407L3.27543 14.5488C2.96256 14.5139 2.96256 14.2702 3.20579 14.2006L6.40611 13.8867C6.48899 13.896 6.57235 13.872 6.63758 13.8196C6.7028 13.7676 6.74448 13.6916 6.7538 13.6082C6.76312 13.5253 6.73909 13.442 6.68661 13.3762C6.63463 13.311 6.55862 13.2693 6.47574 13.26L4.28417 12.598C3.69275 12.4587 3.51916 12.3194 3.44952 12.1105C3.4147 12.0061 3.51915 11.9016 3.65793 11.9016C4.99475 12.0747 6.31097 12.3778 7.58845 12.8074C7.61052 12.8236 7.62768 12.8446 7.63994 12.8687C7.65171 12.8927 7.65809 12.9197 7.65809 12.9466C7.48302 14.0814 7.59041 15.2422 7.97145 16.325C8.04109 16.3598 8.00627 16.3946 7.62327 16.4991Z" fill="#C44FA3"/>
<path d="M26.4418 19.4947C26.5457 20.1215 26.2677 20.1563 26.0588 19.7733C25.8503 19.3903 25.537 19.0421 24.6675 18.8327C24.4846 18.5787 24.2747 18.3453 24.0413 18.1364C23.9349 17.7254 23.8652 17.3056 23.8328 16.8824C23.798 16.6735 23.5891 15.8026 23.9025 15.7329C23.9461 15.7148 23.9937 15.7084 24.0408 15.7143C24.0879 15.7202 24.133 15.7378 24.1712 15.7658C24.2095 15.7932 24.2399 15.8305 24.26 15.8737C24.2801 15.9168 24.2884 15.9644 24.285 16.0115C24.3198 16.2204 24.772 17.823 24.772 17.823C24.8377 17.2904 24.9544 16.7657 25.1196 16.2552C25.2241 16.0811 25.6762 16.1159 25.6414 16.569C25.6066 17.0217 25.4678 18.1015 25.4678 18.1015L26.2677 17.4395C26.3721 17.3699 26.6154 17.1958 26.685 17.335C26.7546 17.4743 26.7546 17.6136 26.6502 17.718C26.5457 17.823 25.9548 18.4497 25.9548 18.4497C26.1745 18.768 26.3388 19.1215 26.4418 19.4947Z" fill="#E66EA6"/>
<path d="M17.467 20.8878C19.2065 22.7337 19.9367 25.625 20.0063 27.8539C20.3545 26.9834 20.6325 23.7787 18.9279 21.6195C18.5802 21.1664 17.5367 20.7485 17.5367 20.7485L17.467 20.8878Z" fill="#3C2439"/>
<path d="M6.33667 18.8675C7.62347 18.8326 8.4233 18.9371 9.01471 19.5991C9.60613 20.2607 10.5801 21.6191 13.2934 22.4552C13.9888 22.6641 13.7456 22.7337 12.7368 22.5945C11.5751 22.4596 10.4579 22.0668 9.46686 21.445C8.76069 20.8658 8.11925 20.2121 7.55383 19.4946C7.31402 19.2063 6.98252 19.0097 6.61472 18.9371L6.33667 18.8675Z" fill="#F08024"/>
<path d="M17.4672 20.8879C16.9454 21.7589 16.3197 22.4901 16.5629 22.4901C16.8066 22.4901 17.6413 21.6544 17.8502 21.3406L17.4672 20.8879Z" fill="#F08024"/>
<path d="M16.8067 25.1024C16.5635 24.0922 15.5547 22.8736 15.5547 22.8736C15.5547 22.8736 17.224 23.6396 17.2937 22.6642C17.3633 21.6893 16.2153 22.1071 15.4851 22.7338C13.5373 21.55 12.7369 21.7589 13.1543 23.0825C13.5716 24.4061 15.3807 22.9084 15.3807 22.9084C14.8648 23.9019 14.5127 24.972 14.3371 26.0778" stroke="#E6EAF0" stroke-linecap="round" stroke-linejoin="round"/>
</g>
<defs>
<clipPath id="clip0_78_2195">
<rect width="24" height="24" rx="12" fill="white"/>
</clipPath>
</defs>
</svg>
