<svg width="118" height="118" viewBox="0 0 118 118" fill="none" xmlns="http://www.w3.org/2000/svg">
<g clip-path="url(#clip0_73_4645)">
<rect width="118" height="118" rx="59" fill="#29CC7A"/>
<path d="M89.1303 104.411C99.2208 108.694 104.523 113.658 109.482 123.421C114.442 133.183 120.94 146.541 107.944 151.85C94.9459 157.157 92.5517 138.49 88.2768 131.469C82.29 121.537 80.7517 113.316 89.1303 104.411Z" fill="#F79C13"/>
<path d="M111.876 149.622C120.086 142.429 120.429 135.237 121.453 132.669C122.48 130.099 127.44 119.483 128.296 115.885C129.15 112.288 131.03 110.063 125.217 104.411C119.401 98.7593 116.151 99.9576 112.903 105.78L105.892 119.312C105.892 119.312 96.655 128.901 95.4591 138.663C94.2608 148.423 102.813 157.501 111.876 149.622Z" fill="#F79C13"/>
<path d="M85.7118 67.4203C87.4213 62.1134 89.8155 57.1466 90.1579 60.7415C90.3701 65.1418 91.0572 69.5059 92.2097 73.7567C93.9192 78.7236 93.0657 80.2642 88.9596 76.3269C84.8559 72.3872 84.6847 71.1888 85.7118 67.4203Z" fill="#C44FA3"/>
<path d="M24.6575 181.304C19.6978 179.934 17.8148 176.682 19.5267 171.372C20.3995 168.785 21.1421 166.155 21.7497 163.493C18.3283 160.583 17.3012 156.643 20.3802 147.567C23.4592 138.49 19.0131 133.012 18.4995 119.48C17.9859 105.952 15.5917 91.5671 37.4822 92.5942C59.3726 93.6213 81.6078 99.1018 91.0136 105.609C100.419 112.117 98.3674 132.498 98.3674 136.949C98.3674 141.402 102.129 156.985 101.786 168.288C101.446 179.592 61.0845 190.553 24.6575 181.304Z" fill="#F79C13"/>
<path d="M47.5511 31.5116L45.4245 32.1578C44.882 32.3241 44.5758 32.898 44.7398 33.4405L44.7904 33.6044C44.9544 34.1469 45.5282 34.4531 46.0707 34.2892L48.1973 33.6406C48.7398 33.4767 49.046 32.9028 48.8796 32.3603L48.8314 32.1964C48.6651 31.6539 48.0936 31.3453 47.5511 31.5116Z" fill="#4070EF"/>
<path d="M71.6861 113.489L79.7247 111.604C85.7115 104.754 92.3807 94.4803 81.0943 94.6515L59.715 99.6159L71.6861 113.489Z" fill="#F79C13"/>
<path d="M74.2516 107.664C76.653 104.327 78.1817 100.443 78.7001 96.3635L57.8344 97.2196L74.2516 107.664Z" fill="#C44FA3"/>
<path d="M67.4117 99.6152C89.4733 98.7593 91.3539 86.0865 91.0116 77.8671C90.6692 69.6476 86.7367 65.7079 83.3153 61.9417C80.0675 50.9809 76.1326 34.8819 51.1632 40.7047C30.6423 45.6716 29.7863 56.8036 29.2728 71.8731C28.7592 83.8611 33.5477 101.158 67.4117 99.6152Z" fill="#D65A9F"/>
<path d="M78.5266 49.2667C74.4229 42.2456 67.069 36.9363 51.163 40.7049C48.7181 41.2715 46.3191 42.0141 43.9803 42.9303C43.5849 43.345 43.363 43.8972 43.363 44.4734C43.363 45.0473 43.5849 45.5994 43.9803 46.0141C49.7959 51.4946 61.767 53.5489 67.7538 54.0624C73.7382 54.576 77.5019 55.0895 78.5266 49.2667Z" fill="#C44FA3"/>
<path d="M83.3171 61.9396C82.4395 58.6219 81.3544 55.3621 80.0669 52.1794C81.6052 58.1735 66.7263 58.0023 58.5189 55.6032C50.309 53.2066 45.007 54.5761 45.3494 60.9125C46.0968 67.138 47.6496 73.2405 49.9667 79.0657C52.3609 84.5461 59.03 97.9036 75.6208 96.3629C78.1501 96.1869 80.6166 95.5047 82.8783 94.357C85.1399 93.2093 87.1508 91.6203 88.7879 89.6842C90.5577 86.0097 91.3244 81.9325 91.0109 77.8674C90.4998 69.6479 87.592 66.0506 83.3171 61.9396Z" fill="#E66EA6"/>
<path d="M61.1473 61.5375C62.2612 61.3374 62.8568 59.4397 62.4758 57.2987C62.0949 55.1576 60.8821 53.5832 59.7657 53.7809C58.6518 53.981 58.0539 55.8786 58.4348 58.0196C58.8182 60.1607 60.031 61.7376 61.1473 61.5375Z" fill="#3C2439"/>
<path d="M76.8936 62.1616C77.9184 61.9783 78.4657 60.2448 78.1161 58.2894C77.7689 56.334 76.6573 54.897 75.635 55.0802C74.6127 55.261 74.0654 56.9946 74.4126 58.95C74.7598 60.9054 75.8713 62.3424 76.8936 62.1616Z" fill="#3C2439"/>
<path d="M57.6633 68.1045L82.2904 70.8459C81.7768 75.2992 82.2904 74.4408 82.9751 77.867C83.6575 81.2908 77.5019 83.6899 69.8057 80.9485C62.1094 78.2094 59.544 72.5578 57.6633 68.1045Z" fill="#4D1616"/>
<path d="M72.1999 73.9277H78.5267L79.5538 73.2429L80.4097 75.1284C80.4097 75.1284 75.2789 75.4708 73.227 75.2996C71.1728 75.1284 72.1999 73.9277 72.1999 73.9277Z" fill="#A1C4FF"/>
<path d="M69.806 80.9489C72.4317 81.9205 75.2165 82.3859 78.0158 82.3208C76.3063 78.2098 71.8579 74.7836 66.2159 73.2429H60.4003C62.4883 76.8789 65.8349 79.6203 69.806 80.9489Z" fill="#C12254"/>
<path d="M82.2904 70.8461L81.6056 74.2699C81.5646 74.5568 81.42 74.8196 81.2005 75.0101C80.9787 75.1982 80.699 75.3019 80.4097 75.2971L79.5538 73.414L78.5266 74.0987H72.1999C69.1209 73.7563 60.3999 73.5851 60.3999 73.5851C59.2884 71.9263 58.3698 70.1445 57.6633 68.2759L82.2904 70.8461Z" fill="white"/>
<path d="M60.3999 73.6294H62.623L61.2535 68.4937L57.6633 68.1514C58.3577 70.0778 59.2763 71.9175 60.3999 73.6294Z" fill="#E6EAF0"/>
<path d="M37.4818 81.1223C32.1894 82.188 26.803 82.704 21.407 82.663C20.8934 82.4918 20.3798 82.1494 20.3798 81.6359C20.551 78.3809 20.0374 73.5851 16.1049 71.3597C15.8445 71.1306 15.6685 70.8196 15.6058 70.4772C15.5431 70.1348 15.5986 69.7829 15.7625 69.4767C17.6432 66.9064 17.9856 64.681 16.9585 59.0293C16.7873 58.5158 17.3008 58.0022 17.9856 58.0022C24.5558 58.8533 31.0297 60.3433 37.3106 62.4555C37.4167 62.535 37.5035 62.6387 37.5638 62.7569C37.6216 62.875 37.653 63.0076 37.653 63.1402C36.7898 68.7195 37.3203 74.4266 39.1913 79.7504C39.5337 80.4351 39.3625 80.6087 37.4818 81.1223Z" fill="#D65A9F"/>
<path d="M33.208 51.4946C48.7693 42.2456 57.1503 41.732 72.2004 42.4167C67.9255 34.7108 62.4523 29.4016 48.2581 32.999C34.0615 36.5939 33.208 51.4946 33.208 51.4946Z" fill="#4070EF"/>
<path d="M48.2567 32.9998H47.4008C50.675 35.4037 52.9318 38.9456 53.7275 42.9336H53.8987C59.9506 41.986 66.0941 41.7545 72.199 42.2464C67.9241 34.7117 62.4509 29.4025 48.2567 32.9998Z" fill="white"/>
<path d="M77.1596 47.2121C75.8601 45.2832 74.1699 43.6509 72.2 42.4188C66.0951 41.9245 59.954 42.156 53.9021 43.1036L65.1885 39.8485C80.9234 36.4248 84.1711 39.335 83.66 41.7316C83.1464 44.1307 81.2658 45.329 77.1596 47.2121Z" fill="#0F809C"/>
<path d="M77.1589 38.3082C71.0033 37.9658 68.0955 40.02 63.4782 42.7591C58.8585 45.5005 55.2684 47.2124 43.9796 46.0141C57.3203 40.7048 71.1721 37.7947 77.1589 38.3082Z" fill="#13B7BF"/>
<path d="M25.1688 94.48C15.7631 99.4445 12.6841 106.982 10.8035 111.946C8.9228 116.913 4.4743 119.997 0.199406 125.991C-4.07549 131.985 -2.5372 137.292 -1.33888 139.519C-0.142972 141.745 -0.654124 147.91 4.81668 149.622C10.2899 151.336 18.6709 151.85 23.117 152.021C26.8397 152.154 30.5504 152.496 34.2322 153.048C37.6536 153.391 39.7054 150.994 40.7325 147.226C41.7573 143.457 44.1515 133.697 37.9959 133.697H28.9326C27.7005 132.802 26.3069 132.161 24.8265 131.811C26.0103 131.336 27.0374 130.541 27.7945 129.511C28.5492 128.484 29.0025 127.264 29.1013 125.991C31.8018 124.064 34.0248 121.545 35.6017 118.625C36.6264 116.399 39.7054 111.09 38.3383 104.754C36.9688 98.4175 31.3268 91.225 25.1688 94.48Z" fill="#F79C13"/>
<path d="M31.1562 92.766C30.129 89.3422 32.1809 86.6007 37.3117 85.06C42.4425 83.5193 48.7693 86.6008 60.4005 96.7057C72.0292 106.808 74.2523 107.664 74.2523 107.664L71.6869 113.487L31.1562 92.766Z" fill="#F79C13"/>
<path d="M22.4318 96.1917C29.2721 95.6781 34.4029 102.87 33.8893 111.775C33.3782 120.681 31.6663 123.592 29.1009 125.819C30.6585 125.576 32.1413 124.988 33.4433 124.1C34.7453 123.211 35.8327 122.044 36.626 120.681C39.4928 115.833 40.3511 110.055 39.0202 104.582C37.6531 97.39 34.0606 93.7951 27.7338 93.1079C26.8634 92.9656 25.9713 93.0862 25.1684 93.4527C22.9453 94.4798 22.2606 95.1645 22.4318 96.1917Z" fill="#3C2439"/>
<path d="M127.769 112.004C128.531 111.295 127.062 108.474 124.49 105.703C121.919 102.931 119.217 101.257 118.455 101.966C117.695 102.675 119.164 105.496 121.734 108.266C124.306 111.039 127.007 112.71 127.769 112.004Z" fill="#D65A9F"/>
<path d="M118.206 102.7C118.378 99.9605 118.549 98.4174 118.549 98.4174C116.724 96.4909 115.118 94.3644 113.758 92.0811C113.15 90.8972 112.466 89.7519 111.706 88.6573C111.494 88.3149 111.397 87.9171 111.426 87.5168C111.458 87.1142 111.617 86.7356 111.877 86.4294C112.34 86.0798 112.897 85.8773 113.476 85.846C114.055 85.817 114.631 85.9593 115.127 86.2582C116.577 87.2974 117.898 88.5054 119.06 89.8556L120.601 91.3963C125.903 94.1377 126.243 96.5344 126.414 99.7894C126.585 103.042 126.243 107.838 126.243 107.838L118.206 102.7Z" fill="#D65A9F"/>
<path d="M118.717 94.3091C118.204 90.7118 116.836 87.8016 116.152 83.3483C115.467 78.8949 115.467 79.2373 115.296 78.039C115.274 77.8365 115.291 77.6315 115.346 77.4362C115.402 77.2385 115.496 77.0553 115.624 76.8962C115.751 76.737 115.908 76.6044 116.087 76.5079C116.265 76.4091 116.463 76.3488 116.665 76.3271C117.225 76.2644 117.791 76.4018 118.259 76.7153C118.729 77.0287 119.074 77.4965 119.231 78.039L121.454 86.6033L128.123 91.7389C130.517 93.6244 131.715 96.877 130.859 102.357C130.119 105.675 129.148 108.937 127.952 112.12L118.204 102.7L118.717 94.3091Z" fill="#D65A9F"/>
<path d="M57.6633 59.8855L79.2114 60.9127L81.2632 65.0236L57.6633 62.4558V59.8855Z" fill="#E66EA6"/>
<path d="M72.0286 85.2315C74.7724 85.598 77.562 85.4244 80.2384 84.7179C81.7767 84.2044 80.9207 86.0875 79.2112 86.9434C78.3095 87.5341 77.2727 87.8909 76.1974 87.9802C75.122 88.0694 74.0418 87.8909 73.0557 87.4594C71.1726 86.2586 70.6615 85.0603 72.0286 85.2315Z" fill="#C44FA3"/>
<path d="M58.1769 69.4764L82.1192 71.3594L82.2904 70.8459L57.6633 68.1045L58.1769 69.4764Z" fill="#5E1B1B"/>
<path d="M55.4401 70.8462C59.3726 69.9902 58.6879 67.2488 58.3479 65.8793C58.0055 64.5098 57.8344 65.3657 57.3208 66.7352C56.812 67.9215 56.1176 69.0185 55.2689 69.9902C54.7553 70.5038 54.7553 71.0174 55.4401 70.8462Z" fill="#C44FA3"/>
<path d="M37.4821 81.1205C32.1921 82.1886 26.8033 82.7046 21.4072 82.6636H19.869C19.6978 82.3213 19.6978 82.1501 20.3801 81.9789C23.8015 81.2917 28.7611 79.9222 33.2072 78.7239C33.6653 78.5575 34.0583 78.2465 34.3211 77.8366C34.5863 77.4243 34.7069 76.9396 34.6683 76.4526C34.6298 75.9655 34.432 75.505 34.1065 75.1433C33.781 74.7793 33.3446 74.5334 32.8648 74.4417L16.1052 71.5315C14.5669 71.3604 14.5669 70.1621 15.7628 69.8197L31.4977 68.2765C31.9052 68.3223 32.3151 68.2042 32.6358 67.9462C32.9564 67.6906 33.1614 67.3169 33.2072 66.907C33.253 66.4996 33.1349 66.0897 32.8769 65.7666C32.6213 65.4459 32.2476 65.241 31.8401 65.1952L21.0648 61.9402C18.1571 61.2554 17.3035 60.5706 16.9612 59.5435C16.79 59.0299 17.3035 58.5164 17.9859 58.5164C24.5585 59.3675 31.03 60.8576 37.3109 62.9697C37.4194 63.0493 37.5038 63.153 37.5641 63.2711C37.6219 63.3892 37.6533 63.5218 37.6533 63.6545C36.7925 69.2338 37.3205 74.9409 39.194 80.2646C39.5364 80.4358 39.3652 80.6069 37.4821 81.1205Z" fill="#C44FA3"/>
<path d="M130.006 95.8491C130.517 98.9305 129.15 99.1018 128.123 97.2187C127.098 95.3357 125.558 93.6237 121.283 92.5942C120.383 91.3452 119.351 90.1976 118.204 89.1704C117.681 87.1499 117.338 85.086 117.179 83.0052C117.008 81.9781 115.981 77.696 117.521 77.3536C117.736 77.2644 117.97 77.233 118.201 77.2619C118.433 77.2908 118.655 77.3777 118.843 77.5151C119.031 77.6501 119.18 77.8334 119.279 78.0455C119.378 78.2577 119.419 78.4916 119.402 78.7231C119.573 79.7502 121.796 87.6297 121.796 87.6297C122.119 85.0112 122.693 82.4314 123.506 79.9214C124.019 79.0655 126.242 79.2366 126.071 81.4645C125.9 83.6899 125.218 88.9992 125.218 88.9992L129.15 85.7442C129.664 85.4018 130.86 84.5459 131.202 85.2307C131.544 85.9154 131.544 86.6001 131.031 87.1137C130.517 87.6297 127.612 90.7111 127.612 90.7111C128.692 92.2759 129.5 94.0142 130.006 95.8491Z" fill="#E66EA6"/>
<path d="M85.8799 102.699C94.4321 111.775 98.0222 125.991 98.3646 136.949C100.077 132.67 101.444 116.913 93.0626 106.297C91.3531 104.069 86.2223 102.015 86.2223 102.015L85.8799 102.699Z" fill="#3C2439"/>
<path d="M31.1553 92.7657C37.482 92.5945 41.4145 93.108 44.3223 96.363C47.2301 99.6156 52.0186 106.294 65.3593 110.405C68.7782 111.433 67.5823 111.775 62.6226 111.09C56.9107 110.427 51.4182 108.496 46.5454 105.439C43.0734 102.591 39.9196 99.3769 37.1396 95.8494C35.9606 94.4317 34.3307 93.4649 32.5224 93.1081L31.1553 92.7657Z" fill="#F08024"/>
<path d="M85.8807 102.7C83.3152 106.982 80.2387 110.577 81.4346 110.577C82.6329 110.577 86.7366 106.469 87.7637 104.925L85.8807 102.7Z" fill="#F08024"/>
<path d="M82.6332 123.42C81.4373 118.453 76.4777 112.462 76.4777 112.462C76.4777 112.462 84.6851 116.228 85.0275 111.432C85.3698 106.639 79.7254 108.693 76.1353 111.775C66.5584 105.954 62.6234 106.981 64.6753 113.489C66.7271 119.997 75.6217 112.633 75.6217 112.633C73.0853 117.518 71.3541 122.779 70.4909 128.216" stroke="#E6EAF0" stroke-linecap="round" stroke-linejoin="round"/>
</g>
<defs>
<clipPath id="clip0_73_4645">
<rect width="118" height="118" rx="59" fill="white"/>
</clipPath>
</defs>
</svg>
