<svg width="25" height="24" viewBox="0 0 25 24" fill="none" xmlns="http://www.w3.org/2000/svg">
<g clip-path="url(#clip0_98_1839)">
<path fill-rule="evenodd" clip-rule="evenodd" d="M2.06951 5.24998L6.98169 0.34375L8.45674 1.81701L5.32574 4.94421H19.5577V7.029H5.32574L8.45674 10.1562L6.98169 11.6295L2.06951 6.72325C1.87406 6.52779 1.76428 6.26285 1.76428 5.98661C1.76428 5.71038 1.87406 5.44543 2.06951 5.24998ZM22.9303 16.9086L18.0181 21.8149L16.543 20.3415L19.6741 17.2144H5.44213V15.1296H19.6741L16.543 12.0024L18.0181 10.5291L22.9303 15.4353C23.1257 15.6308 23.2355 15.8958 23.2355 16.172C23.2355 16.4482 23.1257 16.7131 22.9303 16.9086Z" fill="#999999"/>
</g>
<defs>
<clipPath id="clip0_98_1839">
<rect width="22" height="22" fill="white" transform="translate(1.5)"/>
</clipPath>
</defs>
</svg>
