<svg width="258" height="147" viewBox="0 0 258 147" fill="none" xmlns="http://www.w3.org/2000/svg">
<rect width="258" height="147" rx="18" fill="url(#paint0_linear_98_6940)"/>
<path d="M28 127.5C21.367 127.5 16 122.125 16 115.5C16 108.867 21.3749 103.5 28 103.5C34.633 103.5 40 108.875 40 115.5C40.008 122.133 34.633 127.5 28 127.5Z" fill="#F7A097"/>
<mask id="mask0_98_6940" style="mask-type:alpha" maskUnits="userSpaceOnUse" x="16" y="103" width="24" height="25">
<path d="M28 127.5C21.367 127.5 16 122.125 16 115.5C16 108.867 21.3749 103.5 28 103.5C34.633 103.5 40 108.875 40 115.5C40.008 122.133 34.633 127.5 28 127.5Z" fill="#F7A097"/>
</mask>
<g mask="url(#mask0_98_6940)">
<path d="M34.2711 123.727C34.2196 123.764 34.1606 123.801 34.1091 123.838C34.0501 123.875 33.9986 123.912 33.9396 123.941C33.888 123.97 33.8438 124 33.7923 124.029C33.7849 124.037 33.7775 124.037 33.7702 124.044C33.6007 124.147 33.4239 124.243 33.2471 124.331C33.1955 124.361 33.1366 124.39 33.085 124.413C33.085 124.413 33.0776 124.42 33.0703 124.42C33.0113 124.449 32.9524 124.479 32.8934 124.508C32.7756 124.567 32.6503 124.619 32.5324 124.67C32.4735 124.7 32.4072 124.722 32.3483 124.744C32.2893 124.766 32.223 124.796 32.1641 124.818C32.1051 124.84 32.0388 124.869 31.9799 124.891C31.9799 124.891 31.9799 124.891 31.9725 124.891C31.9136 124.913 31.8473 124.936 31.7883 124.958C31.6557 125.002 31.5157 125.046 31.3831 125.09C31.3389 125.105 31.2874 125.12 31.2432 125.135C31.1032 125.179 30.9632 125.216 30.8232 125.245C30.7716 125.26 30.7201 125.267 30.6611 125.282C30.5285 125.311 30.3885 125.341 30.2559 125.37C30.2265 125.378 30.2044 125.378 30.1749 125.385C30.1307 125.392 30.0791 125.4 30.0349 125.407C29.9686 125.414 29.9097 125.429 29.8434 125.437C29.8139 125.444 29.7844 125.444 29.7549 125.451C29.7181 125.459 29.6739 125.466 29.6297 125.466C29.5118 125.481 29.3866 125.496 29.2687 125.51C29.2319 125.518 29.1877 125.518 29.1508 125.525H29.1435C29.0919 125.532 29.0403 125.532 28.9887 125.54C28.9372 125.547 28.8856 125.547 28.834 125.547C28.8046 125.547 28.7677 125.554 28.7382 125.554C28.6793 125.554 28.6277 125.562 28.5762 125.562C28.5025 125.562 28.4362 125.569 28.3625 125.569C28.2888 125.569 28.2225 125.569 28.1489 125.569C28.0973 125.569 28.0457 125.569 27.9941 125.569C24.8925 125.525 22.0929 124.206 20.1037 122.114C20.1037 122.114 20.1037 122.107 20.0963 122.107C20.3247 121.657 21.172 120.847 22.056 120.176C23.1759 119.329 24.7599 118.806 24.7599 118.806C24.7599 118.806 25.7987 118.636 29.6518 119.44C32.5914 120.058 33.8438 122.571 34.2711 123.727Z" fill="#FEE4BF"/>
<path d="M30.4696 121.481C30.3148 122.239 29.3129 122.689 27.6258 122.011C25.5555 121.171 24.7598 118.806 24.7598 118.806C24.6493 117.112 24.3915 115.66 24.3915 115.66C26.7859 115.454 29.6149 118.254 29.6149 118.254L29.9391 119.639C29.9686 119.757 30.0275 119.86 30.1159 119.933C30.2706 120.199 30.5727 120.994 30.4696 121.481Z" fill="#FEE4BF"/>
<path d="M30.1159 119.941C28.7088 119.867 27.67 119.661 26.5575 117.664C27.5005 118.497 28.613 118.813 29.7844 118.961L29.9391 119.639C29.9686 119.764 30.0275 119.867 30.1159 119.941Z" fill="#EFBDA5"/>
<path d="M33.0261 111.063C33.1587 111.682 33.225 112.183 32.864 113.833C32.503 115.483 33.1955 117.134 31.4568 118.644C30.2854 119.661 28.2373 119.852 26.6017 118.74C26.0491 118.364 25.5408 117.841 25.1282 117.156C24.8041 116.618 24.4283 116.11 24.0084 115.646C23.4264 115.012 22.7265 113.737 23.0727 111.483C23.6326 107.814 27.2648 107.394 29.4087 107.799C31.5526 108.205 32.665 109.427 33.0261 111.063Z" fill="#FEE4BF"/>
<path d="M25.9755 113.944C25.9755 113.944 25.7471 112.838 24.6715 112.971C23.7432 113.089 23.419 115.314 25.5261 115.933" fill="#FEE4BF"/>
<path d="M25.4598 114.923C25.4598 114.923 25.1946 114.754 25.2241 114.459C25.2683 114.113 25.2241 113.899 25.062 113.833C24.6568 113.663 24.5757 114.135 24.5905 114.194" stroke="#423232" stroke-width="0.229158" stroke-miterlimit="10" stroke-linecap="round" stroke-linejoin="round"/>
<path d="M31.0811 115.638C31.0811 115.638 31.361 115.653 31.6262 115.336C31.7736 115.159 31.8988 114.938 31.8178 114.872C31.7367 114.798 30.4033 115.004 30.3148 115.181C30.2264 115.358 30.7422 115.638 31.0811 115.638Z" fill="#EFBDA5"/>
<path d="M31.3021 113.163C31.3021 113.163 31.3169 113.862 31.7663 114.643C31.9652 114.99 31.6631 115.557 31.0074 115.653" stroke="#423232" stroke-width="0.229158" stroke-miterlimit="10" stroke-linecap="round" stroke-linejoin="round"/>
<path opacity="0.42" d="M27.309 116.014C27.7281 116.014 28.0679 115.733 28.0679 115.387C28.0679 115.042 27.7281 114.761 27.309 114.761C26.8899 114.761 26.5502 115.042 26.5502 115.387C26.5502 115.733 26.8899 116.014 27.309 116.014Z" fill="#F2A5B2"/>
<path opacity="0.42" d="M32.7461 114.776C32.724 115.188 32.7314 115.594 32.7019 115.999C32.3777 115.925 32.142 115.682 32.142 115.395C32.142 115.085 32.3998 114.835 32.7461 114.776Z" fill="#F2A5B2"/>
<path d="M30.2722 120.245C30.2722 120.245 29.1671 120.569 27.6346 120.068C26.1022 119.567 24.6066 118.249 24.6066 118.249C24.6066 118.249 24.1204 118.256 23.9362 118.624C23.7594 118.993 23.7668 119.751 23.4868 119.958C23.4205 120.002 23.2363 120.054 22.9637 120.127C22.5217 120.252 21.866 120.444 21.2029 120.82C20.7093 121.1 20.2083 121.475 19.7884 121.991C19.5968 122.227 19.4274 122.492 19.28 122.794C18.116 125.159 18.617 128.474 18.617 128.474H36.6228C36.6228 128.474 36.0998 124.378 34.9725 123.03C33.8453 121.682 31.6941 120.591 31.0605 120.304V119.877C31.0678 119.877 30.6774 120.135 30.2722 120.245Z" fill="#48D89E"/>
<mask id="mask1_98_6940" style="mask-type:alpha" maskUnits="userSpaceOnUse" x="18" y="118" width="19" height="11">
<path d="M30.2722 120.245C30.2722 120.245 29.1671 120.569 27.6346 120.068C26.1022 119.567 24.6066 118.249 24.6066 118.249C24.6066 118.249 24.1204 118.256 23.9362 118.624C23.7594 118.993 23.7668 119.751 23.4868 119.958C23.4205 120.002 23.2363 120.054 22.9637 120.127C22.5217 120.252 21.866 120.444 21.2029 120.82C20.7093 121.1 20.2083 121.475 19.7884 121.991C19.5968 122.227 19.4274 122.492 19.28 122.794C18.116 125.159 18.617 128.474 18.617 128.474H36.6228C36.6228 128.474 36.0998 124.378 34.9725 123.03C33.8453 121.682 31.6941 120.591 31.0605 120.304V119.877C31.0678 119.877 30.6774 120.135 30.2722 120.245Z" fill="#6AAED9"/>
</mask>
<g mask="url(#mask1_98_6940)">
<path d="M21.5197 123.059C21.951 123.059 22.3007 122.71 22.3007 122.279C22.3007 121.847 21.951 121.498 21.5197 121.498C21.0884 121.498 20.7388 121.847 20.7388 122.279C20.7388 122.71 21.0884 123.059 21.5197 123.059Z" fill="#FCED7E"/>
<path d="M25.9622 122.699C26.3935 122.699 26.7432 122.349 26.7432 121.918C26.7432 121.486 26.3935 121.137 25.9622 121.137C25.5309 121.137 25.1813 121.486 25.1813 121.918C25.1813 122.349 25.5309 122.699 25.9622 122.699Z" fill="#FCED7E"/>
<path d="M29.3217 121.041C29.753 121.041 30.1027 120.691 30.1027 120.26C30.1027 119.829 29.753 119.479 29.3217 119.479C28.8904 119.479 28.5408 119.829 28.5408 120.26C28.5408 120.691 28.8904 121.041 29.3217 121.041Z" fill="#FCED7E"/>
<path d="M24.5772 126.522C25.0085 126.522 25.3581 126.173 25.3581 125.741C25.3581 125.31 25.0085 124.96 24.5772 124.96C24.1459 124.96 23.7963 125.31 23.7963 125.741C23.7963 126.173 24.1459 126.522 24.5772 126.522Z" fill="#FCED7E"/>
<path d="M33.6685 126.124C34.0998 126.124 34.4495 125.775 34.4495 125.343C34.4495 124.912 34.0998 124.562 33.6685 124.562C33.2372 124.562 32.8876 124.912 32.8876 125.343C32.8876 125.775 33.2372 126.124 33.6685 126.124Z" fill="#FCED7E"/>
<path d="M29.366 125.491C29.7973 125.491 30.147 125.141 30.147 124.71C30.147 124.278 29.7973 123.929 29.366 123.929C28.9347 123.929 28.5851 124.278 28.5851 124.71C28.5851 125.141 28.9347 125.491 29.366 125.491Z" fill="#FCED7E"/>
<path d="M33.0644 122.323C33.4957 122.323 33.8453 121.973 33.8453 121.542C33.8453 121.11 33.4957 120.761 33.0644 120.761C32.6331 120.761 32.2834 121.11 32.2834 121.542C32.2834 121.973 32.6331 122.323 33.0644 122.323Z" fill="#FCED7E"/>
</g>
<path d="M31.0678 120.304C31.0678 120.304 31.1636 120.967 30.9941 121.343C30.7216 121.962 28.8281 122.669 26.5369 121.844C24.7171 121.188 23.8257 120.282 23.8036 120.142" stroke="#329369" stroke-width="0.229158" stroke-miterlimit="10" stroke-linecap="round" stroke-linejoin="round"/>
<path d="M25.1813 119C25.1445 119.044 25.1076 119.103 25.0782 119.177C24.975 119.427 24.9456 119.95 24.9456 119.95" stroke="#329369" stroke-width="0.229158" stroke-miterlimit="10" stroke-linecap="round" stroke-linejoin="round"/>
<path d="M26.4264 119.759C26.397 119.818 26.3675 119.884 26.3528 119.958C26.3159 120.149 26.2717 120.753 26.2717 120.753" stroke="#329369" stroke-width="0.229158" stroke-miterlimit="10" stroke-linecap="round" stroke-linejoin="round"/>
<path d="M27.6789 120.274C27.6641 120.333 27.6494 120.407 27.642 120.495C27.6273 120.599 27.6347 121.225 27.6347 121.225" stroke="#329369" stroke-width="0.229158" stroke-miterlimit="10" stroke-linecap="round" stroke-linejoin="round"/>
<path d="M29.0198 120.569C29.0345 120.739 29.0419 120.975 29.0198 121.262" stroke="#329369" stroke-width="0.229158" stroke-miterlimit="10" stroke-linecap="round" stroke-linejoin="round"/>
<path d="M30.147 120.51C30.1691 120.65 30.1912 120.842 30.1985 121.085" stroke="#329369" stroke-width="0.229158" stroke-miterlimit="10" stroke-linecap="round" stroke-linejoin="round"/>
<path d="M24.3783 118.278C24.2015 118.344 23.9657 118.521 23.8773 119.037" stroke="#329369" stroke-width="0.229158" stroke-miterlimit="10" stroke-linecap="round" stroke-linejoin="round"/>
<path d="M31.9372 120.739C31.5615 120.533 31.2521 120.385 31.0679 120.304V119.877" stroke="#329369" stroke-width="0.229158" stroke-miterlimit="10" stroke-linecap="round" stroke-linejoin="round"/>
<path d="M29.6819 112.323C29.842 112.345 29.9657 112.176 29.9075 112.013C29.8784 111.925 29.8274 111.844 29.7474 111.792C29.5 111.638 28.5761 111.623 28.0886 111.977C27.6594 112.301 28.9544 112.22 29.6819 112.323Z" fill="#423232"/>
<path d="M31.6971 112.404C31.5662 112.404 31.4862 112.234 31.5516 112.094C31.588 112.021 31.6389 111.954 31.7117 111.917C31.9372 111.807 32.5411 111.873 32.8103 112.249C33.0503 112.581 32.301 112.396 31.6971 112.404Z" fill="#423232"/>
<path d="M29.4272 113.251C28.9616 113.015 28.2268 113.192 28.2268 113.192" stroke="#423232" stroke-width="0.229158" stroke-miterlimit="10" stroke-linecap="round" stroke-linejoin="round"/>
<path d="M32.301 113.398C32.301 113.398 32.1119 113.192 31.4135 113.354" stroke="#423232" stroke-width="0.229158" stroke-miterlimit="10" stroke-linecap="round" stroke-linejoin="round"/>
<path d="M30.8911 116.545C30.7002 116.629 30.6085 116.461 30.3106 116.606C30.0967 116.706 29.9821 116.736 29.7224 116.583C29.5544 116.476 29.3481 116.629 29.1495 116.339" stroke="#423232" stroke-width="0.229158" stroke-miterlimit="10" stroke-linecap="round" stroke-linejoin="round"/>
<path d="M34.8953 119.269C34.4827 118.356 34.1659 118.481 34.4532 117.656C34.7405 116.838 34.3722 116.256 33.6133 115.482C32.8913 114.746 32.8177 113.943 32.8398 113.825C32.7734 114.134 32.744 114.451 32.7292 114.76C32.7071 115.173 32.7145 115.578 32.685 115.983C32.6261 116.89 32.4124 117.781 31.44 118.621C31.0126 118.989 30.4675 119.254 29.8633 119.38C29.7012 119.873 29.9444 120.227 30.4748 120.286C31.0053 120.345 31.2263 121.141 32.4272 121.516C34.2248 122.098 35.3078 120.183 34.8953 119.269Z" fill="#423232"/>
<path d="M31.5357 110.354C31.6905 110.435 31.8231 110.362 31.9041 110.2C32.7587 110.067 32.9576 111.776 32.9871 111.879C33.0166 111.99 33.0313 112.299 32.9724 113.147C32.9355 113.618 35.6762 110.273 33.1713 108.859C33.3555 108.586 33.2229 107.231 31.6831 106.899C31.1305 106.781 30.4085 107.297 29.5023 107.098C25.9586 106.31 22.2823 107.061 22.5696 111.739C22.636 112.763 22.7023 113.869 20.9636 114.605C18.9449 115.46 19.048 117.692 20.4699 118.149C21.0593 118.341 19.1143 119.667 20.2489 120.845C20.8383 121.464 21.8918 120.212 22.9601 120.89C24.5736 121.914 25.3766 121.45 25.6934 121.044C26.3417 120.219 25.5387 118.562 25.5387 118.562C25.5387 118.562 25.8555 118.053 25.9586 117.781C26.4596 116.44 25.2661 115.836 25.2661 115.836C23.4243 115.128 23.7558 113.073 24.6546 112.955C25.5976 112.837 25.8923 113.677 25.9439 113.883C25.9439 113.883 26.7764 115.033 28.3825 112.41C29.9739 109.787 30.8432 109.979 31.5357 110.354Z" fill="#423232"/>
<path d="M24.951 115.365V116.617" stroke="#FFDE55" stroke-width="0.229158" stroke-miterlimit="10" stroke-linecap="round" stroke-linejoin="round"/>
<path d="M25.9457 118.297C25.7467 118.496 25.4741 118.621 25.1647 118.621C24.568 118.621 24.0743 118.135 24.0743 117.531C24.0743 116.934 24.5606 116.44 25.1647 116.44C25.4668 116.44 25.7467 116.566 25.9457 116.765C25.813 116.691 25.6657 116.647 25.5036 116.647C25.0174 116.647 24.6195 117.045 24.6195 117.531C24.6195 118.017 25.0174 118.415 25.5036 118.415C25.6657 118.422 25.813 118.378 25.9457 118.297Z" fill="#FFDE55"/>
<path d="M24.951 117.973C25.1911 117.973 25.3857 117.778 25.3857 117.538C25.3857 117.298 25.1911 117.104 24.951 117.104C24.711 117.104 24.5164 117.298 24.5164 117.538C24.5164 117.778 24.711 117.973 24.951 117.973Z" fill="#FF6B57"/>
<path d="M33.3573 116.78C33.2247 116.706 33.0773 116.662 32.9152 116.662C32.7974 116.662 32.6942 116.684 32.5911 116.728C32.6058 116.64 32.6279 116.551 32.6353 116.463C32.9226 116.47 33.1731 116.588 33.3573 116.78Z" fill="#FFDE55"/>
<path d="M33.3646 118.297C33.1657 118.496 32.8931 118.622 32.5836 118.622C32.2742 118.622 31.9869 118.489 31.788 118.275C31.9058 118.143 32.009 118.01 32.1048 117.877C32.2374 118.194 32.5542 118.408 32.9152 118.408C33.0773 118.423 33.232 118.378 33.3646 118.297Z" fill="#FFDE55"/>
<path d="M32.8047 117.539C32.8047 117.782 32.6132 117.973 32.37 117.973C32.2743 117.973 32.1859 117.944 32.1122 117.885C32.2816 117.634 32.4069 117.376 32.4879 117.126C32.6647 117.17 32.8047 117.34 32.8047 117.539Z" fill="#FF6B57"/>
</g>
<path d="M62 127.5C55.367 127.5 50 122.125 50 115.5C50 108.867 55.3749 103.5 62 103.5C68.633 103.5 74 108.875 74 115.5C74.008 122.133 68.633 127.5 62 127.5Z" fill="#3A73AF"/>
<mask id="mask2_98_6940" style="mask-type:alpha" maskUnits="userSpaceOnUse" x="50" y="103" width="24" height="25">
<path d="M62 127.5C55.367 127.5 50 122.125 50 115.5C50 108.867 55.3749 103.5 62 103.5C68.633 103.5 74 108.875 74 115.5C74.008 122.133 68.633 127.5 62 127.5Z" fill="#F7C0B5"/>
</mask>
<g mask="url(#mask2_98_6940)">
<path d="M68.72 125.604C68.664 125.644 68.6 125.684 68.544 125.724C68.48 125.764 68.424 125.804 68.36 125.836C68.304 125.868 68.256 125.9 68.2 125.932C68.192 125.94 68.184 125.94 68.176 125.948C67.992 126.06 67.8 126.164 67.608 126.26C67.552 126.292 67.488 126.324 67.432 126.348C67.432 126.348 67.424 126.356 67.416 126.356C67.352 126.388 67.288 126.42 67.224 126.452C67.096 126.516 66.96 126.572 66.832 126.628C66.768 126.66 66.696 126.684 66.632 126.708C66.568 126.732 66.496 126.764 66.432 126.788C66.368 126.812 66.296 126.844 66.232 126.868C66.232 126.868 66.232 126.868 66.224 126.868C66.16 126.892 66.088 126.916 66.024 126.94C65.88 126.988 65.728 127.036 65.584 127.084C65.536 127.1 65.48 127.116 65.432 127.132C65.28 127.18 65.128 127.22 64.976 127.252C64.92 127.268 64.864 127.276 64.8 127.292C64.656 127.324 64.504 127.356 64.36 127.388C64.328 127.396 64.304 127.396 64.272 127.404C64.224 127.412 64.168 127.42 64.12 127.428C64.048 127.436 63.984 127.452 63.912 127.46C63.88 127.468 63.848 127.468 63.816 127.476C63.776 127.484 63.728 127.492 63.68 127.492C63.552 127.508 63.416 127.524 63.288 127.54C63.248 127.548 63.2 127.548 63.16 127.556H63.152C63.096 127.564 63.04 127.564 62.984 127.572C62.928 127.58 62.872 127.58 62.816 127.58C62.784 127.58 62.744 127.588 62.712 127.588C62.648 127.588 62.592 127.596 62.536 127.596C62.456 127.596 62.384 127.604 62.304 127.604C62.224 127.604 62.152 127.604 62.072 127.604C62.016 127.604 61.96 127.604 61.904 127.604C58.536 127.556 55.496 126.124 53.336 123.852C53.336 123.852 53.336 123.844 53.328 123.844C53.576 123.356 54.496 122.476 55.456 121.748C56.672 120.828 58.392 120.26 58.392 120.26C58.392 120.26 59.52 120.076 63.704 120.948C66.896 121.62 68.256 124.348 68.72 125.604Z" fill="#F7D3B5"/>
<path d="M64.5919 123.164C64.4239 123.988 63.3359 124.476 61.5039 123.74C59.2559 122.828 58.3919 120.26 58.3919 120.26C58.2719 118.42 57.9919 116.844 57.9919 116.844C60.5919 116.62 63.6639 119.66 63.6639 119.66L64.0159 121.164C64.0479 121.292 64.1119 121.404 64.2079 121.484C64.3759 121.772 64.7039 122.636 64.5919 123.164Z" fill="#F7D3B5"/>
<path d="M64.208 121.493C62.68 121.413 61.552 121.189 60.344 119.021C61.368 119.925 62.576 120.269 63.848 120.429L64.016 121.165C64.048 121.301 64.112 121.413 64.208 121.493Z" fill="#EFBDA5"/>
<path d="M67.368 111.853C67.512 112.525 67.584 113.069 67.192 114.861C66.8 116.653 67.552 118.445 65.664 120.085C64.392 121.189 62.168 121.397 60.392 120.189C59.792 119.781 59.24 119.213 58.792 118.469C58.44 117.885 58.032 117.333 57.576 116.829C56.944 116.141 56.184 114.757 56.56 112.309C57.168 108.325 61.112 107.869 63.44 108.309C65.768 108.749 66.976 110.077 67.368 111.853Z" fill="#F7D3B5"/>
<path d="M59.712 114.981C59.712 114.981 59.464 113.781 58.296 113.925C57.288 114.053 56.936 116.469 59.224 117.141" fill="#F7D3B5"/>
<path d="M59.152 116.044C59.152 116.044 58.864 115.86 58.896 115.54C58.944 115.164 58.896 114.932 58.72 114.86C58.28 114.676 58.192 115.188 58.208 115.252" stroke="#423232" stroke-width="0.248836" stroke-miterlimit="10" stroke-linecap="round" stroke-linejoin="round"/>
<path d="M65.256 116.82C65.256 116.82 65.56 116.836 65.848 116.492C66.008 116.3 66.144 116.06 66.056 115.988C65.968 115.908 64.52 116.132 64.424 116.324C64.328 116.516 64.888 116.82 65.256 116.82Z" fill="#EFBDA5"/>
<path d="M65.496 114.132C65.496 114.132 65.512 114.892 66 115.74C66.216 116.116 65.888 116.732 65.176 116.836" stroke="#423232" stroke-width="0.248836" stroke-miterlimit="10" stroke-linecap="round" stroke-linejoin="round"/>
<path opacity="0.42" d="M61.1599 117.228C61.615 117.228 61.9839 116.924 61.9839 116.548C61.9839 116.173 61.615 115.868 61.1599 115.868C60.7049 115.868 60.3359 116.173 60.3359 116.548C60.3359 116.924 60.7049 117.228 61.1599 117.228Z" fill="#ED938A"/>
<path opacity="0.42" d="M67.064 115.884C67.04 116.332 67.048 116.772 67.016 117.212C66.664 117.132 66.408 116.868 66.408 116.556C66.408 116.22 66.688 115.948 67.064 115.884Z" fill="#ED938A"/>
<path d="M69.5283 124.114C68.3923 122.65 66.6323 122.042 65.6643 121.682C65.5843 121.282 65.4323 120.842 65.1923 120.418C64.8243 120.642 64.4003 120.81 63.9603 120.898L64.0243 121.162C64.0563 121.29 64.2163 121.882 63.9683 122.642C63.7603 123.282 62.9203 123.57 61.4963 122.922C58.7203 121.666 58.4003 120.25 58.4003 120.25C58.3523 119.482 58.2723 118.762 58.2003 118.178C57.3363 118.37 56.3363 118.762 55.7923 119.586C55.1203 120.594 54.8723 121.618 54.9363 122.434C53.7683 123.178 51.9603 124.306 51.3683 126.322C50.6003 128.946 50.7283 130.554 50.7283 130.554H71.4003C71.3763 130.562 71.0723 126.106 69.5283 124.114Z" fill="#F7A097"/>
<path d="M57.1683 121.49C57.1683 121.49 57.6563 123.386 59.7923 124.698" stroke="#423232" stroke-width="0.248836" stroke-miterlimit="10" stroke-linecap="round" stroke-linejoin="round"/>
<path d="M65.6564 121.682C65.6564 121.682 66.2244 124.138 64.9844 125.266" stroke="#423232" stroke-width="0.248836" stroke-miterlimit="10" stroke-linecap="round" stroke-linejoin="round"/>
<path d="M61.8003 124.89C61.8003 124.89 61.3843 126.106 61.4963 126.946" stroke="#423232" stroke-width="0.248836" stroke-miterlimit="10" stroke-linecap="round" stroke-linejoin="round"/>
<path d="M64.3523 124.818C64.3523 124.818 64.6643 125.498 64.8883 126.578" stroke="#423232" stroke-width="0.248836" stroke-miterlimit="10" stroke-linecap="round" stroke-linejoin="round"/>
<path d="M54.9203 122.442C54.9203 122.442 55.5763 125.114 59.4803 125.898" stroke="#423232" stroke-width="0.248836" stroke-miterlimit="10" stroke-linecap="round" stroke-linejoin="round"/>
<path d="M61.5684 127.13L61.2164 127.098C61.0884 127.082 60.9924 126.962 61.0164 126.834L61.1364 126.234C61.1684 126.066 61.3284 125.946 61.4964 125.97C61.6644 125.986 61.8004 126.13 61.8004 126.306L61.8084 126.922C61.8084 127.042 61.6964 127.146 61.5684 127.13Z" fill="white"/>
<path d="M65.2403 126.762L64.9043 126.882C64.7763 126.93 64.6403 126.85 64.6163 126.722L64.4723 126.13C64.4323 125.962 64.5203 125.794 64.6883 125.73C64.8483 125.674 65.0323 125.746 65.1043 125.898L65.3683 126.45C65.4243 126.57 65.3683 126.714 65.2403 126.762Z" fill="white"/>
<path d="M68.7683 126.578C68.7683 126.578 69.2163 129.09 69.0403 130.562" stroke="#544D4D" stroke-width="0.248836" stroke-miterlimit="10" stroke-linecap="round" stroke-linejoin="round"/>
<path d="M62.6266 114.935C62.4346 114.927 62.2906 114.767 62.3066 114.575L62.3146 114.351C62.3226 114.159 62.4826 114.015 62.6746 114.031C62.8666 114.039 63.0106 114.199 62.9946 114.391L62.9866 114.615C62.9786 114.799 62.8186 114.943 62.6266 114.935Z" fill="#423232"/>
<path d="M65.9946 115.056C65.8186 115.048 65.6826 114.896 65.6906 114.72L65.6986 114.512C65.7066 114.336 65.8586 114.2 66.0346 114.208C66.2106 114.216 66.3466 114.368 66.3386 114.544L66.3306 114.752C66.3226 114.928 66.1706 115.064 65.9946 115.056Z" fill="#423232"/>
<path d="M63.4027 114.472C63.4027 114.472 63.1947 114.176 62.8347 114.12C62.5387 114.072 62.2107 114.216 62.1627 114.384" stroke="#423232" stroke-width="0.248836" stroke-miterlimit="10" stroke-linecap="round" stroke-linejoin="round"/>
<path d="M65.7627 114.544C65.7627 114.544 65.7627 114.288 66.1307 114.288C66.4347 114.288 66.5627 114.568 66.5627 114.568" stroke="#423232" stroke-width="0.248836" stroke-miterlimit="10" stroke-linecap="round" stroke-linejoin="round"/>
<path d="M63.7307 113.184C63.8987 113.24 64.0667 113.088 64.0347 112.904C64.0187 112.808 63.9787 112.712 63.8987 112.64C63.6587 112.424 62.6667 112.232 62.0667 112.512C61.5387 112.768 62.9627 112.928 63.7307 113.184Z" fill="#423232"/>
<path d="M66.1227 113.312C65.9867 113.36 65.8427 113.216 65.8667 113.048C65.8747 112.96 65.9067 112.872 65.9707 112.808C66.1627 112.616 66.8187 112.464 67.2347 112.76C67.5947 113.008 66.7467 113.08 66.1227 113.312Z" fill="#423232"/>
<path d="M64.846 117.768C64.8543 117.901 64.7547 118.133 64.5723 118.299C63.635 117.726 63.212 118.025 63.212 118.025C62.8802 117.519 62.9548 116.831 63.7594 117.353C64.3234 117.71 64.6635 117.768 64.846 117.768Z" fill="#423232"/>
<path d="M64.5722 118.299C64.3731 118.473 64.0745 118.581 63.6681 118.415C63.4773 118.34 63.328 118.191 63.2119 118.025C63.2119 118.025 63.6349 117.727 64.5722 118.299Z" fill="#FE9DAB"/>
<path d="M65.0036 117.735C65.0036 117.735 64.6552 117.926 63.7594 117.353C62.6894 116.665 62.9051 118.108 63.6599 118.415C64.4479 118.739 64.8543 118.034 64.846 117.768" stroke="#423232" stroke-width="0.248836" stroke-miterlimit="10" stroke-linecap="round" stroke-linejoin="round"/>
<path d="M63.2119 118.025C63.2119 118.025 63.6349 117.727 64.5722 118.299" stroke="#423232" stroke-width="0.248836" stroke-miterlimit="10" stroke-linecap="round" stroke-linejoin="round"/>
<path d="M67.9854 109.921C67.4174 111.977 65.7694 111.633 64.2254 111.073C62.1694 110.321 60.3614 110.929 60.3534 112.785C60.3374 115.505 59.6574 114.681 59.5854 114.577C59.4094 114.241 59.0334 113.825 58.3214 113.913C57.3854 114.033 57.0174 116.097 58.7614 116.945C59.0654 118.489 58.2334 118.345 58.2334 118.345C57.9534 117.209 55.6014 114.793 55.5934 113.201C55.5934 111.057 56.6734 110.449 56.6734 110.449C56.7054 108.953 58.2654 107.305 60.8894 107.361C63.5134 107.409 65.1214 107.337 65.6334 106.721C66.1454 106.089 68.5534 107.865 67.9854 109.921Z" fill="#423232"/>
<path d="M68.0493 112.393C67.9693 112.913 67.7453 113.313 67.4333 113.609C67.5533 112.737 67.4893 112.321 67.3853 111.833C67.1613 110.833 66.6813 109.969 65.8813 109.329C66.2813 109.297 66.6893 109.385 67.0573 109.617C67.0573 109.609 68.3773 110.145 68.0493 112.393Z" fill="#423232"/>
<path d="M58.809 115.244C58.809 115.244 58.169 115.148 58.217 116.044C58.241 116.5 58.241 116.748 58.233 116.876C58.225 116.964 58.281 117.044 58.361 117.076C58.457 117.116 58.561 117.076 58.609 116.98C58.681 116.852 58.761 116.676 58.761 116.532C58.761 116.292 59.017 116.076 59.017 116.076C59.017 116.076 58.785 115.876 58.809 115.244Z" fill="white"/>
<path d="M60.7451 130.668C60.6811 130.596 58.1691 126.3 58.5451 124.684C58.8011 123.572 58.4651 122.292 58.1691 121.164C58.0491 120.7 57.9371 120.268 57.8731 119.884C57.7611 119.22 57.8411 118.588 58.1131 118.004C58.4091 117.348 58.3611 116.78 58.3611 116.772L58.5211 116.756C58.5211 116.78 58.5691 117.38 58.2571 118.068C58.0011 118.62 57.9291 119.228 58.0331 119.86C58.0971 120.236 58.2091 120.668 58.3291 121.132C58.6331 122.276 58.9691 123.58 58.7051 124.732C58.3531 126.268 60.8571 130.564 60.8731 130.58L60.7451 130.668Z" fill="white"/>
<path d="M58.2411 116.508C58.2491 116.684 58.2411 116.804 58.2411 116.876C58.2331 116.964 58.2891 117.044 58.3691 117.076C58.4651 117.116 58.5691 117.076 58.6171 116.98C58.6891 116.852 58.7691 116.676 58.7691 116.532C58.7691 116.524 58.7691 116.508 58.7691 116.5C58.6011 116.564 58.4091 116.612 58.2411 116.508Z" fill="#E5E5E5"/>
<path d="M65.769 121.828C65.713 122.196 65.705 122.78 65.689 123.46C65.665 124.772 64.889 129.884 64.513 130.692L64.369 130.628C64.729 129.844 65.505 124.756 65.529 123.46C65.545 122.78 65.553 122.188 65.609 121.804C65.729 120.996 65.641 120.388 65.593 120.132C65.617 120.108 65.641 120.092 65.665 120.068C65.689 120.052 65.705 120.028 65.729 120.012C65.777 120.22 65.913 120.884 65.769 121.828Z" fill="white"/>
</g>
<path d="M96 127.5C89.367 127.5 84 122.125 84 115.5C84 108.867 89.3749 103.5 96 103.5C102.633 103.5 108 108.875 108 115.5C108.008 122.133 102.633 127.5 96 127.5Z" fill="#6AAED9"/>
<mask id="mask3_98_6940" style="mask-type:alpha" maskUnits="userSpaceOnUse" x="84" y="103" width="24" height="25">
<path d="M96 127.5C89.367 127.5 84 122.125 84 115.5C84 108.867 89.3749 103.5 96 103.5C102.633 103.5 108 108.875 108 115.5C108.008 122.133 102.633 127.5 96 127.5Z" fill="#F7C0B5"/>
</mask>
<g mask="url(#mask3_98_6940)">
<path d="M102.736 125.604C102.68 125.644 102.616 125.684 102.56 125.724C102.496 125.764 102.44 125.804 102.376 125.836C102.32 125.868 102.272 125.9 102.216 125.932C102.208 125.94 102.2 125.94 102.192 125.948C102.008 126.06 101.816 126.164 101.624 126.26C101.568 126.292 101.504 126.324 101.448 126.348C101.448 126.348 101.44 126.356 101.432 126.356C101.368 126.388 101.304 126.42 101.24 126.452C101.112 126.516 100.976 126.572 100.848 126.628C100.784 126.66 100.712 126.684 100.648 126.708C100.584 126.732 100.512 126.764 100.448 126.788C100.384 126.812 100.312 126.844 100.248 126.868C100.248 126.868 100.248 126.868 100.24 126.868C100.176 126.892 100.104 126.916 100.04 126.94C99.896 126.988 99.744 127.036 99.6 127.084C99.552 127.1 99.496 127.116 99.448 127.132C99.296 127.18 99.144 127.22 98.992 127.252C98.936 127.268 98.88 127.276 98.816 127.292C98.672 127.324 98.52 127.356 98.376 127.388C98.344 127.396 98.32 127.396 98.288 127.404C98.24 127.412 98.184 127.42 98.136 127.428C98.064 127.436 98 127.452 97.928 127.46C97.896 127.468 97.864 127.468 97.832 127.476C97.792 127.484 97.744 127.492 97.696 127.492C97.568 127.508 97.432 127.524 97.304 127.54C97.264 127.548 97.216 127.548 97.176 127.556H97.168C97.112 127.564 97.056 127.564 97 127.572C96.944 127.58 96.888 127.58 96.832 127.58C96.8 127.58 96.76 127.588 96.728 127.588C96.664 127.588 96.608 127.596 96.552 127.596C96.472 127.596 96.4 127.604 96.32 127.604C96.24 127.604 96.168 127.604 96.088 127.604C96.032 127.604 95.976 127.604 95.92 127.604C92.552 127.556 89.512 126.124 87.352 123.852C87.352 123.852 87.352 123.844 87.344 123.844C87.592 123.356 88.512 122.476 89.472 121.748C90.688 120.828 92.408 120.26 92.408 120.26C92.408 120.26 93.536 120.076 97.72 120.948C100.912 121.62 102.272 124.348 102.736 125.604Z" fill="#AD827B"/>
<path d="M98.6079 123.164C98.4399 123.988 97.3519 124.476 95.5199 123.74C93.2719 122.828 92.4079 120.26 92.4079 120.26C92.2879 118.42 92.0079 116.844 92.0079 116.844C94.6079 116.62 97.6799 119.66 97.6799 119.66L98.0319 121.164C98.0639 121.292 98.1279 121.404 98.2239 121.484C98.3919 121.772 98.7199 122.636 98.6079 123.164Z" fill="#AD827B"/>
<path d="M98.224 121.493C96.696 121.413 95.568 121.189 94.36 119.021C95.384 119.925 96.592 120.269 97.864 120.429L98.032 121.165C98.064 121.301 98.128 121.413 98.224 121.493Z" fill="#8E5650"/>
<path d="M101.384 111.853C101.528 112.525 101.6 113.069 101.208 114.861C100.816 116.653 101.568 118.445 99.68 120.085C98.408 121.189 96.184 121.397 94.408 120.189C93.808 119.781 93.256 119.213 92.808 118.469C92.456 117.885 92.048 117.333 91.592 116.829C90.96 116.141 90.2 114.757 90.576 112.309C91.184 108.325 95.128 107.869 97.456 108.309C99.784 108.749 100.992 110.077 101.384 111.853Z" fill="#AD827B"/>
<path d="M93.728 114.981C93.728 114.981 93.48 113.781 92.312 113.925C91.304 114.053 90.952 116.469 93.24 117.141" fill="#AD827B"/>
<path d="M93.168 116.044C93.168 116.044 92.88 115.86 92.912 115.54C92.96 115.164 92.912 114.932 92.736 114.86C92.296 114.676 92.208 115.188 92.224 115.252" stroke="#423232" stroke-width="0.248836" stroke-miterlimit="10" stroke-linecap="round" stroke-linejoin="round"/>
<path d="M99.272 116.82C99.272 116.82 99.576 116.836 99.864 116.492C100.024 116.3 100.16 116.06 100.072 115.988C99.984 115.908 98.536 116.132 98.44 116.324C98.344 116.516 98.904 116.82 99.272 116.82Z" fill="#8E605C"/>
<path d="M99.512 114.132C99.512 114.132 99.528 114.892 100.016 115.74C100.232 116.116 99.904 116.732 99.192 116.836" stroke="#423232" stroke-width="0.248836" stroke-miterlimit="10" stroke-linecap="round" stroke-linejoin="round"/>
<path d="M93.1641 120.997C93.1641 120.997 93.0041 120.005 92.7321 120.061C91.4681 120.349 87.7801 121.421 86.4921 124.205C85.2761 126.853 85.1641 130.565 85.1641 130.565H105.396C105.396 130.565 105.028 124.925 102.964 123.197C101.74 122.165 100.636 121.533 99.7321 121.149C98.5321 120.637 97.3241 121.709 96.9801 121.685C96.3641 121.653 93.1641 120.997 93.1641 120.997Z" fill="#544D4D"/>
<path d="M89.124 130.565L88.764 127.597" stroke="white" stroke-width="0.248836" stroke-miterlimit="10" stroke-linecap="round" stroke-linejoin="round"/>
<path d="M103.092 126.589C103.092 126.589 102.852 127.173 102.924 127.757C102.996 128.341 103.204 129.197 102.908 130.565" stroke="white" stroke-width="0.248836" stroke-miterlimit="10" stroke-linecap="round" stroke-linejoin="round"/>
<path d="M92.2441 119.253C92.2441 119.253 91.6681 119.461 91.5641 119.573C91.4601 119.685 91.4121 119.757 91.4121 119.757C91.4121 119.757 91.1241 120.077 90.9641 120.853C90.8921 121.181 91.0601 121.717 90.9321 122.141C90.5641 123.317 92.3081 125.125 95.1881 126.189C97.3721 126.997 99.7801 126.261 100.116 124.741C100.436 123.277 100.244 122.613 100.092 122.141C99.7881 121.229 99.6921 120.973 99.2841 120.621C99.0281 120.397 98.8521 120.861 97.8921 121.125C97.5961 121.205 97.2361 121.269 96.7721 121.285C94.0121 121.389 92.8441 119.821 92.4281 119.373C92.3241 119.285 92.2761 119.237 92.2441 119.253Z" fill="white"/>
<path d="M97.8681 121.117C97.5721 121.197 97.2121 121.261 96.7481 121.277C93.9881 121.381 92.8201 119.813 92.4041 119.365" stroke="#CCCCCC" stroke-width="0.248836" stroke-miterlimit="10" stroke-linecap="round" stroke-linejoin="round"/>
<path d="M99.3321 120.333C100.06 120.941 101.324 122.533 101.02 126.093C100.868 127.853 101.724 128.581 101.532 128.861C101.5 128.909 101.46 128.933 101.428 128.941C101.292 128.973 101.164 129.037 101.1 129.165C101.076 129.221 101.036 129.261 100.98 129.293C100.932 129.325 100.876 129.325 100.828 129.317C100.66 129.277 100.476 129.373 100.372 129.517C100.332 129.573 100.284 129.613 100.212 129.629C100.164 129.645 100.116 129.637 100.084 129.629C99.9481 129.589 99.7961 129.629 99.6761 129.725C99.6441 129.749 99.6121 129.765 99.5721 129.765C99.5001 129.765 99.4441 129.733 99.3961 129.685C99.2841 129.581 99.1241 129.541 98.9641 129.597C98.9481 129.605 98.9401 129.605 98.9241 129.605C98.8121 129.621 98.7241 129.533 98.6601 129.381C98.5961 129.237 98.4441 129.173 98.2841 129.189C98.2521 129.189 98.2201 129.189 98.1801 129.181C97.8681 129.109 97.4681 128.677 97.4601 128.149C97.4521 127.629 97.5721 126.725 97.7721 126.301C98.3881 124.997 98.6121 124.061 98.6441 123.357C98.7081 122.069 97.8921 120.917 97.9721 120.893C98.7881 120.725 99.3321 120.333 99.3321 120.333Z" fill="white"/>
<path d="M97.764 126.301C98.38 124.997 98.604 124.061 98.636 123.357C98.684 122.365 98.204 121.445 98.028 121.069" stroke="#CCCCCC" stroke-width="0.248836" stroke-miterlimit="10" stroke-linecap="round" stroke-linejoin="round"/>
<path d="M97.452 128.149C97.444 127.629 97.564 126.725 97.764 126.301C98.38 124.997 98.604 124.061 98.636 123.357" stroke="#CCCCCC" stroke-width="0.248836" stroke-miterlimit="10" stroke-linecap="round" stroke-linejoin="round"/>
<path d="M98.1641 125.357C98.1641 125.357 95.7321 125.597 94.1321 124.389" stroke="#CCCCCC" stroke-width="0.248836" stroke-miterlimit="10" stroke-linecap="round" stroke-linejoin="round"/>
<path d="M98.8201 121.141C99.0441 121.469 99.3001 121.949 99.3641 122.541" stroke="#CCCCCC" stroke-width="0.248836" stroke-miterlimit="10" stroke-linecap="round" stroke-linejoin="round"/>
<path d="M99.8361 129.629C99.8361 129.629 99.4281 128.765 99.8361 126.885C100.268 124.885 100.068 123.901 100.068 123.901" stroke="#CCCCCC" stroke-width="0.248836" stroke-miterlimit="10" stroke-linecap="round" stroke-linejoin="round"/>
<path d="M90.948 121.253C90.948 121.253 91.484 122.357 92.132 122.869" stroke="#CCCCCC" stroke-width="0.248836" stroke-miterlimit="10" stroke-linecap="round" stroke-linejoin="round"/>
<path d="M98.5721 123.901C98.5721 123.901 97.0521 124.005 95.9801 123.589" stroke="#CCCCCC" stroke-width="0.248836" stroke-miterlimit="10" stroke-linecap="round" stroke-linejoin="round"/>
<path d="M97.7178 113.221C97.8938 113.245 98.0298 113.061 97.9658 112.885C97.9338 112.789 97.8778 112.701 97.7898 112.645C97.5178 112.477 96.5018 112.461 95.9658 112.845C95.4938 113.197 96.9178 113.109 97.7178 113.221Z" fill="#423232"/>
<path d="M99.9337 113.309C99.7897 113.309 99.7017 113.125 99.7737 112.973C99.8137 112.893 99.8697 112.821 99.9497 112.781C100.198 112.661 100.862 112.733 101.158 113.141C101.422 113.501 100.598 113.301 99.9337 113.309Z" fill="#423232"/>
<path d="M97.4378 114.229C96.8138 114.493 96.1178 114.165 96.1178 114.165" stroke="#423232" stroke-width="0.248836" stroke-miterlimit="10" stroke-linecap="round" stroke-linejoin="round"/>
<path d="M100.598 114.389C100.598 114.389 100.166 114.653 99.6217 114.341" stroke="#423232" stroke-width="0.248836" stroke-miterlimit="10" stroke-linecap="round" stroke-linejoin="round"/>
<path d="M98.846 117.768C98.8543 117.901 98.7547 118.133 98.5723 118.299C97.635 117.726 97.212 118.025 97.212 118.025C96.8802 117.519 96.9548 116.831 97.7594 117.353C98.3234 117.71 98.6635 117.768 98.846 117.768Z" fill="#423232"/>
<path d="M98.5722 118.299C98.3731 118.473 98.0745 118.581 97.6681 118.415C97.4773 118.34 97.328 118.191 97.2119 118.025C97.2119 118.025 97.6349 117.727 98.5722 118.299Z" fill="#FE9DAB"/>
<path d="M99.0036 117.735C99.0036 117.735 98.6552 117.926 97.7594 117.353C96.6894 116.665 96.9051 118.108 97.6599 118.415C98.4479 118.739 98.8543 118.034 98.846 117.768" stroke="#423232" stroke-width="0.248836" stroke-miterlimit="10" stroke-linecap="round" stroke-linejoin="round"/>
<path d="M97.2119 118.025C97.2119 118.025 97.6349 117.727 98.5722 118.299" stroke="#423232" stroke-width="0.248836" stroke-miterlimit="10" stroke-linecap="round" stroke-linejoin="round"/>
<path d="M102.605 115.021C102.229 114.677 102.125 114.173 102.093 113.837C102.333 113.997 102.645 113.509 102.629 112.933C102.605 112.077 102.381 111.445 102.117 111.005C102.301 110.773 102.437 110.501 102.509 110.197C102.837 108.869 101.757 107.853 100.181 107.469C99.2133 107.229 97.4373 107.349 95.3493 107.317C94.9893 107.309 94.6133 107.325 94.2453 107.365C93.7973 107.413 93.3573 107.509 92.9493 107.677C92.2853 107.925 91.6773 108.317 91.2133 108.885C90.3973 109.893 90.1653 111.045 90.1253 111.941C90.0853 113.005 89.8293 114.053 89.3253 114.997C88.7813 116.013 88.4453 117.093 88.9813 118.021C88.9973 118.045 89.0133 118.069 89.0293 118.101C88.7733 119.365 90.1973 119.253 90.4773 117.973C90.4213 118.213 90.3813 118.421 90.3573 118.565C90.1653 119.821 91.0773 119.981 91.5333 119.109C91.5813 119.021 91.7013 118.661 91.8293 118.205C91.8293 118.285 91.8373 118.365 91.8453 118.437C91.8613 120.189 93.1093 120.341 93.0373 119.157C93.0053 118.629 93.0933 117.893 93.2293 117.093C90.9573 116.413 91.3093 114.013 92.3253 113.885C93.4933 113.733 93.7413 114.941 93.7413 114.941C93.8293 115.317 93.9573 115.765 94.1493 115.981C94.4933 116.357 95.0853 116.093 94.7013 114.909C94.6213 114.661 94.5493 114.381 94.5013 114.085C94.8053 114.165 95.0693 113.997 94.9413 113.661C94.8213 113.357 94.7573 113.077 94.7413 112.813C94.7173 112.405 94.8213 112.037 94.9973 111.733C95.1813 112.461 95.9493 112.237 95.9973 111.709C96.0133 111.533 96.0693 111.325 96.1493 111.093C96.3413 111.341 96.6053 111.573 96.9333 111.741C97.5413 112.045 97.9733 111.901 98.0693 111.589C98.4613 111.725 98.8133 111.829 99.0853 111.893C99.9013 112.093 100.709 111.989 101.341 111.653C101.373 111.725 101.389 111.789 101.397 111.813C101.405 111.853 101.413 111.893 101.421 111.933C101.493 112.277 101.533 112.613 101.501 113.117C101.501 113.141 101.501 113.157 101.493 113.181C101.493 113.197 101.493 113.213 101.485 113.229C101.485 113.269 101.477 113.301 101.477 113.341C101.477 113.365 101.469 113.381 101.469 113.405C101.469 113.437 101.461 113.477 101.453 113.517C101.445 113.549 101.445 113.581 101.437 113.613C101.437 113.637 101.429 113.669 101.429 113.693C101.421 113.741 101.413 113.789 101.405 113.845C101.405 113.853 101.405 113.869 101.397 113.877C101.389 113.941 101.373 114.005 101.365 114.077C101.325 114.301 101.277 114.541 101.221 114.821C100.885 116.373 101.405 117.941 100.309 119.397C100.261 119.829 100.637 120.373 101.101 119.805C101.461 119.365 101.293 117.893 101.269 117.597C101.301 117.909 101.797 118.901 102.261 118.757C102.517 118.677 102.629 118.541 102.589 118.069C102.541 117.405 102.021 116.749 101.949 115.781C102.429 116.189 103.109 115.477 102.605 115.021Z" fill="#423232"/>
<path d="M92.809 115.244C92.809 115.244 92.169 115.148 92.217 116.044C92.241 116.5 92.241 116.748 92.233 116.876C92.225 116.964 92.281 117.044 92.361 117.076C92.457 117.116 92.561 117.076 92.609 116.98C92.681 116.852 92.761 116.676 92.761 116.532C92.761 116.292 93.017 116.076 93.017 116.076C93.017 116.076 92.785 115.876 92.809 115.244Z" fill="white"/>
<path d="M94.7451 130.668C94.6811 130.596 92.1691 126.3 92.5451 124.684C92.8011 123.572 92.4651 122.292 92.1691 121.164C92.0491 120.7 91.9371 120.268 91.8731 119.884C91.7611 119.22 91.8411 118.588 92.1131 118.004C92.4091 117.348 92.3611 116.78 92.3611 116.772L92.5211 116.756C92.5211 116.78 92.5691 117.38 92.2571 118.068C92.0011 118.62 91.9291 119.228 92.0331 119.86C92.0971 120.236 92.2091 120.668 92.3291 121.132C92.6331 122.276 92.9691 123.58 92.7051 124.732C92.3531 126.268 94.8571 130.564 94.8731 130.58L94.7451 130.668Z" fill="white"/>
<path d="M92.2411 116.508C92.2491 116.684 92.2411 116.804 92.2411 116.876C92.2331 116.964 92.2891 117.044 92.3691 117.076C92.4651 117.116 92.5691 117.076 92.6171 116.98C92.6891 116.852 92.7691 116.676 92.7691 116.532C92.7691 116.524 92.7691 116.508 92.7691 116.5C92.6011 116.564 92.4091 116.612 92.2411 116.508Z" fill="#E5E5E5"/>
<path d="M99.769 121.828C99.713 122.196 99.705 122.78 99.689 123.46C99.665 124.772 98.889 129.884 98.513 130.692L98.369 130.628C98.729 129.844 99.505 124.756 99.529 123.46C99.545 122.78 99.553 122.188 99.609 121.804C99.729 120.996 99.641 120.388 99.593 120.132C99.617 120.108 99.641 120.092 99.665 120.068C99.689 120.052 99.705 120.028 99.729 120.012C99.777 120.22 99.913 120.884 99.769 121.828Z" fill="white"/>
</g>
<defs>
<linearGradient id="paint0_linear_98_6940" x1="121.5" y1="-18" x2="129" y2="155" gradientUnits="userSpaceOnUse">
<stop stop-color="#00FFFF"/>
<stop offset="1" stop-color="white" stop-opacity="0"/>
</linearGradient>
</defs>
</svg>
