<svg width="20" height="18" viewBox="0 0 20 18" fill="none" xmlns="http://www.w3.org/2000/svg">
<g clip-path="url(#clip0_98_1817)">
<path d="M0.5 4.9842V4.0158C0.508829 4.00915 0.527195 4 0.555556 4H19.4444C19.4728 4 19.4912 4.00915 19.5 4.0158V4.9842C19.4912 4.99085 19.4728 5 19.4444 5H0.555556C0.527196 5 0.508829 4.99085 0.5 4.9842Z" fill="black" stroke="#777777"/>
<path d="M13 7.75C14.7949 7.75 16.25 6.29493 16.25 4.5C16.25 2.70507 14.7949 1.25 13 1.25C11.2051 1.25 9.75 2.70507 9.75 4.5C9.75 6.29493 11.2051 7.75 13 7.75Z" fill="#222222" stroke="#777777" stroke-width="1.5"/>
<path d="M0.5 13.9842V13.0158C0.508829 13.0092 0.527195 13 0.555556 13H19.4444C19.4728 13 19.4912 13.0092 19.5 13.0158V13.9842C19.4912 13.9908 19.4728 14 19.4444 14H0.555556C0.527196 14 0.508829 13.9908 0.5 13.9842Z" fill="black" stroke="#777777"/>
<path d="M7 16.75C8.79493 16.75 10.25 15.2949 10.25 13.5C10.25 11.7051 8.79493 10.25 7 10.25C5.20507 10.25 3.75 11.7051 3.75 13.5C3.75 15.2949 5.20507 16.75 7 16.75Z" fill="#222222" stroke="#777777" stroke-width="1.5"/>
</g>
<defs>
<clipPath id="clip0_98_1817">
<rect width="20" height="17" fill="white" transform="translate(0 0.5)"/>
</clipPath>
</defs>
</svg>
