<svg width="25" height="24" viewBox="0 0 25 24" fill="none" xmlns="http://www.w3.org/2000/svg">
<g clip-path="url(#clip0_98_1830)">
<path fill-rule="evenodd" clip-rule="evenodd" d="M3.05994 1.5H10.2587C10.8328 1.5 11.3186 1.96372 11.3407 2.55994V9.78076C11.3407 10.377 10.8549 10.8407 10.2808 10.8407H3.05994C2.46372 10.8407 2 10.3549 2 9.78076V2.55994C2 1.96372 2.4858 1.5 3.05994 1.5ZM14.7192 1.5H21.9179C22.5142 1.5 22.9779 1.96372 23 2.55994V9.78076C23 10.377 22.5142 10.8407 21.9401 10.8407H14.7192C14.123 10.8407 13.6593 10.3549 13.6593 9.78076V2.55994C13.6593 1.96372 14.1451 1.5 14.7192 1.5ZM10.2587 13.1593H3.05994C2.4858 13.1593 2 13.6231 2 14.2193V21.4402C2 22.0142 2.46372 22.5 3.05994 22.5H10.2808C10.8549 22.5 11.3407 22.0363 11.3407 21.4402V14.2193C11.3186 13.6451 10.8328 13.1593 10.2587 13.1593ZM14.7192 13.1593H21.9179C22.5142 13.1593 22.9779 13.6451 23 14.2193V21.4402C23 22.0363 22.5142 22.5 21.9401 22.5H14.7192C14.123 22.5 13.6593 22.0142 13.6593 21.4402V14.2193C13.6593 13.6231 14.1451 13.1593 14.7192 13.1593Z" fill="#999999"/>
</g>
<defs>
<clipPath id="clip0_98_1830">
<rect width="21" height="21" fill="white" transform="translate(2 1.5)"/>
</clipPath>
</defs>
</svg>
