<svg width="43" height="43" viewBox="0 0 43 43" fill="none" xmlns="http://www.w3.org/2000/svg">
<rect width="43" height="43" rx="21.5" transform="matrix(-1 0 0 1 43 0)" fill="white"/>
<g clip-path="url(#clip0_11_1731)">
<path d="M33.8713 28.3454L29.7443 32.7004C29.6546 32.795 29.546 32.8704 29.4254 32.9219C29.3048 32.9735 29.1746 33.0001 29.0431 33H9.47912C9.38576 33 9.29445 32.9732 9.21639 32.9228C9.13832 32.8724 9.07692 32.8007 9.03971 32.7165C9.0025 32.6322 8.99111 32.5392 9.00694 32.4486C9.02277 32.3581 9.06513 32.2741 9.12882 32.2069L13.2589 27.852C13.3484 27.7576 13.4566 27.6824 13.5768 27.6308C13.6971 27.5793 13.8268 27.5526 13.9579 27.5524H33.5209C33.6142 27.5524 33.7055 27.5792 33.7837 27.6296C33.8616 27.68 33.923 27.7517 33.9604 27.8359C33.9975 27.9201 34.0089 28.0132 33.9931 28.1038C33.9772 28.1943 33.9349 28.2783 33.8713 28.3454ZM29.7443 19.5758C29.6546 19.4812 29.546 19.4058 29.4254 19.3542C29.3048 19.3027 29.1746 19.2761 29.0431 19.2762H9.47912C9.38576 19.2762 9.29445 19.303 9.21639 19.3534C9.13832 19.4038 9.07692 19.4755 9.03971 19.5597C9.0025 19.644 8.99111 19.7371 9.00694 19.8276C9.02277 19.9181 9.06513 20.0021 9.12882 20.0693L13.2589 24.4242C13.3484 24.5185 13.4566 24.5938 13.5768 24.6454C13.6971 24.6969 13.8268 24.7236 13.9579 24.7238H33.5209C33.6142 24.7238 33.7055 24.697 33.7837 24.6466C33.8616 24.5962 33.923 24.5245 33.9604 24.4403C33.9975 24.356 34.0089 24.2629 33.9931 24.1724C33.9772 24.0819 33.9349 23.9979 33.8713 23.9307L29.7443 19.5758ZM9.47912 16.4476H29.0431C29.1746 16.4477 29.3048 16.4211 29.4254 16.3696C29.546 16.318 29.6546 16.2426 29.7443 16.148L33.8713 11.793C33.9349 11.7259 33.9772 11.6419 33.9931 11.5514C34.0089 11.4609 33.9975 11.3678 33.9604 11.2835C33.923 11.1993 33.8616 11.1276 33.7837 11.0772C33.7055 11.0268 33.6142 11 33.5209 11H13.9579C13.8268 11.0002 13.6971 11.0269 13.5768 11.0785C13.4566 11.13 13.3484 11.2053 13.2589 11.2996L9.12988 15.6546C9.06626 15.7216 9.02392 15.8056 9.00805 15.896C8.99218 15.9864 9.00348 16.0794 9.04056 16.1636C9.07764 16.2478 9.13888 16.3195 9.21678 16.37C9.29469 16.4204 9.38586 16.4474 9.47912 16.4476Z" fill="url(#paint0_linear_11_1731)"/>
</g>
<defs>
<linearGradient id="paint0_linear_11_1731" x1="11.1103" y1="33.5243" x2="31.2553" y2="10.4443" gradientUnits="userSpaceOnUse">
<stop offset="0.08" stop-color="#9945FF"/>
<stop offset="0.3" stop-color="#8752F3"/>
<stop offset="0.5" stop-color="#5497D5"/>
<stop offset="0.6" stop-color="#43B4CA"/>
<stop offset="0.72" stop-color="#28E0B9"/>
<stop offset="0.97" stop-color="#19FB9B"/>
</linearGradient>
<clipPath id="clip0_11_1731">
<rect width="25" height="22" fill="white" transform="translate(9 11)"/>
</clipPath>
</defs>
</svg>
