<svg width="17" height="16" viewBox="0 0 17 16" fill="none" xmlns="http://www.w3.org/2000/svg">
<path fill-rule="evenodd" clip-rule="evenodd" d="M3.68291 1.4382C2.29121 1.4382 1.16302 2.59554 1.16302 4.0232V11.977C1.16302 13.4047 2.29121 14.562 3.68291 14.562H12.9871C14.3788 14.562 15.507 13.4047 15.507 11.977V4.0232C15.507 2.59554 14.3788 1.4382 12.9871 1.4382H3.68291ZM0 4.0232C0 1.93662 1.6489 0.245117 3.68291 0.245117H12.9871C15.0211 0.245117 16.67 1.93662 16.67 4.0232V11.977C16.67 14.0637 15.0211 15.7551 12.9871 15.7551H3.68291C1.6489 15.7551 0 14.0637 0 11.977V4.0232Z" fill="white" fill-opacity="0.7"/>
<path fill-rule="evenodd" clip-rule="evenodd" d="M1.00001 5.8374C1.00001 5.37503 1.37484 5.00019 1.83721 5.00019H5.59914C6.70935 5.00019 7.77403 5.4412 8.55907 6.22624C9.34409 7.0112 9.78519 8.07602 9.78519 9.18628C9.78519 10.2965 9.34409 11.3612 8.55907 12.1462C7.77403 12.9313 6.70935 13.3723 5.59914 13.3723H1.83721C1.37484 13.3723 1.00001 12.9975 1.00001 12.5351C1.00001 12.0727 1.37484 11.6979 1.83721 11.6979H5.59914C6.26526 11.6979 6.90406 11.4332 7.37507 10.9623C7.84612 10.4912 8.11077 9.85236 8.11077 9.18628C8.11077 8.52019 7.84612 7.88123 7.37507 7.41027C6.90406 6.9392 6.26526 6.67465 5.59914 6.67465H1.83721C1.37484 6.67465 1.00001 6.2998 1.00001 5.8374Z" fill="white" fill-opacity="0.7"/>
</svg>
