<svg width="9" height="14" viewBox="0 0 9 14" fill="none" xmlns="http://www.w3.org/2000/svg">
<path fill-rule="evenodd" clip-rule="evenodd" d="M0.501242 5.70166C0.77807 5.70166 1.00248 5.93342 1.00248 6.21931V6.73696C1.00248 8.4523 2.34897 9.84286 4.00993 9.84286C5.6709 9.84286 7.01739 8.4523 7.01739 6.73696V6.21931C7.01739 5.93342 7.2418 5.70166 7.51863 5.70166C7.79546 5.70166 8.01987 5.93342 8.01987 6.21931V6.73696C8.01987 8.84877 6.48923 10.5914 4.51118 10.8461V12.4311H6.0149C6.29173 12.4311 6.51614 12.6629 6.51614 12.9488C6.51614 13.2347 6.29173 13.4664 6.0149 13.4664H4.51118H3.50869H2.00497C1.72814 13.4664 1.50373 13.2347 1.50373 12.9488C1.50373 12.6629 1.72814 12.4311 2.00497 12.4311H3.50869V10.8461C1.53064 10.5914 0 8.84877 0 6.73696V6.21931C0 5.93342 0.224414 5.70166 0.501242 5.70166Z" fill="#14F195"/>
<path d="M2.2655 2.93681C2.2655 1.79325 3.16316 0.866211 4.27047 0.866211C5.37778 0.866211 6.27544 1.79325 6.27544 2.93681V6.56036C6.27544 7.70392 5.37778 8.63096 4.27047 8.63096C3.16316 8.63096 2.2655 7.70392 2.2655 6.56036V2.93681Z" fill="#14F195"/>
</svg>
