<svg width="375" height="322" viewBox="0 0 375 322" fill="none" xmlns="http://www.w3.org/2000/svg">
<rect width="5.36447" height="6.66105" transform="matrix(0.458703 -0.88859 0.968614 0.248572 203.913 65.1033)" fill="#70EEFF" fill-opacity="0.35"/>
<rect width="9.68838" height="5.74951" transform="matrix(0.355242 -0.934775 0.982618 0.18564 249.687 98.8118)" fill="#70EEFF" fill-opacity="0.6"/>
<rect width="2.9216" height="4.8313" transform="matrix(-0.0247487 -0.999694 0.999924 -0.0123062 295.461 64.3862)" fill="#70EEFF" fill-opacity="0.9"/>
<rect width="4.25291" height="3.44967" transform="matrix(-0.730205 -0.683228 0.883093 -0.469198 345.303 17.0513)" fill="#70EEFF" fill-opacity="0.9"/>
<rect width="11.6693" height="5.81276" transform="matrix(-0.219173 -0.975686 0.993822 -0.110983 334.114 12.0308)" fill="#70EEFF" fill-opacity="0.45"/>
<rect width="9.63321" height="7.40272" transform="matrix(-0.618043 -0.786144 0.931393 -0.364016 212.051 217.149)" fill="#70EEFF" fill-opacity="0.6"/>
<rect width="13.4747" height="4.36958" transform="matrix(-0.730205 0.683228 -0.883093 -0.469198 13.6981 199.219)" fill="#70EEFF" fill-opacity="0.6"/>
<rect width="5.07256" height="4.26132" transform="matrix(0.982618 -0.18564 0.355242 0.934775 245.618 103.832)" fill="#70EEFF" fill-opacity="0.35"/>
<rect width="11.7769" height="5.78494" transform="matrix(0.288636 0.957439 -0.988955 0.148213 200.862 103.115)" fill="#70EEFF" fill-opacity="0.9"/>
<rect width="8.0779" height="3.26138" transform="matrix(0.835571 -0.549382 0.797658 0.60311 293.426 145.43)" fill="#70EEFF" fill-opacity="0.9"/>
<rect width="8.18108" height="3.43218" transform="matrix(-0.996274 0.0862497 -0.171562 -0.985173 129.658 13.4651)" fill="#70EEFF"/>
<rect width="16.6285" height="2.90583" transform="matrix(0.954094 -0.299509 0.533923 0.845533 8.61218 72.2754)" fill="#70EEFF" fill-opacity="0.35"/>
<rect width="14.1833" height="3.46885" transform="matrix(-0.990739 0.135783 -0.265772 -0.964036 236.463 309.668)" fill="#70EEFF" fill-opacity="0.75"/>
<rect width="14.0842" height="7.5209" transform="matrix(-0.551631 0.834088 -0.949972 -0.312334 281.22 264.484)" fill="#70EEFF" fill-opacity="0.9"/>
<rect width="2.93724" height="7.86156" transform="matrix(-0.147439 -0.989071 0.997265 -0.0739037 153.054 294.607)" fill="#70EEFF" fill-opacity="0.45"/>
<rect width="4.0975" height="5.44481" transform="matrix(-0.648617 -0.761115 0.920777 -0.390089 310.719 108.135)" fill="#70EEFF"/>
<rect width="9.28297" height="4.36958" transform="matrix(0.730205 -0.683228 0.883093 0.469198 46.2483 251.575)" fill="#70EEFF" fill-opacity="0.6"/>
<rect width="11.2418" height="4.85965" transform="matrix(0.998103 0.0615691 -0.12314 0.992389 16.7496 149.733)" fill="#70EEFF" fill-opacity="0.35"/>
<rect width="14.7319" height="2.88971" transform="matrix(0.958014 0.286721 -0.515773 0.856726 29.9731 25.6575)" fill="#70EEFF"/>
<rect width="10.905" height="5.60029" transform="matrix(-0.533923 0.845533 -0.954094 -0.299509 339.2 275.959)" fill="#70EEFF" fill-opacity="0.85"/>
<rect width="3.07274" height="5.00241" transform="matrix(0.982618 -0.18564 0.355242 0.934775 237.481 60.8003)" fill="#70EEFF" fill-opacity="0.85"/>
<rect width="4.88549" height="3.74501" transform="matrix(-0.941111 -0.338098 0.585721 -0.810513 325.976 45.739)" fill="#70EEFF" fill-opacity="0.6"/>
<rect width="13.0413" height="4.27942" transform="matrix(0.980168 -0.198168 0.376725 0.926325 126.607 119.611)" fill="#70EEFF" fill-opacity="0.35"/>
<ellipse cx="86.5266" cy="82.0273" rx="1.62497" ry="1.14572" fill="#70EEFF" fill-opacity="0.85"/>
<ellipse cx="288.439" cy="161.278" rx="2.13356" ry="1.50432" fill="#70EEFF" fill-opacity="0.75"/>
<ellipse cx="199.944" cy="190.683" rx="2.13356" ry="1.50432" fill="#70EEFF" fill-opacity="0.45"/>
<ellipse cx="233.511" cy="181.359" rx="1.11637" ry="0.787125" fill="#70EEFF" fill-opacity="0.6"/>
<ellipse cx="305.223" cy="92.0682" rx="3.65935" ry="2.58012" fill="#70EEFF" fill-opacity="0.75"/>
<ellipse cx="91.6125" cy="102.109" rx="2.64216" ry="1.86292" fill="#70EEFF" fill-opacity="0.75"/>
<ellipse cx="257.924" cy="111.074" rx="3.15076" ry="2.22152" fill="#70EEFF" fill-opacity="0.75"/>
<ellipse cx="173.497" cy="75.9314" rx="1.11637" ry="0.787125" fill="#70EEFF" fill-opacity="0.65"/>
<ellipse cx="171.462" cy="284.636" rx="1.11637" ry="0.787125" fill="#70EEFF" fill-opacity="0.35"/>
<ellipse cx="371.341" cy="108.564" rx="3.65935" ry="2.58012" fill="#70EEFF" fill-opacity="0.35"/>
<ellipse cx="357.1" cy="205.386" rx="2.64216" ry="1.86292" fill="#70EEFF" fill-opacity="0.75"/>
<ellipse cx="188.755" cy="121.832" rx="3.15076" ry="2.22152" fill="#70EEFF" fill-opacity="0.6"/>
<ellipse cx="340.825" cy="157.333" rx="1.62497" ry="1.14572" fill="#70EEFF" fill-opacity="0.65"/>
<ellipse cx="93.1383" cy="319.778" rx="3.15076" ry="2.22152" fill="#70EEFF" fill-opacity="0.35"/>
<ellipse cx="62.6226" cy="249.493" rx="1.11637" ry="0.787125" fill="#70EEFF" fill-opacity="0.75"/>
<ellipse cx="163.325" cy="126.135" rx="2.13356" ry="1.50432" fill="#70EEFF" fill-opacity="0.9"/>
<ellipse cx="175.531" cy="78.8002" rx="2.13356" ry="1.50432" fill="#70EEFF" fill-opacity="0.85"/>
<ellipse cx="154.679" cy="98.5228" rx="2.64216" ry="1.86292" fill="#70EEFF" fill-opacity="0.45"/>
<ellipse cx="97.2071" cy="191.4" rx="1.11637" ry="0.787125" fill="#70EEFF" fill-opacity="0.85"/>
<ellipse cx="250.295" cy="254.872" rx="3.65935" ry="2.58012" fill="#70EEFF"/>
<ellipse cx="230.459" cy="315.475" rx="3.15076" ry="2.22152" fill="#70EEFF" fill-opacity="0.9"/>
<ellipse cx="259.958" cy="277.464" rx="1.11637" ry="0.787125" fill="#70EEFF" fill-opacity="0.6"/>
<ellipse cx="188.755" cy="235.866" rx="3.15076" ry="2.22152" fill="#70EEFF" fill-opacity="0.75"/>
<path d="M357.673 103.405L361.405 101.946L365.063 103.496L364.988 106.504L361.256 107.962L357.598 106.413L357.673 103.405Z" fill="#70EEFF"/>
<path d="M332.008 145.44L326.874 141.692L334.045 140.431L332.008 145.44Z" fill="#70EEFF" fill-opacity="0.65"/>
<path d="M176.322 78.4894L172.555 75.5399L178.061 74.7147L176.322 78.4894Z" fill="#70EEFF" fill-opacity="0.45"/>
<path d="M346.694 205.744L340.293 203.139L346.694 200.533L346.694 205.744Z" fill="#70EEFF" fill-opacity="0.35"/>
<path d="M152.446 25.4903L148.956 26.586L146.399 24.5841L148.309 22.2512L152.046 22.8113L152.446 25.4903Z" fill="#70EEFF"/>
<path d="M228.638 253.819L224.751 251.263L228.376 248.522L232.263 251.078L228.638 253.819Z" fill="#70EEFF" fill-opacity="0.65"/>
<path d="M204.975 126.374L206.558 123.466L210.971 123.629L212.114 126.638L208.409 128.335L204.975 126.374Z" fill="#70EEFF" fill-opacity="0.6"/>
<path d="M151.739 311.952L145.096 314.236L145.611 309.038L151.739 311.952Z" fill="#70EEFF" fill-opacity="0.45"/>
<path d="M232.313 237.994L233.183 240.134L230.148 240.748L229.278 238.608L232.313 237.994Z" fill="#70EEFF" fill-opacity="0.85"/>
<path d="M342.903 295.511L343.57 298.482L340.254 300.376L336.27 299.297L335.603 296.326L338.919 294.432L342.903 295.511Z" fill="#70EEFF" fill-opacity="0.65"/>
<path d="M75.477 8.63306L75.3459 11.2815L72.0273 12.5256L68.8399 11.1213L68.971 8.47288L72.2896 7.22875L75.477 8.63306Z" fill="#70EEFF" fill-opacity="0.45"/>
<path d="M200.114 152.341L197.109 154.958L192.392 154.431L190.681 151.288L193.686 148.671L198.403 149.198L200.114 152.341Z" fill="#70EEFF" fill-opacity="0.45"/>
<path d="M82.3812 142.092L78.1245 142.301L75.7383 139.807L77.6089 137.103L81.8657 136.893L84.2518 139.387L82.3812 142.092Z" fill="#70EEFF" fill-opacity="0.6"/>
<path d="M241.485 290.973L240.471 287.294L245.688 286.579L246.703 290.258L241.485 290.973Z" fill="#70EEFF" fill-opacity="0.6"/>
<path d="M154.898 86.0619L151.75 82.7716L157.365 82.4947L154.898 86.0619Z" fill="#70EEFF" fill-opacity="0.85"/>
<path d="M215.552 150.61L210.548 150.363L209.335 146.931L213.589 145.057L217.432 147.33L215.552 150.61Z" fill="#70EEFF" fill-opacity="0.75"/>
<path d="M57.021 201.187L58.1697 204.435L53.6055 203.512L57.021 201.187Z" fill="#70EEFF" fill-opacity="0.45"/>
<path d="M161.592 284.9L160.819 290.082L154.84 287.019L161.592 284.9Z" fill="#70EEFF"/>
<path d="M120.819 307.377L117.262 304.592L121.212 302.085L124.769 304.87L120.819 307.377Z" fill="#70EEFF" fill-opacity="0.6"/>
<path d="M25.6347 162.915L22.7382 163.911L20.4995 162.276L22.0125 160.27L25.1861 160.665L25.6347 162.915Z" fill="#70EEFF" fill-opacity="0.45"/>
<path d="M194.412 58.3002L197.374 59.9317L196.85 62.556L193.366 63.5487L190.404 61.9172L190.927 59.2929L194.412 58.3002Z" fill="#70EEFF" fill-opacity="0.65"/>
<path d="M305.38 278.786L301.118 280L299.397 276.995L303.658 275.781L305.38 278.786Z" fill="#70EEFF" fill-opacity="0.65"/>
<path d="M359.31 65.2346L357.554 66.6099L355.156 65.8571L355.431 64.0166L357.998 63.6319L359.31 65.2346Z" fill="#70EEFF" fill-opacity="0.9"/>
<path d="M220.78 177.004L217.399 176.453L215.612 178.55L215.31 176.113L211.929 175.563L215.123 174.607L214.821 172.17L217.097 174.016L220.291 173.06L218.504 175.157L220.78 177.004Z" fill="#70EEFF"/>
<path d="M301.395 273.63L298.482 272.506L295.375 273.334L296.97 271.28L295.796 269.089L298.709 270.213L301.816 269.386L300.221 271.44L301.395 273.63Z" fill="#70EEFF" fill-opacity="0.35"/>
<path d="M38.2874 235.298L38.6578 236.495L40.1877 237.076L38.4899 237.338L37.666 238.416L37.2956 237.219L35.7657 236.638L37.4634 236.377L38.2874 235.298Z" fill="#70EEFF" fill-opacity="0.9"/>
<path d="M212.778 266.582L214.515 266.554L215.616 265.606L215.655 266.831L217 267.607L215.263 267.635L214.162 268.583L214.122 267.358L212.778 266.582Z" fill="#70EEFF" fill-opacity="0.35"/>
<path d="M175.258 224.759L174.807 223.125L172.464 222.922L174.529 222.115L174.078 220.481L175.805 221.616L177.87 220.809L176.872 222.318L178.599 223.453L176.256 223.25L175.258 224.759Z" fill="#70EEFF"/>
<path d="M23.976 17.3316L27.0107 16.1455L26.3486 13.744L28.8862 15.4125L31.921 14.2264L30.4546 16.4437L32.9922 18.1121L29.5483 17.814L28.0819 20.0312L27.4199 17.6297L23.976 17.3316Z" fill="#70EEFF" fill-opacity="0.45"/>
<path d="M296.336 304.696L294.804 306.49L297.296 307.628L294.327 307.589L294.176 309.68L292.739 307.847L290.095 308.8L291.628 307.007L289.135 305.868L292.104 305.908L292.256 303.817L293.692 305.649L296.336 304.696Z" fill="#70EEFF" fill-opacity="0.75"/>
<path d="M100.198 107.279L101.838 106.873L102.47 105.732L103.044 106.888L104.663 107.333L103.023 107.739L102.392 108.88L101.817 107.724L100.198 107.279Z" fill="#70EEFF" fill-opacity="0.9"/>
<path d="M340.525 99.8134L342.195 99.0486L341.68 97.6922L343.227 98.5759L344.898 97.8111L344.184 99.1221L345.732 100.006L343.743 99.9323L343.029 101.243L342.514 99.8869L340.525 99.8134Z" fill="#70EEFF" fill-opacity="0.9"/>
<path d="M278.762 58.7592L275.976 59.7174L276.407 61.882L274.254 60.3096L271.467 61.2679L272.923 59.3378L270.769 57.7654L273.822 58.145L275.278 56.2149L275.709 58.3796L278.762 58.7592Z" fill="#70EEFF" fill-opacity="0.65"/>
<path d="M174.319 174.615L172.293 175.087L171.484 176.479L170.814 175.051L168.84 174.48L170.865 174.007L171.675 172.615L172.345 174.044L174.319 174.615Z" fill="#70EEFF" fill-opacity="0.75"/>
<path d="M154.482 37.2481L152.313 35.8182L150.215 37.3006L150.887 35.261L148.018 34.7216L150.859 34.112L150.086 32.0902L152.256 33.5201L154.353 32.0377L153.681 34.0773L156.551 34.6166L153.71 35.2263L154.482 37.2481Z" fill="#70EEFF" fill-opacity="0.6"/>
<path d="M44.3229 243.682L45.5145 242.979L44.5563 242.116L46.0158 242.492L46.596 241.476L46.8639 242.555L48.4024 242.401L47.2108 243.105L48.169 243.967L46.7095 243.591L46.1293 244.607L45.8614 243.528L44.3229 243.682Z" fill="#70EEFF" fill-opacity="0.65"/>
<path d="M284.839 196.908L287.467 198.34L290.719 197.865L288.688 199.718L289.361 202.011L286.733 200.579L283.481 201.054L285.512 199.201L284.839 196.908Z" fill="#70EEFF" fill-opacity="0.75"/>
<path d="M223.61 272.058L222.614 270.842L220.666 271.134L221.999 270.091L221.003 268.874L222.822 269.446L224.155 268.402L223.947 269.799L225.766 270.37L223.818 270.662L223.61 272.058Z" fill="#70EEFF" fill-opacity="0.6"/>
<path d="M143.683 211.109L142.082 211.84L143.067 212.992L141.368 212.38L140.445 213.557L140.348 212.214L138.44 212.239L140.041 211.508L139.057 210.356L140.756 210.968L141.678 209.79L141.776 211.134L143.683 211.109Z" fill="#70EEFF" fill-opacity="0.65"/>
<path d="M358.323 205.783L358.816 203.75L356.947 202.163L359.831 202.511L362.082 201.193L361.589 203.226L363.457 204.813L360.574 204.466L358.323 205.783Z" fill="#70EEFF" fill-opacity="0.45"/>
<path d="M150.208 310.748L153.133 310.701L154.986 309.105L155.052 311.167L157.316 312.474L154.391 312.521L152.539 314.117L152.472 312.055L150.208 310.748Z" fill="#70EEFF" fill-opacity="0.9"/>
<path d="M315.485 199.034L316.689 200.914L319.497 201.493L316.831 202.342L316.009 204.322L314.805 202.442L311.998 201.863L314.664 201.014L315.485 199.034Z" fill="#70EEFF"/>
<path d="M26.9888 292.206L29.8488 293.88L33.5126 293.438L31.1387 295.455L31.7645 298.038L28.9045 296.364L25.2408 296.806L27.6147 294.789L26.9888 292.206Z" fill="#70EEFF"/>
<path d="M177.836 190.211L177.528 188.723L175.725 187.919L177.836 187.701L178.976 186.43L179.285 187.918L181.088 188.722L178.977 188.94L177.836 190.211Z" fill="#70EEFF"/>
<path d="M55.8774 210.752L54.3111 209.175L51.6997 209.738L53.3431 208.2L51.7768 206.623L54.3588 207.25L56.0022 205.712L55.9545 207.637L58.5364 208.264L55.925 208.827L55.8774 210.752Z" fill="#70EEFF" fill-opacity="0.65"/>
<path d="M300.239 152.886L302.228 152.813L302.743 151.456L303.457 152.767L305.446 152.694L303.898 153.578L304.612 154.889L302.942 154.124L301.394 155.007L301.909 153.651L300.239 152.886Z" fill="#70EEFF"/>
</svg>
