<svg width="164" height="23" viewBox="0 0 164 23" fill="none" xmlns="http://www.w3.org/2000/svg">
<path d="M15.7367 22.982V10.3119H5.35582V7.05496H15.7367V2.31812H0.162598V14.8672H10.5435V18.2727H0.162598V22.982H15.7367Z" fill="#FF00FF"/>
<path d="M32.891 22.982V2.31812H17.3169V22.982H32.891ZM27.6978 18.2727H22.5101V7.05496H27.6978V18.2727Z" fill="#FF00FF"/>
<path d="M50.0101 22.982V18.2727H39.6954V2.31812H34.5022V22.982H50.0101Z" fill="#FF00FF"/>
<path d="M15.5741 20.6639V7.99378H5.19322V4.73685H15.5741V0H0V12.5491H10.3809V15.9545H0V20.6639H15.5741Z" fill="#00FFFF"/>
<path d="M32.7284 20.6639V0H17.1543V20.6639H32.7284ZM27.5352 15.9545H22.3475V4.73685H27.5352V15.9545Z" fill="#00FFFF"/>
<path d="M49.8475 20.6639V15.9545H39.5328V0H34.3396V20.6639H49.8475Z" fill="#00FFFF"/>
<path d="M15.6554 21.8231V9.15296H5.27452V5.89603H15.6554V1.15918H0.0812988V13.7083H10.4622V17.1137H0.0812988V21.8231H15.6554Z" fill="#9945FF"/>
<path d="M32.8097 21.8231V1.15918H17.2356V21.8231H32.8097ZM27.6165 17.1137H22.4288V5.89603H27.6165V17.1137Z" fill="#9945FF"/>
<path d="M49.9288 21.8231V17.1137H39.6141V1.15918H34.4209V21.8231H49.9288Z" fill="#9945FF"/>
<path d="M66.6867 7.05496V2.31812H51.1125V7.05496H56.3389V22.982H61.5266V7.05496H66.6867Z" fill="#FF00FF"/>
<path d="M73.1495 22.982V2.31812H67.9563V22.982H73.1495Z" fill="#FF00FF"/>
<path d="M95.1542 22.982V2.31812H74.4199V7.05496H75.4464V22.982H79.6131V7.05496H82.1904V22.982H87.3837V7.05496H89.9609V22.982H95.1542Z" fill="#FF00FF"/>
<path d="M112.272 22.982V18.2727H101.957V14.8672H112.272V10.3119H101.957V7.05496H112.272V2.31812H96.7642V22.982H112.272Z" fill="#FF00FF"/>
<path d="M129.462 22.982V10.3119H119.081V7.05496H129.462V2.31812H113.887V14.8672H124.268V18.2727H113.887V22.982H129.462Z" fill="#FF00FF"/>
<path d="M146.616 22.982V2.31812H141.422V18.2727H136.235V2.31812H131.042V22.982H146.616Z" fill="#FF00FF"/>
<path d="M163.801 17.2219V2.31812H148.227V22.982H153.42V17.2219H163.801ZM158.608 12.5125H153.42V7.05496H158.608V12.5125Z" fill="#FF00FF"/>
<path d="M66.5238 4.73685V0H50.9497V4.73685H56.176V20.6639H61.3637V4.73685H66.5238Z" fill="#00FFFF"/>
<path d="M72.9869 20.6639V0H67.7937V20.6639H72.9869Z" fill="#00FFFF"/>
<path d="M94.9916 20.6639V0H74.2573V4.73685H75.2838V20.6639H79.4505V4.73685H82.0278V20.6639H87.2211V4.73685H89.7984V20.6639H94.9916Z" fill="#00FFFF"/>
<path d="M112.109 20.6639V15.9545H101.795V12.5491H112.109V7.99378H101.795V4.73685H112.109V0H96.6016V20.6639H112.109Z" fill="#00FFFF"/>
<path d="M129.299 20.6639V7.99378H118.918V4.73685H129.299V0H113.725V12.5491H124.106V15.9545H113.725V20.6639H129.299Z" fill="#00FFFF"/>
<path d="M146.453 20.6639V0H141.26V15.9545H136.072V0H130.879V20.6639H146.453Z" fill="#00FFFF"/>
<path d="M163.638 14.9037V0H148.064V20.6639H153.257V14.9037H163.638ZM158.445 10.1944H153.257V4.73685H158.445V10.1944Z" fill="#00FFFF"/>
<path d="M66.6054 5.89603V1.15918H51.0312V5.89603H56.2576V21.8231H61.4453V5.89603H66.6054Z" fill="#14F195"/>
<path d="M73.0682 21.8231V1.15918H67.875V21.8231H73.0682Z" fill="#14F195"/>
<path d="M95.0729 21.8231V1.15918H74.3386V5.89603H75.3651V21.8231H79.5318V5.89603H82.1091V21.8231H87.3024V5.89603H89.8796V21.8231H95.0729Z" fill="#14F195"/>
<path d="M112.191 21.8231V17.1137H101.876V13.7083H112.191V9.15296H101.876V5.89603H112.191V1.15918H96.6829V21.8231H112.191Z" fill="#14F195"/>
<path d="M129.38 21.8231V9.15296H118.999V5.89603H129.38V1.15918H113.806V13.7083H124.187V17.1137H113.806V21.8231H129.38Z" fill="#14F195"/>
<path d="M146.535 21.8231V1.15918H141.341V17.1137H136.154V1.15918H130.96V21.8231H146.535Z" fill="#14F195"/>
<path d="M163.72 16.0629V1.15918H148.146V21.8231H153.339V16.0629H163.72ZM158.526 11.3536H153.339V5.89603H158.526V11.3536Z" fill="#14F195"/>
</svg>
