<svg width="164" height="24" viewBox="0 0 164 24" fill="none" xmlns="http://www.w3.org/2000/svg">
<path d="M15.7367 23.8402V11.17H5.35579V7.91312H15.7367V3.17627H0.162567V15.7253H10.5435V19.1308H0.162567V23.8402H15.7367Z" fill="#FF00FF"/>
<path d="M32.891 23.8402V3.17627H17.3168V23.8402H32.891ZM27.6978 19.1308H22.5101V7.91312H27.6978V19.1308Z" fill="#FF00FF"/>
<path d="M50.01 23.8402V19.1308H39.6953V3.17627H34.5021V23.8402H50.01Z" fill="#FF00FF"/>
<path d="M15.5741 21.5218V8.85169H5.19322V5.59476H15.5741V0.85791H0V13.407H10.3809V16.8125H0V21.5218H15.5741Z" fill="#00FFFF"/>
<path d="M32.7284 21.5218V0.85791H17.1543V21.5218H32.7284ZM27.5352 16.8125H22.3475V5.59476H27.5352V16.8125Z" fill="#00FFFF"/>
<path d="M49.8475 21.5218V16.8125H39.5328V0.85791H34.3396V21.5218H49.8475Z" fill="#00FFFF"/>
<path d="M15.6555 22.681V10.0109H5.27457V6.75394H15.6555V2.01709H0.0813446V14.5662H10.4623V17.9716H0.0813446V22.681H15.6555Z" fill="#9945FF"/>
<path d="M32.8096 22.681V2.01709H17.2355V22.681H32.8096ZM27.6164 17.9716H22.4287V6.75394H27.6164V17.9716Z" fill="#9945FF"/>
<path d="M49.9288 22.681V17.9716H39.6141V2.01709H34.4209V22.681H49.9288Z" fill="#9945FF"/>
<path d="M66.6866 7.91312V3.17627H51.1125V7.91312H56.3388V23.8402H61.5265V7.91312H66.6866Z" fill="#FF00FF"/>
<path d="M73.1495 23.8402V3.17627H67.9563V23.8402H73.1495Z" fill="#FF00FF"/>
<path d="M95.1541 23.8402V3.17627H74.4198V7.91312H75.4463V23.8402H79.613V7.91312H82.1903V23.8402H87.3835V7.91312H89.9608V23.8402H95.1541Z" fill="#FF00FF"/>
<path d="M112.272 23.8402V19.1308H101.957V15.7253H112.272V11.17H101.957V7.91312H112.272V3.17627H96.7642V23.8402H112.272Z" fill="#FF00FF"/>
<path d="M129.462 23.8402V11.17H119.081V7.91312H129.462V3.17627H113.887V15.7253H124.268V19.1308H113.887V23.8402H129.462Z" fill="#FF00FF"/>
<path d="M146.616 23.8402V3.17627H141.422V19.1308H136.235V3.17627H131.042V23.8402H146.616Z" fill="#FF00FF"/>
<path d="M163.801 18.08V3.17627H148.227V23.8402H153.42V18.08H163.801ZM158.608 13.3707H153.42V7.91312H158.608V13.3707Z" fill="#FF00FF"/>
<path d="M66.5239 5.59476V0.85791H50.9498V5.59476H56.1761V21.5218H61.3638V5.59476H66.5239Z" fill="#00FFFF"/>
<path d="M72.9869 21.5218V0.85791H67.7936V21.5218H72.9869Z" fill="#00FFFF"/>
<path d="M94.9915 21.5218V0.85791H74.2573V5.59476H75.2838V21.5218H79.4505V5.59476H82.0278V21.5218H87.221V5.59476H89.7983V21.5218H94.9915Z" fill="#00FFFF"/>
<path d="M112.109 21.5218V16.8125H101.795V13.407H112.109V8.85169H101.795V5.59476H112.109V0.85791H96.6015V21.5218H112.109Z" fill="#00FFFF"/>
<path d="M129.299 21.5218V8.85169H118.918V5.59476H129.299V0.85791H113.725V13.407H124.106V16.8125H113.725V21.5218H129.299Z" fill="#00FFFF"/>
<path d="M146.453 21.5218V0.85791H141.26V16.8125H136.072V0.85791H130.879V21.5218H146.453Z" fill="#00FFFF"/>
<path d="M163.638 15.7617V0.85791H148.064V21.5218H153.257V15.7617H163.638ZM158.445 11.0523H153.257V5.59476H158.445V11.0523Z" fill="#00FFFF"/>
<path d="M66.6053 6.75394V2.01709H51.0311V6.75394H56.2575V22.681H61.4452V6.75394H66.6053Z" fill="#14F195"/>
<path d="M73.0682 22.681V2.01709H67.875V22.681H73.0682Z" fill="#14F195"/>
<path d="M95.0728 22.681V2.01709H74.3386V6.75394H75.3651V22.681H79.5318V6.75394H82.1091V22.681H87.3023V6.75394H89.8796V22.681H95.0728Z" fill="#14F195"/>
<path d="M112.191 22.681V17.9716H101.876V14.5662H112.191V10.0109H101.876V6.75394H112.191V2.01709H96.6829V22.681H112.191Z" fill="#14F195"/>
<path d="M129.38 22.681V10.0109H118.999V6.75394H129.38V2.01709H113.806V14.5662H124.187V17.9716H113.806V22.681H129.38Z" fill="#14F195"/>
<path d="M146.534 22.681V2.01709H141.341V17.9716H136.154V2.01709H130.96V22.681H146.534Z" fill="#14F195"/>
<path d="M163.72 16.9208V2.01709H148.146V22.681H153.339V16.9208H163.72ZM158.527 12.2115H153.339V6.75394H158.527V12.2115Z" fill="#14F195"/>
</svg>
