<svg width="14" height="14" viewBox="0 0 14 14" fill="none" xmlns="http://www.w3.org/2000/svg">
<path fill-rule="evenodd" clip-rule="evenodd" d="M6.68323 1.3804C5.3785 1.3804 4.17579 1.49153 3.21043 1.62319C2.34162 1.74169 1.68649 2.41827 1.57174 3.31552C1.44425 4.31248 1.33665 5.55457 1.33665 6.902C1.33665 8.24943 1.44425 9.49152 1.57174 10.4885C1.68649 11.3857 2.34162 12.0623 3.21042 12.1808C4.17579 12.3125 5.3785 12.4236 6.68323 12.4236C7.98795 12.4236 9.19066 12.3125 10.156 12.1808C11.0248 12.0623 11.68 11.3857 11.7947 10.4885C11.9222 9.49152 12.0298 8.24943 12.0298 6.902C12.0298 5.55457 11.9222 4.31248 11.7947 3.31552C11.68 2.41827 11.0248 1.74169 10.156 1.62319C9.19066 1.49153 7.98795 1.3804 6.68323 1.3804ZM3.03541 0.254679C1.56725 0.454928 0.440508 1.61855 0.246606 3.13478C0.113303 4.17715 0 5.48107 0 6.902C0 8.32293 0.113303 9.62685 0.246606 10.6692C0.440508 12.1855 1.56725 13.3491 3.03541 13.5493C4.04474 13.687 5.30733 13.804 6.68323 13.804C8.05912 13.804 9.32171 13.687 10.331 13.5493C11.7992 13.3491 12.9259 12.1855 13.1198 10.6692C13.2531 9.62685 13.3665 8.32293 13.3665 6.902C13.3665 5.48107 13.2531 4.17715 13.1198 3.13478C12.9259 1.61855 11.7992 0.454928 10.331 0.254679C9.32171 0.117012 8.05912 0 6.68323 0C5.30733 0 4.04474 0.117012 3.03541 0.254679Z" fill="#14F195"/>
<path d="M4.67832 6.21197C5.41653 6.21197 6.01497 5.59395 6.01497 4.83157C6.01497 4.0692 5.41653 3.45117 4.67832 3.45117C3.94011 3.45117 3.34168 4.0692 3.34168 4.83157C3.34168 5.59395 3.94011 6.21197 4.67832 6.21197Z" fill="#14F195"/>
<path d="M10.7743 7.39035L11.9735 8.62879C11.9321 9.27496 11.8717 9.87453 11.8051 10.407L9.82915 8.36644C9.56815 8.0969 9.145 8.0969 8.884 8.36644L7.43269 9.86526C6.6497 10.6739 5.38022 10.6739 4.59724 9.86526L4.48257 9.74684C4.22157 9.4773 3.79842 9.4773 3.53742 9.74684L1.92739 11.4096C1.74088 11.1484 1.61608 10.835 1.57179 10.4887C1.54764 10.2998 1.5242 10.1021 1.50208 9.89663L2.59227 8.77075C3.37526 7.96213 4.64473 7.96213 5.42772 8.77075L5.54239 8.88917C5.80338 9.15871 6.22654 9.15871 6.48754 8.88917L7.93885 7.39035C8.72184 6.58172 9.99131 6.58173 10.7743 7.39035Z" fill="#14F195"/>
</svg>
