<svg width="164" height="24" viewBox="0 0 164 24" fill="none" xmlns="http://www.w3.org/2000/svg">
<path d="M15.7367 23.8398V11.1697H5.35582V7.91275H15.7367V3.1759H0.162598V15.725H10.5435V19.1304H0.162598V23.8398H15.7367Z" fill="#FF00FF"/>
<path d="M32.891 23.8398V3.1759H17.3169V23.8398H32.891ZM27.6978 19.1304H22.5101V7.91275H27.6978V19.1304Z" fill="#FF00FF"/>
<path d="M50.01 23.8398V19.1304H39.6953V3.1759H34.5021V23.8398H50.01Z" fill="#FF00FF"/>
<path d="M15.5741 21.5217V8.85157H5.19322V5.59464H15.5741V0.857788H0V13.4069H10.3809V16.8123H0V21.5217H15.5741Z" fill="#00FFFF"/>
<path d="M32.7284 21.5217V0.857788H17.1543V21.5217H32.7284ZM27.5352 16.8123H22.3475V5.59464H27.5352V16.8123Z" fill="#00FFFF"/>
<path d="M49.8475 21.5217V16.8123H39.5328V0.857788H34.3396V21.5217H49.8475Z" fill="#00FFFF"/>
<path d="M15.6554 22.6807V10.0106H5.27452V6.7537H15.6554V2.01685H0.0812988V14.5659H10.4622V17.9714H0.0812988V22.6807H15.6554Z" fill="#9945FF"/>
<path d="M32.8096 22.6807V2.01685H17.2355V22.6807H32.8096ZM27.6164 17.9714H22.4287V6.7537H27.6164V17.9714Z" fill="#9945FF"/>
<path d="M49.9288 22.6807V17.9714H39.6141V2.01685H34.4209V22.6807H49.9288Z" fill="#9945FF"/>
<path d="M66.6866 7.91275V3.1759H51.1124V7.91275H56.3388V23.8398H61.5265V7.91275H66.6866Z" fill="#FF00FF"/>
<path d="M73.1495 23.8398V3.1759H67.9563V23.8398H73.1495Z" fill="#FF00FF"/>
<path d="M95.154 23.8398V3.1759H74.4198V7.91275H75.4463V23.8398H79.613V7.91275H82.1903V23.8398H87.3835V7.91275H89.9608V23.8398H95.154Z" fill="#FF00FF"/>
<path d="M112.272 23.8398V19.1304H101.957V15.725H112.272V11.1697H101.957V7.91275H112.272V3.1759H96.7642V23.8398H112.272Z" fill="#FF00FF"/>
<path d="M129.461 23.8398V11.1697H119.081V7.91275H129.461V3.1759H113.887V15.725H124.268V19.1304H113.887V23.8398H129.461Z" fill="#FF00FF"/>
<path d="M146.616 23.8398V3.1759H141.422V19.1304H136.235V3.1759H131.042V23.8398H146.616Z" fill="#FF00FF"/>
<path d="M163.801 18.0796V3.1759H148.227V23.8398H153.42V18.0796H163.801ZM158.608 13.3703H153.42V7.91275H158.608V13.3703Z" fill="#FF00FF"/>
<path d="M66.524 5.59464V0.857788H50.9498V5.59464H56.1762V21.5217H61.3639V5.59464H66.524Z" fill="#00FFFF"/>
<path d="M72.9868 21.5217V0.857788H67.7936V21.5217H72.9868Z" fill="#00FFFF"/>
<path d="M94.9914 21.5217V0.857788H74.2572V5.59464H75.2837V21.5217H79.4504V5.59464H82.0277V21.5217H87.2209V5.59464H89.7982V21.5217H94.9914Z" fill="#00FFFF"/>
<path d="M112.109 21.5217V16.8123H101.795V13.4069H112.109V8.85157H101.795V5.59464H112.109V0.857788H96.6016V21.5217H112.109Z" fill="#00FFFF"/>
<path d="M129.299 21.5217V8.85157H118.918V5.59464H129.299V0.857788H113.725V13.4069H124.106V16.8123H113.725V21.5217H129.299Z" fill="#00FFFF"/>
<path d="M146.453 21.5217V0.857788H141.26V16.8123H136.072V0.857788H130.879V21.5217H146.453Z" fill="#00FFFF"/>
<path d="M163.638 15.7615V0.857788H148.064V21.5217H153.257V15.7615H163.638ZM158.445 11.0522H153.257V5.59464H158.445V11.0522Z" fill="#00FFFF"/>
<path d="M66.6053 6.7537V2.01685H51.0311V6.7537H56.2575V22.6807H61.4452V6.7537H66.6053Z" fill="#14F195"/>
<path d="M73.0682 22.6807V2.01685H67.875V22.6807H73.0682Z" fill="#14F195"/>
<path d="M95.0729 22.6807V2.01685H74.3386V6.7537H75.3651V22.6807H79.5318V6.7537H82.1091V22.6807H87.3024V6.7537H89.8796V22.6807H95.0729Z" fill="#14F195"/>
<path d="M112.191 22.6807V17.9714H101.876V14.5659H112.191V10.0106H101.876V6.7537H112.191V2.01685H96.6829V22.6807H112.191Z" fill="#14F195"/>
<path d="M129.38 22.6807V10.0106H118.999V6.7537H129.38V2.01685H113.806V14.5659H124.187V17.9714H113.806V22.6807H129.38Z" fill="#14F195"/>
<path d="M146.534 22.6807V2.01685H141.341V17.9714H136.154V2.01685H130.96V22.6807H146.534Z" fill="#14F195"/>
<path d="M163.72 16.9206V2.01685H148.146V22.6807H153.339V16.9206H163.72ZM158.527 12.2112H153.339V6.7537H158.527V12.2112Z" fill="#14F195"/>
</svg>
