<svg width="14" height="15" viewBox="0 0 14 15" fill="none" xmlns="http://www.w3.org/2000/svg">
<g clip-path="url(#clip0_76_99)">
<path d="M7 0.5C3.13398 0.5 0 3.63398 0 7.5C0 11.366 3.13398 14.5 7 14.5C10.866 14.5 14 11.366 14 7.5C14 3.63398 10.866 0.5 7 0.5ZM7 3.07631C7.68724 3.07631 8.24444 3.63351 8.24444 4.32076C8.24444 5.008 7.68724 5.5652 7 5.5652C6.31276 5.5652 5.75556 5.008 5.75556 4.32076C5.75556 3.63351 6.31276 3.07631 7 3.07631ZM8.86667 11.6126C8.86667 11.7843 8.72729 11.8556 8.55556 11.8556H5.44444C5.27271 11.8556 5.13333 11.7843 5.13333 11.6126V11.457C5.13333 11.2851 5.27271 11.0778 5.44444 11.0778H5.75556V7.18889H5.44444C5.27271 7.18889 5.13333 7.11764 5.13333 6.94591V6.79036C5.13333 6.61847 5.27271 6.41111 5.44444 6.41111H7.93333C8.10507 6.41111 8.24444 6.61847 8.24444 6.79036V6.94591V11.0778H8.55556C8.72729 11.0778 8.86667 11.2851 8.86667 11.457V11.6126Z" fill="#777777"/>
</g>
<defs>
<clipPath id="clip0_76_99">
<rect width="14" height="14" fill="white" transform="translate(0 0.5)"/>
</clipPath>
</defs>
</svg>
