<svg width="24" height="24" viewBox="0 0 24 24" fill="none" xmlns="http://www.w3.org/2000/svg">
<path fill-rule="evenodd" clip-rule="evenodd" d="M3.13502 14.998C2.95402 14.693 2.95402 14.307 3.13502 14.002C5.04002 10.779 8.52002 8 12 8C15.48 8 18.959 10.779 20.864 14.001C21.045 14.307 21.045 14.694 20.864 15C18.959 18.221 15.48 21 12 21C8.52002 21 5.04002 18.221 3.13502 14.998Z" stroke="white" stroke-width="1.5" stroke-linecap="round" stroke-linejoin="round"/>
<path d="M14.121 12.379C15.293 13.551 15.293 15.45 14.121 16.622C12.949 17.794 11.05 17.794 9.87802 16.622C8.70602 15.45 8.70602 13.551 9.87802 12.379C11.05 11.207 12.95 11.207 14.121 12.379" stroke="white" stroke-width="1.4286" stroke-linecap="round" stroke-linejoin="round"/>
<path d="M12 2.5V5" stroke="white" stroke-width="1.5" stroke-linecap="round" stroke-linejoin="round"/>
<path d="M5 4.5L6.68 6.5" stroke="white" stroke-width="1.5" stroke-linecap="round" stroke-linejoin="round"/>
<path d="M19.0001 4.5L17.3201 6.5" stroke="white" stroke-width="1.5" stroke-linecap="round" stroke-linejoin="round"/>
</svg>
