<svg width="48" height="48" viewBox="0 0 48 48" fill="none" xmlns="http://www.w3.org/2000/svg">
<circle cx="24" cy="24" r="24" fill="#0075FF"/>
<g clip-path="url(#clip0_97_2028)">
<path d="M24.0125 11.5C17.1125 11.5 11.525 17.1 11.525 24C11.525 30.9 17.1125 36.5 24.0125 36.5C30.925 36.5 36.525 30.9 36.525 24C36.525 17.1 30.925 11.5 24.0125 11.5ZM24.025 34C18.5 34 14.025 29.525 14.025 24C14.025 18.475 18.5 14 24.025 14C29.55 14 34.025 18.475 34.025 24C34.025 29.525 29.55 34 24.025 34ZM28.4 22.75C29.4375 22.75 30.275 21.9125 30.275 20.875C30.275 19.8375 29.4375 19 28.4 19C27.3625 19 26.525 19.8375 26.525 20.875C26.525 21.9125 27.3625 22.75 28.4 22.75ZM19.65 22.75C20.6875 22.75 21.525 21.9125 21.525 20.875C21.525 19.8375 20.6875 19 19.65 19C18.6125 19 17.775 19.8375 17.775 20.875C17.775 21.9125 18.6125 22.75 19.65 22.75ZM24.025 30.875C26.5625 30.875 28.775 29.4875 29.9625 27.4375C30.2 27.025 29.9 26.5 29.4125 26.5H18.6375C18.1625 26.5 17.85 27.025 18.0875 27.4375C19.275 29.4875 21.4875 30.875 24.025 30.875Z" fill="white"/>
</g>
<defs>
<clipPath id="clip0_97_2028">
<rect width="30" height="30" fill="white" transform="translate(9 9)"/>
</clipPath>
</defs>
</svg>
