<svg width="18" height="18" viewBox="0 0 18 18" fill="none" xmlns="http://www.w3.org/2000/svg">
<path d="M9.22113 6.7609C8.75949 6.71531 8.29504 6.81352 7.89137 7.04209C7.4877 7.27066 7.16454 7.61841 6.96615 8.03773C6.76775 8.45706 6.70382 8.92746 6.78309 9.38452C6.86237 9.84159 7.08099 10.263 7.40901 10.591C7.73702 10.919 8.15841 11.1376 8.61548 11.2169C9.07254 11.2962 9.54294 11.2322 9.96227 11.0339C10.3816 10.8355 10.7293 10.5123 10.9579 10.1086C11.1865 9.70496 11.2847 9.24051 11.2391 8.77887C11.1871 8.26136 10.9578 7.77774 10.59 7.40996C10.2223 7.04218 9.73864 6.81288 9.22113 6.7609ZM14.6387 9C14.6373 9.24457 14.6193 9.48876 14.5849 9.7309L16.1743 10.9775C16.2435 11.0349 16.2902 11.115 16.3059 11.2035C16.3217 11.292 16.3056 11.3832 16.2605 11.4609L14.7568 14.0625C14.7112 14.1395 14.6398 14.1979 14.5553 14.2274C14.4708 14.2569 14.3786 14.2557 14.2949 14.2239L12.7164 13.5882C12.6293 13.5536 12.535 13.5411 12.442 13.5518C12.3489 13.5625 12.2599 13.5962 12.183 13.6498C11.9421 13.8157 11.689 13.963 11.4258 14.0906C11.343 14.1308 11.2715 14.1908 11.2174 14.2653C11.1633 14.3397 11.1284 14.4263 11.1157 14.5174L10.8791 16.2011C10.8636 16.29 10.8176 16.3707 10.7491 16.4295C10.6807 16.4883 10.5939 16.5215 10.5036 16.5234H7.49637C7.40761 16.5219 7.32203 16.4902 7.25371 16.4335C7.1854 16.3768 7.13843 16.2985 7.12055 16.2116L6.8843 14.5304C6.87103 14.4383 6.8352 14.3509 6.78 14.2759C6.7248 14.201 6.65194 14.1408 6.56789 14.1008C6.305 13.9739 6.0527 13.8261 5.81344 13.6589C5.73683 13.6056 5.64816 13.5722 5.55543 13.5617C5.4627 13.5512 5.36881 13.564 5.28223 13.5988L3.70406 14.2341C3.62043 14.2659 3.52824 14.2672 3.44373 14.2378C3.35923 14.2083 3.28783 14.15 3.24211 14.073L1.73848 11.4715C1.69327 11.3938 1.67712 11.3025 1.69289 11.214C1.70866 11.1255 1.75534 11.0454 1.82461 10.9881L3.16793 9.9334C3.24152 9.87498 3.29936 9.7991 3.3362 9.71266C3.37304 9.62622 3.3877 9.53195 3.37887 9.4384C3.36621 9.2918 3.35848 9.14555 3.35848 8.99895C3.35848 8.85234 3.36586 8.7082 3.37887 8.56477C3.38674 8.47179 3.37135 8.37831 3.3341 8.29276C3.29685 8.20721 3.2389 8.13227 3.16547 8.07469L1.82285 7.02C1.75471 6.96238 1.70901 6.88261 1.69378 6.79468C1.67854 6.70674 1.69474 6.61625 1.73953 6.53906L3.24316 3.9375C3.28883 3.8605 3.3602 3.8021 3.44471 3.77258C3.52923 3.74306 3.62144 3.74432 3.70512 3.77613L5.28363 4.41176C5.37068 4.44642 5.46497 4.45894 5.55805 4.4482C5.65112 4.43746 5.74008 4.4038 5.81695 4.35023C6.05786 4.18434 6.31101 4.03696 6.57422 3.90937C6.65697 3.86916 6.72854 3.80918 6.78262 3.73475C6.8367 3.66031 6.87162 3.57371 6.8843 3.48258L7.1209 1.79895C7.13644 1.71003 7.18238 1.62927 7.25086 1.57047C7.31934 1.51167 7.40612 1.47847 7.49637 1.47656H10.5036C10.5924 1.4781 10.678 1.50982 10.7463 1.5665C10.8146 1.62319 10.8616 1.70145 10.8795 1.7884L11.1157 3.46957C11.129 3.5617 11.1648 3.64913 11.22 3.72408C11.2752 3.79903 11.3481 3.85918 11.4321 3.89918C11.695 4.02608 11.9473 4.17386 12.1866 4.34109C12.2632 4.3944 12.3518 4.4278 12.4446 4.43829C12.5373 4.44879 12.6312 4.43604 12.7178 4.40121L14.2959 3.76594C14.3796 3.73409 14.4718 3.73278 14.5563 3.76223C14.6408 3.79169 14.7122 3.85002 14.7579 3.92695L16.2615 6.52852C16.3067 6.60624 16.3229 6.69749 16.3071 6.78601C16.2913 6.87453 16.2447 6.95459 16.1754 7.01191L14.8321 8.0666C14.7582 8.12483 14.7 8.20062 14.6628 8.28708C14.6257 8.37353 14.6107 8.4679 14.6194 8.5616C14.631 8.70715 14.6387 8.8534 14.6387 9Z" stroke="#F1F1F1" stroke-width="1.125" stroke-linecap="round" stroke-linejoin="round"/>
</svg>
