<svg width="18" height="19" viewBox="0 0 18 19" fill="none" xmlns="http://www.w3.org/2000/svg">
<path d="M9.22113 7.2609C8.75949 7.21531 8.29504 7.31352 7.89137 7.54209C7.4877 7.77066 7.16454 8.11841 6.96615 8.53773C6.76775 8.95706 6.70382 9.42746 6.78309 9.88452C6.86237 10.3416 7.08099 10.763 7.40901 11.091C7.73702 11.419 8.15841 11.6376 8.61548 11.7169C9.07254 11.7962 9.54294 11.7322 9.96227 11.5339C10.3816 11.3355 10.7293 11.0123 10.9579 10.6086C11.1865 10.205 11.2847 9.74051 11.2391 9.27887C11.1871 8.76136 10.9578 8.27774 10.59 7.90996C10.2223 7.54218 9.73864 7.31288 9.22113 7.2609ZM14.6387 9.5C14.6373 9.74457 14.6193 9.98876 14.5849 10.2309L16.1743 11.4775C16.2435 11.5349 16.2902 11.615 16.3059 11.7035C16.3217 11.792 16.3056 11.8832 16.2605 11.9609L14.7568 14.5625C14.7112 14.6395 14.6398 14.6979 14.5553 14.7274C14.4708 14.7569 14.3786 14.7557 14.2949 14.7239L12.7164 14.0882C12.6293 14.0536 12.535 14.0411 12.442 14.0518C12.3489 14.0625 12.2599 14.0962 12.183 14.1498C11.9421 14.3157 11.689 14.463 11.4258 14.5906C11.343 14.6308 11.2715 14.6908 11.2174 14.7653C11.1633 14.8397 11.1284 14.9263 11.1157 15.0174L10.8791 16.7011C10.8636 16.79 10.8176 16.8707 10.7491 16.9295C10.6807 16.9883 10.5939 17.0215 10.5036 17.0234H7.49637C7.40761 17.0219 7.32203 16.9902 7.25371 16.9335C7.1854 16.8768 7.13843 16.7985 7.12055 16.7116L6.8843 15.0304C6.87103 14.9383 6.8352 14.8509 6.78 14.7759C6.7248 14.701 6.65194 14.6408 6.56789 14.6008C6.305 14.4739 6.0527 14.3261 5.81344 14.1589C5.73683 14.1056 5.64816 14.0722 5.55543 14.0617C5.4627 14.0512 5.36881 14.064 5.28223 14.0988L3.70406 14.7341C3.62043 14.7659 3.52824 14.7672 3.44373 14.7378C3.35923 14.7083 3.28783 14.65 3.24211 14.573L1.73848 11.9715C1.69327 11.8938 1.67712 11.8025 1.69289 11.714C1.70866 11.6255 1.75534 11.5454 1.82461 11.4881L3.16793 10.4334C3.24152 10.375 3.29936 10.2991 3.3362 10.2127C3.37304 10.1262 3.3877 10.0319 3.37887 9.9384C3.36621 9.7918 3.35848 9.64555 3.35848 9.49895C3.35848 9.35234 3.36586 9.2082 3.37887 9.06477C3.38674 8.97179 3.37135 8.87831 3.3341 8.79276C3.29685 8.70721 3.2389 8.63227 3.16547 8.57469L1.82285 7.52C1.75471 7.46238 1.70901 7.38261 1.69378 7.29468C1.67854 7.20674 1.69474 7.11625 1.73953 7.03906L3.24316 4.4375C3.28883 4.3605 3.3602 4.3021 3.44471 4.27258C3.52923 4.24306 3.62144 4.24432 3.70512 4.27613L5.28363 4.91176C5.37068 4.94642 5.46497 4.95894 5.55805 4.9482C5.65112 4.93746 5.74008 4.9038 5.81695 4.85023C6.05786 4.68434 6.31101 4.53696 6.57422 4.40937C6.65697 4.36916 6.72854 4.30918 6.78262 4.23475C6.8367 4.16031 6.87162 4.07371 6.8843 3.98258L7.1209 2.29895C7.13644 2.21003 7.18238 2.12927 7.25086 2.07047C7.31934 2.01167 7.40612 1.97847 7.49637 1.97656H10.5036C10.5924 1.9781 10.678 2.00982 10.7463 2.0665C10.8146 2.12319 10.8616 2.20145 10.8795 2.2884L11.1157 3.96957C11.129 4.0617 11.1648 4.14913 11.22 4.22408C11.2752 4.29903 11.3481 4.35918 11.4321 4.39918C11.695 4.52608 11.9473 4.67386 12.1866 4.84109C12.2632 4.8944 12.3518 4.9278 12.4446 4.93829C12.5373 4.94879 12.6312 4.93604 12.7178 4.90121L14.2959 4.26594C14.3796 4.23409 14.4718 4.23278 14.5563 4.26223C14.6408 4.29169 14.7122 4.35002 14.7579 4.42695L16.2615 7.02852C16.3067 7.10624 16.3229 7.19749 16.3071 7.28601C16.2913 7.37453 16.2447 7.45459 16.1754 7.51191L14.8321 8.5666C14.7582 8.62483 14.7 8.70062 14.6628 8.78708C14.6257 8.87353 14.6107 8.9679 14.6194 9.0616C14.631 9.20715 14.6387 9.3534 14.6387 9.5Z" stroke="#F1F1F1" stroke-width="1.125" stroke-linecap="round" stroke-linejoin="round"/>
</svg>
