<svg width="24" height="24" viewBox="0 0 24 24" fill="none" xmlns="http://www.w3.org/2000/svg">
<g clip-path="url(#clip0_78_2033)">
<rect width="24" height="24" rx="12" fill="#FFE75C"/>
<path d="M10.8001 19.8521C10.313 21.2692 9.46069 23.9814 9.46069 23.9814H13.3084C14.1607 20.9272 14.4042 19.5835 14.4042 19.5835L10.8001 19.8521Z" fill="#FF78B9"/>
<path d="M20.0053 23.9084C20.2591 23.6542 20.5559 23.4472 20.882 23.2974L19.6887 23.0775C19.0556 22.9797 18.9095 22.8576 18.6416 22.6134C16.7421 21.0251 15.4271 21.5139 11.8716 22.271C8.63282 21.4405 6.24631 20.7074 5.10176 21.2206C3.9572 21.7338 4.44425 24.0305 5.10176 26.6449C5.75926 29.2593 6.41677 31.6781 6.41677 31.6781H18.1545C18.3007 30.261 18.0328 27.7444 17.7649 25.9852L19.0799 26.3029C19.0799 25.4233 19.2504 24.6168 20.0053 23.9084Z" fill="#3442D9"/>
<path d="M7.34204 21.1714C8.55965 21.416 9.07105 22.7597 9.4607 23.9813C9.85034 25.2033 11.1167 26.205 13.0161 25.7161C14.9156 25.2276 16.742 24.0791 15.0617 21.6359C14.2094 21.7337 13.2109 21.9779 11.8716 22.2712C10.0695 21.8067 8.5353 21.3669 7.34204 21.1714Z" fill="white"/>
<path d="M9.85033 23.5171C10.7514 25.3497 12.5047 25.643 14.1363 24.6657C15.7679 23.6883 14.9156 21.9535 14.7695 21.6602C13.9902 21.8067 13.0648 21.8801 11.8716 22.1243C10.3617 21.7336 9.02237 21.5134 7.92651 21.2935C8.46227 21.4159 9.04672 21.8801 9.85033 23.5171Z" fill="#FF78B9"/>
<path d="M5.2233 21.1713C3.957 21.5868 3.2751 22.8574 4.17615 24.9099C4.32226 25.2032 4.37096 25.3253 4.41966 26.1558C4.46836 26.9867 4.63885 29.5524 5.88081 33.6817C6.17302 34.7321 6.66007 34.5369 8.21862 34.3901C9.77717 34.2436 16.888 33.0707 16.888 33.0707V30.774L8.75437 30.6519C8.24297 27.4752 7.80462 24.7631 7.51241 23.395C7.22017 22.0266 6.63572 20.7315 5.2233 21.1713Z" fill="#FF78B9"/>
<path d="M7.78039 23.3951C7.48819 22.051 6.63584 20.7316 5.22343 21.1714C3.81098 21.6112 3.27523 22.8575 4.17628 24.91C4.32238 25.2029 4.37108 25.3254 4.41978 26.1559C4.48199 27.2639 4.62034 28.3659 4.83378 29.4547C4.85754 28.943 5.0167 28.4467 5.29493 28.0176C5.57312 27.5882 5.96033 27.2406 6.41668 27.0111L8.02394 26.2293C8.41355 26.0338 7.92653 24.0547 7.78039 23.3951Z" fill="#3442D9"/>
<path d="M14.4041 19.5835L11.6279 19.779L11.7984 20.0476L13.6248 22.7598C14.2336 20.5608 14.4041 19.5835 14.4041 19.5835Z" fill="black"/>
<path d="M7.98395 11.7247C9.02749 11.462 9.69016 10.5168 9.46406 9.61355C9.23801 8.71047 8.20879 8.19161 7.16525 8.4546C6.12171 8.71759 5.45904 9.66287 5.6851 10.5658C5.91119 11.469 6.94041 11.9878 7.98395 11.7247Z" fill="black"/>
<path d="M5.73488 18.0686C6.00274 15.894 7.04989 12.5465 7.82915 10.7383C9.53381 6.82896 10.3618 5.50952 11.4577 5.50952C12.5535 5.50952 13.6006 7 15.1592 9.07686C16.7177 11.1537 18.5441 14.2079 19.4208 16.7001C19.9566 18.1907 19.4208 18.7282 18.4954 19.0216C17.57 19.3145 15.0861 19.8521 12.4561 20.1697C10.4283 20.414 8.38368 20.4878 6.34368 20.3896C5.54004 20.3409 5.51569 19.5587 5.73488 18.0686Z" fill="#FF78B9"/>
<path d="M12.6509 12.6685L13.2597 12.2043" stroke="black" stroke-width="0.938578" stroke-miterlimit="10" stroke-linecap="round"/>
<path d="M12.4561 12.6198L12.6265 11.8867" stroke="black" stroke-width="0.938578" stroke-miterlimit="10" stroke-linecap="round"/>
<path d="M8.94912 10.0785C8.97347 9.95635 8.87607 9.85858 8.72996 9.83423C8.70119 9.83423 8.67267 9.83976 8.6461 9.85083C8.6195 9.8619 8.59534 9.87813 8.57501 9.89842C8.55464 9.91909 8.53848 9.94344 8.52748 9.97C8.51645 9.99656 8.51081 10.0253 8.51081 10.0541C8.43776 11.4713 7.99941 12.3265 7.00096 12.9371C6.92791 13.1326 6.8792 13.3525 6.80615 13.5481C8.24292 12.864 8.87607 11.8376 8.94912 10.0785Z" fill="black"/>
<path d="M9.99635 9.93217C9.99664 9.8713 9.97436 9.81263 9.93385 9.76725C9.8933 9.72224 9.83744 9.69383 9.77719 9.68774C9.71805 9.69221 9.66208 9.71619 9.61799 9.75582C9.57394 9.79566 9.54427 9.84916 9.53365 9.90782C9.43624 11.9112 8.63263 13.035 6.70878 13.8416C6.66314 14.0319 6.60622 14.2197 6.53833 14.4035C8.87614 13.5239 9.87459 12.2289 9.99635 9.93217Z" fill="black"/>
<path d="M16.2793 12.473C17.1803 12.6929 17.4969 12.2288 17.4969 12.2288" stroke="black" stroke-width="0.938578" stroke-miterlimit="10" stroke-linecap="round"/>
<path d="M14.8181 9.0034C15.9882 9.0034 16.9367 8.05169 16.9367 6.87769C16.9367 5.70366 15.9882 4.75195 14.8181 4.75195C13.648 4.75195 12.6995 5.70366 12.6995 6.87769C12.6995 8.05169 13.648 9.0034 14.8181 9.0034Z" fill="black"/>
<path d="M12.2124 6.82892C13.6515 6.82892 14.8181 5.65839 14.8181 4.21451C14.8181 2.77063 13.6515 1.6001 12.2124 1.6001C10.7733 1.6001 9.60669 2.77063 9.60669 4.21451C9.60669 5.65839 10.7733 6.82892 12.2124 6.82892Z" fill="black"/>
<path d="M8.80326 8.83246C10.1213 8.83246 11.1898 7.7604 11.1898 6.43798C11.1898 5.11552 10.1213 4.04346 8.80326 4.04346C7.48523 4.04346 6.41675 5.11552 6.41675 6.43798C6.41675 7.7604 7.48523 8.83246 8.80326 8.83246Z" fill="black"/>
<path d="M8.04815 10.6652L10.5564 9.15016L14.8181 8.6126V5.97376L10.9217 4.89868L8.6326 6.73122L7.58545 10.2985L8.04815 10.6652Z" fill="black"/>
<path d="M15.4269 6.87769C15.2077 7.46409 14.8912 8.17266 14.0388 8.49033" stroke="#0E156E" stroke-width="0.938578" stroke-miterlimit="10" stroke-linecap="round"/>
<path d="M12.7239 4.40991C13.3814 5.50942 13.3083 7.36638 11.9446 8.8324" stroke="#0E156E" stroke-width="0.938578" stroke-miterlimit="10" stroke-linecap="round"/>
<path d="M16.888 15.283C16.2062 15.4052 15.9383 14.7455 15.7922 14.0371C15.6461 13.3284 15.4756 12.0577 15.6948 11.8625C15.9139 11.667 16.2062 11.9112 16.5958 12.6687C16.9855 13.4261 17.8865 15.1366 16.888 15.283Z" fill="white"/>
<path d="M12.3342 15.9671C13.2352 16.0896 13.771 15.3074 13.7466 14.599C13.6626 13.874 13.3756 13.1878 12.9187 12.62C12.5777 12.2532 11.8472 12.2289 11.4575 13.1819C11.0679 14.1349 10.6295 15.7472 12.3342 15.9671Z" fill="white"/>
<path d="M14.3797 17.604C14.3173 17.4738 14.2869 17.3302 14.2912 17.186C14.2954 17.0414 14.3341 16.8997 14.4041 16.7735C14.6963 16.2359 15.1103 15.9426 15.5974 15.967C16.0844 15.9917 16.401 16.3581 16.0844 17.0912C16.6932 17.6774 16.401 18.1663 15.7922 18.3128C15.1834 18.4592 14.7207 18.3615 14.3797 17.604Z" fill="#EB459F"/>
<path d="M7.14728 12.522C7.60998 11.2757 8.87629 10.5182 10.0939 9.93198C11.3115 9.3455 14.7208 8.36815 15.6462 9.73644C15.768 9.66313 15.7193 9.5654 15.6462 9.36993C15.509 9.12299 15.3544 8.8862 15.1835 8.66136C14.3555 7.63512 11.3846 8.07495 9.80165 8.97899C8.21878 9.88291 7.73173 10.6404 7.43949 11.3491C7.14728 12.0575 6.95244 12.3752 7.14728 12.522Z" fill="#312CC7"/>
<path d="M15.6947 16.6514C15.6298 16.7945 15.5278 16.9177 15.3993 17.0081C15.2708 17.0982 15.1205 17.1524 14.9641 17.1642" stroke="black" stroke-width="0.938578" stroke-miterlimit="10" stroke-linecap="round"/>
<path d="M15.6705 17.3111L15.427 16.9934" stroke="black" stroke-width="0.938578" stroke-miterlimit="10" stroke-linecap="round"/>
<path d="M13.4664 14.9613C13.5485 14.5374 13.4118 14.154 13.1609 14.105C12.9101 14.0563 12.6401 14.3603 12.558 14.7842C12.4759 15.2078 12.6127 15.5911 12.8635 15.6402C13.1144 15.6892 13.3843 15.3852 13.4664 14.9613Z" fill="black"/>
<path d="M17.0205 15.0125C17.2139 14.955 17.2871 14.6251 17.184 14.2757C17.0808 13.9267 16.8404 13.6898 16.647 13.7474C16.4536 13.8049 16.3804 14.1348 16.4835 14.4842C16.5866 14.8336 16.8271 15.0701 17.0205 15.0125Z" fill="black"/>
<path d="M15.6948 11.8624C15.5974 11.9598 15.5731 12.2775 15.5974 12.6686C15.8493 12.5077 16.1309 12.3996 16.4254 12.3509C16.1332 11.8624 15.8896 11.7156 15.6948 11.8624Z" fill="#D11583"/>
<path d="M17.3749 11.6425C17.3562 11.8668 17.2524 12.076 17.0847 12.2258C16.917 12.376 16.6984 12.4557 16.4738 12.4487H16.4251C16.1258 12.4782 15.8398 12.5881 15.5972 12.7663V12.5464C15.831 12.3896 16.0976 12.2893 16.3764 12.2531H16.4008C16.7661 12.2288 17.107 12.131 17.18 11.6178C17.1752 11.6023 17.1757 11.5853 17.1815 11.5698C17.1873 11.5547 17.1981 11.5418 17.2122 11.5333C17.2263 11.5248 17.2427 11.5211 17.259 11.5233C17.2752 11.5255 17.2903 11.5329 17.3018 11.5447C17.3505 11.5447 17.3749 11.5934 17.3749 11.6425Z" fill="black"/>
<path d="M16.3523 12.3508C16.6445 12.0822 16.6202 11.8623 16.5715 11.5447" stroke="black" stroke-width="0.938578" stroke-miterlimit="10" stroke-linecap="round"/>
<path d="M13.0648 12.7664L12.9187 12.6199C12.6265 12.2775 11.9933 12.2288 11.5793 12.9372L13.0648 12.7664Z" fill="#D11583"/>
<path opacity="0.3" d="M10.7966 17.8014C11.0232 17.6107 10.9547 17.1543 10.6435 16.782C10.3323 16.4098 9.89621 16.2629 9.66956 16.4537C9.44288 16.6444 9.51143 17.1008 9.82267 17.4731C10.1339 17.8454 10.5699 17.9922 10.7966 17.8014Z" fill="#FF0077"/>
<path opacity="0.3" d="M18.4712 14.4768C18.3007 14.5746 18.1789 14.9166 18.2033 15.3073C18.2276 15.6984 18.4225 16.1869 18.6416 16.1869C18.8608 16.1869 18.9582 15.967 19.0069 15.6493C19.0556 15.332 18.666 14.8675 18.4712 14.4768Z" fill="#FF0077"/>
</g>
<defs>
<clipPath id="clip0_78_2033">
<rect width="24" height="24" rx="12" fill="white"/>
</clipPath>
</defs>
</svg>
