<svg width="118" height="118" viewBox="0 0 118 118" fill="none" xmlns="http://www.w3.org/2000/svg">
<g clip-path="url(#clip0_78_2446)">
<rect width="118" height="118" rx="59" fill="#FFE75C"/>
<path d="M53.0998 97.6053C50.7051 104.573 46.5144 117.908 46.5144 117.908H65.4321C69.6228 102.891 70.82 96.2847 70.82 96.2847L53.0998 97.6053Z" fill="#FF78B9"/>
<path d="M98.3587 117.549C99.6064 116.299 101.066 115.281 102.669 114.545L96.8021 113.464C93.6891 112.983 92.9708 112.382 91.6536 111.182C82.3146 103.372 75.8491 105.776 58.3681 109.498C42.4439 105.415 30.7102 101.81 25.0828 104.334C19.4554 106.857 21.8501 118.149 25.0828 131.003C28.3156 143.857 31.5483 155.75 31.5483 155.75H89.2589C89.9775 148.782 88.6603 136.409 87.3433 127.76L93.8088 129.322C93.8088 124.997 94.6469 121.032 98.3587 117.549Z" fill="#3442D9"/>
<path d="M36.0977 104.092C42.0842 105.295 44.5986 111.902 46.5144 117.908C48.4301 123.916 54.6562 128.841 63.9952 126.437C73.3342 124.035 82.3142 118.388 74.0527 106.376C69.862 106.857 64.953 108.058 58.3678 109.5C49.5077 107.216 41.9645 105.054 36.0977 104.092Z" fill="white"/>
<path d="M48.4297 115.626C52.8598 124.636 61.4805 126.078 69.5026 121.273C77.5246 116.467 73.3339 107.938 72.6156 106.496C68.7842 107.216 64.2344 107.577 58.3675 108.778C50.9441 106.857 44.3589 105.774 38.9709 104.693C41.6051 105.295 44.4786 107.577 48.4297 115.626Z" fill="#FF78B9"/>
<path d="M25.6805 104.092C19.4545 106.135 16.1019 112.382 20.532 122.473C21.2504 123.915 21.4898 124.516 21.7293 128.599C21.9687 132.684 22.807 145.299 28.9132 165.601C30.3499 170.766 32.7446 169.806 40.4075 169.084C48.0704 168.364 83.032 162.597 83.032 162.597V151.305L43.0416 150.705C40.5272 135.086 38.372 121.751 36.9353 115.025C35.4984 108.297 32.6249 101.93 25.6805 104.092Z" fill="#FF78B9"/>
<path d="M38.2532 115.025C36.8165 108.417 32.6258 101.93 25.6814 104.092C18.7369 106.255 16.1028 112.382 20.5329 122.474C21.2513 123.914 21.4907 124.516 21.7302 128.599C22.036 134.047 22.7163 139.465 23.7657 144.818C23.8825 142.302 24.6651 139.863 26.033 137.753C27.4008 135.641 29.3046 133.933 31.5483 132.804L39.4506 128.96C41.3662 127.999 38.9717 118.269 38.2532 115.025Z" fill="#3442D9"/>
<path d="M70.8199 96.2847L57.1704 97.2461L58.0085 98.5667L66.9885 111.901C69.9818 101.09 70.8199 96.2847 70.8199 96.2847Z" fill="black"/>
<path d="M39.254 57.6466C44.3848 56.3551 47.6429 51.7076 46.5313 47.2667C45.4198 42.8266 40.3595 40.2756 35.2288 41.5686C30.098 42.8616 26.8399 47.5093 27.9514 51.9488C29.063 56.3895 34.1233 58.94 39.254 57.6466Z" fill="black"/>
<path d="M28.1956 88.8365C29.5125 78.1448 34.661 61.6863 38.4924 52.7959C46.8736 33.5751 50.9446 27.0879 56.3325 27.0879C61.7205 27.0879 66.8688 34.4161 74.5317 44.6273C82.1946 54.8385 91.1744 69.8548 95.4849 82.1084C98.119 89.4369 95.4848 92.0799 90.935 93.5221C86.3851 94.9624 74.1725 97.6054 61.2414 99.1672C51.2715 100.368 41.2188 100.731 31.1888 100.248C27.2376 100.009 27.1179 96.1633 28.1956 88.8365Z" fill="#FF78B9"/>
<path d="M62.1992 62.2867L65.1925 60.0046" stroke="black" stroke-width="0.938578" stroke-miterlimit="10" stroke-linecap="round"/>
<path d="M61.2417 62.0473L62.0798 58.4429" stroke="black" stroke-width="0.938578" stroke-miterlimit="10" stroke-linecap="round"/>
<path d="M43.9996 49.5524C44.1194 48.952 43.6405 48.4713 42.9221 48.3516C42.7806 48.3516 42.6404 48.3788 42.5098 48.4332C42.379 48.4876 42.2602 48.5674 42.1602 48.6672C42.0601 48.7688 41.9807 48.8885 41.9266 49.0191C41.8724 49.1497 41.8446 49.2912 41.8446 49.4327C41.4854 56.4003 39.3302 60.6051 34.4212 63.6073C34.062 64.5687 33.8226 65.6499 33.4634 66.6113C40.5275 63.2481 43.6405 58.2016 43.9996 49.5524Z" fill="black"/>
<path d="M49.1486 48.8324C49.1501 48.5331 49.0405 48.2447 48.8414 48.0215C48.642 47.8002 48.3673 47.6605 48.0711 47.6306C47.7803 47.6526 47.5052 47.7705 47.2884 47.9653C47.0718 48.1612 46.9259 48.4242 46.8737 48.7127C46.3948 58.5627 42.4437 64.0881 32.9848 68.0535C32.7604 68.9896 32.4805 69.9129 32.1467 70.8163C43.641 66.4917 48.55 60.1245 49.1486 48.8324Z" fill="black"/>
<path d="M80.0396 61.3254C84.4697 62.4065 86.0263 60.1245 86.0263 60.1245" stroke="black" stroke-width="0.938578" stroke-miterlimit="10" stroke-linecap="round"/>
<path d="M72.8557 44.2667C78.6086 44.2667 83.2722 39.5875 83.2722 33.8153C83.2722 28.043 78.6086 23.3638 72.8557 23.3638C67.1028 23.3638 62.439 28.043 62.439 33.8153C62.439 39.5875 67.1028 44.2667 72.8557 44.2667Z" fill="black"/>
<path d="M60.0443 33.5751C67.1198 33.5751 72.8557 27.82 72.8557 20.7209C72.8557 13.6218 67.1198 7.8667 60.0443 7.8667C52.9688 7.8667 47.2329 13.6218 47.2329 20.7209C47.2329 27.82 52.9688 33.5751 60.0443 33.5751Z" fill="black"/>
<path d="M43.2818 43.4261C49.7621 43.4261 55.0155 38.1551 55.0155 31.6532C55.0155 25.1511 49.7621 19.8801 43.2818 19.8801C36.8014 19.8801 31.5481 25.1511 31.5481 31.6532C31.5481 38.1551 36.8014 43.4261 43.2818 43.4261Z" fill="black"/>
<path d="M39.5699 52.4368L51.9022 44.9878L72.8553 42.3448V29.3705L53.6982 24.0847L42.4434 33.0947L37.2949 50.6337L39.5699 52.4368Z" fill="black"/>
<path d="M75.849 33.8152C74.7713 36.6984 73.2149 40.1821 69.0242 41.744" stroke="#0E156E" stroke-width="0.938578" stroke-miterlimit="10" stroke-linecap="round"/>
<path d="M62.5581 21.6819C65.7908 27.0878 65.4317 36.2178 58.7266 43.4258" stroke="#0E156E" stroke-width="0.938578" stroke-miterlimit="10" stroke-linecap="round"/>
<path d="M83.0328 75.1407C79.6803 75.7411 78.3632 72.4977 77.6448 69.0148C76.9265 65.5301 76.0884 59.2827 77.1659 58.3231C78.2434 57.3617 79.6803 58.5625 81.5959 62.2867C83.5117 66.0108 87.9418 74.4205 83.0328 75.1407Z" fill="white"/>
<path d="M60.6427 78.5039C65.0729 79.1061 67.7068 75.2605 67.5871 71.7776C67.1742 68.2131 65.7628 64.839 63.5163 62.0473C61.84 60.2441 58.2481 60.1244 56.3325 64.81C54.4167 69.4955 52.2615 77.4227 60.6427 78.5039Z" fill="white"/>
<path d="M70.7002 86.5527C70.393 85.9123 70.2438 85.2067 70.2646 84.4974C70.2853 83.7863 70.4758 83.0898 70.8199 82.4694C72.2568 79.8264 74.2921 78.3842 76.6867 78.504C79.0814 78.6255 80.638 80.4268 79.0814 84.0312C82.0747 86.9137 80.638 89.3172 77.6447 90.0374C74.6514 90.7575 72.3765 90.2768 70.7002 86.5527Z" fill="#EB459F"/>
<path d="M35.14 61.5664C37.415 55.4387 43.641 51.7145 49.6275 48.8321C55.6141 45.9486 72.3766 41.1433 76.9264 47.8707C77.5251 47.5102 77.2856 47.0297 76.9264 46.0686C76.2516 44.8545 75.4916 43.6903 74.6515 42.5848C70.5805 37.5392 55.9733 39.7017 48.1907 44.1465C40.4082 48.5908 38.0136 52.315 36.5767 55.7997C35.14 59.2826 34.182 60.8444 35.14 61.5664Z" fill="#312CC7"/>
<path d="M77.1654 81.8687C76.8463 82.5725 76.3447 83.1784 75.7131 83.6228C75.0813 84.0654 74.3424 84.3321 73.5735 84.3901" stroke="black" stroke-width="0.938578" stroke-miterlimit="10" stroke-linecap="round"/>
<path d="M77.0466 85.1124L75.8494 83.5505" stroke="black" stroke-width="0.938578" stroke-miterlimit="10" stroke-linecap="round"/>
<path d="M66.2097 73.5587C66.6135 71.4744 65.941 69.5897 64.7077 69.3484C63.4743 69.109 62.1472 70.6037 61.7434 72.688C61.3398 74.7705 62.0122 76.6552 63.2456 76.8965C64.4789 77.1378 65.8059 75.643 66.2097 73.5587Z" fill="black"/>
<path d="M83.6841 73.8112C84.6352 73.5282 84.9951 71.9065 84.4881 70.1886C83.9809 68.4726 82.7989 67.308 81.8478 67.591C80.8969 67.8739 80.537 69.4956 81.044 71.2135C81.551 72.9314 82.7332 74.0941 83.6841 73.8112Z" fill="black"/>
<path d="M77.1654 58.3231C76.6865 58.802 76.5668 60.3638 76.6865 62.2867C77.9247 61.4958 79.3094 60.9643 80.7573 60.7248C79.3206 58.3231 78.1232 57.6011 77.1654 58.3231Z" fill="#D11583"/>
<path d="M85.4264 57.2419C85.3348 58.3448 84.8242 59.3733 83.9999 60.1098C83.1754 60.8481 82.1003 61.2399 80.9963 61.2054H80.7568C79.2849 61.3506 77.8791 61.8911 76.686 62.7673V61.6861C77.8356 60.9152 79.1467 60.4218 80.5174 60.244H80.6371C82.4332 60.1243 84.1093 59.6436 84.4685 57.1203C84.4445 57.0441 84.4471 56.9607 84.4757 56.8845C84.5044 56.8101 84.5575 56.7466 84.6266 56.7049C84.6958 56.6632 84.7767 56.645 84.8565 56.6559C84.9365 56.6668 85.0107 56.7031 85.0673 56.7611C85.3067 56.7611 85.4264 57.0006 85.4264 57.2419Z" fill="black"/>
<path d="M80.3984 60.7246C81.8353 59.404 81.7156 58.3228 81.4761 56.761" stroke="black" stroke-width="0.938578" stroke-miterlimit="10" stroke-linecap="round"/>
<path d="M64.2349 62.7674L63.5165 62.0473C62.0796 60.3639 58.9666 60.1244 56.9312 63.6073L64.2349 62.7674Z" fill="#D11583"/>
<path opacity="0.3" d="M53.0825 87.523C54.1968 86.5851 53.8598 84.3412 52.3297 82.5109C50.7996 80.6806 48.6556 79.9586 47.5413 80.8964C46.4267 81.8343 46.7638 84.0782 48.2941 85.9085C49.8242 87.7388 51.9681 88.4608 53.0825 87.523Z" fill="#FF0077"/>
<path opacity="0.3" d="M90.8159 71.177C89.9778 71.6577 89.3792 73.3393 89.4989 75.2603C89.6186 77.1832 90.5764 79.5849 91.6541 79.5849C92.7316 79.5849 93.2105 78.5038 93.45 76.9419C93.6894 75.3819 91.7738 73.098 90.8159 71.177Z" fill="#FF0077"/>
</g>
<defs>
<clipPath id="clip0_78_2446">
<rect width="118" height="118" rx="59" fill="white"/>
</clipPath>
</defs>
</svg>
