<svg width="24" height="24" viewBox="0 0 24 24" fill="none" xmlns="http://www.w3.org/2000/svg">
<g clip-path="url(#clip0_70_2375)">
<rect width="24" height="24" rx="12" fill="#FFE75C"/>
<path d="M10.8 19.8521C10.3129 21.2692 9.46059 23.9814 9.46059 23.9814H13.3082C14.1606 20.9272 14.4041 19.5835 14.4041 19.5835L10.8 19.8521Z" fill="#FF78B9"/>
<path d="M20.0052 23.9084C20.2589 23.6542 20.5558 23.4472 20.8818 23.2974L19.6886 23.0775C19.0554 22.9797 18.9093 22.8576 18.6414 22.6134C16.7419 21.0251 15.4269 21.5139 11.8715 22.271C8.63266 21.4405 6.24615 20.7074 5.10159 21.2206C3.95704 21.7338 4.44409 24.0305 5.10159 26.6449C5.7591 29.2593 6.4166 31.6781 6.4166 31.6781H18.1544C18.3005 30.261 18.0326 27.7444 17.7647 25.9852L19.0798 26.3029C19.0798 25.4233 19.2502 24.6168 20.0052 23.9084Z" fill="#3442D9"/>
<path d="M7.34192 21.1714C8.55953 21.416 9.07093 22.7597 9.46057 23.9813C9.85022 25.2033 11.1165 26.205 13.016 25.7161C14.9155 25.2276 16.7419 24.0791 15.0616 21.6359C14.2092 21.7337 13.2108 21.9779 11.8714 22.2712C10.0694 21.8067 8.53518 21.3669 7.34192 21.1714Z" fill="white"/>
<path d="M9.85016 23.5171C10.7512 25.3497 12.5046 25.643 14.1362 24.6657C15.7678 23.6883 14.9154 21.9535 14.7693 21.6602C13.9901 21.8067 13.0647 21.8801 11.8714 22.1243C10.3616 21.7336 9.0222 21.5134 7.92635 21.2935C8.4621 21.4159 9.04655 21.8801 9.85016 23.5171Z" fill="#FF78B9"/>
<path d="M5.22317 21.1713C3.95686 21.5868 3.27497 22.8574 4.17601 24.9099C4.32212 25.2032 4.37082 25.3253 4.41952 26.1558C4.46822 26.9867 4.63871 29.5524 5.88067 33.6817C6.17288 34.7321 6.65993 34.5369 8.21848 34.3901C9.77704 34.2436 16.8879 33.0707 16.8879 33.0707V30.774L8.75423 30.6519C8.24283 27.4752 7.80448 24.7631 7.51228 23.395C7.22003 22.0266 6.63558 20.7315 5.22317 21.1713Z" fill="#FF78B9"/>
<path d="M7.78033 23.3951C7.48812 22.051 6.63578 20.7316 5.22337 21.1714C3.81092 21.6112 3.27517 22.8575 4.17621 24.91C4.32232 25.2029 4.37102 25.3254 4.41972 26.1559C4.48193 27.2639 4.62028 28.3659 4.83372 29.4547C4.85748 28.943 5.01664 28.4467 5.29487 28.0176C5.57306 27.5882 5.96027 27.2406 6.41662 27.0111L8.02388 26.2293C8.41349 26.0338 7.92647 24.0547 7.78033 23.3951Z" fill="#3442D9"/>
<path d="M14.404 19.5835L11.6279 19.779L11.7983 20.0476L13.6248 22.7598C14.2336 20.5608 14.404 19.5835 14.404 19.5835Z" fill="black"/>
<path d="M7.98387 11.7247C9.02741 11.462 9.69008 10.5168 9.46399 9.61355C9.23793 8.71047 8.20871 8.19161 7.16517 8.4546C6.12164 8.71759 5.45897 9.66287 5.68502 10.5658C5.91112 11.469 6.94034 11.9878 7.98387 11.7247Z" fill="black"/>
<path d="M5.73471 18.0686C6.00257 15.894 7.04972 12.5465 7.82898 10.7383C9.53364 6.82896 10.3616 5.50952 11.4575 5.50952C12.5533 5.50952 13.6005 7 15.159 9.07686C16.7176 11.1537 18.544 14.2079 19.4207 16.7001C19.9564 18.1907 19.4207 18.7282 18.4953 19.0216C17.5699 19.3145 15.086 19.8521 12.4559 20.1697C10.4281 20.414 8.38351 20.4878 6.34352 20.3896C5.53987 20.3409 5.51552 19.5587 5.73471 18.0686Z" fill="#FF78B9"/>
<path d="M12.6507 12.6685L13.2595 12.2043" stroke="black" stroke-width="0.938578" stroke-miterlimit="10" stroke-linecap="round"/>
<path d="M12.4559 12.6198L12.6264 11.8867" stroke="black" stroke-width="0.938578" stroke-miterlimit="10" stroke-linecap="round"/>
<path d="M8.94909 10.0785C8.97344 9.95635 8.87604 9.85858 8.72993 9.83423C8.70116 9.83423 8.67264 9.83976 8.64607 9.85083C8.61947 9.8619 8.59531 9.87813 8.57498 9.89842C8.55461 9.91909 8.53845 9.94344 8.52745 9.97C8.51642 9.99656 8.51078 10.0253 8.51078 10.0541C8.43773 11.4713 7.99938 12.3265 7.00093 12.9371C6.92788 13.1326 6.87917 13.3525 6.80612 13.5481C8.24288 12.864 8.87604 11.8376 8.94909 10.0785Z" fill="black"/>
<path d="M9.99636 9.93217C9.99666 9.8713 9.97437 9.81263 9.93386 9.76725C9.89331 9.72224 9.83745 9.69383 9.7772 9.68774C9.71806 9.69221 9.66209 9.71619 9.618 9.75582C9.57395 9.79566 9.54429 9.84916 9.53366 9.90782C9.43626 11.9112 8.63265 13.035 6.7088 13.8416C6.66316 14.0319 6.60623 14.2197 6.53835 14.4035C8.87616 13.5239 9.87461 12.2289 9.99636 9.93217Z" fill="black"/>
<path d="M16.2792 12.473C17.1803 12.6929 17.4969 12.2288 17.4969 12.2288" stroke="black" stroke-width="0.938578" stroke-miterlimit="10" stroke-linecap="round"/>
<path d="M14.8181 9.0034C15.9882 9.0034 16.9367 8.05169 16.9367 6.87769C16.9367 5.70366 15.9882 4.75195 14.8181 4.75195C13.648 4.75195 12.6995 5.70366 12.6995 6.87769C12.6995 8.05169 13.648 9.0034 14.8181 9.0034Z" fill="black"/>
<path d="M12.2124 6.82892C13.6515 6.82892 14.8181 5.65839 14.8181 4.21451C14.8181 2.77063 13.6515 1.6001 12.2124 1.6001C10.7733 1.6001 9.60672 2.77063 9.60672 4.21451C9.60672 5.65839 10.7733 6.82892 12.2124 6.82892Z" fill="black"/>
<path d="M8.80309 8.83246C10.1211 8.83246 11.1896 7.7604 11.1896 6.43798C11.1896 5.11552 10.1211 4.04346 8.80309 4.04346C7.48506 4.04346 6.41658 5.11552 6.41658 6.43798C6.41658 7.7604 7.48506 8.83246 8.80309 8.83246Z" fill="black"/>
<path d="M8.04813 10.6652L10.5564 9.15016L14.8181 8.6126V5.97376L10.9217 4.89868L8.63259 6.73122L7.58543 10.2985L8.04813 10.6652Z" fill="black"/>
<path d="M15.4269 6.87769C15.2077 7.46409 14.8912 8.17266 14.0388 8.49033" stroke="#0E156E" stroke-width="0.938578" stroke-miterlimit="10" stroke-linecap="round"/>
<path d="M12.7237 4.40991C13.3812 5.50942 13.3082 7.36638 11.9444 8.8324" stroke="#0E156E" stroke-width="0.938578" stroke-miterlimit="10" stroke-linecap="round"/>
<path d="M16.888 15.283C16.2062 15.4052 15.9383 14.7455 15.7922 14.0371C15.6461 13.3284 15.4756 12.0577 15.6948 11.8625C15.9139 11.667 16.2062 11.9112 16.5958 12.6687C16.9854 13.4261 17.8865 15.1366 16.888 15.283Z" fill="white"/>
<path d="M12.3341 15.9671C13.2352 16.0896 13.7709 15.3074 13.7466 14.599C13.6626 13.874 13.3755 13.1878 12.9186 12.62C12.5776 12.2532 11.8471 12.2289 11.4575 13.1819C11.0678 14.1349 10.6295 15.7472 12.3341 15.9671Z" fill="white"/>
<path d="M14.3797 17.604C14.3172 17.4738 14.2869 17.3302 14.2911 17.186C14.2953 17.0414 14.3341 16.8997 14.4041 16.7735C14.6963 16.2359 15.1103 15.9426 15.5973 15.967C16.0844 15.9917 16.401 16.3581 16.0844 17.0912C16.6932 17.6774 16.401 18.1663 15.7921 18.3128C15.1833 18.4592 14.7206 18.3615 14.3797 17.604Z" fill="#EB459F"/>
<path d="M7.14713 12.522C7.60983 11.2757 8.87613 10.5182 10.0937 9.93198C11.3113 9.3455 14.7207 8.36815 15.6461 9.73644C15.7678 9.66313 15.7191 9.5654 15.6461 9.36993C15.5088 9.12299 15.3542 8.8862 15.1834 8.66136C14.3554 7.63512 11.3844 8.07495 9.8015 8.97899C8.21863 9.88291 7.73158 10.6404 7.43933 11.3491C7.14713 12.0575 6.95228 12.3752 7.14713 12.522Z" fill="#312CC7"/>
<path d="M15.6947 16.6514C15.6298 16.7945 15.5278 16.9177 15.3993 17.0081C15.2708 17.0982 15.1205 17.1524 14.9641 17.1642" stroke="black" stroke-width="0.938578" stroke-miterlimit="10" stroke-linecap="round"/>
<path d="M15.6705 17.3111L15.427 16.9934" stroke="black" stroke-width="0.938578" stroke-miterlimit="10" stroke-linecap="round"/>
<path d="M13.4664 14.9613C13.5485 14.5374 13.4117 14.154 13.1609 14.105C12.9101 14.0563 12.6401 14.3603 12.558 14.7842C12.4759 15.2078 12.6127 15.5911 12.8635 15.6402C13.1144 15.6892 13.3843 15.3852 13.4664 14.9613Z" fill="black"/>
<path d="M17.0205 15.0125C17.214 14.955 17.2872 14.6251 17.1841 14.2757C17.0809 13.9267 16.8405 13.6898 16.6471 13.7474C16.4537 13.8049 16.3805 14.1348 16.4836 14.4842C16.5867 14.8336 16.8271 15.0701 17.0205 15.0125Z" fill="black"/>
<path d="M15.6947 11.8624C15.5973 11.9598 15.5729 12.2775 15.5973 12.6686C15.8491 12.5077 16.1307 12.3996 16.4252 12.3509C16.133 11.8624 15.8895 11.7156 15.6947 11.8624Z" fill="#D11583"/>
<path d="M17.3749 11.6425C17.3563 11.8668 17.2524 12.076 17.0848 12.2258C16.9171 12.376 16.6984 12.4557 16.4739 12.4487H16.4252C16.1258 12.4782 15.8399 12.5881 15.5972 12.7663V12.5464C15.831 12.3896 16.0977 12.2893 16.3765 12.2531H16.4008C16.7661 12.2288 17.107 12.131 17.1801 11.6178C17.1752 11.6023 17.1757 11.5853 17.1815 11.5698C17.1874 11.5547 17.1982 11.5418 17.2122 11.5333C17.2263 11.5248 17.2427 11.5211 17.259 11.5233C17.2753 11.5255 17.2903 11.5329 17.3019 11.5447C17.3506 11.5447 17.3749 11.5934 17.3749 11.6425Z" fill="black"/>
<path d="M16.3522 12.3508C16.6445 12.0822 16.6201 11.8623 16.5714 11.5447" stroke="black" stroke-width="0.938578" stroke-miterlimit="10" stroke-linecap="round"/>
<path d="M13.0647 12.7664L12.9186 12.6199C12.6264 12.2775 11.9932 12.2288 11.5792 12.9372L13.0647 12.7664Z" fill="#D11583"/>
<path opacity="0.3" d="M10.7964 17.8014C11.0231 17.6107 10.9545 17.1543 10.6433 16.782C10.3321 16.4098 9.89605 16.2629 9.66941 16.4537C9.44273 16.6444 9.51128 17.1008 9.82252 17.4731C10.1337 17.8454 10.5698 17.9922 10.7964 17.8014Z" fill="#FF0077"/>
<path opacity="0.3" d="M18.471 14.4768C18.3006 14.5746 18.1788 14.9166 18.2032 15.3073C18.2275 15.6984 18.4223 16.1869 18.6415 16.1869C18.8607 16.1869 18.9581 15.967 19.0068 15.6493C19.0555 15.332 18.6659 14.8675 18.471 14.4768Z" fill="#FF0077"/>
</g>
<defs>
<clipPath id="clip0_70_2375">
<rect width="24" height="24" rx="12" fill="white"/>
</clipPath>
</defs>
</svg>
