<svg width="24" height="24" viewBox="0 0 24 24" fill="none" xmlns="http://www.w3.org/2000/svg">
<g clip-path="url(#clip0_73_4201)">
<rect width="24" height="24" rx="12" fill="#FFE75C"/>
<path d="M10.8 19.8521C10.3129 21.2692 9.46057 23.9814 9.46057 23.9814H13.3082C14.1606 20.9272 14.4041 19.5835 14.4041 19.5835L10.8 19.8521Z" fill="#FF78B9"/>
<path d="M20.0051 23.9084C20.2588 23.6542 20.5557 23.4472 20.8817 23.2974L19.6885 23.0775C19.0553 22.9797 18.9092 22.8576 18.6413 22.6134C16.7419 21.0251 15.4269 21.5139 11.8714 22.271C8.63258 21.4405 6.24607 20.7074 5.10151 21.2206C3.95696 21.7338 4.44401 24.0305 5.10151 26.6449C5.75902 29.2593 6.41652 31.6781 6.41652 31.6781H18.1543C18.3004 30.261 18.0325 27.7444 17.7647 25.9852L19.0797 26.3029C19.0797 25.4233 19.2501 24.6168 20.0051 23.9084Z" fill="#3442D9"/>
<path d="M7.3418 21.1714C8.5594 21.416 9.0708 22.7597 9.46045 23.9813C9.8501 25.2033 11.1164 26.205 13.0159 25.7161C14.9153 25.2276 16.7418 24.0791 15.0615 21.6359C14.2091 21.7337 13.2107 21.9779 11.8713 22.2712C10.0693 21.8067 8.53505 21.3669 7.3418 21.1714Z" fill="white"/>
<path d="M9.85008 23.5171C10.7511 25.3497 12.5045 25.643 14.1361 24.6657C15.7677 23.6883 14.9154 21.9535 14.7692 21.6602C13.99 21.8067 13.0646 21.8801 11.8713 22.1243C10.3615 21.7336 9.02212 21.5134 7.92627 21.2935C8.46202 21.4159 9.04647 21.8801 9.85008 23.5171Z" fill="#FF78B9"/>
<path d="M5.22306 21.1713C3.95675 21.5868 3.27486 22.8574 4.17591 24.9099C4.32201 25.2032 4.37071 25.3253 4.41941 26.1558C4.46812 26.9867 4.63861 29.5524 5.88056 33.6817C6.17277 34.7321 6.65982 34.5369 8.21838 34.3901C9.77693 34.2436 16.8878 33.0707 16.8878 33.0707V30.774L8.75413 30.6519C8.24273 27.4752 7.80438 24.7631 7.51217 23.395C7.21992 22.0266 6.63547 20.7315 5.22306 21.1713Z" fill="#FF78B9"/>
<path d="M7.78027 23.3951C7.48806 22.051 6.63572 20.7316 5.22331 21.1714C3.81086 21.6112 3.27511 22.8575 4.17615 24.91C4.32226 25.2029 4.37096 25.3254 4.41966 26.1559C4.48186 27.2639 4.62022 28.3659 4.83366 29.4547C4.85742 28.943 5.01658 28.4467 5.29481 28.0176C5.573 27.5882 5.96021 27.2406 6.41656 27.0111L8.02382 26.2293C8.41343 26.0338 7.92641 24.0547 7.78027 23.3951Z" fill="#3442D9"/>
<path d="M14.404 19.5835L11.6278 19.779L11.7983 20.0476L13.6247 22.7598C14.2335 20.5608 14.404 19.5835 14.404 19.5835Z" fill="black"/>
<path d="M7.98383 11.7247C9.02736 11.462 9.69003 10.5168 9.46394 9.61355C9.23789 8.71047 8.20867 8.19161 7.16513 8.4546C6.12159 8.71759 5.45892 9.66287 5.68498 10.5658C5.91107 11.469 6.94029 11.9878 7.98383 11.7247Z" fill="black"/>
<path d="M5.73464 18.0686C6.00249 15.894 7.04965 12.5465 7.8289 10.7383C9.53356 6.82896 10.3616 5.50952 11.4574 5.50952C12.5533 5.50952 13.6004 7 15.1589 9.07686C16.7175 11.1537 18.5439 14.2079 19.4206 16.7001C19.9563 18.1907 19.4206 18.7282 18.4952 19.0216C17.5698 19.3145 15.0859 19.8521 12.4558 20.1697C10.428 20.414 8.38344 20.4878 6.34344 20.3896C5.5398 20.3409 5.51544 19.5587 5.73464 18.0686Z" fill="#FF78B9"/>
<path d="M12.6506 12.6685L13.2594 12.2043" stroke="black" stroke-width="0.938578" stroke-miterlimit="10" stroke-linecap="round"/>
<path d="M12.4559 12.6198L12.6264 11.8867" stroke="black" stroke-width="0.938578" stroke-miterlimit="10" stroke-linecap="round"/>
<path d="M8.949 10.0785C8.97335 9.95635 8.87595 9.85858 8.72984 9.83423C8.70106 9.83423 8.67255 9.83976 8.64598 9.85083C8.61938 9.8619 8.59521 9.87813 8.57488 9.89842C8.55452 9.91909 8.53836 9.94344 8.52736 9.97C8.51633 9.99656 8.51069 10.0253 8.51069 10.0541C8.43764 11.4713 7.99929 12.3265 7.00084 12.9371C6.92778 13.1326 6.87908 13.3525 6.80603 13.5481C8.24279 12.864 8.87595 11.8376 8.949 10.0785Z" fill="black"/>
<path d="M9.99635 9.93217C9.99664 9.8713 9.97436 9.81263 9.93385 9.76725C9.8933 9.72224 9.83744 9.69383 9.77719 9.68774C9.71805 9.69221 9.66208 9.71619 9.61799 9.75582C9.57394 9.79566 9.54427 9.84916 9.53365 9.90782C9.43624 11.9112 8.63263 13.035 6.70878 13.8416C6.66314 14.0319 6.60622 14.2197 6.53833 14.4035C8.87614 13.5239 9.87459 12.2289 9.99635 9.93217Z" fill="black"/>
<path d="M16.2792 12.473C17.1802 12.6929 17.4968 12.2288 17.4968 12.2288" stroke="black" stroke-width="0.938578" stroke-miterlimit="10" stroke-linecap="round"/>
<path d="M14.818 9.0034C15.9881 9.0034 16.9366 8.05169 16.9366 6.87769C16.9366 5.70366 15.9881 4.75195 14.818 4.75195C13.6479 4.75195 12.6993 5.70366 12.6993 6.87769C12.6993 8.05169 13.6479 9.0034 14.818 9.0034Z" fill="black"/>
<path d="M12.2124 6.82892C13.6515 6.82892 14.8181 5.65839 14.8181 4.21451C14.8181 2.77063 13.6515 1.6001 12.2124 1.6001C10.7733 1.6001 9.60669 2.77063 9.60669 4.21451C9.60669 5.65839 10.7733 6.82892 12.2124 6.82892Z" fill="black"/>
<path d="M8.80302 8.83246C10.1211 8.83246 11.1895 7.7604 11.1895 6.43798C11.1895 5.11552 10.1211 4.04346 8.80302 4.04346C7.48498 4.04346 6.4165 5.11552 6.4165 6.43798C6.4165 7.7604 7.48498 8.83246 8.80302 8.83246Z" fill="black"/>
<path d="M8.04803 10.6652L10.5563 9.15016L14.818 8.6126V5.97376L10.9216 4.89868L8.63248 6.73122L7.58533 10.2985L8.04803 10.6652Z" fill="black"/>
<path d="M15.4268 6.87769C15.2076 7.46409 14.891 8.17266 14.0387 8.49033" stroke="#0E156E" stroke-width="0.938578" stroke-miterlimit="10" stroke-linecap="round"/>
<path d="M12.7236 4.40991C13.3811 5.50942 13.3081 7.36638 11.9443 8.8324" stroke="#0E156E" stroke-width="0.938578" stroke-miterlimit="10" stroke-linecap="round"/>
<path d="M16.8879 15.283C16.2061 15.4052 15.9382 14.7455 15.7921 14.0371C15.646 13.3284 15.4755 12.0577 15.6947 11.8625C15.9138 11.667 16.2061 11.9112 16.5957 12.6687C16.9853 13.4261 17.8864 15.1366 16.8879 15.283Z" fill="white"/>
<path d="M12.3341 15.9671C13.2351 16.0896 13.7708 15.3074 13.7465 14.599C13.6625 13.874 13.3754 13.1878 12.9185 12.62C12.5776 12.2532 11.847 12.2289 11.4574 13.1819C11.0678 14.1349 10.6294 15.7472 12.3341 15.9671Z" fill="white"/>
<path d="M14.3796 17.604C14.3172 17.4738 14.2868 17.3302 14.291 17.186C14.2952 17.0414 14.334 16.8997 14.404 16.7735C14.6962 16.2359 15.1102 15.9426 15.5972 15.967C16.0843 15.9917 16.4009 16.3581 16.0843 17.0912C16.6931 17.6774 16.4009 18.1663 15.7921 18.3128C15.1833 18.4592 14.7206 18.3615 14.3796 17.604Z" fill="#EB459F"/>
<path d="M7.14703 12.522C7.60973 11.2757 8.87604 10.5182 10.0936 9.93198C11.3113 9.3455 14.7206 8.36815 15.646 9.73644C15.7677 9.66313 15.719 9.5654 15.646 9.36993C15.5087 9.12299 15.3541 8.8862 15.1833 8.66136C14.3553 7.63512 11.3843 8.07495 9.8014 8.97899C8.21854 9.88291 7.73149 10.6404 7.43924 11.3491C7.14703 12.0575 6.95219 12.3752 7.14703 12.522Z" fill="#312CC7"/>
<path d="M15.6947 16.6514C15.6298 16.7945 15.5278 16.9177 15.3993 17.0081C15.2708 17.0982 15.1205 17.1524 14.9641 17.1642" stroke="black" stroke-width="0.938578" stroke-miterlimit="10" stroke-linecap="round"/>
<path d="M15.6705 17.3111L15.427 16.9934" stroke="black" stroke-width="0.938578" stroke-miterlimit="10" stroke-linecap="round"/>
<path d="M13.4663 14.9613C13.5484 14.5374 13.4116 14.154 13.1608 14.105C12.9099 14.0563 12.64 14.3603 12.5579 14.7842C12.4758 15.2078 12.6126 15.5911 12.8634 15.6402C13.1143 15.6892 13.3842 15.3852 13.4663 14.9613Z" fill="black"/>
<path d="M17.0205 15.0125C17.2139 14.955 17.2871 14.6251 17.184 14.2757C17.0808 13.9267 16.8404 13.6898 16.647 13.7474C16.4536 13.8049 16.3804 14.1348 16.4835 14.4842C16.5866 14.8336 16.8271 15.0701 17.0205 15.0125Z" fill="black"/>
<path d="M15.6946 11.8624C15.5972 11.9598 15.5728 12.2775 15.5972 12.6686C15.849 12.5077 16.1306 12.3996 16.4251 12.3509C16.1329 11.8624 15.8894 11.7156 15.6946 11.8624Z" fill="#D11583"/>
<path d="M17.3749 11.6425C17.3562 11.8668 17.2524 12.076 17.0847 12.2258C16.917 12.376 16.6984 12.4557 16.4738 12.4487H16.4251C16.1258 12.4782 15.8398 12.5881 15.5972 12.7663V12.5464C15.831 12.3896 16.0976 12.2893 16.3764 12.2531H16.4008C16.7661 12.2288 17.107 12.131 17.18 11.6178C17.1752 11.6023 17.1757 11.5853 17.1815 11.5698C17.1873 11.5547 17.1981 11.5418 17.2122 11.5333C17.2263 11.5248 17.2427 11.5211 17.259 11.5233C17.2752 11.5255 17.2903 11.5329 17.3018 11.5447C17.3505 11.5447 17.3749 11.5934 17.3749 11.6425Z" fill="black"/>
<path d="M16.3522 12.3508C16.6444 12.0822 16.6201 11.8623 16.5714 11.5447" stroke="black" stroke-width="0.938578" stroke-miterlimit="10" stroke-linecap="round"/>
<path d="M13.0647 12.7664L12.9186 12.6199C12.6264 12.2775 11.9932 12.2288 11.5792 12.9372L13.0647 12.7664Z" fill="#D11583"/>
<path opacity="0.3" d="M10.7963 17.8014C11.023 17.6107 10.9544 17.1543 10.6432 16.782C10.332 16.4098 9.89596 16.2629 9.66932 16.4537C9.44264 16.6444 9.51118 17.1008 9.82243 17.4731C10.1336 17.8454 10.5697 17.9922 10.7963 17.8014Z" fill="#FF0077"/>
<path opacity="0.3" d="M18.4709 14.4768C18.3005 14.5746 18.1787 14.9166 18.2031 15.3073C18.2274 15.6984 18.4222 16.1869 18.6414 16.1869C18.8606 16.1869 18.958 15.967 19.0067 15.6493C19.0554 15.332 18.6658 14.8675 18.4709 14.4768Z" fill="#FF0077"/>
</g>
<defs>
<clipPath id="clip0_73_4201">
<rect width="24" height="24" rx="12" fill="white"/>
</clipPath>
</defs>
</svg>
