<svg width="118" height="118" viewBox="0 0 118 118" fill="none" xmlns="http://www.w3.org/2000/svg">
<g clip-path="url(#clip0_78_1688)">
<rect width="118" height="118" rx="59" fill="#FFE75C"/>
<path d="M53.0999 97.6053C50.7052 104.573 46.5145 117.908 46.5145 117.908H65.4322C69.6229 102.891 70.8202 96.2847 70.8202 96.2847L53.0999 97.6053Z" fill="#FF78B9"/>
<path d="M98.3587 117.549C99.6064 116.299 101.066 115.281 102.669 114.545L96.8021 113.464C93.6891 112.983 92.9708 112.382 91.6536 111.182C82.3146 103.372 75.8491 105.776 58.3681 109.498C42.4439 105.415 30.7102 101.81 25.0828 104.334C19.4554 106.857 21.8501 118.149 25.0828 131.003C28.3156 143.857 31.5483 155.75 31.5483 155.75H89.2589C89.9775 148.782 88.6603 136.409 87.3433 127.76L93.8088 129.322C93.8088 124.997 94.6469 121.032 98.3587 117.549Z" fill="#3442D9"/>
<path d="M36.0978 104.092C42.0843 105.295 44.5987 111.902 46.5145 117.908C48.4303 123.916 54.6563 128.841 63.9953 126.437C73.3343 124.035 82.3144 118.388 74.0528 106.376C69.8621 106.857 64.9531 108.058 58.3679 109.5C49.5078 107.216 41.9646 105.054 36.0978 104.092Z" fill="white"/>
<path d="M48.4299 115.626C52.8601 124.636 61.4808 126.078 69.5028 121.273C77.5249 116.467 73.3342 107.938 72.6158 106.496C68.7845 107.216 64.2346 107.577 58.3678 108.778C50.9443 106.857 44.3591 105.774 38.9712 104.693C41.6053 105.295 44.4789 107.577 48.4299 115.626Z" fill="#FF78B9"/>
<path d="M25.6806 104.092C19.4546 106.135 16.102 112.382 20.5321 122.473C21.2505 123.915 21.4899 124.516 21.7294 128.599C21.9688 132.684 22.8071 145.299 28.9134 165.601C30.3501 170.766 32.7447 169.806 40.4076 169.084C48.0705 168.364 83.0321 162.597 83.0321 162.597V151.305L43.0417 150.705C40.5273 135.086 38.3721 121.751 36.9354 115.025C35.4986 108.297 32.625 101.93 25.6806 104.092Z" fill="#FF78B9"/>
<path d="M38.2533 115.025C36.8166 108.417 32.6259 101.93 25.6816 104.092C18.737 106.255 16.1029 112.382 20.5331 122.474C21.2514 123.914 21.4909 124.516 21.7303 128.599C22.0362 134.047 22.7164 139.465 23.7658 144.818C23.8826 142.302 24.6652 139.863 26.0331 137.753C27.4009 135.641 29.3047 133.933 31.5484 132.804L39.4507 128.96C41.3663 127.999 38.9718 118.269 38.2533 115.025Z" fill="#3442D9"/>
<path d="M70.8199 96.2847L57.1704 97.2461L58.0085 98.5667L66.9885 111.901C69.9818 101.09 70.8199 96.2847 70.8199 96.2847Z" fill="black"/>
<path d="M39.254 57.6466C44.3848 56.3551 47.6429 51.7076 46.5313 47.2667C45.4198 42.8266 40.3595 40.2756 35.2288 41.5686C30.098 42.8616 26.8399 47.5093 27.9514 51.9488C29.063 56.3895 34.1233 58.94 39.254 57.6466Z" fill="black"/>
<path d="M28.1957 88.8365C29.5127 78.1448 34.6611 61.6863 38.4925 52.7959C46.8737 33.5751 50.9447 27.0879 56.3327 27.0879C61.7206 27.0879 66.8689 34.4161 74.5318 44.6273C82.1947 54.8385 91.1745 69.8548 95.485 82.1084C98.1191 89.4369 95.485 92.0799 90.9351 93.5221C86.3852 94.9624 74.1726 97.6054 61.2415 99.1672C51.2716 100.368 41.2189 100.731 31.189 100.248C27.2377 100.009 27.118 96.1633 28.1957 88.8365Z" fill="#FF78B9"/>
<path d="M62.1993 62.2867L65.1926 60.0046" stroke="black" stroke-width="0.938578" stroke-miterlimit="10" stroke-linecap="round"/>
<path d="M61.2417 62.0473L62.0798 58.4429" stroke="black" stroke-width="0.938578" stroke-miterlimit="10" stroke-linecap="round"/>
<path d="M43.9998 49.5524C44.1195 48.952 43.6406 48.4713 42.9222 48.3516C42.7808 48.3516 42.6405 48.3788 42.5099 48.4332C42.3791 48.4876 42.2603 48.5674 42.1604 48.6672C42.0602 48.7688 41.9808 48.8885 41.9267 49.0191C41.8725 49.1497 41.8447 49.2912 41.8447 49.4327C41.4856 56.4003 39.3303 60.6051 34.4213 63.6073C34.0621 64.5687 33.8227 65.6499 33.4635 66.6113C40.5276 63.2481 43.6406 58.2016 43.9998 49.5524Z" fill="black"/>
<path d="M49.1488 48.8324C49.1502 48.5331 49.0406 48.2447 48.8415 48.0215C48.6421 47.8002 48.3675 47.6605 48.0712 47.6306C47.7805 47.6526 47.5053 47.7705 47.2885 47.9653C47.0719 48.1612 46.9261 48.4242 46.8738 48.7127C46.3949 58.5627 42.4438 64.0881 32.9849 68.0535C32.7605 68.9896 32.4806 69.9129 32.1469 70.8163C43.6411 66.4917 48.5501 60.1245 49.1488 48.8324Z" fill="black"/>
<path d="M80.0396 61.3254C84.4697 62.4065 86.0263 60.1245 86.0263 60.1245" stroke="black" stroke-width="0.938578" stroke-miterlimit="10" stroke-linecap="round"/>
<path d="M72.8557 44.2667C78.6086 44.2667 83.2722 39.5875 83.2722 33.8153C83.2722 28.043 78.6086 23.3638 72.8557 23.3638C67.1028 23.3638 62.439 28.043 62.439 33.8153C62.439 39.5875 67.1028 44.2667 72.8557 44.2667Z" fill="black"/>
<path d="M60.0444 33.5751C67.1199 33.5751 72.8558 27.82 72.8558 20.7209C72.8558 13.6218 67.1199 7.8667 60.0444 7.8667C52.9689 7.8667 47.233 13.6218 47.233 20.7209C47.233 27.82 52.9689 33.5751 60.0444 33.5751Z" fill="black"/>
<path d="M43.2819 43.4261C49.7622 43.4261 55.0156 38.1551 55.0156 31.6532C55.0156 25.1511 49.7622 19.8801 43.2819 19.8801C36.8016 19.8801 31.5482 25.1511 31.5482 31.6532C31.5482 38.1551 36.8016 43.4261 43.2819 43.4261Z" fill="black"/>
<path d="M39.57 52.4368L51.9023 44.9878L72.8555 42.3448V29.3705L53.6983 24.0847L42.4435 33.0947L37.295 50.6337L39.57 52.4368Z" fill="black"/>
<path d="M75.849 33.8152C74.7713 36.6984 73.2149 40.1821 69.0242 41.744" stroke="#0E156E" stroke-width="0.938578" stroke-miterlimit="10" stroke-linecap="round"/>
<path d="M62.5582 21.6819C65.791 27.0878 65.4318 36.2178 58.7267 43.4258" stroke="#0E156E" stroke-width="0.938578" stroke-miterlimit="10" stroke-linecap="round"/>
<path d="M83.0328 75.1407C79.6803 75.7411 78.3632 72.4977 77.6448 69.0148C76.9265 65.5301 76.0884 59.2827 77.1659 58.3231C78.2434 57.3617 79.6803 58.5625 81.5959 62.2867C83.5117 66.0108 87.9418 74.4205 83.0328 75.1407Z" fill="white"/>
<path d="M60.6429 78.5039C65.073 79.1061 67.707 75.2605 67.5872 71.7776C67.1744 68.2131 65.7629 64.839 63.5164 62.0473C61.8401 60.2441 58.2482 60.1244 56.3326 64.81C54.4169 69.4955 52.2616 77.4227 60.6429 78.5039Z" fill="white"/>
<path d="M70.7002 86.5527C70.393 85.9123 70.2438 85.2067 70.2646 84.4974C70.2853 83.7863 70.4758 83.0898 70.8199 82.4694C72.2568 79.8264 74.2921 78.3842 76.6867 78.504C79.0814 78.6255 80.638 80.4268 79.0814 84.0312C82.0747 86.9137 80.638 89.3172 77.6447 90.0374C74.6514 90.7575 72.3765 90.2768 70.7002 86.5527Z" fill="#EB459F"/>
<path d="M35.14 61.5664C37.415 55.4387 43.641 51.7145 49.6275 48.8321C55.6141 45.9486 72.3766 41.1433 76.9264 47.8707C77.5251 47.5102 77.2856 47.0297 76.9264 46.0686C76.2516 44.8545 75.4916 43.6903 74.6515 42.5848C70.5805 37.5392 55.9733 39.7017 48.1907 44.1465C40.4082 48.5908 38.0136 52.315 36.5767 55.7997C35.14 59.2826 34.182 60.8444 35.14 61.5664Z" fill="#312CC7"/>
<path d="M77.1656 81.8687C76.8466 82.5725 76.345 83.1784 75.7134 83.6228C75.0815 84.0654 74.3427 84.3321 73.5737 84.3901" stroke="black" stroke-width="0.938578" stroke-miterlimit="10" stroke-linecap="round"/>
<path d="M77.0468 85.1124L75.8496 83.5505" stroke="black" stroke-width="0.938578" stroke-miterlimit="10" stroke-linecap="round"/>
<path d="M66.2098 73.5587C66.6136 71.4744 65.9411 69.5897 64.7078 69.3484C63.4745 69.109 62.1473 70.6037 61.7435 72.688C61.3399 74.7705 62.0124 76.6552 63.2457 76.8965C64.479 77.1378 65.806 75.643 66.2098 73.5587Z" fill="black"/>
<path d="M83.6843 73.8112C84.6353 73.5282 84.9952 71.9065 84.4882 70.1886C83.981 68.4726 82.799 67.308 81.8479 67.591C80.897 67.8739 80.5371 69.4956 81.0442 71.2135C81.5512 72.9314 82.7334 74.0941 83.6843 73.8112Z" fill="black"/>
<path d="M77.1654 58.3231C76.6865 58.802 76.5668 60.3638 76.6865 62.2867C77.9247 61.4958 79.3094 60.9643 80.7573 60.7248C79.3206 58.3231 78.1232 57.6011 77.1654 58.3231Z" fill="#D11583"/>
<path d="M85.4267 57.2419C85.3351 58.3448 84.8244 59.3733 84.0001 60.1098C83.1757 60.8481 82.1005 61.2399 80.9965 61.2054H80.7571C79.2852 61.3506 77.8793 61.8911 76.6863 62.7673V61.6861C77.8358 60.9152 79.147 60.4218 80.5176 60.244H80.6374C82.4334 60.1243 84.1095 59.6436 84.4687 57.1203C84.4448 57.0441 84.4473 56.9607 84.476 56.8845C84.5046 56.8101 84.5578 56.7466 84.6269 56.7049C84.696 56.6632 84.7769 56.645 84.8567 56.6559C84.9367 56.6668 85.0109 56.7031 85.0675 56.7611C85.307 56.7611 85.4267 57.0006 85.4267 57.2419Z" fill="black"/>
<path d="M80.3986 60.7246C81.8354 59.404 81.7157 58.3228 81.4763 56.761" stroke="black" stroke-width="0.938578" stroke-miterlimit="10" stroke-linecap="round"/>
<path d="M64.235 62.7674L63.5166 62.0473C62.0798 60.3639 58.9668 60.1244 56.9313 63.6073L64.235 62.7674Z" fill="#D11583"/>
<path opacity="0.3" d="M53.0825 87.523C54.1968 86.5851 53.8598 84.3412 52.3297 82.5109C50.7996 80.6806 48.6556 79.9586 47.5413 80.8964C46.4267 81.8343 46.7638 84.0782 48.2941 85.9085C49.8242 87.7388 51.9681 88.4608 53.0825 87.523Z" fill="#FF0077"/>
<path opacity="0.3" d="M90.8159 71.177C89.9778 71.6577 89.3792 73.3393 89.4989 75.2603C89.6186 77.1832 90.5764 79.5849 91.6541 79.5849C92.7316 79.5849 93.2105 78.5038 93.45 76.9419C93.6894 75.3819 91.7738 73.098 90.8159 71.177Z" fill="#FF0077"/>
</g>
<defs>
<clipPath id="clip0_78_1688">
<rect width="118" height="118" rx="59" fill="white"/>
</clipPath>
</defs>
</svg>
