<svg width="24" height="24" viewBox="0 0 24 24" fill="none" xmlns="http://www.w3.org/2000/svg">
<mask id="mask0_98_7142" style="mask-type:alpha" maskUnits="userSpaceOnUse" x="0" y="0" width="24" height="24">
<path d="M12 24C5.36695 24 0 18.6251 0 12C0 5.36695 5.37492 0 12 0C18.633 0 24 5.37492 24 12C24.008 18.633 18.633 24 12 24Z" fill="#F7A097"/>
</mask>
<g mask="url(#mask0_98_7142)">
<path d="M18.2711 20.2273C18.2196 20.2642 18.1606 20.301 18.1091 20.3379C18.0501 20.3747 17.9986 20.4115 17.9396 20.441C17.888 20.4705 17.8438 20.4999 17.7923 20.5294C17.7849 20.5368 17.7775 20.5368 17.7702 20.5441C17.6007 20.6473 17.4239 20.7431 17.2471 20.8315C17.1955 20.8609 17.1366 20.8904 17.085 20.9125C17.085 20.9125 17.0776 20.9199 17.0703 20.9199C17.0113 20.9493 16.9524 20.9788 16.8934 21.0083C16.7756 21.0672 16.6503 21.1188 16.5324 21.1704C16.4735 21.1998 16.4072 21.2219 16.3483 21.244C16.2893 21.2661 16.223 21.2956 16.1641 21.3177C16.1051 21.3398 16.0388 21.3693 15.9799 21.3914C15.9799 21.3914 15.9799 21.3914 15.9725 21.3914C15.9136 21.4135 15.8473 21.4356 15.7883 21.4577C15.6557 21.5019 15.5157 21.5461 15.3831 21.5903C15.3389 21.605 15.2874 21.6198 15.2432 21.6345C15.1032 21.6787 14.9632 21.7156 14.8232 21.745C14.7716 21.7598 14.7201 21.7671 14.6611 21.7819C14.5285 21.8113 14.3885 21.8408 14.2559 21.8703C14.2265 21.8776 14.2044 21.8776 14.1749 21.885C14.1307 21.8924 14.0791 21.8997 14.0349 21.9071C13.9686 21.9145 13.9097 21.9292 13.8434 21.9366C13.8139 21.9439 13.7844 21.9439 13.7549 21.9513C13.7181 21.9587 13.6739 21.966 13.6297 21.966C13.5118 21.9808 13.3866 21.9955 13.2687 22.0103C13.2319 22.0176 13.1877 22.0176 13.1508 22.025H13.1435C13.0919 22.0324 13.0403 22.0324 12.9887 22.0397C12.9372 22.0471 12.8856 22.0471 12.834 22.0471C12.8046 22.0471 12.7677 22.0545 12.7382 22.0545C12.6793 22.0545 12.6277 22.0618 12.5762 22.0618C12.5025 22.0618 12.4362 22.0692 12.3625 22.0692C12.2888 22.0692 12.2225 22.0692 12.1489 22.0692C12.0973 22.0692 12.0457 22.0692 11.9941 22.0692C8.89248 22.025 6.09287 20.7062 4.10368 18.6139C4.10368 18.6139 4.10368 18.6065 4.09631 18.6065C4.3247 18.1571 5.17195 17.3467 6.05604 16.6763C7.17588 15.829 8.75986 15.3059 8.75986 15.3059C8.75986 15.3059 9.79866 15.1365 13.6518 15.9395C16.5914 16.5584 17.8438 19.0707 18.2711 20.2273Z" fill="#FEE4BF"/>
<path d="M14.4696 17.9805C14.3148 18.7393 13.3129 19.1888 11.6258 18.511C9.55552 17.6711 8.75985 15.3061 8.75985 15.3061C8.64934 13.6117 8.39148 12.1603 8.39148 12.1603C10.7859 11.954 13.6149 14.7536 13.6149 14.7536L13.9391 16.1387C13.9686 16.2565 14.0275 16.3597 14.1159 16.4334C14.2706 16.6986 14.5727 17.4943 14.4696 17.9805Z" fill="#FEE4BF"/>
<path d="M14.1159 16.4406C12.7088 16.3669 11.67 16.1606 10.5575 14.1641C11.5005 14.9966 12.613 15.3134 13.7844 15.4607L13.9391 16.1385C13.9686 16.2638 14.0275 16.3669 14.1159 16.4406Z" fill="#EFBDA5"/>
<path d="M17.0261 7.56305C17.1587 8.18191 17.225 8.68289 16.864 10.3332C16.503 11.9835 17.1955 13.6338 15.4568 15.1441C14.2854 16.1608 12.2373 16.3523 10.6017 15.2399C10.0491 14.8641 9.5408 14.341 9.12822 13.6559C8.80406 13.1181 8.42832 12.6097 8.00838 12.1456C7.42636 11.512 6.72646 10.2374 7.07272 7.98299C7.63265 4.31404 11.2648 3.8941 13.4087 4.29931C15.5526 4.70451 16.665 5.9275 17.0261 7.56305Z" fill="#FEE4BF"/>
<path d="M9.97549 10.4435C9.97549 10.4435 9.7471 9.3384 8.67146 9.47101C7.74317 9.58889 7.41901 11.8138 9.52608 12.4327" fill="#FEE4BF"/>
<path d="M9.45983 11.4233C9.45983 11.4233 9.1946 11.2539 9.22407 10.9592C9.26827 10.6129 9.22407 10.3992 9.06199 10.3329C8.65678 10.1635 8.57574 10.635 8.59048 10.6939" stroke="#423232" stroke-width="0.229158" stroke-miterlimit="10" stroke-linecap="round" stroke-linejoin="round"/>
<path d="M15.0811 12.138C15.0811 12.138 15.361 12.1527 15.6262 11.8359C15.7736 11.6591 15.8988 11.4381 15.8178 11.3718C15.7367 11.2981 14.4033 11.5044 14.3148 11.6812C14.2264 11.858 14.7422 12.138 15.0811 12.138Z" fill="#EFBDA5"/>
<path d="M15.3021 9.6626C15.3021 9.6626 15.3169 10.3625 15.7663 11.1434C15.9652 11.4897 15.6631 12.057 15.0074 12.1528" stroke="#423232" stroke-width="0.229158" stroke-miterlimit="10" stroke-linecap="round" stroke-linejoin="round"/>
<path opacity="0.42" d="M11.309 12.5137C11.7281 12.5137 12.0679 12.2333 12.0679 11.8875C12.0679 11.5416 11.7281 11.2612 11.309 11.2612C10.8899 11.2612 10.5502 11.5416 10.5502 11.8875C10.5502 12.2333 10.8899 12.5137 11.309 12.5137Z" fill="#F2A5B2"/>
<path opacity="0.42" d="M16.7461 11.2759C16.724 11.6885 16.7314 12.0937 16.7019 12.4989C16.3777 12.4252 16.142 12.1821 16.142 11.8947C16.142 11.5853 16.3998 11.3348 16.7461 11.2759Z" fill="#F2A5B2"/>
<path d="M14.2722 16.7451C14.2722 16.7451 13.1671 17.0693 11.6346 16.5683C10.1022 16.0673 8.60665 14.7485 8.60665 14.7485C8.60665 14.7485 8.1204 14.7559 7.93622 15.1243C7.7594 15.4926 7.76677 16.2515 7.4868 16.4578C7.4205 16.502 7.23631 16.5535 6.96372 16.6272C6.52168 16.7525 5.86598 16.944 5.20292 17.3197C4.7093 17.5997 4.20832 17.9754 3.78838 18.4912C3.59683 18.7269 3.42738 18.9921 3.28003 19.2942C2.11599 21.6591 2.61697 24.9745 2.61697 24.9745H20.6228C20.6228 24.9745 20.0998 20.8782 18.9725 19.53C17.8453 18.1817 15.6941 17.0914 15.0605 16.804V16.3767C15.0678 16.3767 14.6774 16.6346 14.2722 16.7451Z" fill="#48D89E"/>
<mask id="mask1_98_7142" style="mask-type:alpha" maskUnits="userSpaceOnUse" x="2" y="14" width="19" height="11">
<path d="M14.2722 16.7451C14.2722 16.7451 13.1671 17.0693 11.6346 16.5683C10.1022 16.0673 8.60665 14.7485 8.60665 14.7485C8.60665 14.7485 8.1204 14.7559 7.93622 15.1243C7.7594 15.4926 7.76677 16.2515 7.4868 16.4578C7.4205 16.502 7.23631 16.5535 6.96372 16.6272C6.52168 16.7525 5.86598 16.944 5.20292 17.3197C4.7093 17.5997 4.20832 17.9754 3.78838 18.4912C3.59683 18.7269 3.42738 18.9921 3.28003 19.2942C2.11599 21.6591 2.61697 24.9745 2.61697 24.9745H20.6228C20.6228 24.9745 20.0998 20.8782 18.9725 19.53C17.8453 18.1817 15.6941 17.0914 15.0605 16.804V16.3767C15.0678 16.3767 14.6774 16.6346 14.2722 16.7451Z" fill="#6AAED9"/>
</mask>
<g mask="url(#mask1_98_7142)">
<path d="M5.51971 19.5594C5.95101 19.5594 6.30065 19.2098 6.30065 18.7785C6.30065 18.3472 5.95101 17.9976 5.51971 17.9976C5.08841 17.9976 4.73877 18.3472 4.73877 18.7785C4.73877 19.2098 5.08841 19.5594 5.51971 19.5594Z" fill="#FCED7E"/>
<path d="M9.96222 19.1986C10.3935 19.1986 10.7432 18.849 10.7432 18.4177C10.7432 17.9864 10.3935 17.6367 9.96222 17.6367C9.53091 17.6367 9.18127 17.9864 9.18127 18.4177C9.18127 18.849 9.53091 19.1986 9.96222 19.1986Z" fill="#FCED7E"/>
<path d="M13.3217 17.5409C13.753 17.5409 14.1027 17.1912 14.1027 16.7599C14.1027 16.3286 13.753 15.979 13.3217 15.979C12.8904 15.979 12.5408 16.3286 12.5408 16.7599C12.5408 17.1912 12.8904 17.5409 13.3217 17.5409Z" fill="#FCED7E"/>
<path d="M8.57721 23.0223C9.00851 23.0223 9.35815 22.6727 9.35815 22.2414C9.35815 21.8101 9.00851 21.4604 8.57721 21.4604C8.1459 21.4604 7.79626 21.8101 7.79626 22.2414C7.79626 22.6727 8.1459 23.0223 8.57721 23.0223Z" fill="#FCED7E"/>
<path d="M17.6685 22.6244C18.0998 22.6244 18.4495 22.2747 18.4495 21.8434C18.4495 21.4121 18.0998 21.0625 17.6685 21.0625C17.2372 21.0625 16.8876 21.4121 16.8876 21.8434C16.8876 22.2747 17.2372 22.6244 17.6685 22.6244Z" fill="#FCED7E"/>
<path d="M13.366 21.9906C13.7973 21.9906 14.147 21.641 14.147 21.2097C14.147 20.7784 13.7973 20.4287 13.366 20.4287C12.9347 20.4287 12.5851 20.7784 12.5851 21.2097C12.5851 21.641 12.9347 21.9906 13.366 21.9906Z" fill="#FCED7E"/>
<path d="M17.0644 18.8226C17.4957 18.8226 17.8453 18.473 17.8453 18.0417C17.8453 17.6104 17.4957 17.2607 17.0644 17.2607C16.6331 17.2607 16.2834 17.6104 16.2834 18.0417C16.2834 18.473 16.6331 18.8226 17.0644 18.8226Z" fill="#FCED7E"/>
</g>
<path d="M15.0678 16.8042C15.0678 16.8042 15.1636 17.4672 14.9941 17.843C14.7216 18.4618 12.8281 19.1691 10.5369 18.344C8.71714 17.6883 7.82569 16.7821 7.80359 16.6421" stroke="#329369" stroke-width="0.229158" stroke-miterlimit="10" stroke-linecap="round" stroke-linejoin="round"/>
<path d="M9.18131 15.5C9.14448 15.5442 9.10764 15.6031 9.07817 15.6768C8.97503 15.9273 8.94556 16.4504 8.94556 16.4504" stroke="#329369" stroke-width="0.229158" stroke-miterlimit="10" stroke-linecap="round" stroke-linejoin="round"/>
<path d="M10.4264 16.2588C10.397 16.3177 10.3675 16.384 10.3528 16.4577C10.3159 16.6493 10.2717 17.2534 10.2717 17.2534" stroke="#329369" stroke-width="0.229158" stroke-miterlimit="10" stroke-linecap="round" stroke-linejoin="round"/>
<path d="M11.6789 16.7744C11.6641 16.8334 11.6494 16.907 11.642 16.9954C11.6273 17.0986 11.6347 17.7248 11.6347 17.7248" stroke="#329369" stroke-width="0.229158" stroke-miterlimit="10" stroke-linecap="round" stroke-linejoin="round"/>
<path d="M13.0198 17.0693C13.0345 17.2388 13.0419 17.4745 13.0198 17.7619" stroke="#329369" stroke-width="0.229158" stroke-miterlimit="10" stroke-linecap="round" stroke-linejoin="round"/>
<path d="M14.147 17.0103C14.1691 17.1502 14.1912 17.3418 14.1985 17.5849" stroke="#329369" stroke-width="0.229158" stroke-miterlimit="10" stroke-linecap="round" stroke-linejoin="round"/>
<path d="M8.3783 14.7778C8.20148 14.8441 7.96573 15.021 7.87732 15.5367" stroke="#329369" stroke-width="0.229158" stroke-miterlimit="10" stroke-linecap="round" stroke-linejoin="round"/>
<path d="M15.9372 17.2389C15.5615 17.0327 15.2521 16.8853 15.0679 16.8043V16.377" stroke="#329369" stroke-width="0.229158" stroke-miterlimit="10" stroke-linecap="round" stroke-linejoin="round"/>
<path d="M13.6819 8.8229C13.842 8.845 13.9657 8.67555 13.9075 8.51347C13.8784 8.42506 13.8274 8.34402 13.7474 8.29245C13.5 8.13774 12.5761 8.123 12.0886 8.47664C11.6594 8.8008 12.9544 8.71976 13.6819 8.8229Z" fill="#423232"/>
<path d="M15.6971 8.90372C15.5662 8.90372 15.4862 8.73427 15.5516 8.59429C15.588 8.52062 15.6389 8.45431 15.7117 8.41748C15.9372 8.30696 16.5411 8.37327 16.8103 8.74901C17.0503 9.08054 16.301 8.89635 15.6971 8.90372Z" fill="#423232"/>
<path d="M13.4272 9.75101C12.9616 9.51525 12.2268 9.69207 12.2268 9.69207" stroke="#423232" stroke-width="0.229158" stroke-miterlimit="10" stroke-linecap="round" stroke-linejoin="round"/>
<path d="M16.301 9.89832C16.301 9.89832 16.1119 9.69204 15.4135 9.85412" stroke="#423232" stroke-width="0.229158" stroke-miterlimit="10" stroke-linecap="round" stroke-linejoin="round"/>
<path d="M14.8911 13.0451C14.7002 13.1291 14.6085 12.9611 14.3106 13.1062C14.0967 13.2055 13.9821 13.2361 13.7224 13.0833C13.5544 12.9764 13.3481 13.1291 13.1495 12.8389" stroke="#423232" stroke-width="0.229158" stroke-miterlimit="10" stroke-linecap="round" stroke-linejoin="round"/>
<path d="M18.8953 15.7692C18.4827 14.8556 18.1659 14.9809 18.4532 14.1557C18.7405 13.338 18.3722 12.7559 17.6133 11.9824C16.8913 11.2456 16.8177 10.4426 16.8398 10.3247C16.7734 10.6341 16.744 10.9509 16.7292 11.2604C16.7071 11.6729 16.7145 12.0781 16.685 12.4833C16.6261 13.3895 16.4124 14.281 15.44 15.1209C15.0126 15.4892 14.4675 15.7545 13.8633 15.8797C13.7012 16.3733 13.9444 16.727 14.4748 16.7859C15.0053 16.8448 15.2263 17.6405 16.4272 18.0162C18.2248 18.5983 19.3078 16.6828 18.8953 15.7692Z" fill="#423232"/>
<path d="M15.5357 6.85434C15.6905 6.93538 15.8231 6.86171 15.9041 6.69963C16.7587 6.56701 16.9576 8.27624 16.9871 8.37939C17.0166 8.4899 17.0313 8.79933 16.9724 9.64658C16.9355 10.1181 19.6762 6.7733 17.1713 5.35876C17.3555 5.08617 17.2229 3.73057 15.6831 3.39904C15.1305 3.28116 14.4085 3.79688 13.5023 3.59796C9.95864 2.80965 6.28232 3.56112 6.56964 8.23941C6.63595 9.26347 6.70226 10.3686 4.96356 11.1053C2.94489 11.9599 3.04804 14.1922 4.46994 14.649C5.05933 14.8406 3.11434 16.1667 4.24892 17.3455C4.83831 17.9643 5.89184 16.7119 6.96011 17.3897C8.57357 18.4138 9.37662 17.9496 9.69341 17.5444C10.3417 16.7193 9.5387 15.0616 9.5387 15.0616C9.5387 15.0616 9.8555 14.5532 9.95864 14.2807C10.4596 12.9398 9.2661 12.3357 9.2661 12.3357C7.42426 11.6284 7.75579 9.5729 8.65461 9.45502C9.59764 9.33715 9.89233 10.177 9.9439 10.3833C9.9439 10.3833 10.7764 11.5326 12.3825 8.90984C13.9739 6.28705 14.8432 6.4786 15.5357 6.85434Z" fill="#423232"/>
<path d="M8.95105 11.8647V13.1172" stroke="#FFDE55" stroke-width="0.229158" stroke-miterlimit="10" stroke-linecap="round" stroke-linejoin="round"/>
<path d="M9.94566 14.797C9.74674 14.9959 9.47414 15.1212 9.16471 15.1212C8.56796 15.1212 8.07434 14.6349 8.07434 14.0308C8.07434 13.434 8.56059 12.9404 9.16471 12.9404C9.46678 12.9404 9.74674 13.0657 9.94566 13.2646C9.81304 13.1909 9.66569 13.1467 9.50361 13.1467C9.01737 13.1467 8.61953 13.5446 8.61953 14.0308C8.61953 14.517 9.01737 14.9149 9.50361 14.9149C9.66569 14.9223 9.81304 14.878 9.94566 14.797Z" fill="#FFDE55"/>
<path d="M8.95103 14.4729C9.1911 14.4729 9.38571 14.2783 9.38571 14.0382C9.38571 13.7981 9.1911 13.6035 8.95103 13.6035C8.71097 13.6035 8.51636 13.7981 8.51636 14.0382C8.51636 14.2783 8.71097 14.4729 8.95103 14.4729Z" fill="#FF6B57"/>
<path d="M17.3573 13.2797C17.2247 13.206 17.0773 13.1618 16.9152 13.1618C16.7974 13.1618 16.6942 13.1839 16.5911 13.2281C16.6058 13.1397 16.6279 13.0513 16.6353 12.9629C16.9226 12.9703 17.1731 13.0881 17.3573 13.2797Z" fill="#FFDE55"/>
<path d="M17.3646 14.7974C17.1657 14.9963 16.8931 15.1215 16.5836 15.1215C16.2742 15.1215 15.9869 14.9889 15.788 14.7753C15.9058 14.6427 16.009 14.5101 16.1048 14.3774C16.2374 14.6942 16.5542 14.9079 16.9152 14.9079C17.0773 14.9226 17.232 14.8784 17.3646 14.7974Z" fill="#FFDE55"/>
<path d="M16.8047 14.0386C16.8047 14.2817 16.6132 14.4732 16.37 14.4732C16.2743 14.4732 16.1859 14.4438 16.1122 14.3848C16.2816 14.1343 16.4069 13.8765 16.4879 13.626C16.6647 13.6702 16.8047 13.8396 16.8047 14.0386Z" fill="#FF6B57"/>
</g>
</svg>
