<svg width="26" height="28" viewBox="0 0 26 28" fill="none" xmlns="http://www.w3.org/2000/svg">
<g clip-path="url(#clip0_58_1607)">
<path d="M9.96629 24.4604L1.00073 15.0621C0.894314 14.9502 0.818758 14.829 0.774063 14.6984C0.729369 14.5679 0.707376 14.428 0.708085 14.2789C0.708085 14.1297 0.730433 13.9898 0.775128 13.8593C0.819822 13.7288 0.895023 13.6076 1.00073 13.4957L9.96629 4.06933C10.2146 3.80827 10.525 3.67773 10.8974 3.67773C11.2699 3.67773 11.5891 3.81759 11.8552 4.0973C12.1212 4.37702 12.2542 4.70335 12.2542 5.0763C12.2542 5.44925 12.1212 5.77558 11.8552 6.0553L4.03359 14.2789L11.8552 22.5024C12.1035 22.7635 12.2276 23.0854 12.2276 23.468C12.2276 23.8507 12.0946 24.1815 11.8286 24.4604C11.5625 24.7401 11.2521 24.88 10.8974 24.88C10.5427 24.88 10.2323 24.7401 9.96629 24.4604Z" fill="black"/>
</g>
<defs>
<clipPath id="clip0_58_1607">
<rect width="25.5399" height="26.8525" fill="white" transform="translate(0.255798 0.852539)"/>
</clipPath>
</defs>
</svg>
