<svg width="26" height="28" viewBox="0 0 26 28" fill="none" xmlns="http://www.w3.org/2000/svg">
<g clip-path="url(#clip0_59_2272)">
<path d="M9.96635 24.4604L1.00079 15.0621C0.894375 14.9502 0.818819 14.829 0.774124 14.6984C0.72943 14.5679 0.707437 14.428 0.708147 14.2789C0.708147 14.1297 0.730494 13.9898 0.775189 13.8593C0.819883 13.7288 0.895084 13.6076 1.00079 13.4957L9.96635 4.06933C10.2147 3.80827 10.525 3.67773 10.8975 3.67773C11.2699 3.67773 11.5892 3.81759 11.8552 4.0973C12.1213 4.37702 12.2543 4.70335 12.2543 5.0763C12.2543 5.44925 12.1213 5.77558 11.8552 6.0553L4.03365 14.2789L11.8552 22.5024C12.1035 22.7635 12.2277 23.0854 12.2277 23.468C12.2277 23.8507 12.0947 24.1815 11.8286 24.4604C11.5626 24.7401 11.2522 24.88 10.8975 24.88C10.5428 24.88 10.2324 24.7401 9.96635 24.4604Z" fill="black"/>
</g>
<defs>
<clipPath id="clip0_59_2272">
<rect width="25.5399" height="26.8525" fill="white" transform="translate(0.255859 0.852539)"/>
</clipPath>
</defs>
</svg>
