<svg width="12" height="13" viewBox="0 0 12 13" fill="none" xmlns="http://www.w3.org/2000/svg">
<g clip-path="url(#clip0_97_4832)">
<path d="M4.54705 10.8125L0.493879 6.56365C0.44577 6.51307 0.411613 6.45827 0.391407 6.39926C0.371202 6.34025 0.361259 6.27702 0.36158 6.20958C0.36158 6.14214 0.371683 6.07891 0.391888 6.0199C0.412094 5.96089 0.446091 5.90609 0.493879 5.85551L4.54705 1.59403C4.65931 1.476 4.79962 1.41699 4.968 1.41699C5.13638 1.41699 5.28071 1.48022 5.40098 1.60667C5.52126 1.73313 5.58139 1.88065 5.58139 2.04926C5.58139 2.21786 5.52126 2.36539 5.40098 2.49185L1.86498 6.20958L5.40098 9.92731C5.51324 10.0453 5.56937 10.1908 5.56937 10.3638C5.56937 10.5368 5.50923 10.6864 5.38896 10.8125C5.26868 10.9389 5.12837 11.0022 4.968 11.0022C4.80764 11.0022 4.66732 10.9389 4.54705 10.8125Z" fill="black"/>
</g>
<defs>
<clipPath id="clip0_97_4832">
<rect width="11.5461" height="12.1395" fill="white" transform="translate(0.157227 0.139648)"/>
</clipPath>
</defs>
</svg>
