<svg width="26" height="28" viewBox="0 0 26 28" fill="none" xmlns="http://www.w3.org/2000/svg">
<g clip-path="url(#clip0_34_1838)">
<path d="M9.96635 24.4603L1.00079 15.0619C0.894375 14.9501 0.818819 14.8288 0.774124 14.6983C0.72943 14.5678 0.707437 14.4279 0.708147 14.2787C0.708147 14.1296 0.730494 13.9897 0.775189 13.8592C0.819883 13.7286 0.895084 13.6074 1.00079 13.4955L9.96635 4.06921C10.2147 3.80815 10.525 3.67761 10.8975 3.67761C11.2699 3.67761 11.5892 3.81747 11.8552 4.09718C12.1213 4.3769 12.2543 4.70323 12.2543 5.07618C12.2543 5.44913 12.1213 5.77546 11.8552 6.05518L4.03365 14.2787L11.8552 22.5023C12.1035 22.7634 12.2277 23.0852 12.2277 23.4679C12.2277 23.8505 12.0947 24.1813 11.8286 24.4603C11.5626 24.74 11.2522 24.8799 10.8975 24.8799C10.5428 24.8799 10.2324 24.74 9.96635 24.4603Z" fill="black"/>
</g>
<defs>
<clipPath id="clip0_34_1838">
<rect width="25.5399" height="26.8525" fill="white" transform="translate(0.255859 0.852539)"/>
</clipPath>
</defs>
</svg>
