<svg width="26" height="28" viewBox="0 0 26 28" fill="none" xmlns="http://www.w3.org/2000/svg">
<g clip-path="url(#clip0_55_2880)">
<path d="M9.96647 24.4603L1.00091 15.0619C0.894497 14.9501 0.818941 14.8288 0.774247 14.6983C0.729552 14.5678 0.707559 14.4279 0.708269 14.2787C0.708269 14.1296 0.730616 13.9897 0.775311 13.8592C0.820005 13.7286 0.895206 13.6074 1.00091 13.4955L9.96647 4.06921C10.2148 3.80815 10.5252 3.67761 10.8976 3.67761C11.2701 3.67761 11.5893 3.81747 11.8554 4.09718C12.1214 4.3769 12.2544 4.70323 12.2544 5.07618C12.2544 5.44913 12.1214 5.77546 11.8554 6.05518L4.03377 14.2787L11.8554 22.5023C12.1037 22.7634 12.2278 23.0852 12.2278 23.4679C12.2278 23.8505 12.0948 24.1813 11.8288 24.4603C11.5627 24.74 11.2523 24.8799 10.8976 24.8799C10.5429 24.8799 10.2325 24.74 9.96647 24.4603Z" fill="black"/>
</g>
<defs>
<clipPath id="clip0_55_2880">
<rect width="25.5399" height="26.8525" fill="white" transform="translate(0.255859 0.852539)"/>
</clipPath>
</defs>
</svg>
