<svg width="26" height="28" viewBox="0 0 26 28" fill="none" xmlns="http://www.w3.org/2000/svg">
<g clip-path="url(#clip0_58_1079)">
<path d="M9.96623 24.4603L1.00067 15.0619C0.894253 14.9501 0.818697 14.8288 0.774002 14.6983C0.729308 14.5678 0.707315 14.4279 0.708024 14.2787C0.708024 14.1296 0.730372 13.9897 0.775067 13.8592C0.819761 13.7286 0.894962 13.6074 1.00067 13.4955L9.96623 4.06921C10.2145 3.80815 10.5249 3.67761 10.8974 3.67761C11.2698 3.67761 11.5891 3.81747 11.8551 4.09718C12.1212 4.3769 12.2542 4.70323 12.2542 5.07618C12.2542 5.44913 12.1212 5.77546 11.8551 6.05518L4.03353 14.2787L11.8551 22.5023C12.1034 22.7634 12.2276 23.0852 12.2276 23.4679C12.2276 23.8505 12.0945 24.1813 11.8285 24.4603C11.5625 24.74 11.2521 24.8799 10.8974 24.8799C10.5426 24.8799 10.2323 24.74 9.96623 24.4603Z" fill="black"/>
</g>
<defs>
<clipPath id="clip0_58_1079">
<rect width="25.5399" height="26.8525" fill="white" transform="translate(0.255859 0.852539)"/>
</clipPath>
</defs>
</svg>
