<svg width="12" height="13" viewBox="0 0 12 13" fill="none" xmlns="http://www.w3.org/2000/svg">
<g clip-path="url(#clip0_97_4722)">
<path d="M4.54723 10.8125L0.494062 6.56365C0.445953 6.51307 0.411796 6.45827 0.39159 6.39926C0.371385 6.34025 0.361442 6.27702 0.361763 6.20958C0.361763 6.14214 0.371866 6.07891 0.392071 6.0199C0.412277 5.96089 0.446274 5.90609 0.494062 5.85551L4.54723 1.59403C4.65949 1.476 4.79981 1.41699 4.96819 1.41699C5.13657 1.41699 5.28089 1.48022 5.40117 1.60667C5.52144 1.73313 5.58157 1.88065 5.58157 2.04926C5.58157 2.21786 5.52144 2.36539 5.40117 2.49185L1.86516 6.20958L5.40117 9.92731C5.51342 10.0453 5.56955 10.1908 5.56955 10.3638C5.56955 10.5368 5.50941 10.6864 5.38914 10.8125C5.26887 10.9389 5.12855 11.0022 4.96819 11.0022C4.80782 11.0022 4.66751 10.9389 4.54723 10.8125Z" fill="black"/>
</g>
<defs>
<clipPath id="clip0_97_4722">
<rect width="11.5461" height="12.1395" fill="white" transform="translate(0.157288 0.139648)"/>
</clipPath>
</defs>
</svg>
