<svg width="5" height="4" viewBox="0 0 5 4" fill="none" xmlns="http://www.w3.org/2000/svg">
<g clip-path="url(#clip0_98_5020)">
<path d="M1.78496 2.70288L0.353372 1.64067C0.33638 1.62802 0.324315 1.61432 0.317178 1.59957C0.310042 1.58482 0.30653 1.56901 0.306643 1.55215C0.306643 1.53529 0.310212 1.51948 0.317348 1.50473C0.324485 1.48998 0.336493 1.47628 0.353372 1.46363L1.78496 0.398263C1.82461 0.368757 1.87417 0.354004 1.93365 0.354004C1.99312 0.354004 2.04409 0.369811 2.08658 0.401424C2.12906 0.433037 2.1503 0.46992 2.1503 0.512071C2.1503 0.554222 2.12906 0.591104 2.08658 0.622718L0.837649 1.55215L2.08658 2.48158C2.12622 2.51109 2.14605 2.54747 2.14605 2.59071C2.14605 2.63396 2.12481 2.67135 2.08233 2.70288C2.03985 2.73449 1.99029 2.7503 1.93365 2.7503C1.877 2.7503 1.82744 2.73449 1.78496 2.70288Z" fill="black"/>
</g>
<defs>
<clipPath id="clip0_98_5020">
<rect width="4.07813" height="3.03488" fill="white" transform="translate(0.234436 0.034668)"/>
</clipPath>
</defs>
</svg>
