<svg width="26" height="28" viewBox="0 0 26 28" fill="none" xmlns="http://www.w3.org/2000/svg">
<g clip-path="url(#clip0_63_6248)">
<path d="M9.96647 24.4604L1.00091 15.0621C0.894497 14.9502 0.818941 14.829 0.774247 14.6984C0.729552 14.5679 0.707559 14.428 0.708269 14.2789C0.708269 14.1297 0.730616 13.9898 0.775311 13.8593C0.820005 13.7288 0.895206 13.6076 1.00091 13.4957L9.96647 4.06933C10.2148 3.80827 10.5252 3.67773 10.8976 3.67773C11.2701 3.67773 11.5893 3.81759 11.8554 4.0973C12.1214 4.37702 12.2544 4.70335 12.2544 5.0763C12.2544 5.44925 12.1214 5.77558 11.8554 6.0553L4.03377 14.2789L11.8554 22.5024C12.1037 22.7635 12.2278 23.0854 12.2278 23.468C12.2278 23.8507 12.0948 24.1815 11.8288 24.4604C11.5627 24.7401 11.2523 24.88 10.8976 24.88C10.5429 24.88 10.2325 24.7401 9.96647 24.4604Z" fill="black"/>
</g>
<defs>
<clipPath id="clip0_63_6248">
<rect width="25.5399" height="26.8525" fill="white" transform="translate(0.255859 0.852539)"/>
</clipPath>
</defs>
</svg>
