<svg width="12" height="13" viewBox="0 0 12 13" fill="none" xmlns="http://www.w3.org/2000/svg">
<g clip-path="url(#clip0_97_5621)">
<path d="M4.5473 10.8125L0.494123 6.56365C0.446014 6.51307 0.411857 6.45827 0.391651 6.39926C0.371446 6.34025 0.361503 6.27702 0.361824 6.20958C0.361824 6.14214 0.371927 6.07891 0.392133 6.0199C0.412338 5.96089 0.446335 5.90609 0.494123 5.85551L4.5473 1.59403C4.65955 1.476 4.79987 1.41699 4.96825 1.41699C5.13663 1.41699 5.28096 1.48022 5.40123 1.60667C5.5215 1.73313 5.58164 1.88065 5.58164 2.04926C5.58164 2.21786 5.5215 2.36539 5.40123 2.49185L1.86523 6.20958L5.40123 9.92731C5.51348 10.0453 5.56961 10.1908 5.56961 10.3638C5.56961 10.5368 5.50947 10.6864 5.3892 10.8125C5.26893 10.9389 5.12861 11.0022 4.96825 11.0022C4.80789 11.0022 4.66757 10.9389 4.5473 10.8125Z" fill="black"/>
</g>
<defs>
<clipPath id="clip0_97_5621">
<rect width="11.5461" height="12.1395" fill="white" transform="translate(0.157349 0.139648)"/>
</clipPath>
</defs>
</svg>
