<svg width="28" height="28" viewBox="0 0 28 28" fill="none" xmlns="http://www.w3.org/2000/svg">
<g clip-path="url(#clip0_87_6209)">
<rect width="28" height="28" rx="14" fill="#19B375"/>
<path d="M7.65531 10.7358C7.99261 10.7358 8.26618 10.4623 8.26618 10.1249C8.26618 9.78754 7.99261 9.51404 7.65531 9.51404C7.31784 9.51404 7.04443 9.78754 7.04443 10.1249C7.04443 10.4623 7.31784 10.7358 7.65531 10.7358Z" fill="#FFD736"/>
<path d="M15.217 11.0659C14.5414 10.2175 13.6322 9.58566 12.6013 9.24856C11.5706 8.91146 10.4636 8.88388 9.41735 9.16923C8.37111 9.45459 7.43136 10.0403 6.71449 10.8541C5.99763 11.6678 5.53502 12.6739 5.38379 13.7478C5.23255 14.8217 5.39947 15.9163 5.8639 16.8964C6.32816 17.8764 7.06962 18.6988 7.9965 19.262C8.9232 19.8251 9.99487 20.1042 11.0786 20.0649C12.1623 20.0254 13.2109 19.6692 14.0943 19.0403C14.7044 18.6002 15.2191 18.0414 15.6076 17.3973C15.9963 16.7533 16.2507 16.0373 16.3555 15.2924C16.4604 14.5476 16.4136 13.7892 16.218 13.0629C16.0222 12.3366 15.6818 11.6573 15.217 11.0659Z" fill="#1D2CC2"/>
<path d="M18.0238 12.4858C20.6984 9.13428 21.0286 7.16959 18.2714 6.5257C16.539 6.13245 14.7418 6.12119 13.0047 6.49268C12.3121 6.65804 11.6607 6.96297 11.0901 7.38879C10.5195 7.81462 10.0417 8.35238 9.68622 8.96918C7.60595 12.5684 7.3418 13.8066 7.3418 13.8066L18.0238 12.4858Z" fill="#FF78B9"/>
<path d="M15.8936 10.6201C17.4125 10.6201 17.3795 11.1319 17.2969 11.7428C17.2144 12.3537 15.8936 10.6201 15.8936 10.6201Z" fill="black"/>
<path d="M18.2714 6.5257C16.539 6.13245 14.7418 6.12119 13.0047 6.49268C12.3121 6.65804 11.6607 6.96297 11.0901 7.38879C10.5195 7.81462 10.0417 8.35238 9.68622 8.96918C7.60595 12.5684 7.3418 13.8066 7.3418 13.8066L18.0238 12.4858C20.6984 9.13428 21.0286 7.16959 18.2714 6.5257ZM17.6771 12.2382L7.91965 13.4599C7.91965 13.4599 8.24985 12.3537 10.3631 9.13428C11.0704 8.06534 12.1657 7.31341 13.4175 7.03751C14.9585 6.70683 16.5534 6.71811 18.0898 7.07053C20.5498 7.59885 19.9389 8.98569 17.6771 12.2382Z" fill="#EB459F"/>
<path d="M18.3373 22.8212C22.0521 22.425 24.9579 22.9037 23.7691 30.2837C23.4555 32.2154 23.1913 33.949 22.9436 35.4514C25.2716 37.5151 24.9909 41.0978 23.1913 43.0295C21.3917 44.9611 19.1463 43.4752 17.8916 40.9987C16.6368 38.5222 15.5967 35.9302 15.5967 35.9302L18.3373 22.8212Z" fill="#459FF7"/>
<path d="M4.89806 22.1607C5.77309 20.3116 5.80611 18.5945 5.77309 17.0591C5.74932 16.1323 5.91244 15.2103 6.25287 14.3479C6.59315 13.4856 7.1038 12.7007 7.7543 12.0401C9.42181 10.4056 11.2544 10.1579 12.9384 10.0589C15.9598 9.86074 22.1345 12.4363 20.0212 22.7551C18.717 29.1279 16.8183 36.5574 16.8183 36.5574C16.8183 36.5574 23.1747 48.197 10.6105 48.197C1.1833 48.197 -1.14461 47.0413 -2.34984 43.7393C-3.18641 41.4033 -3.19796 38.8515 -2.38286 36.5079C0.671494 27.543 2.81779 26.5689 4.89806 22.1607Z" fill="#459FF7"/>
<path d="M12.9388 10.0589C11.4199 10.158 9.76892 10.3561 8.25 11.6108H8.26651C15.6465 13.1793 15.696 14.9294 18.5853 12.7005C16.9178 10.6037 14.5073 9.95984 12.9388 10.0589Z" fill="#2A88E6"/>
<path d="M0.935547 30.036L3.6432 27.1798C3.66994 27.1482 3.70659 27.1269 3.74704 27.119C3.78766 27.1112 3.82959 27.1173 3.86608 27.1367C3.90273 27.1558 3.93162 27.187 3.94813 27.2248C3.96448 27.2626 3.96762 27.3051 3.95689 27.3449C3.13138 31.9016 3.01581 33.8498 3.01581 33.8498L0.935547 30.036Z" fill="black"/>
<path d="M12.5752 12.2877C12.6568 12.0205 12.6903 11.741 12.6743 11.4622" stroke="black" stroke-linecap="round" stroke-linejoin="round"/>
<path d="M12.8062 12.3703C12.9683 12.1389 13.0911 11.8823 13.1694 11.6108" stroke="black" stroke-linecap="round" stroke-linejoin="round"/>
<path d="M12.8394 12.3538C13.1095 12.2877 13.3664 12.176 13.5988 12.0236" stroke="black" stroke-linecap="round" stroke-linejoin="round"/>
<path d="M16.6699 12.6509C16.7295 12.4305 16.7464 12.2007 16.7194 11.974" stroke="black" stroke-linecap="round" stroke-linejoin="round"/>
<path d="M16.9175 12.7005C17.036 12.5056 17.125 12.2941 17.1816 12.0731" stroke="black" stroke-linecap="round" stroke-linejoin="round"/>
<path d="M16.9341 12.7005C17.153 12.6289 17.3592 12.523 17.545 12.3868" stroke="black" stroke-linecap="round" stroke-linejoin="round"/>
<path d="M14.2428 50.3763C13.9433 50.2877 13.6804 50.1049 13.4932 49.8551C13.3058 49.6053 13.204 49.3017 13.2026 48.9895C13.2026 46.2488 13.2191 38.6542 13.7475 33.7177C14.6225 27.0642 18.4033 27.4274 19.9387 27.8236C22.4813 28.484 23.0426 30.7789 22.2832 34.8239C21.5237 38.8688 21.1935 43.2275 21.5072 48.3951C21.5344 48.8142 21.421 49.2302 21.1846 49.5773C20.9483 49.9243 20.6028 50.1823 20.2029 50.3103C18.1391 50.9872 16.3395 51.0037 14.2428 50.3763Z" fill="#3442D9"/>
<path d="M14.5731 49.9801C14.77 49.8441 14.9264 49.6568 15.0253 49.4387C15.1242 49.2206 15.1618 48.9798 15.1344 48.7418C14.5896 43.3596 14.474 36.5244 14.4245 32.2648C14.375 28.0053 12.3607 27.8236 10.7758 27.8236C9.19081 27.8236 7.78745 27.7906 6.36759 29.8709C4.94773 31.9511 1.95942 35.2862 -1.57373 45.3078L7.06101 44.1521C7.06101 46.3149 6.89591 47.9989 7.02799 50.1617C7.04252 50.3689 7.11996 50.5667 7.24972 50.729C7.37949 50.8911 7.55549 51.01 7.75444 51.0698C10.297 51.8953 12.9551 51.1193 14.5731 49.9801Z" fill="#3442D9"/>
<path d="M13.6025 15.7349C14.2091 15.5678 14.4731 14.6057 14.1923 13.586C13.9114 12.5663 13.1919 11.875 12.5853 12.0421C11.9788 12.2092 11.7148 13.1713 11.9956 14.191C12.2766 15.2108 12.996 15.902 13.6025 15.7349Z" fill="white"/>
<path d="M9.86768 14.368C11.4361 13.8893 13.2522 14.4011 14.7051 15.6228L13.5989 16.3327L9.86768 14.368Z" fill="#459FF7"/>
<path d="M13.6179 14.5129C13.8903 14.4379 14.0092 14.0064 13.8834 13.5493C13.7574 13.0922 13.4345 12.7825 13.1619 12.8575C12.8893 12.9326 12.7706 13.364 12.8964 13.8211C13.0224 14.2783 13.3453 14.588 13.6179 14.5129Z" fill="black"/>
<path d="M18.0003 15.6728C18.4583 15.4906 18.5178 14.5592 18.1331 13.5925C17.7486 12.6258 17.0655 11.9898 16.6075 12.172C16.1497 12.3542 16.0903 13.2856 16.4748 14.2523C16.8595 15.219 17.5425 15.855 18.0003 15.6728Z" fill="white"/>
<path d="M15.9929 18.3799C16.0453 18.4138 16.1068 18.4305 16.1691 18.4275C16.2312 18.4245 16.2909 18.4021 16.3396 18.3634C18.3043 16.927 19.3279 16.8279 19.3279 18.4955C19.3279 20.163 18.0237 22.722 15.8278 22.722C13.632 22.722 11.5682 21.5003 10.8418 19.354C10.1153 17.2077 11.5022 16.3987 12.889 16.7619C14.2759 17.1251 15.5141 18.0332 15.9929 18.3799Z" fill="black"/>
<path d="M13.9289 19.7007C14.5068 19.2549 15.4644 19.387 16.0752 19.8328C16.6861 20.2785 17.4951 21.137 16.7852 21.913C16.0752 22.689 14.4903 22.2927 13.6318 21.5828C12.7732 20.8729 12.0798 20.295 12.1789 19.7667C12.2779 19.2384 12.7898 19.1393 13.9289 19.7007Z" fill="#FF78B9"/>
<path d="M17.5863 14.4977C17.7729 14.4239 17.7962 14.041 17.6385 13.6425C17.4807 13.2441 17.2017 12.9809 17.0151 13.0548C16.8285 13.1286 16.8052 13.5115 16.9631 13.91C17.1208 14.3084 17.3999 14.5716 17.5863 14.4977Z" fill="black"/>
<path d="M8.79465 15.5568C7.93613 16.1181 6.84647 17.2903 6.86298 19.5687" stroke="#2A88E6" stroke-width="2" stroke-linecap="round" stroke-linejoin="round"/>
<path d="M16.8184 10.6201C16.8184 9.39837 14.8042 9.71206 13.764 9.7781C12.2616 9.86065 9.98325 9.97622 8.28271 11.5777V11.6107C9.50446 10.4715 14.0942 10.6201 16.8184 10.6201Z" fill="#FF78B9"/>
<path d="M8.26611 11.6108C8.51442 11.404 8.80037 11.247 9.10812 11.1486L9.30624 10.8184C9.30624 10.5047 9.14114 10.4386 9.00906 10.5377C8.87698 10.6367 8.56329 11.132 8.28262 11.5778L8.26611 11.6108Z" fill="#EB459F"/>
<path d="M20.038 22.7221C19.8503 23.7008 19.5797 24.6619 19.229 25.5948C19.2179 25.6175 19.2146 25.6429 19.2194 25.6675C19.2242 25.6921 19.2369 25.7145 19.2556 25.7312C19.2742 25.7481 19.2978 25.7583 19.3228 25.7604C19.3477 25.7627 19.3728 25.7566 19.3941 25.7434C20.2031 25.4297 21.1772 23.7952 21.6395 22.9367C21.1192 22.786 20.5795 22.7137 20.038 22.7221Z" fill="black"/>
<path d="M6.99483 23.6466C4.08907 21.5993 1.54652 18.4624 -1.57387 21.946C-4.69427 25.4297 -6.54339 28.3684 -7.71561 30.4817C-8.88782 32.595 -7.13775 33.9818 -4.71078 35.7319C-2.84514 37.0692 0.869612 40.3547 3.36263 38.357C4.1386 37.7296 5.09618 35.9796 5.4594 34.246C5.82262 32.5125 4.55135 31.3402 0.935649 30.036L6.99483 23.6466Z" fill="#459FF7"/>
<path d="M5.11279 22.1606L7.73789 24.1749" stroke="black" stroke-linecap="round" stroke-linejoin="round"/>
<path d="M13.9292 19.5192C14.7874 19.9016 15.549 20.4713 16.1581 21.1867" stroke="black" stroke-linecap="round" stroke-linejoin="round"/>
</g>
<defs>
<clipPath id="clip0_87_6209">
<rect width="28" height="28" rx="14" fill="white"/>
</clipPath>
</defs>
</svg>
