<svg width="25" height="24" viewBox="0 0 25 24" fill="none" xmlns="http://www.w3.org/2000/svg">
<g clip-path="url(#clip0_98_1846)">
<path d="M19.7939 10.7632C19.7244 10.5991 19.5671 10.4943 19.3915 10.4943H13.9122L16.4691 0.568001C16.5228 0.364958 16.4376 0.152502 16.2594 0.0543417C16.0812 -0.0438182 15.8544 -0.00616764 15.7181 0.144434L4.58525 12.7493C4.46731 12.8797 4.43847 13.0747 4.50793 13.2279C4.57346 13.3947 4.73072 13.5009 4.90895 13.5009H10.3882L7.82617 23.4299C7.77113 23.6316 7.85894 23.8454 8.04241 23.9489C8.10663 23.9825 8.17608 24 8.24685 24C8.37135 24 8.49192 23.9476 8.57579 23.8534L19.7205 11.2473C19.8345 11.1141 19.862 10.9246 19.7939 10.7632Z" fill="#999999"/>
</g>
<defs>
<clipPath id="clip0_98_1846">
<rect width="24" height="24" fill="white" transform="translate(0.5)"/>
</clipPath>
</defs>
</svg>
