<svg width="25" height="24" viewBox="0 0 25 24" fill="none" xmlns="http://www.w3.org/2000/svg">
<path fill-rule="evenodd" clip-rule="evenodd" d="M10.9445 21.3733C10.6222 20.8421 10.2223 20.1318 9.8224 19.289C9.0049 17.566 8.16693 15.2467 8.02198 12.75H3.02917C3.371 17.1268 6.67896 20.6707 10.9445 21.3733ZM1.52517 12.75C1.91067 18.4753 6.67694 23 12.5 23C18.5751 23 23.5 18.0751 23.5 12C23.5 5.92487 18.5751 1 12.5 1C6.67694 1 1.91067 5.52466 1.52517 11.25H1.5V12V12.75H1.52517ZM3.02917 11.25H8.02198C8.16693 8.75333 9.0049 6.43396 9.8224 4.71099C10.2223 3.86816 10.6222 3.15788 10.9445 2.62672C6.67896 3.32927 3.371 6.87321 3.02917 11.25ZM9.52482 12.75C9.66842 14.9465 10.413 17.0346 11.1776 18.646C11.6007 19.5377 12.0238 20.2707 12.34 20.7792C12.3971 20.871 12.4506 20.9554 12.5 21.032C12.5494 20.9554 12.6029 20.871 12.66 20.7792C12.9762 20.2707 13.3993 19.5377 13.8224 18.646C14.587 17.0346 15.3316 14.9465 15.4752 12.75H9.52482ZM15.4752 11.25H9.52482C9.66842 9.05346 10.413 6.96541 11.1776 5.35398C11.6007 4.46231 12.0238 3.72926 12.34 3.22077C12.3971 3.12898 12.4506 3.04461 12.5 2.96803C12.5494 3.04461 12.6029 3.12898 12.66 3.22077C12.9762 3.72926 13.3993 4.46231 13.8224 5.35398C14.587 6.96541 15.3316 9.05346 15.4752 11.25ZM16.978 12.75C16.8331 15.2467 15.9951 17.566 15.1776 19.289C14.7777 20.1318 14.3778 20.8421 14.0555 21.3733C18.321 20.6707 21.629 17.1268 21.9708 12.75H16.978ZM21.9708 11.25H16.978C16.8331 8.75333 15.9951 6.43396 15.1776 4.71099C14.7777 3.86816 14.3778 3.15788 14.0555 2.62672C18.321 3.32927 21.629 6.87321 21.9708 11.25Z" fill="#999999"/>
</svg>
