<svg width="25" height="24" viewBox="0 0 25 24" fill="none" xmlns="http://www.w3.org/2000/svg">
<g clip-path="url(#clip0_98_1826)">
<path fill-rule="evenodd" clip-rule="evenodd" d="M12.5 0C5.88972 0 0.5 5.38972 0.5 12C0.5 18.6103 5.88972 24 12.5 24C19.1103 24 24.5 18.6103 24.5 12C24.5 5.38972 19.1103 0 12.5 0ZM11.7365 4.74948H13.5875V6.41563C14.7291 6.50819 15.8554 6.81643 16.7193 7.32552L15.7781 9.59323C14.7445 9.03786 13.7265 8.76042 12.7854 8.76042C11.505 8.76042 11.0422 9.19235 11.0422 9.73229C11.0422 11.383 17.1667 10.149 17.1667 14.1292C17.1667 15.7644 15.9941 17.1837 13.5875 17.5385V19.2505H11.7365V17.6C10.1938 17.492 8.7281 17.0447 7.83333 16.4276L8.83594 14.175C9.79241 14.8075 11.1499 15.2396 12.3995 15.2396C13.6645 15.2396 14.1583 14.8849 14.1583 14.3604C14.1583 12.648 8.01823 13.8975 8.01823 9.88646C8.01823 8.18949 9.23729 6.75489 11.7365 6.44635V4.74948Z" fill="white"/>
</g>
<defs>
<clipPath id="clip0_98_1826">
<rect width="24" height="24" fill="white" transform="translate(0.5)"/>
</clipPath>
</defs>
</svg>
