<svg width="31" height="31" viewBox="0 0 31 31" fill="none" xmlns="http://www.w3.org/2000/svg">
<g clip-path="url(#clip0_97_5744)">
<rect width="31" height="31" rx="15.5" fill="#15AD75"/>
<path d="M20.5419 29.3419C20.2159 29.3754 19.888 29.2982 19.6111 29.1228C19.3341 28.9473 19.1241 28.6838 19.0149 28.3743C19.0039 28.3434 17.9408 25.3456 16.3663 22.103C16.2824 21.9302 16.2333 21.7425 16.2217 21.5507C16.2103 21.3589 16.2366 21.1666 16.2994 20.985C16.4259 20.6183 16.6928 20.3167 17.0414 20.1469C17.3899 19.9772 17.7915 19.953 18.1577 20.0797C18.5242 20.2065 18.8253 20.4739 18.9949 20.8227C20.0301 22.9659 20.9563 25.1605 21.7692 27.3977C21.8429 27.6063 21.8682 27.829 21.8434 28.0488C21.8185 28.2687 21.7443 28.4801 21.6262 28.6671C21.508 28.854 21.349 29.0117 21.1611 29.1282C20.9735 29.2449 20.7616 29.3172 20.5419 29.34V29.3419Z" fill="#2331B5"/>
<path d="M17.0491 15.0888C20.6403 15.0888 23.5516 12.1738 23.5516 8.57774C23.5516 4.98189 20.6403 2.06689 17.0491 2.06689C13.4579 2.06689 10.5469 4.98189 10.5469 8.57774C10.5469 12.1738 13.4579 15.0888 17.0491 15.0888Z" fill="#8CD9FF"/>
<path d="M15.9697 12.7151C13.5951 12.0949 11.4654 12.0712 10.6471 12.587C10.5378 12.6609 10.4511 12.7639 10.3969 12.8844C10.3427 13.0048 10.3232 13.138 10.3404 13.2692L10.7476 17.0257L18.419 19.0376L20.6108 15.9596C20.6899 15.8538 20.7378 15.7282 20.7494 15.5966C20.761 15.4652 20.7359 15.3331 20.6766 15.2152C20.2127 14.3574 18.3404 13.335 15.9697 12.7151Z" fill="#B5E4FF"/>
<path d="M20.5861 18.6483C20.8561 17.6133 18.4896 16.0986 15.301 15.2652C12.1123 14.4316 9.30842 14.595 9.03868 15.63C8.76872 16.665 11.1352 18.1797 14.3239 19.0131C17.5125 19.8467 20.3164 19.6833 20.5861 18.6483Z" fill="#7AC5FF"/>
<path d="M9.09714 15.416C9.15156 15.2083 9.25387 15.0162 9.39594 14.8556C9.53825 14.6949 9.71614 14.5698 9.91542 14.4905C11.3564 13.9217 13.5685 13.9619 15.5117 14.4721C17.4552 14.9825 19.404 16.025 20.3849 17.2283C20.5202 17.3948 20.6141 17.591 20.6595 17.8006C20.7051 18.0103 20.7004 18.2279 20.6462 18.4354L20.5895 18.653L9.04041 15.6336L9.09714 15.416Z" fill="#7AC5FF"/>
<path d="M19.0872 18.5821C19.2579 17.9285 17.4463 16.8888 15.0414 16.2601C12.6364 15.6315 10.5485 15.652 10.3781 16.3059C10.2076 16.9595 12.019 17.9992 14.4241 18.6279C16.8291 19.2565 18.9168 19.236 19.0872 18.5821Z" fill="#B5E4FF"/>
<path d="M19.0405 35.5471C16.2899 27.4176 19.0898 18.595 19.0898 18.595L14.7354 17.4409L10.5947 33.3232L19.0405 35.5471Z" fill="#B5E4FF"/>
<path d="M2.14685 31.1229C8.51585 25.3782 10.3807 16.3086 10.3807 16.3086L14.7351 17.4408L10.5944 33.3231L2.14685 31.1229Z" fill="#B5E4FF"/>
<path d="M19.899 35.4337C20.2557 34.0471 16.4085 31.8558 11.3056 30.5389C6.20272 29.2219 1.77674 29.2784 1.41981 30.6647C1.06287 32.0511 4.91032 34.2424 10.0132 35.5595C15.1161 36.8763 19.5421 36.82 19.899 35.4337Z" fill="#3F99F2"/>
<path d="M1.45268 30.6367C1.52523 30.356 1.66545 30.0977 1.86101 29.884C2.05633 29.6703 2.30142 29.508 2.57418 29.4113C4.32025 28.7967 7.83448 29.0015 11.4747 29.96C15.115 30.9183 18.2804 32.4528 19.5114 33.8445C19.7019 34.0626 19.8361 34.3237 19.9023 34.6055C19.9686 34.8874 19.9649 35.1813 19.8914 35.4612L19.8165 35.7447L1.37781 30.922L1.45268 30.6367Z" fill="#3F99F2"/>
<path d="M10.107 35.1979C6.20536 34.1774 2.88669 32.7178 2.67486 31.8583C2.43907 30.898 6.09398 31.0445 10.8648 32.2918C15.6359 33.5391 18.9015 35.2014 18.2202 35.9239C17.6175 36.5696 14.0084 36.2183 10.107 35.1979Z" fill="#2331B5"/>
<path d="M10.3277 19.9026L10.2529 19.7363C9.70479 20.7257 9.30111 21.6877 10.1085 21.9053C11.0072 22.1467 12.8026 21.2743 15.4311 19.7837L15.389 19.374C12.1487 20.5502 9.98428 20.8829 10.3277 19.9026Z" fill="#5865F2"/>
<path d="M10.3278 19.9021L10.2529 19.7358C9.7232 20.7032 9.32325 21.6433 10.0613 21.8884C10.0613 21.4421 10.2201 20.9592 10.485 20.3776C10.4424 20.3579 10.4045 20.3297 10.3734 20.2946C10.3422 20.2595 10.3185 20.2186 10.3038 20.1739C10.2892 20.1293 10.2836 20.0823 10.2878 20.0356C10.292 19.9888 10.3055 19.9435 10.3278 19.9021Z" fill="black"/>
<path d="M10.3207 20.2209L10.4558 20.5702C10.4932 20.6706 10.5544 20.7604 10.6339 20.832C10.7134 20.9036 10.809 20.955 10.9125 20.9817C11.5317 21.1317 12.7097 20.9159 15.4312 19.7837L15.3894 19.374C12.5727 20.402 10.5709 20.7806 10.3207 20.2209Z" fill="black"/>
<path d="M15.5555 20.5973C15.5094 20.5973 15.4638 20.5866 15.4225 20.5664C15.3811 20.5462 15.3446 20.5166 15.3162 20.4803C15.0255 20.0676 14.9058 19.5584 14.982 19.0591C14.9853 19.017 14.9974 18.9761 15.0174 18.9389C15.0374 18.9015 15.0648 18.8689 15.0981 18.8426C15.1311 18.8166 15.1695 18.7975 15.2102 18.7868C15.2511 18.7761 15.2936 18.774 15.3355 18.7806C15.3771 18.7871 15.4171 18.8022 15.4527 18.825C15.4883 18.8478 15.5187 18.8775 15.5424 18.9126C15.5659 18.9477 15.582 18.9873 15.5896 19.0289C15.5973 19.0705 15.5962 19.1131 15.5866 19.1542C15.5343 19.4865 15.6108 19.826 15.8003 20.1036C15.8489 20.1683 15.8703 20.2497 15.8598 20.3301C15.8491 20.4104 15.8075 20.4834 15.7436 20.5334C15.6894 20.5743 15.6234 20.5968 15.5555 20.5973Z" fill="black"/>
<path d="M10.0718 20.1623C10.006 20.162 9.94203 20.1404 9.88948 20.1009C9.83669 20.0616 9.79809 20.006 9.77926 19.943C9.76042 19.88 9.76252 19.8123 9.78484 19.7505C9.80716 19.6886 9.84902 19.6354 9.90366 19.5991C10.0346 19.5147 10.1713 19.44 10.3129 19.3759C10.3862 19.3489 10.4671 19.3507 10.5389 19.3814C10.6108 19.4119 10.6685 19.4689 10.6998 19.5405C10.7312 19.6121 10.7343 19.693 10.7082 19.7667C10.6822 19.8405 10.6289 19.9016 10.5594 19.9374C10.4485 19.99 10.3415 20.0511 10.2399 20.1202C10.1887 20.1495 10.1306 20.1641 10.0718 20.1623Z" fill="black"/>
<path d="M11.7033 7.82448C11.8322 7.32919 12.0833 6.87436 12.434 6.50208C12.7881 6.11375 13.225 5.81053 13.7126 5.61521C13.9724 5.51196 14.2465 5.45035 14.5253 5.43221C14.8346 5.41314 15.1425 5.48499 15.4113 5.63892C15.5485 5.72287 15.6675 5.83355 15.7617 5.96424C15.8559 6.09469 15.9228 6.2428 15.9591 6.39976C16.0228 6.67787 15.9852 6.96969 15.8533 7.22269C15.8377 7.25268 15.811 7.27547 15.7789 7.28594C15.7468 7.29663 15.7119 7.29431 15.6815 7.27943C15.665 7.27106 15.6503 7.25896 15.6389 7.24408C15.6275 7.2292 15.6196 7.21176 15.6159 7.19339C15.5796 6.99085 15.5045 6.79693 15.3948 6.62276C15.3045 6.49557 15.1769 6.39976 15.0295 6.34861C14.6837 6.24792 14.3144 6.26466 13.9794 6.39604C13.5827 6.53324 13.2122 6.7367 12.8834 6.99783C12.5288 7.26431 12.2161 7.58241 11.9554 7.94144C11.9359 7.96958 11.907 7.99004 11.8738 7.99888C11.8408 8.00795 11.8057 8.00492 11.7745 7.9905C11.7433 7.97632 11.7182 7.9512 11.7036 7.92028C11.6889 7.88935 11.6857 7.854 11.6943 7.82075L11.7033 7.82448Z" fill="black"/>
<path d="M14.2038 25.6872C16.0745 26.6383 17.851 27.7644 19.5099 29.0505C19.6618 29.1754 19.8376 29.2684 20.0261 29.3238C20.2147 29.3791 20.4126 29.3956 20.6079 29.3726C20.8032 29.3496 20.9918 29.2873 21.1625 29.1894C21.3332 29.0917 21.4822 28.9603 21.6011 28.8036C21.7199 28.6466 21.8059 28.4674 21.8538 28.2765C21.9017 28.0855 21.9108 27.887 21.8803 27.6926C21.8496 27.4979 21.7803 27.3117 21.6762 27.1447C21.572 26.9778 21.4353 26.8334 21.2744 26.7206C18.5052 24.6174 16.4487 23.5035 15.4604 23.0464C14.3536 22.5341 13.8897 22.4976 12.4833 22.6367C11.9225 22.6953 11.7818 22.9092 11.453 23.9553C11.1242 25.0015 11.6174 25.3031 12.717 25.188C13.1772 25.1403 13.5737 25.3708 14.2038 25.6872Z" fill="#2331B5"/>
<path d="M8.75894 22.6787C8.29504 22.6787 8.09785 22.7025 7.54629 23.0445C7.35678 23.1622 7.1968 23.3217 7.07867 23.511C7.02193 23.6023 6.96706 23.6937 6.91427 23.7723C6.44107 24.5425 6.21459 24.9008 6.25295 25.1331C6.30458 25.3607 6.38364 25.5812 6.48851 25.7898C6.57268 25.6568 6.65291 25.5233 6.72964 25.3891C7.2247 24.588 8.10134 24.7673 8.44665 24.7308C8.79195 24.6941 8.95984 23.9388 9.19377 23.3554C9.42746 22.772 9.30701 22.6769 8.75894 22.6787Z" fill="#2331B5"/>
<path d="M15.1041 22.8893C14.6364 22.7175 14.3734 22.1359 14.2256 21.7774C14.0774 21.4191 13.8182 21.5251 13.5589 21.6311C13.2994 21.7372 13.2319 21.986 13.5935 22.7998C13.9551 23.6137 15.1041 22.8893 15.1041 22.8893Z" fill="#2331B5"/>
</g>
<defs>
<clipPath id="clip0_97_5744">
<rect width="31" height="31" rx="15.5" fill="white"/>
</clipPath>
</defs>
</svg>
