<svg width="45" height="45" viewBox="0 0 45 45" fill="none" xmlns="http://www.w3.org/2000/svg">
<g clip-path="url(#clip0_97_5458)">
<rect width="45" height="45" rx="22.5" fill="#15AD75"/>
<path d="M29.8187 42.5923C29.3455 42.6409 28.8695 42.5288 28.4675 42.2743C28.0655 42.0194 27.7607 41.637 27.602 41.1877C27.5862 41.1428 26.0429 36.7912 23.7574 32.0842C23.6356 31.8334 23.5643 31.561 23.5475 31.2825C23.5309 31.004 23.5691 30.7249 23.6602 30.4613C23.8438 29.9289 24.2313 29.4912 24.7373 29.2448C25.2433 28.9983 25.8262 28.9632 26.3578 29.1472C26.8898 29.3312 27.3269 29.7193 27.573 30.2256C29.0758 33.3368 30.4202 36.5225 31.6002 39.77C31.7072 40.0728 31.744 40.3962 31.7079 40.7152C31.6718 41.0345 31.5641 41.3413 31.3927 41.6127C31.2212 41.8841 30.9903 42.1129 30.7176 42.2821C30.4452 42.4515 30.1377 42.5565 29.8187 42.5895V42.5923Z" fill="#2331B5"/>
<path d="M24.7488 21.9028C29.9618 21.9028 34.1879 17.6713 34.1879 12.4512C34.1879 7.23145 29.9618 3 24.7488 3C19.5358 3 15.3101 7.23145 15.3101 12.4512C15.3101 17.6713 19.5358 21.9028 24.7488 21.9028Z" fill="#8CD9FF"/>
<path d="M23.1819 18.4568C19.7349 17.5565 16.6433 17.5221 15.4555 18.2708C15.2969 18.3781 15.1709 18.5277 15.0923 18.7025C15.0137 18.8774 14.9853 19.0708 15.0103 19.2611L15.6013 24.7142L26.7372 27.6346L29.9189 23.1665C30.0337 23.0129 30.1032 22.8307 30.1201 22.6396C30.137 22.4489 30.1005 22.2572 30.0144 22.086C29.341 20.8408 26.6231 19.3567 23.1819 18.4568Z" fill="#B5E4FF"/>
<path d="M29.883 27.0693C30.2749 25.5669 26.8397 23.3681 22.2109 22.1584C17.5822 20.9483 13.5121 21.1856 13.1205 22.688C12.7287 24.1904 16.1638 26.3892 20.7926 27.5989C25.4213 28.809 29.4914 28.5717 29.883 27.0693Z" fill="#7AC5FF"/>
<path d="M13.2054 22.3782C13.2844 22.0768 13.4329 21.798 13.6391 21.5647C13.8457 21.3315 14.1039 21.1499 14.3932 21.0348C16.485 20.2092 19.696 20.2676 22.5169 21.0081C25.3381 21.749 28.167 23.2623 29.5908 25.009C29.7873 25.2507 29.9236 25.5356 29.9894 25.8397C30.0556 26.1442 30.0488 26.4601 29.9702 26.7612L29.8878 27.0772L13.123 22.6942L13.2054 22.3782Z" fill="#7AC5FF"/>
<path d="M27.7073 26.9735C27.9551 26.0247 25.3253 24.5155 21.8344 23.6028C18.3432 22.6904 15.3124 22.7201 15.065 23.6693C14.8175 24.6181 17.447 26.1273 20.9382 27.04C24.4294 27.9524 27.4599 27.9227 27.7073 26.9735Z" fill="#B5E4FF"/>
<path d="M27.6393 51.6001C23.6465 39.7992 27.7109 26.9921 27.7109 26.9921L21.39 25.3169L15.3794 48.3718L27.6393 51.6001Z" fill="#B5E4FF"/>
<path d="M3.11621 45.1779C12.3615 36.8389 15.0686 23.6733 15.0686 23.6733L21.3895 25.3168L15.3788 48.3718L3.11621 45.1779Z" fill="#B5E4FF"/>
<path d="M28.8855 51.4355C29.4033 49.4227 23.8187 46.2417 16.4113 44.3302C9.00386 42.4184 2.57904 42.5004 2.06091 44.5128C1.54278 46.5253 7.12778 49.7063 14.5352 51.6181C21.9426 53.5296 28.3674 53.4479 28.8855 51.4355Z" fill="#3F99F2"/>
<path d="M2.10869 44.4719C2.214 44.0645 2.41754 43.6894 2.70142 43.3792C2.98495 43.069 3.34073 42.8334 3.73667 42.693C6.27128 41.8009 11.3726 42.0983 16.6568 43.4896C21.9411 44.8806 26.5361 47.1081 28.323 49.1283C28.5995 49.4449 28.7942 49.824 28.8904 50.2331C28.9866 50.6422 28.9812 51.0688 28.8746 51.4752L28.7659 51.8867L2 44.886L2.10869 44.4719Z" fill="#3F99F2"/>
<path d="M14.6714 51.0936C9.00778 49.6121 4.19036 47.4933 3.88286 46.2458C3.54059 44.8517 8.8461 45.0644 15.7715 46.8749C22.6972 48.6855 27.4377 51.0986 26.4487 52.1474C25.5738 53.0847 20.3347 52.5747 14.6714 51.0936Z" fill="#2331B5"/>
<path d="M14.9918 28.8903L14.8831 28.6489C14.0875 30.0852 13.5015 31.4816 14.6735 31.7975C15.9781 32.1479 18.5842 30.8815 22.3998 28.7178L22.3387 28.123C17.6351 29.8303 14.4932 30.3134 14.9918 28.8903Z" fill="#5865F2"/>
<path d="M14.9919 28.8903L14.8832 28.6489C14.1143 30.0531 13.5337 31.4178 14.6051 31.7736C14.6051 31.1258 14.8356 30.4247 15.2201 29.5806C15.1583 29.5519 15.1033 29.511 15.0581 29.46C15.0129 29.4091 14.9784 29.3497 14.9572 29.2849C14.9359 29.2201 14.9278 29.1519 14.9339 29.084C14.94 29.0162 14.9595 28.9504 14.9919 28.8903Z" fill="black"/>
<path d="M14.9814 29.3524L15.1776 29.8594C15.2319 30.0052 15.3207 30.1355 15.4361 30.2394C15.5516 30.3434 15.6903 30.418 15.8405 30.4568C16.7394 30.6745 18.4494 30.3613 22.4 28.7178L22.3392 28.123C18.2506 29.6153 15.3446 30.1648 14.9814 29.3524Z" fill="black"/>
<path d="M22.5805 29.8994C22.5137 29.8994 22.4475 29.8839 22.3875 29.8545C22.3274 29.8252 22.2744 29.7823 22.2332 29.7296C21.8113 29.1305 21.6374 28.3913 21.7482 27.6666C21.7529 27.6055 21.7704 27.5461 21.7995 27.4921C21.8285 27.4377 21.8683 27.3905 21.9166 27.3523C21.9645 27.3145 22.0202 27.2868 22.0793 27.2713C22.1387 27.2558 22.2005 27.2527 22.2612 27.2622C22.3216 27.2717 22.3797 27.2936 22.4313 27.3267C22.483 27.3598 22.5272 27.403 22.5616 27.4539C22.5957 27.5049 22.619 27.5623 22.6302 27.6227C22.6413 27.6831 22.6396 27.7449 22.6258 27.8046C22.5498 28.287 22.6609 28.7798 22.936 29.1828C23.0065 29.2767 23.0376 29.3948 23.0224 29.5116C23.0069 29.628 22.9464 29.734 22.8536 29.8066C22.775 29.866 22.6791 29.8988 22.5805 29.8994Z" fill="black"/>
<path d="M14.6204 29.2672C14.5249 29.2669 14.4321 29.2355 14.3558 29.1781C14.2792 29.121 14.2231 29.0404 14.1958 28.9489C14.1685 28.8574 14.1715 28.7592 14.2039 28.6694C14.2363 28.5796 14.2971 28.5023 14.3764 28.4497C14.5664 28.3271 14.7649 28.2188 14.9705 28.1256C15.0768 28.0865 15.1942 28.0892 15.2986 28.1337C15.4029 28.1779 15.4866 28.2606 15.5321 28.3646C15.5777 28.4686 15.5821 28.586 15.5443 28.693C15.5065 28.8 15.4292 28.8888 15.3283 28.9408C15.1672 29.0171 15.012 29.1058 14.8645 29.2061C14.7902 29.2486 14.7058 29.2699 14.6204 29.2672Z" fill="black"/>
<path d="M16.9887 11.3579C17.1757 10.6389 17.5403 9.97867 18.0493 9.43826C18.5634 8.87456 19.1976 8.43441 19.9055 8.15087C20.2825 8.001 20.6805 7.91156 21.0852 7.88523C21.5341 7.85755 21.981 7.96184 22.3712 8.1853C22.5704 8.30715 22.7432 8.46783 22.8799 8.65753C23.0166 8.84689 23.1138 9.0619 23.1665 9.28974C23.259 9.69344 23.2043 10.1171 23.0129 10.4843C22.9903 10.5279 22.9515 10.5609 22.9049 10.5761C22.8583 10.5917 22.8077 10.5883 22.7634 10.5667C22.7395 10.5545 22.7182 10.537 22.7017 10.5154C22.6851 10.4938 22.6737 10.4684 22.6683 10.4418C22.6156 10.1478 22.5066 9.86627 22.3473 9.61345C22.2163 9.42881 22.031 9.28974 21.817 9.21548C21.315 9.06932 20.779 9.09363 20.2926 9.28434C19.7168 9.48349 19.1791 9.77884 18.7018 10.1579C18.187 10.5447 17.733 11.0065 17.3546 11.5277C17.3263 11.5685 17.2844 11.5982 17.2362 11.611C17.1882 11.6242 17.1373 11.6198 17.092 11.5989C17.0468 11.5783 17.0103 11.5418 16.9891 11.4969C16.9678 11.452 16.9631 11.4007 16.9756 11.3525L16.9887 11.3579Z" fill="black"/>
<path d="M20.6184 37.2878C23.334 38.6684 25.9128 40.3031 28.3208 42.1701C28.5413 42.3513 28.7964 42.4863 29.0702 42.5667C29.3439 42.647 29.6312 42.671 29.9147 42.6376C30.1983 42.6041 30.472 42.5137 30.7198 42.3716C30.9675 42.2298 31.1839 42.0391 31.3564 41.8116C31.5289 41.5837 31.6538 41.3235 31.7233 41.0464C31.7928 40.7692 31.806 40.481 31.7618 40.1988C31.7172 39.9163 31.6166 39.6459 31.4654 39.4035C31.3142 39.1612 31.1157 38.9516 30.8821 38.7879C26.8623 35.7348 23.8771 34.1179 22.4425 33.4543C20.8358 32.7107 20.1624 32.6577 18.1209 32.8596C17.3068 32.9446 17.1026 33.2552 16.6253 34.7738C16.148 36.2924 16.8639 36.7302 18.4602 36.5631C19.1282 36.4939 19.7037 36.8284 20.6184 37.2878Z" fill="#2331B5"/>
<path d="M12.7146 32.9204C12.0412 32.9204 11.7549 32.9549 10.9543 33.4514C10.6792 33.6222 10.447 33.8538 10.2755 34.1285C10.1931 34.2612 10.1135 34.3938 10.0368 34.5079C9.34994 35.6259 9.02117 36.146 9.07686 36.4832C9.1518 36.8137 9.26656 37.1337 9.41879 37.4364C9.54099 37.2434 9.65744 37.0496 9.76883 36.8549C10.4875 35.692 11.76 35.9523 12.2613 35.8993C12.7625 35.8459 13.0062 34.7496 13.3458 33.9027C13.685 33.0558 13.5102 32.9177 12.7146 32.9204Z" fill="#2331B5"/>
<path d="M21.9251 33.226C21.2463 32.9765 20.8645 32.1324 20.6498 31.6119C20.4348 31.0917 20.0584 31.2456 19.6821 31.3995C19.3054 31.5535 19.2075 31.9146 19.7324 33.096C20.2573 34.2774 21.9251 33.226 21.9251 33.226Z" fill="#2331B5"/>
</g>
<defs>
<clipPath id="clip0_97_5458">
<rect width="45" height="45" rx="22.5" fill="white"/>
</clipPath>
</defs>
</svg>
