<svg width="28" height="28" viewBox="0 0 28 28" fill="none" xmlns="http://www.w3.org/2000/svg">
<rect width="28" height="28" rx="14" fill="#9C84EF"/>
<path d="M14.8862 15.0114L16.394 4.41302C16.4386 4.04751 16.6196 3.71233 16.9008 3.47456C17.1811 3.23063 17.5429 3.10109 17.9143 3.11169C18.1304 3.11489 18.3434 3.16283 18.54 3.25246C18.7345 3.34287 18.9074 3.47409 19.0467 3.63722C19.1861 3.79981 19.2894 3.99011 19.3498 4.19556C19.4102 4.401 19.4263 4.61693 19.3971 4.82907L17.9175 15.7934L14.8862 15.0114Z" fill="#EE8BAA"/>
<path d="M16.6128 13.0469L17.9579 6.3901C17.9716 6.33438 18.0049 6.28549 18.0518 6.25246C18.0982 6.22005 18.1553 6.20663 18.2113 6.21492C18.327 6.24307 18.4146 6.32753 18.3865 6.44015L17.5513 12.9499L16.6128 13.0469Z" fill="#DF76A5"/>
<path d="M16.3942 4.41306C16.4415 4.033 16.6316 3.68517 16.926 3.44019C16.6945 5.18259 16.2534 8.26386 15.6403 13.4035L15.0991 13.4973L16.3942 4.41306Z" fill="#F2AEBA"/>
<path d="M9.32125 4.17224C8.87895 4.35617 8.52372 4.70226 8.3283 5.13961C8.13291 5.57695 8.11211 6.07245 8.27018 6.52466L11.4735 15.4838L15.4181 14.2607L11.7581 5.18891C11.5683 4.7321 11.2058 4.3687 10.7495 4.17773C10.2931 3.98675 9.77984 3.98366 9.32125 4.16911V4.17224Z" fill="#EE8BAA"/>
<path d="M12.4965 13.2189L14.0606 12.9686L11.8208 7.61318C11.7911 7.53447 11.7464 7.46224 11.6894 7.40046C11.6283 7.34165 11.5559 7.29588 11.4767 7.26595C11.3966 7.23682 11.3111 7.22612 11.2264 7.23466C11.1422 7.24201 11.0608 7.26876 10.9887 7.31287C10.8593 7.37859 10.7589 7.49008 10.7071 7.62569C10.6525 7.75779 10.6448 7.9046 10.6852 8.04174L12.4965 13.2189Z" fill="#DF76A5"/>
<path d="M11.6424 13.2314L8.47983 4.89478C8.32571 5.13336 8.22833 5.40411 8.19517 5.68621C8.15847 5.968 8.18522 6.25443 8.27337 6.52455L10.7071 13.3565L11.6424 13.2314Z" fill="#F1A6B4"/>
<path d="M19.1844 11.8581L7.59124 13.5286C6.79277 13.6433 6.07236 14.0699 5.58799 14.715C5.10361 15.36 4.89481 16.1708 5.00735 16.9696V17.051C5.12282 17.849 5.54966 18.5689 6.19451 19.0532C6.83936 19.5374 7.64973 19.7465 8.44837 19.6348L20.054 17.9769C20.8515 17.8607 21.5706 17.4335 22.0542 16.7887C22.5378 16.144 22.7465 15.334 22.6348 14.5359V14.4545C22.5795 14.0571 22.4463 13.6746 22.2428 13.3288C22.0393 12.983 21.7695 12.6808 21.4489 12.4395C21.1283 12.1983 20.7632 12.0227 20.3746 11.923C19.986 11.8232 19.5815 11.8012 19.1844 11.8581Z" fill="#EE8BAA"/>
<path d="M20.4731 16.9258L8.56095 18.6557C8.18773 18.7099 7.82886 18.8372 7.50481 19.0301C7.18075 19.223 6.89788 19.4778 6.67232 19.7801C6.21678 20.3905 6.02239 21.1569 6.1319 21.9106C6.24142 22.6644 6.64587 23.3437 7.25628 23.7992C7.86668 24.2548 8.63306 24.4492 9.3868 24.3397L21.3052 22.6098C22.0337 22.4715 22.6806 22.0572 23.1108 21.4533C23.541 20.8493 23.7212 20.1026 23.6138 19.3689C23.5064 18.6353 23.1197 17.9715 22.5344 17.5162C21.9492 17.061 21.2107 16.8494 20.4731 16.9258Z" fill="#EE8BAA"/>
<path d="M15.1523 17.8644C15.3931 17.6673 15.3619 17.2199 15.0709 16.8665C14.78 16.513 14.3546 16.3847 14.1106 16.5818C13.8666 16.7789 13.901 17.2262 14.1857 17.5828C14.4703 17.9394 14.9052 18.0646 15.1523 17.8644Z" fill="#1E1C2A"/>
<path d="M20.3263 16.5849C20.3983 16.1657 20.2168 15.7841 19.9228 15.734C19.6287 15.684 19.3315 15.9811 19.2596 16.4003C19.1876 16.8195 19.3659 17.198 19.66 17.2512C19.9541 17.3044 20.2512 17.0041 20.3263 16.5849Z" fill="#1E1C2A"/>
<path d="M16.6128 18.8622L17.3604 19.3345C17.4765 19.4092 17.6081 19.4562 17.7452 19.4722C17.8813 19.4903 18.0198 19.4794 18.1514 19.44C18.283 19.4006 18.4047 19.3337 18.5085 19.2438C18.6099 19.1568 18.6928 19.0505 18.7525 18.931L18.9746 18.443" stroke="#AB4A72" stroke-width="0.439199" stroke-miterlimit="10" stroke-linecap="round"/>
<path d="M7.67602 19.0719C6.98782 18.9092 6.15884 18.6934 5.81787 18.6683C6.14725 19.0407 6.56141 19.3282 7.02536 19.5067L6.91587 19.6224L8.6833 19.5129C9.30582 19.4285 9.04618 19.3659 7.67602 19.0719Z" fill="#DF79A8"/>
<path d="M6.96549 15.4274C7.40969 14.9363 7.61302 14.4014 7.42846 14.2325C7.2439 14.0635 6.72774 14.3263 6.2898 14.8206C5.85185 15.3148 5.64539 15.8466 5.83308 16.0156C6.02077 16.1845 6.52441 15.9217 6.96549 15.4274Z" fill="#F1A5BC"/>
</svg>
