<svg width="45" height="45" viewBox="0 0 45 45" fill="none" xmlns="http://www.w3.org/2000/svg">
<g clip-path="url(#clip0_97_5430)">
<rect width="45" height="45" rx="22.5" fill="#5865F2"/>
<path d="M31.9437 32.1113L35.9003 31.9011L37.6969 27.9856L42.9574 28.9126C42.9574 28.9126 41.9957 32.9511 40.7424 35.335C40.0401 36.6709 39.3349 37.6049 36.4605 37.8535C33.0935 38.1443 29.3745 38.1031 29.3745 38.1031L31.9437 32.1113Z" fill="#F155A7"/>
<path d="M37.6726 28.3635C37.6726 28.3635 36.3386 26.5516 36.7152 24.5939C37.0917 22.6361 38.6242 20.9488 41.5455 22.1135C44.4668 23.2782 45.7323 25.6282 45.2861 27.1516C44.8399 28.6749 43.1835 29.8603 41.9506 29.7024L37.6726 28.3635Z" fill="#F155A7"/>
<path d="M38.0673 24.9419C38.0673 24.9419 38.9166 22.7007 40.1846 23.7083C41.0132 24.3671 40.5378 26.0565 40.5378 26.0565" stroke="black" stroke-width="0.931567" stroke-linecap="round" stroke-linejoin="round"/>
<path d="M14.2793 31.9583C14.2793 31.9583 13.8161 40.9775 13.9619 46.4525C13.9619 46.4525 19.2888 47.6233 25.0499 47.2719C30.3324 46.9498 32.5029 46.0257 32.5704 44.2101C32.6378 42.3946 32.486 36.5081 30.7406 31.1775L14.2793 31.9583Z" fill="#F155A7"/>
<path d="M33.4102 33.3692C33.579 32.6369 33.2409 31.8845 32.1603 31.6269C32.3097 30.9903 32.0671 30.2369 31.4704 29.9949C30.8073 29.7256 29.9689 29.9508 29.6527 31.0286C29.0371 30.8828 28.3777 31.1842 28.1209 31.8173C27.8386 32.5135 28.2292 33.4768 29.2606 33.7884C29.2195 34.3509 29.5288 34.9867 30.0567 35.2009C30.7198 35.4702 31.5607 35.2283 31.8121 34.1818C32.447 34.3707 33.2627 34.0076 33.4102 33.3692Z" fill="#FFE75C"/>
<path d="M32.1142 36.4755C32.2241 35.7324 31.6867 35.0431 30.5778 34.9789C30.6132 34.326 30.2425 33.6278 29.6126 33.4942C28.9125 33.3458 28.126 33.7134 28.0041 34.8299C27.3722 34.7944 26.7686 35.3479 26.6265 36.0163C26.4701 36.7512 26.9474 37.5197 28.1019 37.6161C28.16 38.1769 28.5767 38.749 29.1339 38.8673C29.834 39.0157 30.6187 38.6303 30.6829 37.5559C31.3409 37.6305 32.0128 37.1603 32.1142 36.4755Z" fill="white"/>
<path d="M28.4364 37.2632C28.3534 36.4191 27.5766 35.8111 26.3438 36.0441C26.204 35.3192 25.6065 34.6555 24.8799 34.6813C24.0727 34.7099 23.3123 35.3282 23.484 36.5847C22.7822 36.7187 22.2714 37.4902 22.2988 38.2617C22.3289 39.1096 23.0619 39.8209 24.3534 39.6104C24.5707 40.2087 25.1833 40.7215 25.8261 40.6986C26.6333 40.67 27.3881 40.0328 27.1644 38.838C27.9056 38.7395 28.5127 38.041 28.4364 37.2632Z" fill="#FFE75C"/>
<path d="M23.2604 37.7018C23.4101 36.8667 22.7174 36.0233 21.4675 35.9129C21.5302 35.1771 21.1127 34.4287 20.463 34.3106C19.6682 34.1662 18.9179 34.5824 18.757 36.0413C18.0452 35.9796 17.2043 36.3609 17.0614 37.1804C16.916 38.016 17.4778 38.8357 18.7777 38.9837C18.8243 39.6189 19.2441 40.1737 19.8691 40.3265C20.654 40.5181 21.5073 40.0353 21.6166 38.8243C22.3565 38.9312 23.1225 38.4712 23.2604 37.7018Z" fill="white"/>
<path d="M18.6665 32.6397C18.2717 31.8886 17.2084 31.6484 16.1536 32.3282C15.7513 31.7094 14.9632 31.3742 14.3773 31.6799C13.6606 32.0537 13.3231 32.8431 14.0918 34.0932C13.4922 34.4813 13.0626 35.2992 13.453 36.0338C13.8514 36.7829 14.798 37.0846 15.9149 36.4038C16.3417 36.8763 17.0139 37.0571 17.6008 36.794C18.3381 36.4638 18.7152 35.5577 18.0581 34.5349C18.7077 34.1647 19.0301 33.3321 18.6665 32.6397Z" fill="#FFE75C"/>
<path d="M25.5786 48.3949C25.8513 46.9611 28.1355 43.8375 28.2388 46.7468C28.3421 49.6561 25.5786 48.3949 25.5786 48.3949Z" stroke="white" stroke-width="0.931567" stroke-linecap="round" stroke-linejoin="round"/>
<path d="M26.1534 44.0438C26.1604 44.2402 25.8816 44.4098 25.5306 44.4222C25.1796 44.4347 24.8895 44.2853 24.8825 44.0889C24.8756 43.8925 25.1543 43.7223 25.5053 43.7099C25.8563 43.6974 26.1464 43.8474 26.1534 44.0438Z" fill="#D11583"/>
<path d="M22.9778 14.9288C17.5515 14.7617 12.858 15.9904 12.4325 18.6745C12.0071 21.3587 13.5761 23.6116 13.5761 23.6116C13.5761 23.6116 11.3575 26.4048 11.8012 28.5775C12.2618 30.833 15.4582 33.2694 22.206 33.3066C29.8009 33.3484 33.3724 32.0303 33.95 28.9081C34.3795 26.5876 32.3015 23.948 32.3015 23.948C32.3015 23.948 34.0359 22.1603 33.9217 19.616C33.7771 16.4045 28.3548 15.0939 22.9778 14.9288Z" fill="#FF78B9"/>
<path d="M20.6372 27.2231C20.7558 28.1698 21.3287 28.9997 21.8859 29.0321C22.6026 29.0739 23.036 28.3295 23.2777 27.2568" stroke="black" stroke-width="0.931567" stroke-linecap="round" stroke-linejoin="round"/>
<path d="M21.5018 23.3338C23.0764 25.1468 25.0073 26.7124 26.4612 25.6138C28.0744 24.3953 31.4482 18.7609 29.1212 18.9315C27.2284 19.0707 23.7495 20.9174 21.5018 23.3338Z" fill="#91FFAD"/>
<path d="M23.2445 23.4698C24.4052 24.4951 25.399 25.0802 26.1943 24.1759C27.2365 22.9913 29.1883 20.106 27.9945 20.4168C26.8787 20.7076 24.6103 21.9856 23.2445 23.4698Z" fill="#242145"/>
<path d="M22.4598 23.346C20.8395 25.1184 18.8701 26.6344 17.4446 25.4991C15.8629 24.2399 12.633 18.5214 14.9549 18.7512C16.8435 18.9386 20.2743 20.8732 22.4598 23.346Z" fill="#91FFAD"/>
<path d="M20.7144 23.4379C19.5279 24.4333 18.5201 24.9929 17.7481 24.0687C16.7364 22.858 14.8587 19.9239 16.0442 20.265C17.1523 20.5841 19.3868 21.9194 20.7144 23.4379Z" fill="#242145"/>
<path d="M23.3324 15.4607C22.4128 7.22611 19.476 1.18979 17.5654 2.21857C16.3469 2.8748 18.4233 10.5948 19.0117 15.4603L23.3324 15.4607Z" fill="#FF78B9"/>
<path d="M21.9587 15.4502C20.4838 6.47777 19.0997 5.14044 18.7604 5.63356C18.4545 6.07776 19.5037 10.0554 20.3377 15.4586L21.9587 15.4502Z" fill="#FFAED7"/>
<path d="M23.5997 15.5333C25.9909 7.60006 29.9692 2.19314 31.6627 3.54996C32.7427 4.4154 29.3066 11.6336 27.8494 16.313L23.5997 15.5333Z" fill="#FF78B9"/>
<path d="M24.9525 15.7708C28.0231 7.21204 29.6259 6.14659 29.8706 6.69287C30.0912 7.18499 28.3413 10.9072 26.5455 16.0711L24.9525 15.7708Z" fill="#FFAED7"/>
<path d="M15.1796 39.4123L12.3195 41.351L14.7252 42.8802L11.9443 47.5023C11.9443 47.5023 7.58332 45.9452 5.69507 43.7614C4.43367 42.3025 4.47262 40.4658 6.33128 38.2587C8.11542 36.1405 12.6167 33.387 14.563 33.0731L15.1796 39.4123Z" fill="url(#paint0_linear_97_5430)"/>
<path d="M13.9274 42.8444C13.9274 42.8444 15.9244 41.8068 17.7998 42.4818C19.6751 43.1569 21.1056 44.9328 19.502 47.6388C17.8984 50.3449 15.3806 51.2303 13.9448 50.5538C12.509 49.8773 11.5948 48.0566 11.942 46.863L13.9274 42.8444Z" fill="#FF78B9"/>
</g>
<defs>
<linearGradient id="paint0_linear_97_5430" x1="9.29831" y1="42.3837" x2="13.5873" y2="39.4331" gradientUnits="userSpaceOnUse">
<stop offset="0.39" stop-color="#FF78B9"/>
<stop offset="0.69" stop-color="#F867B0"/>
<stop offset="1" stop-color="#F155A7"/>
</linearGradient>
<clipPath id="clip0_97_5430">
<rect width="45" height="45" rx="22.5" fill="white"/>
</clipPath>
</defs>
</svg>
