<svg width="64" height="64" viewBox="0 0 64 64" fill="none" xmlns="http://www.w3.org/2000/svg">
<path d="M24.1926 30.6957C24.1133 30.6957 24.0605 30.6957 23.9813 30.6957C23.8492 30.6693 23.6644 30.6693 23.5059 30.6957C15.8472 30.458 10.0635 24.4367 10.0635 17.0156C10.0635 9.46249 16.2169 3.30908 23.77 3.30908C31.323 3.30908 37.4764 9.46249 37.4764 17.0156C37.45 24.4367 31.6399 30.458 24.2718 30.6957C24.2454 30.6957 24.219 30.6957 24.1926 30.6957ZM23.77 7.2705C18.4089 7.2705 14.0249 11.6545 14.0249 17.0156C14.0249 22.2975 18.1448 26.5494 23.4003 26.7343C23.5587 26.7079 23.902 26.7079 24.2454 26.7343C29.4215 26.4966 33.4886 22.2447 33.515 17.0156C33.515 11.6545 29.131 7.2705 23.77 7.2705Z" fill="white"/>
<path d="M43.6823 31.0389C43.6031 31.0389 43.5239 31.0389 43.4447 31.0125C42.3619 31.1181 41.2527 30.3522 41.147 29.2694C41.0414 28.1867 41.7016 27.2095 42.7844 27.0775C43.1013 27.051 43.4447 27.051 43.7352 27.051C47.5909 26.8398 50.6016 23.6706 50.6016 19.7884C50.6016 15.7742 47.3533 12.5258 43.339 12.5258C42.2562 12.5522 41.3583 11.6543 41.3583 10.5715C41.3583 9.48874 42.2562 8.59082 43.339 8.59082C49.5188 8.59082 54.563 13.635 54.563 19.8149C54.563 25.889 49.8093 30.8012 43.7616 31.0389C43.7352 31.0389 43.7087 31.0389 43.6823 31.0389Z" fill="white"/>
<path d="M24.2163 59.5611C19.0401 59.5611 13.8374 58.2406 9.9024 55.5997C6.23149 53.17 4.22437 49.8424 4.22437 46.2243C4.22437 42.6062 6.23149 39.2522 9.9024 36.7961C17.8252 31.5406 30.6602 31.5406 38.5303 36.7961C42.1748 39.2258 44.2083 42.5534 44.2083 46.1715C44.2083 49.7896 42.2012 53.1436 38.5303 55.5997C34.5688 58.2406 29.3926 59.5611 24.2163 59.5611ZM12.0944 40.1237C9.55908 41.8139 8.18579 43.9795 8.18579 46.2507C8.18579 48.4955 9.58549 50.6611 12.0944 52.3249C18.6704 56.7353 29.7623 56.7353 36.3383 52.3249C38.8736 50.6347 40.2469 48.4691 40.2469 46.1979C40.2469 43.9531 38.8472 41.7875 36.3383 40.1237C29.7623 35.7397 18.6704 35.7397 12.0944 40.1237Z" fill="white"/>
<path d="M48.4353 54.8078C47.511 54.8078 46.6923 54.1739 46.5074 53.2232C46.2962 52.1404 46.9828 51.1104 48.0392 50.8728C49.703 50.5294 51.2347 49.8692 52.4232 48.9449C53.9285 47.8093 54.7472 46.3832 54.7472 44.8778C54.7472 43.3725 53.9285 41.9464 52.4496 40.8372C51.2875 39.9392 49.835 39.3054 48.1184 38.9093C47.062 38.6716 46.3754 37.6152 46.6131 36.5324C46.8508 35.476 47.9071 34.7894 48.9899 35.0271C51.2611 35.5289 53.2418 36.4268 54.8528 37.668C57.3089 39.5167 58.7086 42.1312 58.7086 44.8778C58.7086 47.6244 57.2825 50.2389 54.8264 52.114C53.189 53.3817 51.1291 54.306 48.8579 54.755C48.6994 54.8078 48.5674 54.8078 48.4353 54.8078Z" fill="white"/>
</svg>
