<svg width="290" height="290" viewBox="0 0 290 290" fill="none" xmlns="http://www.w3.org/2000/svg">
<path d="M231.35 194.854C234.36 196.592 238.225 195.568 239.781 192.461C247.146 177.754 251 161.506 251 145C251 128.494 247.146 112.246 239.781 97.5386C238.225 94.4318 234.36 93.4082 231.35 95.1455C228.341 96.8828 227.331 100.722 228.862 103.841C235.137 116.626 238.418 130.703 238.418 145C238.418 159.297 235.137 173.374 228.862 186.158C227.331 189.277 228.341 193.117 231.35 194.854Z" fill="#22234B"/>
<path d="M237.241 107.14C240.455 105.82 242.008 102.135 240.501 99.0049C233.87 85.2369 224.328 73.0417 212.508 63.2777C199.069 52.1758 183.099 44.5597 166.013 41.1039C148.928 37.6482 131.253 38.4595 114.556 43.466C97.8584 48.4726 82.6534 57.5197 70.2877 69.8062C57.9219 82.0926 48.7772 97.2391 43.6634 113.904C38.5496 130.569 37.6246 148.238 40.9704 165.345C44.3161 182.453 51.8294 198.472 62.8446 211.982C72.5324 223.864 84.666 233.484 98.391 240.203C101.512 241.731 105.207 240.202 106.547 236.996C107.887 233.79 106.362 230.124 103.254 228.571C91.4331 222.667 80.9766 214.309 72.5966 204.031C62.889 192.124 56.2676 178.007 53.3189 162.93C50.3703 147.853 51.1855 132.282 55.6923 117.595C60.1991 102.908 68.2583 89.5599 79.1562 78.7319C90.0541 67.9039 103.454 59.9307 118.17 55.5184C132.885 51.1062 148.461 50.3912 163.519 53.4367C178.577 56.4823 192.651 63.1943 204.495 72.9784C214.719 81.4243 223.009 91.9343 228.838 103.793C230.37 106.911 234.026 108.459 237.241 107.14Z" fill="url(#paint0_linear_97_2019)"/>
<defs>
<linearGradient id="paint0_linear_97_2019" x1="125.5" y1="51.5001" x2="42.5004" y2="159.5" gradientUnits="userSpaceOnUse">
<stop stop-color="#14F195"/>
<stop offset="1" stop-color="#0075FF" stop-opacity="0"/>
</linearGradient>
</defs>
</svg>
