<svg width="25" height="25" viewBox="0 0 25 25" fill="none" xmlns="http://www.w3.org/2000/svg">
<rect x="7" y="7" width="5" height="5" rx="1" fill="white"/>
<rect x="7" y="14" width="5" height="5" rx="1" fill="white"/>
<rect x="14.5" y="14.5" width="4" height="4" rx="0.5" stroke="white"/>
<path d="M7.5 3.75H4.75C4.19772 3.75 3.75 4.19772 3.75 4.75V7.5" stroke="white" stroke-width="1.5" stroke-linecap="round"/>
<path d="M7.5 22.5H4.75C4.19772 22.5 3.75 22.0523 3.75 21.5V18.75" stroke="white" stroke-width="1.5" stroke-linecap="round"/>
<path d="M18.5 3.75H21.25C21.8023 3.75 22.25 4.19772 22.25 4.75V7.5" stroke="white" stroke-width="1.5" stroke-linecap="round"/>
<path d="M18.5 22.5H21.25C21.8023 22.5 22.25 22.0523 22.25 21.5V18.75" stroke="white" stroke-width="1.5" stroke-linecap="round"/>
<rect x="14" y="7" width="5" height="5" rx="1" fill="white"/>
</svg>
