<svg width="45" height="45" viewBox="0 0 45 45" fill="none" xmlns="http://www.w3.org/2000/svg">
<rect width="45" height="45" rx="22.5" fill="#2F3136"/>
<path d="M33.3642 26.012L34.9342 17.6605C35.1241 16.6512 36.0966 15.9865 37.1059 16.1764C38.1152 16.3663 38.7799 17.3389 38.5899 18.3482C38.5563 18.5274 38.4933 18.7034 38.4154 18.858L34.5174 26.4086C34.1806 27.0335 33.2447 26.7073 33.3642 26.012Z" fill="#FCD45C"/>
<path d="M20.5102 36.993C19.9709 37.059 19.467 36.6455 19.3645 36.0512L19.0443 34.1994C18.9343 33.5579 19.3294 32.9589 19.9112 32.8869L20.0919 32.864C20.674 32.7921 21.2038 33.2775 21.2528 33.9268L21.3923 35.8015C21.4366 36.4035 21.0492 36.9273 20.5102 36.993Z" fill="url(#paint0_linear_97_5401)"/>
<path d="M16.4423 36.993C15.9031 37.059 15.3992 36.6455 15.2966 36.0512L14.9764 34.1994C14.8664 33.5579 15.2615 32.9589 15.8433 32.8869L16.0241 32.864C16.6061 32.7921 17.1359 33.2775 17.185 33.9268L17.3244 35.8015C17.3687 36.4035 16.9813 36.9273 16.4423 36.993Z" fill="url(#paint1_linear_97_5401)"/>
<path d="M8.45212 10.9109C9.09842 11.8038 9.63145 12.4486 9.93468 12.7748C10.6559 13.5497 11.7083 14.6188 13.3975 15.9282C15.4666 17.5302 13.7129 11.8972 11.8507 9.82502C10.875 8.73917 6.622 8.38692 8.45212 10.9109Z" fill="url(#paint2_linear_97_5401)"/>
<path d="M10.4356 11.2312L13.1418 11.827C12.7542 11.052 12.3055 10.3338 11.8507 9.82679C10.875 8.7394 6.622 8.38714 8.45212 10.9111C8.81809 11.4165 9.14597 11.8392 9.41709 12.1731L9.41385 12.1348C9.36032 11.5651 9.87642 11.1072 10.4356 11.2297V11.2312Z" fill="#FD78B7"/>
<path d="M22.9174 11.8805H17.7883V14.8318C17.9813 14.7981 18.1498 14.7904 18.2937 14.8104C18.8253 14.8869 19.6048 15.4046 20.6111 16.348C20.925 16.6421 21.2267 16.9224 21.5145 17.1888C23.9805 19.4723 24.5593 20.1233 24.5855 21.2872C24.5855 21.3392 24.5838 21.3731 24.5808 21.3915C24.4155 21.566 23.7784 21.7697 23.3922 21.7697V24.698H26.9668C28.895 24.698 30.4727 23.1265 30.4421 21.1983C30.4421 21.1846 30.4421 21.1724 30.4421 21.1585C30.3609 17.3925 28.1048 15.3066 25.4952 12.8898C24.7951 12.2389 23.8747 11.8774 22.9189 11.8774L22.9174 11.8805Z" fill="#ACBAEB"/>
<path d="M23.3924 24.6994C24.5687 24.6994 27.5752 24.0409 27.514 21.2244C27.4525 18.4079 25.5857 16.9989 22.6144 14.213C19.6448 11.4271 17.8376 11.2893 14.6227 12.9418C11.4081 14.5959 8.14746 17.2592 8.14746 20.9794C8.14746 24.6994 12.033 24.6994 12.033 24.6994H23.4736" fill="#FCE55C"/>
<path d="M16.5081 15.801C16.5786 15.9725 16.8206 15.9771 16.8987 15.8087C17.1285 15.317 17.5602 14.6661 18.2511 14.5957C19.3767 14.4808 20.7766 15.4855 22.6373 18.2898C24.4983 21.094 22.7981 22.2427 22.3388 22.5873C21.9054 22.9119 19.3431 23.7711 16.9906 20.0695C16.7885 19.7523 16.3321 19.7354 16.1023 20.0342C15.3442 21.0235 13.7636 22.7252 12.033 22.4464C9.61611 22.059 9.18267 19.0739 12.2934 16.4779C14.9997 14.2204 16.0289 14.6401 16.5081 15.7994V15.801Z" fill="#232143"/>
<path d="M27.5767 31.3418H29.5293C31.1376 31.3418 32.4439 32.6483 32.4439 34.2564C32.4439 35.7711 31.214 36.9995 29.7008 36.9995H27.5705C26.2719 36.9995 25.218 35.9456 25.218 34.647V33.7005C25.218 32.3986 26.2749 31.3418 27.5767 31.3418Z" fill="#232143"/>
<path d="M30.0088 36.4052C31.1498 36.4052 32.0747 35.4046 32.0747 34.1705C32.0747 32.9364 31.1498 31.936 30.0088 31.936C28.8675 31.936 27.9426 32.9364 27.9426 34.1705C27.9426 35.4046 28.8675 36.4052 30.0088 36.4052Z" fill="#FF6DB9"/>
<path d="M30.7698 33.2223C30.7698 32.884 30.4955 32.6099 30.1571 32.6099C29.8188 32.6099 29.5447 32.884 29.5447 33.2223V34.9362C29.5447 35.2745 29.8188 35.5489 30.1571 35.5489C30.4955 35.5489 30.7698 35.2745 30.7698 34.9362V33.2223Z" fill="#252147"/>
<path d="M32.1437 25.9629H15.404C12.8927 25.9629 10.8567 27.9989 10.8567 30.5102C10.8567 33.0215 12.8927 35.0572 15.404 35.0572H32.1437C34.655 35.0572 36.691 33.0215 36.691 30.5102C36.691 27.9989 34.655 25.9629 32.1437 25.9629Z" fill="#ACBAEB"/>
<path d="M15.1066 25.779C16.0594 25.2783 16.0472 24.6992 16.0472 24.6992H23.4735C23.4735 24.6992 23.9467 25.9627 26.9776 25.9627C26.9776 25.9627 25.6912 25.9169 24.1305 26.9506C22.5685 27.9845 21.3984 28.9249 19.6524 30.0736C17.9064 31.222 16.7592 31.3599 15.6795 31.291C14.5997 31.222 12.3959 30.2344 13.3377 27.6168C13.7099 26.8266 14.3348 26.1865 15.1083 25.7805L15.1066 25.779Z" fill="#FCE55C"/>
<path d="M14.9902 24.6993C14.9902 24.6993 14.8065 22.5413 15.9092 22.4494C17.0118 22.3575 18.0211 24.7222 19.7671 24.7222L14.9902 24.6993Z" fill="#FF9F00"/>
<path d="M32.145 25.9629H28.8308C28.8308 25.9629 30.0438 26.0931 30.157 27.4716C30.2706 28.8499 29.4129 29.1715 29.0452 30.5102C28.6777 31.8486 30.6993 33.319 32.9031 31.6357C33.7456 30.9927 34.2019 30.4825 34.4974 30.0889C34.4974 30.0889 34.4974 30.0874 34.4992 30.086C34.4992 30.0845 34.5022 30.083 34.5037 30.0797C34.5328 30.0399 34.5619 30.0018 34.5878 29.9635C34.853 29.6064 35.0596 29.3861 35.2159 29.2497C35.5237 28.994 35.8192 29.0214 35.8652 29.0291C36.637 29.1456 36.6876 30.3892 36.6908 30.501C36.6861 27.9939 34.6523 25.9629 32.1435 25.9629H32.145Z" fill="#FCE55C"/>
<path d="M20.7657 17.7965C21.1685 18.8411 20.8623 19.9315 20.0825 20.2318C19.303 20.5318 18.3443 19.9285 17.943 18.8839C17.5401 17.8394 17.5907 16.0873 18.3704 15.7856C19.1499 15.4854 20.3629 16.752 20.7657 17.795V17.7965Z" fill="#5865F2"/>
<path d="M19.9132 17.5823C20.0762 17.4372 19.9271 17.0036 19.5801 16.6137C19.2333 16.2239 18.8197 16.0255 18.6567 16.1706C18.4936 16.3156 18.6427 16.7493 18.9898 17.1391C19.3368 17.529 19.7501 17.7274 19.9132 17.5823Z" fill="#E3E5F2"/>
<path d="M12.5078 17.7342C12.0773 18.7603 12.3163 19.8615 13.0423 20.1968C13.7683 20.5322 14.7056 19.9717 15.1358 18.9455C15.5663 17.9195 15.5999 16.1674 14.8739 15.832C14.1479 15.4981 12.9382 16.708 12.5078 17.7342Z" fill="#5865F2"/>
<path d="M14.838 17.6097C15.0319 17.5932 15.1612 17.2519 15.1268 16.8473C15.0924 16.4428 14.9072 16.1282 14.7135 16.1447C14.5196 16.1611 14.3904 16.5025 14.4247 16.907C14.4591 17.3116 14.6443 17.6262 14.838 17.6097Z" fill="#E3E5F2"/>
<path d="M15.9719 21.0512C16.1482 21.0158 16.3899 20.9991 16.6687 21.0572C16.8326 21.091 16.9155 21.2548 16.8403 21.3895L16.6887 21.6621C16.537 21.9347 16.1006 21.9347 15.949 21.6621L15.7941 21.385C15.7192 21.2486 15.8051 21.0848 15.9719 21.0512Z" fill="#FD78B7"/>
<path d="M34.6661 19.0892L34.614 19.3618C34.9187 19.2456 36.6801 18.665 37.6006 20.4356L37.7353 20.1737C36.8133 18.5993 35.2128 18.9209 34.6661 19.0877V19.0892Z" fill="#FF9F00"/>
<path d="M25.8712 15.2063C26.041 15.0551 25.9499 14.6753 25.6678 14.3581C25.3855 14.0409 25.0187 13.9065 24.8487 14.0577C24.6789 14.209 24.7698 14.5888 25.0521 14.9059C25.3344 15.2231 25.7011 15.3576 25.8712 15.2063Z" fill="#323D70"/>
<path d="M31.407 16.1516C31.407 16.1516 28.9136 14.4945 26.1447 14.4578C23.3757 14.421 27.9213 18.5501 30.3733 19.1381C31.9049 19.5043 35.1349 18.3969 31.407 16.1532V16.1516Z" fill="url(#paint3_linear_97_5401)"/>
<path d="M32.0105 16.5484C30.0701 16.5147 29.7116 16.5178 28.4926 16.5545C27.4266 16.5867 27.2152 16.9634 27.2396 17.3999C28.2489 18.2055 29.4574 18.9191 30.3733 19.1382C31.8113 19.4827 34.7488 18.5255 32.0105 16.5484Z" fill="#FD78B7"/>
<path d="M18.4241 14.8315C19.5038 14.8315 20.8532 16.0399 22.4336 18.4244C24.1169 20.9623 22.7476 21.9794 22.2315 22.3623L22.1916 22.3929C22.0968 22.4633 21.6862 22.667 21.0584 22.667C20.0874 22.667 18.6278 22.1937 17.1957 19.9409C17.0518 19.7141 16.8053 19.5779 16.5342 19.5779C16.286 19.5779 16.058 19.6911 15.9078 19.8871C15.2354 20.7632 13.8878 22.235 12.4129 22.235C12.2979 22.235 12.1831 22.2258 12.0713 22.2074C11.2181 22.0712 10.6132 21.5673 10.4095 20.8277C10.0712 19.5931 10.8522 17.9988 12.448 16.6663C13.6931 15.6279 14.6566 15.1011 15.3088 15.1011C15.7547 15.1011 16.0547 15.3461 16.2815 15.8944C16.352 16.066 16.5188 16.1762 16.7043 16.1762C16.8895 16.1762 17.0426 16.0751 17.1193 15.9128C17.3336 15.4549 17.7073 14.8974 18.2755 14.8392C18.3245 14.8346 18.3736 14.8315 18.4241 14.8315ZM18.4241 14.588C18.3658 14.588 18.3078 14.5911 18.2511 14.5972C17.5602 14.6677 17.1285 15.3186 16.8987 15.8102C16.8604 15.8929 16.7822 15.9327 16.7043 15.9327C16.6261 15.9327 16.5434 15.8883 16.5066 15.801C16.2768 15.2435 15.9185 14.856 15.3088 14.856C14.6503 14.856 13.6978 15.3063 12.2919 16.4779C9.18114 19.0725 9.61607 22.059 12.0315 22.4464C12.1585 22.4663 12.2857 22.477 12.4129 22.477C13.9918 22.477 15.3992 20.9501 16.1008 20.0342C16.2111 19.8918 16.3719 19.8199 16.5342 19.8199C16.7102 19.8199 16.885 19.904 16.9891 20.0693C18.4517 22.3712 19.9955 22.909 21.0584 22.909C21.7047 22.909 22.1735 22.7098 22.3373 22.5858C22.7966 22.2413 24.4953 21.0926 22.6358 18.2882C20.8699 15.6249 19.5175 14.585 18.4226 14.585L18.4241 14.588Z" fill="black"/>
<path d="M24.0371 25.2965C23.5837 24.9932 23.4734 24.6992 23.4734 24.6992H16.0471C16.0471 24.6992 16.0516 24.9674 15.7561 25.2965H24.0371Z" fill="url(#paint4_linear_97_5401)"/>
<path d="M34.6004 27.1789C34.4961 27.1789 34.3905 27.1483 34.2972 27.0856C33.8851 26.8037 33.427 26.6183 32.9371 26.5326C32.6445 26.4821 32.4486 26.2032 32.4992 25.9107C32.5497 25.6182 32.8283 25.4222 33.1208 25.4728C33.7641 25.5846 34.3644 25.8281 34.9051 26.1973C35.1501 26.3641 35.2128 26.6994 35.046 26.9446C34.942 27.0963 34.7734 27.1789 34.6019 27.1789H34.6004Z" fill="#FD78B7"/>
<defs>
<linearGradient id="paint0_linear_97_5401" x1="19.0261" y1="34.9287" x2="21.3952" y2="34.9287" gradientUnits="userSpaceOnUse">
<stop stop-color="#FCE55C"/>
<stop offset="0.23" stop-color="#FCE159"/>
<stop offset="0.43" stop-color="#FCD651"/>
<stop offset="0.63" stop-color="#FCC444"/>
<stop offset="0.82" stop-color="#FCAA31"/>
<stop offset="1" stop-color="#FD8A1A"/>
</linearGradient>
<linearGradient id="paint1_linear_97_5401" x1="14.9597" y1="8.99943" x2="17.3291" y2="8.99943" gradientUnits="userSpaceOnUse">
<stop stop-color="#FCE55C"/>
<stop offset="0.23" stop-color="#FCE159"/>
<stop offset="0.43" stop-color="#FCD651"/>
<stop offset="0.63" stop-color="#FCC444"/>
<stop offset="0.82" stop-color="#FCAA31"/>
<stop offset="1" stop-color="#FD8A1A"/>
</linearGradient>
<linearGradient id="paint2_linear_97_5401" x1="11.6911" y1="16.5211" x2="10.6609" y2="8.8037" gradientUnits="userSpaceOnUse">
<stop stop-color="#FDC41A"/>
<stop offset="0.24" stop-color="#FDC21C"/>
<stop offset="0.4" stop-color="#FDBE25"/>
<stop offset="0.54" stop-color="#FDB734"/>
<stop offset="0.66" stop-color="#FDAD49"/>
<stop offset="0.77" stop-color="#FD9F64"/>
<stop offset="0.88" stop-color="#FD8F86"/>
<stop offset="0.98" stop-color="#FD7CAD"/>
<stop offset="1" stop-color="#FD78B7"/>
</linearGradient>
<linearGradient id="paint3_linear_97_5401" x1="26.0053" y1="13.9278" x2="32.3458" y2="19.2499" gradientUnits="userSpaceOnUse">
<stop stop-color="#FDC41A"/>
<stop offset="0.15" stop-color="#FDC11E"/>
<stop offset="0.31" stop-color="#FDBB2B"/>
<stop offset="0.48" stop-color="#FDB141"/>
<stop offset="0.65" stop-color="#FDA25F"/>
<stop offset="0.82" stop-color="#FD8F86"/>
<stop offset="1" stop-color="#FD78B7"/>
</linearGradient>
<linearGradient id="paint4_linear_97_5401" x1="15.7561" y1="24.998" x2="24.0371" y2="24.998" gradientUnits="userSpaceOnUse">
<stop stop-color="#FDC41A"/>
<stop offset="0.28" stop-color="#FDC01A"/>
<stop offset="0.53" stop-color="#FDB51A"/>
<stop offset="0.77" stop-color="#FDA31A"/>
<stop offset="1" stop-color="#FD8A1A"/>
</linearGradient>
</defs>
</svg>
