<svg width="24" height="24" viewBox="0 0 24 24" fill="none" xmlns="http://www.w3.org/2000/svg">
<path d="M12 24C5.36695 24 0 18.6251 0 12C0 5.36695 5.37491 0 12 0C18.633 0 24 5.37491 24 12C24.008 18.633 18.633 24 12 24Z" fill="#6AAED9"/>
<mask id="mask0_98_7160" style="mask-type:alpha" maskUnits="userSpaceOnUse" x="0" y="0" width="24" height="24">
<path d="M12 24C5.36695 24 0 18.6251 0 12C0 5.36695 5.37492 0 12 0C18.633 0 24 5.37491 24 12C24.008 18.633 18.633 24 12 24Z" fill="#F7C0B5"/>
</mask>
<g mask="url(#mask0_98_7160)">
<path d="M18.736 22.1043C18.68 22.1443 18.616 22.1843 18.56 22.2243C18.496 22.2643 18.44 22.3043 18.376 22.3363C18.32 22.3683 18.272 22.4003 18.216 22.4323C18.208 22.4403 18.2 22.4403 18.192 22.4483C18.008 22.5603 17.816 22.6643 17.624 22.7603C17.568 22.7923 17.504 22.8243 17.448 22.8483C17.448 22.8483 17.44 22.8563 17.432 22.8563C17.368 22.8883 17.304 22.9203 17.24 22.9523C17.112 23.0163 16.976 23.0723 16.848 23.1283C16.784 23.1603 16.712 23.1843 16.648 23.2083C16.584 23.2323 16.512 23.2643 16.448 23.2883C16.384 23.3123 16.312 23.3443 16.248 23.3683C16.248 23.3683 16.248 23.3683 16.24 23.3683C16.176 23.3923 16.104 23.4163 16.04 23.4403C15.896 23.4883 15.744 23.5363 15.6 23.5843C15.552 23.6003 15.496 23.6163 15.448 23.6323C15.296 23.6803 15.144 23.7203 14.992 23.7523C14.936 23.7683 14.88 23.7763 14.816 23.7923C14.672 23.8243 14.52 23.8563 14.376 23.8883C14.344 23.8963 14.32 23.8963 14.288 23.9043C14.24 23.9123 14.184 23.9203 14.136 23.9283C14.064 23.9363 14 23.9523 13.928 23.9603C13.896 23.9683 13.864 23.9683 13.832 23.9763C13.792 23.9843 13.744 23.9923 13.696 23.9923C13.568 24.0083 13.432 24.0243 13.304 24.0403C13.264 24.0483 13.216 24.0483 13.176 24.0563H13.168C13.112 24.0643 13.056 24.0643 13 24.0723C12.944 24.0803 12.888 24.0803 12.832 24.0803C12.8 24.0803 12.76 24.0883 12.728 24.0883C12.664 24.0883 12.608 24.0963 12.552 24.0963C12.472 24.0963 12.4 24.1043 12.32 24.1043C12.24 24.1043 12.168 24.1043 12.088 24.1043C12.032 24.1043 11.976 24.1043 11.92 24.1043C8.55199 24.0563 5.51199 22.6243 3.35199 20.3523C3.35199 20.3523 3.35199 20.3443 3.34399 20.3443C3.59199 19.8563 4.51199 18.9763 5.47199 18.2483C6.68799 17.3283 8.40799 16.7603 8.40799 16.7603C8.40799 16.7603 9.53599 16.5763 13.72 17.4483C16.912 18.1203 18.272 20.8483 18.736 22.1043Z" fill="#AD827B"/>
<path d="M14.6079 19.6643C14.4399 20.4883 13.3519 20.9763 11.5199 20.2403C9.27193 19.3283 8.40793 16.7603 8.40793 16.7603C8.28793 14.9203 8.00793 13.3443 8.00793 13.3443C10.6079 13.1203 13.6799 16.1603 13.6799 16.1603L14.0319 17.6643C14.0639 17.7923 14.1279 17.9043 14.2239 17.9843C14.3919 18.2723 14.7199 19.1363 14.6079 19.6643Z" fill="#AD827B"/>
<path d="M14.224 17.9925C12.696 17.9125 11.568 17.6885 10.36 15.5205C11.384 16.4245 12.592 16.7685 13.864 16.9285L14.032 17.6645C14.064 17.8005 14.128 17.9125 14.224 17.9925Z" fill="#8E5650"/>
<path d="M17.384 8.35257C17.528 9.02457 17.6 9.56857 17.208 11.3606C16.816 13.1526 17.568 14.9446 15.68 16.5846C14.408 17.6886 12.184 17.8966 10.408 16.6886C9.808 16.2806 9.256 15.7126 8.808 14.9686C8.456 14.3846 8.048 13.8326 7.592 13.3286C6.96 12.6406 6.2 11.2566 6.576 8.80857C7.184 4.82457 11.128 4.36857 13.456 4.80857C15.784 5.24857 16.992 6.57657 17.384 8.35257Z" fill="#AD827B"/>
<path d="M9.728 11.4806C9.728 11.4806 9.48 10.2806 8.312 10.4246C7.304 10.5526 6.95201 12.9686 9.24 13.6406" fill="#AD827B"/>
<path d="M9.16804 12.5445C9.16804 12.5445 8.88004 12.3605 8.91204 12.0405C8.96004 11.6645 8.91204 11.4325 8.73604 11.3605C8.29604 11.1765 8.20804 11.6885 8.22404 11.7525" stroke="#423232" stroke-width="0.248836" stroke-miterlimit="10" stroke-linecap="round" stroke-linejoin="round"/>
<path d="M15.272 13.3203C15.272 13.3203 15.576 13.3363 15.864 12.9923C16.024 12.8003 16.16 12.5603 16.072 12.4883C15.984 12.4083 14.536 12.6323 14.44 12.8243C14.344 13.0163 14.904 13.3203 15.272 13.3203Z" fill="#8E605C"/>
<path d="M15.512 10.6323C15.512 10.6323 15.528 11.3923 16.016 12.2403C16.232 12.6163 15.904 13.2323 15.192 13.3363" stroke="#423232" stroke-width="0.248836" stroke-miterlimit="10" stroke-linecap="round" stroke-linejoin="round"/>
<path d="M9.16406 17.4969C9.16406 17.4969 9.00406 16.5049 8.73206 16.5609C7.46806 16.8489 3.78006 17.9209 2.49206 20.7049C1.27606 23.3529 1.16406 27.0649 1.16406 27.0649H21.3961C21.3961 27.0649 21.0281 21.4249 18.9641 19.6969C17.7401 18.6649 16.6361 18.0329 15.7321 17.6489C14.5321 17.1369 13.3241 18.2089 12.9801 18.1849C12.3641 18.1529 9.16406 17.4969 9.16406 17.4969Z" fill="#544D4D"/>
<path d="M5.12404 27.0647L4.76404 24.0967" stroke="white" stroke-width="0.248836" stroke-miterlimit="10" stroke-linecap="round" stroke-linejoin="round"/>
<path d="M19.0921 23.0889C19.0921 23.0889 18.8521 23.6729 18.9241 24.2569C18.9961 24.8409 19.2041 25.6969 18.9081 27.0649" stroke="white" stroke-width="0.248836" stroke-miterlimit="10" stroke-linecap="round" stroke-linejoin="round"/>
<path d="M8.24406 15.753C8.24406 15.753 7.66806 15.961 7.56406 16.073C7.46006 16.185 7.41206 16.257 7.41206 16.257C7.41206 16.257 7.12406 16.577 6.96406 17.353C6.89206 17.681 7.06006 18.217 6.93206 18.641C6.56406 19.817 8.30806 21.625 11.1881 22.689C13.3721 23.497 15.7801 22.761 16.1161 21.241C16.4361 19.777 16.2441 19.113 16.0921 18.641C15.7881 17.729 15.6921 17.473 15.2841 17.121C15.0281 16.897 14.8521 17.361 13.8921 17.625C13.5961 17.705 13.2361 17.769 12.7721 17.785C10.0121 17.889 8.84406 16.321 8.42806 15.873C8.32406 15.785 8.27606 15.737 8.24406 15.753Z" fill="white"/>
<path d="M13.8681 17.6167C13.5721 17.6967 13.2121 17.7607 12.7481 17.7767C9.98805 17.8807 8.82005 16.3127 8.40405 15.8647" stroke="#CCCCCC" stroke-width="0.248836" stroke-miterlimit="10" stroke-linecap="round" stroke-linejoin="round"/>
<path d="M15.3321 16.833C16.0601 17.441 17.3241 19.033 17.0201 22.593C16.8681 24.353 17.7241 25.081 17.5321 25.361C17.5001 25.409 17.4601 25.433 17.4281 25.441C17.2921 25.473 17.1641 25.537 17.1001 25.665C17.0761 25.721 17.0361 25.761 16.9801 25.793C16.9321 25.825 16.8761 25.825 16.8281 25.817C16.6601 25.777 16.4761 25.873 16.3721 26.017C16.3321 26.073 16.2841 26.113 16.2121 26.129C16.1641 26.145 16.1161 26.137 16.0841 26.129C15.9481 26.089 15.7961 26.129 15.6761 26.225C15.6441 26.249 15.6121 26.265 15.5721 26.265C15.5001 26.265 15.4441 26.233 15.3961 26.185C15.2841 26.081 15.1241 26.041 14.9641 26.097C14.9481 26.105 14.9401 26.105 14.9241 26.105C14.8121 26.121 14.7241 26.033 14.6601 25.881C14.5961 25.737 14.4441 25.673 14.2841 25.689C14.2521 25.689 14.2201 25.689 14.1801 25.681C13.8681 25.609 13.4681 25.177 13.4601 24.649C13.4521 24.129 13.5721 23.225 13.7721 22.801C14.3881 21.497 14.6121 20.561 14.6441 19.857C14.7081 18.569 13.8921 17.417 13.9721 17.393C14.7881 17.225 15.3321 16.833 15.3321 16.833Z" fill="white"/>
<path d="M13.764 22.8008C14.38 21.4968 14.604 20.5608 14.636 19.8568C14.684 18.8648 14.204 17.9448 14.028 17.5688" stroke="#CCCCCC" stroke-width="0.248836" stroke-miterlimit="10" stroke-linecap="round" stroke-linejoin="round"/>
<path d="M13.452 24.6489C13.444 24.1289 13.564 23.2249 13.764 22.8009C14.38 21.4969 14.604 20.5609 14.636 19.8569" stroke="#CCCCCC" stroke-width="0.248836" stroke-miterlimit="10" stroke-linecap="round" stroke-linejoin="round"/>
<path d="M14.1641 21.8567C14.1641 21.8567 11.7321 22.0967 10.1321 20.8887" stroke="#CCCCCC" stroke-width="0.248836" stroke-miterlimit="10" stroke-linecap="round" stroke-linejoin="round"/>
<path d="M14.8201 17.6406C15.0441 17.9686 15.3001 18.4486 15.3641 19.0406" stroke="#CCCCCC" stroke-width="0.248836" stroke-miterlimit="10" stroke-linecap="round" stroke-linejoin="round"/>
<path d="M15.8361 26.1289C15.8361 26.1289 15.4281 25.2649 15.8361 23.3849C16.2681 21.3849 16.0681 20.4009 16.0681 20.4009" stroke="#CCCCCC" stroke-width="0.248836" stroke-miterlimit="10" stroke-linecap="round" stroke-linejoin="round"/>
<path d="M6.948 17.7529C6.948 17.7529 7.484 18.8569 8.132 19.3689" stroke="#CCCCCC" stroke-width="0.248836" stroke-miterlimit="10" stroke-linecap="round" stroke-linejoin="round"/>
<path d="M14.5721 20.4009C14.5721 20.4009 13.0521 20.5049 11.9801 20.0889" stroke="#CCCCCC" stroke-width="0.248836" stroke-miterlimit="10" stroke-linecap="round" stroke-linejoin="round"/>
<path d="M13.7178 9.72064C13.8938 9.74464 14.0298 9.56064 13.9658 9.38464C13.9338 9.28864 13.8778 9.20064 13.7898 9.14464C13.5178 8.97664 12.5018 8.96064 11.9658 9.34464C11.4938 9.69664 12.9178 9.60864 13.7178 9.72064Z" fill="#423232"/>
<path d="M15.9337 9.809C15.7897 9.809 15.7017 9.625 15.7737 9.473C15.8137 9.393 15.8697 9.321 15.9497 9.281C16.1977 9.161 16.8617 9.233 17.1577 9.641C17.4217 10.001 16.5977 9.801 15.9337 9.809Z" fill="#423232"/>
<path d="M13.4378 10.729C12.8138 10.993 12.1178 10.665 12.1178 10.665" stroke="#423232" stroke-width="0.248836" stroke-miterlimit="10" stroke-linecap="round" stroke-linejoin="round"/>
<path d="M16.5977 10.8888C16.5977 10.8888 16.1657 11.1528 15.6217 10.8408" stroke="#423232" stroke-width="0.248836" stroke-miterlimit="10" stroke-linecap="round" stroke-linejoin="round"/>
<path d="M14.846 14.2679C14.8543 14.4006 14.7547 14.6328 14.5723 14.7987C13.635 14.2264 13.212 14.525 13.212 14.525C12.8802 14.019 12.9548 13.3306 13.7594 13.8531C14.3234 14.2098 14.6635 14.2679 14.846 14.2679Z" fill="#423232"/>
<path d="M14.5722 14.7988C14.3731 14.973 14.0745 15.0809 13.6681 14.915C13.4773 14.8403 13.328 14.691 13.2119 14.5251C13.2119 14.5251 13.6349 14.2265 14.5722 14.7988Z" fill="#FE9DAB"/>
<path d="M15.0036 14.235C15.0036 14.235 14.6552 14.4257 13.7594 13.8534C12.6894 13.165 12.9051 14.6082 13.6599 14.9151C14.4479 15.2386 14.8543 14.5336 14.846 14.2681" stroke="#423232" stroke-width="0.248836" stroke-miterlimit="10" stroke-linecap="round" stroke-linejoin="round"/>
<path d="M13.2119 14.5251C13.2119 14.5251 13.6349 14.2265 14.5722 14.7988" stroke="#423232" stroke-width="0.248836" stroke-miterlimit="10" stroke-linecap="round" stroke-linejoin="round"/>
<path d="M18.6053 11.5214C18.2293 11.1774 18.1253 10.6734 18.0933 10.3374C18.3333 10.4974 18.6453 10.0094 18.6293 9.43344C18.6053 8.57744 18.3813 7.94544 18.1173 7.50544C18.3013 7.27344 18.4373 7.00144 18.5093 6.69744C18.8373 5.36944 17.7573 4.35344 16.1813 3.96944C15.2133 3.72944 13.4373 3.84944 11.3493 3.81744C10.9893 3.80944 10.6133 3.82544 10.2453 3.86544C9.79731 3.91344 9.35731 4.00944 8.94931 4.17744C8.28531 4.42544 7.67731 4.81744 7.21331 5.38544C6.39731 6.39344 6.16531 7.54544 6.12531 8.44143C6.08531 9.50543 5.82931 10.5534 5.32531 11.4974C4.78131 12.5134 4.44532 13.5934 4.98131 14.5214C4.99731 14.5454 5.01331 14.5694 5.02931 14.6014C4.77331 15.8654 6.19731 15.7534 6.47731 14.4734C6.42131 14.7134 6.38131 14.9214 6.35731 15.0654C6.16531 16.3214 7.07731 16.4814 7.53331 15.6094C7.58131 15.5214 7.70131 15.1614 7.82931 14.7054C7.82931 14.7854 7.83731 14.8654 7.84531 14.9374C7.86131 16.6894 9.10931 16.8414 9.03731 15.6574C9.00531 15.1294 9.09331 14.3934 9.22931 13.5934C6.95731 12.9134 7.30931 10.5134 8.32531 10.3854C9.49331 10.2334 9.74131 11.4414 9.74131 11.4414C9.82931 11.8174 9.95731 12.2654 10.1493 12.4814C10.4933 12.8574 11.0853 12.5934 10.7013 11.4094C10.6213 11.1614 10.5493 10.8814 10.5013 10.5854C10.8053 10.6654 11.0693 10.4974 10.9413 10.1614C10.8213 9.85743 10.7573 9.57744 10.7413 9.31344C10.7173 8.90544 10.8213 8.53744 10.9973 8.23344C11.1813 8.96144 11.9493 8.73744 11.9973 8.20944C12.0133 8.03344 12.0693 7.82544 12.1493 7.59344C12.3413 7.84144 12.6053 8.07344 12.9333 8.24144C13.5413 8.54543 13.9733 8.40144 14.0693 8.08944C14.4613 8.22544 14.8133 8.32944 15.0853 8.39344C15.9013 8.59344 16.7093 8.48944 17.3413 8.15344C17.3733 8.22544 17.3893 8.28944 17.3973 8.31344C17.4053 8.35344 17.4133 8.39344 17.4213 8.43344C17.4933 8.77744 17.5333 9.11344 17.5013 9.61744C17.5013 9.64144 17.5013 9.65743 17.4933 9.68143C17.4933 9.69743 17.4933 9.71343 17.4853 9.72943C17.4853 9.76943 17.4773 9.80143 17.4773 9.84143C17.4773 9.86543 17.4693 9.88143 17.4693 9.90543C17.4693 9.93743 17.4613 9.97744 17.4533 10.0174C17.4453 10.0494 17.4453 10.0814 17.4373 10.1134C17.4373 10.1374 17.4293 10.1694 17.4293 10.1934C17.4213 10.2414 17.4133 10.2894 17.4053 10.3454C17.4053 10.3534 17.4053 10.3694 17.3973 10.3774C17.3893 10.4414 17.3733 10.5054 17.3653 10.5774C17.3253 10.8014 17.2773 11.0414 17.2213 11.3214C16.8853 12.8734 17.4053 14.4414 16.3093 15.8974C16.2613 16.3294 16.6373 16.8734 17.1013 16.3054C17.4613 15.8654 17.2933 14.3934 17.2693 14.0974C17.3013 14.4094 17.7973 15.4014 18.2613 15.2574C18.5173 15.1774 18.6293 15.0414 18.5893 14.5694C18.5413 13.9054 18.0213 13.2494 17.9493 12.2814C18.4293 12.6894 19.1093 11.9774 18.6053 11.5214Z" fill="#423232"/>
<path d="M8.80905 11.7437C8.80905 11.7437 8.16905 11.6477 8.21705 12.5437C8.24105 12.9997 8.24105 13.2477 8.23305 13.3757C8.22505 13.4637 8.28105 13.5437 8.36105 13.5757C8.45705 13.6157 8.56105 13.5757 8.60905 13.4797C8.68105 13.3517 8.76105 13.1757 8.76105 13.0317C8.76105 12.7917 9.01705 12.5757 9.01705 12.5757C9.01705 12.5757 8.78505 12.3757 8.80905 11.7437Z" fill="white"/>
<path d="M10.7451 27.1679C10.6811 27.0959 8.1691 22.7999 8.5451 21.1839C8.8011 20.0719 8.4651 18.7919 8.1691 17.6639C8.0491 17.1999 7.9371 16.7679 7.8731 16.3839C7.7611 15.7199 7.8411 15.0879 8.1131 14.5039C8.4091 13.8479 8.3611 13.2799 8.3611 13.2719L8.5211 13.2559C8.5211 13.2799 8.5691 13.8799 8.2571 14.5679C8.0011 15.1199 7.9291 15.7279 8.0331 16.3599C8.0971 16.7359 8.2091 17.1679 8.3291 17.6319C8.6331 18.7759 8.9691 20.0799 8.7051 21.2319C8.3531 22.7679 10.8571 27.0639 10.8731 27.0799L10.7451 27.1679Z" fill="white"/>
<path d="M8.24112 13.008C8.24912 13.184 8.24112 13.304 8.24112 13.376C8.23312 13.464 8.28912 13.544 8.36912 13.576C8.46512 13.616 8.56912 13.576 8.61712 13.48C8.68912 13.352 8.76912 13.176 8.76912 13.032C8.76912 13.024 8.76912 13.008 8.76912 13C8.60112 13.064 8.40912 13.112 8.24112 13.008Z" fill="#E5E5E5"/>
<path d="M15.769 18.3277C15.713 18.6957 15.705 19.2797 15.689 19.9597C15.665 21.2717 14.889 26.3837 14.513 27.1917L14.369 27.1277C14.729 26.3437 15.505 21.2557 15.529 19.9597C15.545 19.2797 15.553 18.6877 15.609 18.3037C15.729 17.4957 15.641 16.8877 15.593 16.6317C15.617 16.6077 15.641 16.5917 15.665 16.5677C15.689 16.5517 15.705 16.5277 15.729 16.5117C15.777 16.7197 15.913 17.3837 15.769 18.3277Z" fill="white"/>
</g>
</svg>
