<svg width="24" height="24" viewBox="0 0 24 24" fill="none" xmlns="http://www.w3.org/2000/svg">
<path d="M12 24C5.36695 24 0 18.6251 0 12C0 5.36695 5.37491 0 12 0C18.633 0 24 5.37491 24 12C24.008 18.633 18.633 24 12 24Z" fill="#3A73AF"/>
<mask id="mask0_98_7150" style="mask-type:alpha" maskUnits="userSpaceOnUse" x="0" y="0" width="24" height="24">
<path d="M12 24C5.36695 24 0 18.6251 0 12C0 5.36695 5.37492 0 12 0C18.633 0 24 5.37492 24 12C24.008 18.633 18.633 24 12 24Z" fill="#F7C0B5"/>
</mask>
<g mask="url(#mask0_98_7150)">
<path d="M18.72 22.1043C18.664 22.1443 18.6 22.1843 18.544 22.2243C18.48 22.2643 18.424 22.3043 18.36 22.3363C18.304 22.3683 18.256 22.4003 18.2 22.4323C18.192 22.4403 18.184 22.4403 18.176 22.4483C17.992 22.5603 17.8 22.6643 17.608 22.7603C17.552 22.7923 17.488 22.8243 17.432 22.8483C17.432 22.8483 17.424 22.8563 17.416 22.8563C17.352 22.8883 17.288 22.9203 17.224 22.9523C17.096 23.0163 16.96 23.0723 16.832 23.1283C16.768 23.1603 16.696 23.1843 16.632 23.2083C16.568 23.2323 16.496 23.2643 16.432 23.2883C16.368 23.3123 16.296 23.3443 16.232 23.3683C16.232 23.3683 16.232 23.3683 16.224 23.3683C16.16 23.3923 16.088 23.4163 16.024 23.4403C15.88 23.4883 15.728 23.5363 15.584 23.5843C15.536 23.6003 15.48 23.6163 15.432 23.6323C15.28 23.6803 15.128 23.7203 14.976 23.7523C14.92 23.7683 14.864 23.7763 14.8 23.7923C14.656 23.8243 14.504 23.8563 14.36 23.8883C14.328 23.8963 14.304 23.8963 14.272 23.9043C14.224 23.9123 14.168 23.9203 14.12 23.9283C14.048 23.9363 13.984 23.9523 13.912 23.9603C13.88 23.9683 13.848 23.9683 13.816 23.9763C13.776 23.9843 13.728 23.9923 13.68 23.9923C13.552 24.0083 13.416 24.0243 13.288 24.0403C13.248 24.0483 13.2 24.0483 13.16 24.0563H13.152C13.096 24.0643 13.04 24.0643 12.984 24.0723C12.928 24.0803 12.872 24.0803 12.816 24.0803C12.784 24.0803 12.744 24.0883 12.712 24.0883C12.648 24.0883 12.592 24.0963 12.536 24.0963C12.456 24.0963 12.384 24.1043 12.304 24.1043C12.224 24.1043 12.152 24.1043 12.072 24.1043C12.016 24.1043 11.96 24.1043 11.904 24.1043C8.536 24.0563 5.496 22.6243 3.336 20.3523C3.336 20.3523 3.336 20.3443 3.328 20.3443C3.576 19.8563 4.496 18.9763 5.456 18.2483C6.672 17.3283 8.392 16.7603 8.392 16.7603C8.392 16.7603 9.52 16.5763 13.704 17.4483C16.896 18.1203 18.256 20.8483 18.72 22.1043Z" fill="#F7D3B5"/>
<path d="M14.5919 19.6643C14.4239 20.4883 13.3359 20.9763 11.5039 20.2403C9.25594 19.3283 8.39194 16.7603 8.39194 16.7603C8.27194 14.9203 7.99194 13.3443 7.99194 13.3443C10.5919 13.1203 13.6639 16.1603 13.6639 16.1603L14.0159 17.6643C14.0479 17.7923 14.1119 17.9043 14.2079 17.9843C14.3759 18.2723 14.7039 19.1363 14.5919 19.6643Z" fill="#F7D3B5"/>
<path d="M14.208 17.9925C12.68 17.9125 11.552 17.6885 10.344 15.5205C11.368 16.4245 12.576 16.7685 13.848 16.9285L14.016 17.6645C14.048 17.8005 14.112 17.9125 14.208 17.9925Z" fill="#EFBDA5"/>
<path d="M17.368 8.35257C17.512 9.02457 17.584 9.56857 17.192 11.3606C16.8 13.1526 17.552 14.9446 15.664 16.5846C14.392 17.6886 12.168 17.8966 10.392 16.6886C9.792 16.2806 9.24 15.7126 8.79201 14.9686C8.44001 14.3846 8.03201 13.8326 7.57601 13.3286C6.94401 12.6406 6.18401 11.2566 6.56001 8.80857C7.16801 4.82457 11.112 4.36857 13.44 4.80857C15.768 5.24857 16.976 6.57657 17.368 8.35257Z" fill="#F7D3B5"/>
<path d="M9.71201 11.4806C9.71201 11.4806 9.46401 10.2806 8.29601 10.4246C7.28801 10.5526 6.93601 12.9686 9.22401 13.6406" fill="#F7D3B5"/>
<path d="M9.15204 12.5445C9.15204 12.5445 8.86404 12.3605 8.89604 12.0405C8.94404 11.6645 8.89604 11.4325 8.72004 11.3605C8.28005 11.1765 8.19205 11.6885 8.20805 11.7525" stroke="#423232" stroke-width="0.248836" stroke-miterlimit="10" stroke-linecap="round" stroke-linejoin="round"/>
<path d="M15.256 13.3203C15.256 13.3203 15.56 13.3363 15.848 12.9923C16.008 12.8003 16.144 12.5603 16.056 12.4883C15.968 12.4083 14.52 12.6323 14.424 12.8243C14.328 13.0163 14.888 13.3203 15.256 13.3203Z" fill="#EFBDA5"/>
<path d="M15.496 10.6323C15.496 10.6323 15.512 11.3923 16 12.2403C16.216 12.6163 15.888 13.2323 15.176 13.3363" stroke="#423232" stroke-width="0.248836" stroke-miterlimit="10" stroke-linecap="round" stroke-linejoin="round"/>
<path opacity="0.42" d="M11.1599 13.7282C11.615 13.7282 11.9839 13.4237 11.9839 13.0482C11.9839 12.6726 11.615 12.3682 11.1599 12.3682C10.7049 12.3682 10.3359 12.6726 10.3359 13.0482C10.3359 13.4237 10.7049 13.7282 11.1599 13.7282Z" fill="#ED938A"/>
<path opacity="0.42" d="M17.064 12.3843C17.04 12.8323 17.048 13.2723 17.016 13.7123C16.664 13.6323 16.408 13.3683 16.408 13.0563C16.408 12.7203 16.688 12.4483 17.064 12.3843Z" fill="#ED938A"/>
<path d="M19.5283 20.6142C18.3923 19.1502 16.6323 18.5422 15.6643 18.1822C15.5843 17.7822 15.4323 17.3422 15.1923 16.9182C14.8243 17.1422 14.4003 17.3102 13.9603 17.3982L14.0243 17.6622C14.0563 17.7902 14.2163 18.3822 13.9683 19.1422C13.7603 19.7822 12.9203 20.0702 11.4963 19.4222C8.72033 18.1662 8.40033 16.7502 8.40033 16.7502C8.35233 15.9822 8.27233 15.2622 8.20033 14.6782C7.33633 14.8702 6.33633 15.2622 5.79233 16.0862C5.12034 17.0942 4.87234 18.1182 4.93634 18.9342C3.76834 19.6782 1.96034 20.8062 1.36834 22.8222C0.600337 25.4462 0.728337 27.0542 0.728337 27.0542H21.4003C21.3763 27.0622 21.0723 22.6062 19.5283 20.6142Z" fill="#F7A097"/>
<path d="M7.16833 17.9902C7.16833 17.9902 7.65633 19.8862 9.79233 21.1982" stroke="#423232" stroke-width="0.248836" stroke-miterlimit="10" stroke-linecap="round" stroke-linejoin="round"/>
<path d="M15.6564 18.1821C15.6564 18.1821 16.2244 20.6381 14.9844 21.7661" stroke="#423232" stroke-width="0.248836" stroke-miterlimit="10" stroke-linecap="round" stroke-linejoin="round"/>
<path d="M11.8003 21.3901C11.8003 21.3901 11.3843 22.6061 11.4963 23.4461" stroke="#423232" stroke-width="0.248836" stroke-miterlimit="10" stroke-linecap="round" stroke-linejoin="round"/>
<path d="M14.3523 21.3179C14.3523 21.3179 14.6643 21.9979 14.8883 23.0779" stroke="#423232" stroke-width="0.248836" stroke-miterlimit="10" stroke-linecap="round" stroke-linejoin="round"/>
<path d="M4.92029 18.9419C4.92029 18.9419 5.57629 21.6139 9.48029 22.3979" stroke="#423232" stroke-width="0.248836" stroke-miterlimit="10" stroke-linecap="round" stroke-linejoin="round"/>
<path d="M11.5684 23.6303L11.2164 23.5983C11.0884 23.5823 10.9924 23.4623 11.0164 23.3343L11.1364 22.7343C11.1684 22.5663 11.3284 22.4463 11.4964 22.4703C11.6644 22.4863 11.8004 22.6303 11.8004 22.8063L11.8084 23.4223C11.8084 23.5423 11.6964 23.6463 11.5684 23.6303Z" fill="white"/>
<path d="M15.2403 23.2618L14.9043 23.3818C14.7763 23.4298 14.6403 23.3498 14.6163 23.2218L14.4723 22.6298C14.4323 22.4618 14.5203 22.2938 14.6883 22.2298C14.8483 22.1738 15.0323 22.2458 15.1043 22.3978L15.3683 22.9498C15.4243 23.0698 15.3683 23.2138 15.2403 23.2618Z" fill="white"/>
<path d="M18.7683 23.0781C18.7683 23.0781 19.2163 25.5901 19.0403 27.0621" stroke="#544D4D" stroke-width="0.248836" stroke-miterlimit="10" stroke-linecap="round" stroke-linejoin="round"/>
<path d="M12.6266 11.4355C12.4346 11.4275 12.2906 11.2675 12.3066 11.0755L12.3146 10.8515C12.3226 10.6595 12.4826 10.5155 12.6746 10.5315C12.8666 10.5395 13.0106 10.6995 12.9946 10.8915L12.9866 11.1155C12.9786 11.2995 12.8186 11.4435 12.6266 11.4355Z" fill="#423232"/>
<path d="M15.9946 11.5559C15.8186 11.5479 15.6826 11.3959 15.6906 11.2199L15.6986 11.0119C15.7066 10.8359 15.8586 10.6999 16.0346 10.7079C16.2106 10.7159 16.3466 10.8679 16.3386 11.0439L16.3306 11.2519C16.3226 11.4279 16.1706 11.5639 15.9946 11.5559Z" fill="#423232"/>
<path d="M13.4027 10.9717C13.4027 10.9717 13.1947 10.6757 12.8347 10.6197C12.5387 10.5717 12.2107 10.7157 12.1627 10.8837" stroke="#423232" stroke-width="0.248836" stroke-miterlimit="10" stroke-linecap="round" stroke-linejoin="round"/>
<path d="M15.7627 11.0436C15.7627 11.0436 15.7627 10.7876 16.1307 10.7876C16.4347 10.7876 16.5627 11.0676 16.5627 11.0676" stroke="#423232" stroke-width="0.248836" stroke-miterlimit="10" stroke-linecap="round" stroke-linejoin="round"/>
<path d="M13.7307 9.68387C13.8987 9.73987 14.0667 9.58787 14.0347 9.40387C14.0187 9.30787 13.9787 9.21187 13.8987 9.13987C13.6587 8.92387 12.6667 8.73187 12.0667 9.01187C11.5387 9.26787 12.9627 9.42787 13.7307 9.68387Z" fill="#423232"/>
<path d="M16.1227 9.81156C15.9867 9.85956 15.8427 9.71556 15.8667 9.54756C15.8747 9.45956 15.9067 9.37156 15.9707 9.30756C16.1627 9.11556 16.8187 8.96356 17.2347 9.25956C17.5947 9.50756 16.7467 9.57956 16.1227 9.81156Z" fill="#423232"/>
<path d="M14.846 14.2679C14.8543 14.4006 14.7547 14.6328 14.5723 14.7987C13.635 14.2264 13.212 14.525 13.212 14.525C12.8802 14.019 12.9548 13.3306 13.7594 13.8531C14.3234 14.2098 14.6635 14.2679 14.846 14.2679Z" fill="#423232"/>
<path d="M14.5722 14.7988C14.3731 14.973 14.0745 15.0809 13.6681 14.915C13.4773 14.8403 13.328 14.691 13.2119 14.5251C13.2119 14.5251 13.6349 14.2265 14.5722 14.7988Z" fill="#FE9DAB"/>
<path d="M15.0036 14.235C15.0036 14.235 14.6552 14.4257 13.7594 13.8534C12.6894 13.165 12.9051 14.6082 13.6599 14.9151C14.4479 15.2386 14.8543 14.5336 14.846 14.2681" stroke="#423232" stroke-width="0.248836" stroke-miterlimit="10" stroke-linecap="round" stroke-linejoin="round"/>
<path d="M13.2119 14.5251C13.2119 14.5251 13.6349 14.2265 14.5722 14.7988" stroke="#423232" stroke-width="0.248836" stroke-miterlimit="10" stroke-linecap="round" stroke-linejoin="round"/>
<path d="M17.9854 6.421C17.4174 8.47699 15.7694 8.13299 14.2254 7.57299C12.1694 6.821 10.3614 7.429 10.3534 9.28499C10.3374 12.005 9.65738 11.181 9.58538 11.077C9.40938 10.741 9.03338 10.325 8.32138 10.413C7.38538 10.533 7.01738 12.597 8.76138 13.445C9.06538 14.989 8.23338 14.845 8.23338 14.845C7.95338 13.709 5.60138 11.293 5.59338 9.70099C5.59338 7.557 6.67338 6.949 6.67338 6.949C6.70538 5.453 8.26538 3.805 10.8894 3.861C13.5134 3.909 15.1214 3.837 15.6334 3.221C16.1454 2.589 18.5534 4.365 17.9854 6.421Z" fill="#423232"/>
<path d="M18.0493 8.8931C17.9693 9.4131 17.7453 9.8131 17.4333 10.1091C17.5533 9.2371 17.4893 8.8211 17.3853 8.3331C17.1613 7.3331 16.6813 6.4691 15.8813 5.8291C16.2813 5.7971 16.6893 5.8851 17.0573 6.1171C17.0573 6.1091 18.3773 6.6451 18.0493 8.8931Z" fill="#423232"/>
<path d="M8.80905 11.7437C8.80905 11.7437 8.16905 11.6477 8.21705 12.5437C8.24105 12.9997 8.24105 13.2477 8.23305 13.3757C8.22505 13.4637 8.28105 13.5437 8.36105 13.5757C8.45705 13.6157 8.56105 13.5757 8.60905 13.4797C8.68105 13.3517 8.76105 13.1757 8.76105 13.0317C8.76105 12.7917 9.01705 12.5757 9.01705 12.5757C9.01705 12.5757 8.78505 12.3757 8.80905 11.7437Z" fill="white"/>
<path d="M10.7451 27.1679C10.6811 27.0959 8.1691 22.7999 8.5451 21.1839C8.8011 20.0719 8.4651 18.7919 8.1691 17.6639C8.0491 17.1999 7.9371 16.7679 7.8731 16.3839C7.7611 15.7199 7.8411 15.0879 8.1131 14.5039C8.4091 13.8479 8.3611 13.2799 8.3611 13.2719L8.5211 13.2559C8.5211 13.2799 8.5691 13.8799 8.2571 14.5679C8.0011 15.1199 7.9291 15.7279 8.0331 16.3599C8.0971 16.7359 8.2091 17.1679 8.3291 17.6319C8.6331 18.7759 8.9691 20.0799 8.7051 21.2319C8.3531 22.7679 10.8571 27.0639 10.8731 27.0799L10.7451 27.1679Z" fill="white"/>
<path d="M8.24112 13.008C8.24912 13.184 8.24112 13.304 8.24112 13.376C8.23312 13.464 8.28912 13.544 8.36912 13.576C8.46512 13.616 8.56912 13.576 8.61712 13.48C8.68912 13.352 8.76912 13.176 8.76912 13.032C8.76912 13.024 8.76912 13.008 8.76912 13C8.60112 13.064 8.40912 13.112 8.24112 13.008Z" fill="#E5E5E5"/>
<path d="M15.769 18.3277C15.713 18.6957 15.705 19.2797 15.689 19.9597C15.665 21.2717 14.889 26.3837 14.513 27.1917L14.369 27.1277C14.729 26.3437 15.505 21.2557 15.529 19.9597C15.545 19.2797 15.553 18.6877 15.609 18.3037C15.729 17.4957 15.641 16.8877 15.593 16.6317C15.617 16.6077 15.641 16.5917 15.665 16.5677C15.689 16.5517 15.705 16.5277 15.729 16.5117C15.777 16.7197 15.913 17.3837 15.769 18.3277Z" fill="white"/>
</g>
</svg>
