<svg width="20" height="20" viewBox="0 0 20 20" fill="none" xmlns="http://www.w3.org/2000/svg">
<path opacity="0.2" fill-rule="evenodd" clip-rule="evenodd" d="M8.7499 1.6665C4.83788 1.6665 1.66656 4.83782 1.66656 8.74984C1.66656 12.6618 4.83788 15.8332 8.7499 15.8332C10.4056 15.8332 11.9287 15.2651 13.1348 14.3132L16.1784 17.3568C16.5038 17.6822 17.0315 17.6822 17.3569 17.3568C17.6823 17.0313 17.6823 16.5037 17.3569 16.1783L14.3133 13.1347C15.2651 11.9286 15.8332 10.4055 15.8332 8.74984C15.8332 4.83782 12.6619 1.6665 8.7499 1.6665ZM3.33323 8.74984C3.33323 5.7583 5.75836 3.33317 8.7499 3.33317C11.7415 3.33317 14.1666 5.7583 14.1666 8.74984C14.1666 11.7414 11.7415 14.1665 8.7499 14.1665C5.75836 14.1665 3.33323 11.7414 3.33323 8.74984Z" fill="white"/>
</svg>
