<svg width="14" height="14" viewBox="0 0 14 14" fill="none" xmlns="http://www.w3.org/2000/svg">
<path fill-rule="evenodd" clip-rule="evenodd" d="M10.9928 0.137647C12.4029 -0.454945 13.8175 0.971849 13.23 2.39407L9.17635 12.2063C8.38359 14.1252 5.5951 13.8009 5.25624 11.7503L4.75052 8.68988L1.71615 8.17981C-0.316974 7.83805 -0.638566 5.02562 1.26405 4.22606L10.9928 0.137647ZM11.9666 1.86315C12.0841 1.5787 11.8012 1.29334 11.5192 1.41186L1.79046 5.50027C1.15625 5.76679 1.26345 6.70427 1.94116 6.81819L4.97552 7.32826C5.55237 7.42523 6.00441 7.88114 6.10055 8.46294L6.60627 11.5233C6.71923 12.2069 7.64872 12.315 7.91298 11.6753L11.9666 1.86315Z" fill="#14F195"/>
</svg>
