<svg width="14" height="16" viewBox="0 0 14 16" fill="none" xmlns="http://www.w3.org/2000/svg">
<path fill-rule="evenodd" clip-rule="evenodd" d="M8.49776 15.15C10.4168 13.6891 14 10.4538 14 6.66346C14 3.23278 11.0078 0.45166 7.31677 0.45166C3.62573 0.45166 0.633545 3.23278 0.633545 6.66346C0.633545 10.4538 4.21677 13.6891 6.13578 15.15C6.83154 15.6796 7.802 15.6796 8.49776 15.15ZM7.31677 8.04386C8.54712 8.04386 9.54451 7.11682 9.54451 5.97326C9.54451 4.8297 8.54712 3.90266 7.31677 3.90266C6.08642 3.90266 5.08903 4.8297 5.08903 5.97326C5.08903 7.11682 6.08642 8.04386 7.31677 8.04386Z" fill="#14F195"/>
</svg>
