<svg width="20" height="17" viewBox="0 0 20 17" fill="none" xmlns="http://www.w3.org/2000/svg">
<path d="M18.8001 10.6643H14.603V14.6334C14.603 14.7134 14.603 14.7867 14.603 14.8633C14.603 14.93 14.603 14.9933 14.6004 15.06C14.5985 15.2029 14.5861 15.3454 14.5634 15.4865C14.5386 15.6267 14.4937 15.7625 14.4301 15.8898C14.3649 16.0169 14.2799 16.1328 14.1781 16.233C14.0759 16.3332 13.9591 16.4175 13.8319 16.483C13.7029 16.5457 13.566 16.5906 13.425 16.6163C13.2835 16.6385 13.1406 16.6507 12.9974 16.6529C12.9307 16.6529 12.8661 16.6563 12.8008 16.6563H7.40165C7.335 16.6563 7.27068 16.6529 7.20503 16.6529C7.06182 16.6507 6.91895 16.6385 6.77746 16.6163C6.63649 16.5906 6.4997 16.5457 6.37088 16.483C6.24359 16.4175 6.12687 16.3332 6.02463 16.233C5.9228 16.1328 5.83773 16.017 5.77269 15.8898C5.70908 15.7625 5.66418 15.6267 5.63938 15.4865C5.61646 15.3455 5.60398 15.2029 5.60206 15.06C5.60206 14.9933 5.59939 14.93 5.59939 14.8633C5.59939 14.7867 5.59939 14.7134 5.59939 14.6334V10.6643H1.33602C0.904788 10.6643 0.35158 9.7345 0.869463 9.21795C1.3097 8.78139 8.2288 1.88295 9.6768 0.446608C9.7832 0.315845 9.9335 0.228203 10.0997 0.199997H10.111C10.2548 0.207795 10.3883 0.276978 10.4776 0.389954C11.9256 1.8263 18.8684 8.78139 19.309 9.21795C19.8272 9.7345 19.3933 10.6643 18.8001 10.6643Z" fill="white"/>
</svg>
