<svg width="15" height="15" viewBox="0 0 15 15" fill="none" xmlns="http://www.w3.org/2000/svg">
<path fill-rule="evenodd" clip-rule="evenodd" d="M2 7.2118C2 4.32977 4.32635 2 7.18796 2C10.0496 2 12.3759 4.32977 12.3759 7.2118C12.3759 10.0938 10.0496 12.4236 7.18796 12.4236C4.32635 12.4236 2 10.0938 2 7.2118ZM7.18796 0C3.21453 0 0 3.23246 0 7.2118C0 11.1911 3.21453 14.4236 7.18796 14.4236C11.1614 14.4236 14.3759 11.1911 14.3759 7.2118C14.3759 3.23246 11.1614 0 7.18796 0ZM5.40987 8.35772C5.28045 7.82081 4.74029 7.49048 4.20338 7.61989C3.66648 7.74931 3.33614 8.28948 3.46556 8.82638C3.66364 9.64813 4.1489 10.3699 4.82704 10.8804C5.50419 11.3902 6.33676 11.6627 7.18792 11.6627C8.03908 11.6627 8.87165 11.3902 9.5488 10.8804C10.2269 10.3699 10.7122 9.64813 10.9103 8.82638C11.0397 8.28948 10.7094 7.74931 10.1725 7.61989C9.63555 7.49048 9.09538 7.82081 8.96597 8.35772C8.88054 8.71213 8.66708 9.04079 8.34584 9.28265C8.0236 9.52526 7.61543 9.66265 7.18792 9.66265C6.7604 9.66265 6.35223 9.52526 6.03 9.28265C5.70876 9.04079 5.4953 8.71213 5.40987 8.35772ZM5.12524 6.55753C5.34837 6.76845 5.66536 6.87417 5.99069 6.81535C6.53416 6.7171 6.89509 6.19688 6.79684 5.65341C6.72997 5.28356 6.5594 4.91602 6.27355 4.62907C5.9831 4.3375 5.58074 4.14111 5.12524 4.14111C4.66973 4.14111 4.26737 4.3375 3.97692 4.62907C3.69107 4.91602 3.5205 5.28356 3.45364 5.65341C3.35539 6.19688 3.71631 6.7171 4.25979 6.81535C4.58511 6.87417 4.9021 6.76845 5.12524 6.55753ZM10.1161 6.81535C9.79074 6.87417 9.47375 6.76845 9.25061 6.55753C9.02747 6.76845 8.71048 6.87417 8.38516 6.81535C7.84169 6.7171 7.48076 6.19688 7.57901 5.65341C7.64587 5.28356 7.81644 4.91602 8.10229 4.62907C8.39274 4.3375 8.79511 4.14111 9.25061 4.14111C9.70611 4.14111 10.1085 4.3375 10.3989 4.62907C10.6848 4.91602 10.8553 5.28356 10.9222 5.65341C11.0205 6.19688 10.6595 6.7171 10.1161 6.81535Z" fill="#14F195"/>
</svg>
