<svg width="3" height="10" viewBox="0 0 3 10" fill="none" xmlns="http://www.w3.org/2000/svg">
<path d="M1.5 2.22222C1.79667 2.22222 2.08668 2.15706 2.33335 2.03497C2.58003 1.91288 2.77229 1.73934 2.88582 1.53632C2.99935 1.33329 3.02906 1.10988 2.97118 0.894345C2.9133 0.67881 2.77044 0.480829 2.56066 0.325437C2.35088 0.170046 2.08361 0.0642226 1.79264 0.0213502C1.50166 -0.0215223 1.20006 0.000481423 0.925975 0.0845788C0.651886 0.168676 0.417618 0.31109 0.252796 0.493811C0.0879743 0.676533 8.08342e-07 0.891355 8.08342e-07 1.11111C8.08342e-07 1.4058 0.158036 1.68841 0.439341 1.89679C0.720645 2.10516 1.10218 2.22222 1.5 2.22222ZM1.5 7.77778C1.20333 7.77778 0.913319 7.84294 0.666645 7.96503C0.419972 8.08712 0.227713 8.26066 0.114181 8.46369C0.000649921 8.66671 -0.0290551 8.89012 0.0288227 9.10566C0.0867005 9.32119 0.229562 9.51917 0.439341 9.67456C0.649119 9.82995 0.916393 9.93578 1.20736 9.97865C1.49834 10.0215 1.79994 9.99952 2.07402 9.91542C2.34811 9.83132 2.58238 9.68891 2.7472 9.50619C2.91203 9.32347 3 9.10865 3 8.88889C3 8.5942 2.84196 8.31159 2.56066 8.10322C2.27936 7.89484 1.89782 7.77778 1.5 7.77778ZM1.5 3.88889C1.20333 3.88889 0.913319 3.95405 0.666645 4.07615C0.419972 4.19824 0.227713 4.37177 0.114181 4.5748C0.000649921 4.77783 -0.0290551 5.00123 0.0288227 5.21677C0.0867005 5.4323 0.229562 5.63028 0.439341 5.78567C0.649119 5.94107 0.916393 6.04689 1.20736 6.08976C1.49834 6.13263 1.79994 6.11063 2.07402 6.02653C2.34811 5.94244 2.58238 5.80002 2.7472 5.6173C2.91203 5.43458 3 5.21976 3 5C3 4.70532 2.84196 4.4227 2.56066 4.21433C2.27936 4.00595 1.89782 3.88889 1.5 3.88889Z" fill="#6B7C93"/>
</svg>
